<svg width="491" height="93" viewBox="0 0 491 93" fill="none" xmlns="http://www.w3.org/2000/svg">
<path d="M36.1882 71.8452C55.7602 71.8452 71.6265 55.979 71.6265 36.407C71.6265 16.835 55.7602 0.96875 36.1882 0.96875C16.6162 0.96875 0.75 16.835 0.75 36.407C0.75 55.979 16.6162 71.8452 36.1882 71.8452Z" fill="url(#paint0_linear_223_3544)"/>
<path d="M136.447 71.8458C97.4573 71.8458 65.7324 40.0402 65.7324 1.05005H90.4342C90.4342 26.4784 111.1 47.144 136.528 47.144V71.8458H136.447Z" fill="#F8C0A7"/>
<path d="M199.492 0.887695H213.457L202.721 39.8778H224.355L213.457 0.887695H227.746L247.685 71.6834H233.316L227.826 52.2287H199.411L194.083 71.6834H180.037L199.492 0.887695Z" fill="black"/>
<path d="M255.436 20.0197H268.19V26.8813C272.307 21.3113 278.604 18.5667 284.819 18.5667V31.7248C274.083 29.7067 268.19 34.3887 268.19 42.9456V71.6836H255.436V20.0197Z" fill="black"/>
<path d="M292.73 75.1551H307.502C309.198 78.3034 313.557 80.4022 319.046 80.4022C327.28 80.4022 332.689 75.3166 332.689 66.2754V65.5489C328.733 70.4731 322.759 73.137 315.494 73.137C303.063 73.137 291.115 63.6922 291.115 45.9327C291.115 28.0118 303.063 18.6477 315.494 18.6477C322.759 18.6477 328.733 21.3116 332.689 26.3166V20.02H345.443V66.2754C345.443 81.8553 333.98 92.3495 319.046 92.3495C306.695 92.3495 295.878 86.2952 292.73 75.1551ZM318.562 61.1897C326.876 61.1897 332.689 55.6197 332.689 45.9327C332.689 36.0843 326.796 30.595 318.562 30.595C310.328 30.595 304.435 36.165 304.435 45.9327C304.354 55.6197 310.328 61.1897 318.562 61.1897Z" fill="black"/>
<path d="M366.27 0C370.629 0 373.858 3.14827 373.858 7.58814C373.858 12.028 370.629 15.1763 366.27 15.1763C361.83 15.1763 358.682 12.028 358.682 7.58814C358.682 3.14827 361.83 0 366.27 0ZM359.973 20.0198H372.728V71.6837H359.973V20.0198Z" fill="black"/>
<path d="M386.211 0.887695H398.965V71.6834H386.211V0.887695Z" fill="black"/>
<path d="M412.527 0.887695H425.282V71.6834H412.527V0.887695Z" fill="black"/>
<path d="M436.422 45.9327C436.422 28.0118 448.369 18.6477 460.801 18.6477C468.147 18.6477 474.12 21.3116 477.995 26.478V20.1008H490.75V71.7647H477.995V65.4681C474.12 70.5538 468.147 73.137 460.801 73.137C448.369 73.137 436.422 63.6922 436.422 45.9327ZM463.868 61.1897C472.183 61.1897 477.995 55.6197 477.995 45.9327C477.995 36.0843 472.102 30.595 463.868 30.595C455.634 30.595 449.741 36.165 449.741 45.9327C449.661 55.6197 455.634 61.1897 463.868 61.1897Z" fill="black"/>
<defs>
<linearGradient id="paint0_linear_223_3544" x1="16.4181" y1="17.8406" x2="60.5726" y2="59.2918" gradientUnits="userSpaceOnUse">
<stop offset="0.0151877" stop-color="#FF675F"/>
<stop offset="1" stop-color="#F73D3D"/>
</linearGradient>
</defs>
</svg>
