<?xml version="1.0" encoding="utf-8"?>
<!-- Generator: Adobe Illustrator 27.5.0, SVG Export Plug-In . SVG Version: 6.00 Build 0)  -->
<svg version="1.1" id="katman_1" xmlns="http://www.w3.org/2000/svg" xmlns:xlink="http://www.w3.org/1999/xlink" x="0px" y="0px"
	 viewBox="0 0 841.89 595.28" style="enable-background:new 0 0 841.89 595.28;" xml:space="preserve">
<style type="text/css">
	.st0{fill:#081819;}
</style>
<path class="st0" d="M348.72,143.3h-86.53L158.65,299l100.92,155.7h87.49L239.38,299L348.72,143.3z"/>
<path class="st0" d="M331.48,304.13h44.01V454.7h69.33V246.31H331.48V304.13z"/>
<path class="st0" d="M597.91,143.3H484.15v58.27h43.97v194.86h-43.97v58.27h157.77v-58.27h-44V143.3z"/>
<path class="st0" d="M637.08,304.13h44.04V454.7h69.33V246.31H637.08V304.13z"/>
<path class="st0" d="M155.58,143.3h-68.8v311.4h68.8V143.3z"/>
<path class="st0" d="M406.74,140.12c-22.83,0-41.33,17.85-41.33,39.91c0,22.02,18.5,39.94,41.33,39.94
	c22.83,0,41.33-17.91,41.33-39.94C448.1,157.97,429.57,140.12,406.74,140.12z"/>
<path class="st0" d="M713.94,219.96c22.83,0,41.33-17.91,41.33-39.94s-18.5-39.91-41.33-39.91c-22.83,0-41.33,17.85-41.33,39.91
	C672.61,202.05,691.11,219.96,713.94,219.96z"/>
</svg>
