<?xml version="1.0" encoding="UTF-8"?>
<svg version="1.1" xmlns="http://www.w3.org/2000/svg" width="310" height="163">
<path d="M0 0 C102.3 0 204.6 0 310 0 C310 53.79 310 107.58 310 163 C207.7 163 105.4 163 0 163 C0 109.21 0 55.42 0 0 Z " fill="#0C0B12" transform="translate(0,0)"/>
<path d="M0 0 C102.3 0 204.6 0 310 0 C310 19.47 310 38.94 310 59 C306.04 59 302.08 59 298 59 C298 59.66 298 60.32 298 61 C199.66 61 101.32 61 0 61 C0 40.87 0 20.74 0 0 Z " fill="#0B0B11" transform="translate(0,0)"/>
<path d="M0 0 C80.85 0 161.7 0 245 0 C245.33 6.93 245.66 13.86 246 21 C277.68 21.495 277.68 21.495 310 22 C310 22.33 310 22.66 310 23 C207.7 23 105.4 23 0 23 C0 15.41 0 7.82 0 0 Z " fill="#080910" transform="translate(0,89)"/>
<path d="M0 0 C102.3 0 204.6 0 310 0 C310 16.83 310 33.66 310 51 C272.05 51 234.1 51 195 51 C195 42.75 195 34.5 195 26 C207.375 25.505 207.375 25.505 220 25 C220 24.67 220 24.34 220 24 C223.96 24 227.92 24 232 24 C232 17.07 232 10.14 232 3 C155.44 3 78.88 3 0 3 C0 2.01 0 1.02 0 0 Z M221 29 C221.33 29.66 221.66 30.32 222 31 C225.3 30.67 228.6 30.34 232 30 C232 29.67 232 29.34 232 29 C228.37 29 224.74 29 221 29 Z " fill="#362723" transform="translate(0,112)"/>
<path d="M0 0 C53.79 0 107.58 0 163 0 C163 2.31 163 4.62 163 7 C160.36 7 157.72 7 155 7 C156.18424326 8.41577477 156.18424326 8.41577477 159.5625 8.0625 C161.2640625 8.0315625 161.2640625 8.0315625 163 8 C163 8.66 163 9.32 163 10 C171.01843723 10.12795379 179.04035349 10.09462032 187 9 C187.33 8.67 187.66 8.34 188 8 C189.66617115 7.95936168 191.33388095 7.957279 193 8 C193 9.65 193 11.3 193 13 C191.02 13 189.04 13 187 13 C187 12.34 187 11.68 187 11 C184.69 11 182.38 11 180 11 C180 11.66 180 12.32 180 13 C174.72 13 169.44 13 164 13 C163.67 13.66 163.34 14.32 163 15 C161.35 15 159.7 15 158 15 C158 14.67 158 14.34 158 14 C156.35 14 154.7 14 153 14 C156.4019487 16.09350689 159.05272412 16.17942163 163 16 C163 18.97 163 21.94 163 25 C149.3667426 26.33257403 149.3667426 26.33257403 143 25 C142.67 24.01 142.34 23.02 142 22 C141.34 22 140.68 22 140 22 C140 22.33 140 22.66 140 23 C137.03 23 134.06 23 131 23 C131 23.66 131 24.32 131 25 C123.66666667 25 116.33333333 25 109 25 C109.99 25.99 109.99 25.99 111 27 C109.35 27 107.7 27 106 27 C106 26.34 106 25.68 106 25 C104.02 25.33 102.04 25.66 100 26 C100 26.33 100 26.66 100 27 C67 27 34 27 0 27 C0 18.09 0 9.18 0 0 Z M185 13 C187.64 13.33 190.28 13.66 193 14 C193 14.33 193 14.66 193 15 C190.69 15 188.38 15 186 15 C185.67 14.34 185.34 13.68 185 13 Z M177.5 13.875 C180 14 180 14 181 15 C182.84891946 15.23363881 184.70488031 15.41303635 186.5625 15.5625 C187.57441406 15.64628906 188.58632812 15.73007813 189.62890625 15.81640625 C190.80259766 15.90728516 190.80259766 15.90728516 192 16 C192 16.99 192 17.98 192 19 C186.39 19 180.78 19 175 19 C174.67 17.68 174.34 16.36 174 15 C175 14 175 14 177.5 13.875 Z M176 20 C176 20.33 176 20.66 176 21 C172.04 21 168.08 21 164 21 C164 20.67 164 20.34 164 20 C165.43640171 19.80426392 166.87419504 19.61872184 168.3125 19.4375 C169.11300781 19.33308594 169.91351563 19.22867187 170.73828125 19.12109375 C173 19 173 19 176 20 Z " fill="#181316" transform="translate(0,0)"/>
<path d="M0 0 C43.56 0 87.12 0 132 0 C132 9.57 132 19.14 132 29 C40.26 29 -51.48 29 -146 29 C-146 28.67 -146 28.34 -146 28 C-83.63 27.67 -21.26 27.34 43 27 C43 26.34 43 25.68 43 25 C41.906875 25.185625 40.81375 25.37125 39.6875 25.5625 C34.42361261 26.18178087 29.15342442 26.38968748 24 25 C21.85985894 23.10700054 21.19008135 21.6635154 20 19 C20.33 20.32 20.66 21.64 21 23 C18.03 23 15.06 23 12 23 C12 23.66 12 24.32 12 25 C10.39815374 25.1352403 8.79303374 25.23210847 7.1875 25.3125 C6.29417969 25.37050781 5.40085938 25.42851562 4.48046875 25.48828125 C3.66191406 25.32714844 2.84335938 25.16601562 2 25 C1.01 23.35 0.02 21.7 -1 20 C3.95 20 8.9 20 14 20 C14.33 19.34 14.66 18.68 15 18 C19.39734576 16.13406397 23.1295203 15.77815348 27.875 15.875 C29.60363281 15.90207031 29.60363281 15.90207031 31.3671875 15.9296875 C32.23601562 15.95289063 33.10484375 15.97609375 34 16 C31.85420251 15.83287252 29.70836101 15.66631 27.5625 15.5 C25.77005859 15.36078125 25.77005859 15.36078125 23.94140625 15.21875 C21.97251499 15.06058137 21.97251499 15.06058137 20 15 C18.66431979 14.67619874 17.33076989 14.34342449 16 14 C16 13.34 16 12.68 16 12 C18.475 11.01 18.475 11.01 21 10 C20.67 8.35 20.34 6.7 20 5 C20 5.66 20 6.32 20 7 C19.360625 6.814375 18.72125 6.62875 18.0625 6.4375 C17.381875 6.293125 16.70125 6.14875 16 6 C15.67 6.33 15.34 6.66 15 7 C12.32941149 7.14115161 9.67567762 7.04247107 7 7 C7 6.34 7 5.68 7 5 C6.21625 4.731875 5.4325 4.46375 4.625 4.1875 C2 3 2 3 0 0 Z M34 19 C33.67 19.99 33.34 20.98 33 22 C36.1964086 23.06546953 38.65747276 23.07427838 42 23 C42.33 23.66 42.66 24.32 43 25 C44.98 24.67 46.96 24.34 49 24 C48.67 22.35 48.34 20.7 48 19 C43.38 19 38.76 19 34 19 Z M9 9 C5.04 9 1.08 9 -3 9 C-3 8.67 -3 8.34 -3 8 C-1.56465159 7.7773254 -0.12654475 7.57238094 1.3125 7.375 C2.51326172 7.20097656 2.51326172 7.20097656 3.73828125 7.0234375 C6 7 6 7 9 9 Z " fill="#1E1B20" transform="translate(178,0)"/>
<path d="M0 0 C102.3 0 204.6 0 310 0 C310 8.91 310 17.82 310 27 C301.67270649 27.02255403 293.34543656 27.04091682 285.01812077 27.05181217 C281.15179882 27.05704026 277.28549879 27.06413654 273.41918945 27.07543945 C269.69096599 27.086271 265.96276366 27.0922774 262.23452568 27.09487724 C260.80910344 27.09673101 259.38368241 27.10035071 257.95826912 27.10573006 C255.96836592 27.11294393 253.97844166 27.11340808 251.98852539 27.11352539 C250.85379288 27.115746 249.71906036 27.11796661 248.54994202 27.12025452 C246 27 246 27 245 26 C245 19.07 245 12.14 245 5 C164.15 5 83.3 5 0 5 C0 3.35 0 1.7 0 0 Z " fill="#38252A" transform="translate(0,84)"/>
<path d="M0 0 C4.62 0 9.24 0 14 0 C14 7.92 14 15.84 14 24 C-23.95 24 -61.9 24 -101 24 C-101 17.73 -101 11.46 -101 5 C-98.39351562 4.90912109 -98.39351562 4.90912109 -95.734375 4.81640625 C-93.40624467 4.73191765 -91.07811996 4.64727393 -88.75 4.5625 C-87.61046875 4.52318359 -86.4709375 4.48386719 -85.296875 4.44335938 C-84.1625 4.40146484 -83.028125 4.35957031 -81.859375 4.31640625 C-80.31975098 4.26141968 -80.31975098 4.26141968 -78.74902344 4.20532227 C-75.64799449 4.03548863 -72.58306487 3.77625305 -69.4921875 3.48632812 C-62.41184412 2.8834472 -55.36758136 2.87402191 -48.265625 2.90234375 C-46.89272107 2.90421452 -45.51981646 2.9056353 -44.14691162 2.90663147 C-40.57631507 2.91040487 -37.00576079 2.92018931 -33.43518066 2.93133545 C-29.77450126 2.94166249 -26.11381485 2.946153 -22.453125 2.95117188 C-15.3020663 2.96181758 -8.15103594 2.97882974 -1 3 C-0.67 2.01 -0.34 1.02 0 0 Z " fill="#3A272E" transform="translate(296,139)"/>
<path d="M0 0 C4.29 0 8.58 0 13 0 C13 2.31 13 4.62 13 7 C10.36 7 7.72 7 5 7 C6.18424326 8.41577477 6.18424326 8.41577477 9.5625 8.0625 C10.696875 8.041875 11.83125 8.02125 13 8 C13 8.66 13 9.32 13 10 C21.01843723 10.12795379 29.04035349 10.09462032 37 9 C37.33 8.67 37.66 8.34 38 8 C39.66617115 7.95936168 41.33388095 7.957279 43 8 C43 9.65 43 11.3 43 13 C41.02 13 39.04 13 37 13 C37 12.34 37 11.68 37 11 C34.69 11 32.38 11 30 11 C30 11.66 30 12.32 30 13 C24.72 13 19.44 13 14 13 C13.67 13.66 13.34 14.32 13 15 C11.35 15 9.7 15 8 15 C8 14.67 8 14.34 8 14 C6.35 14 4.7 14 3 14 C6.4019487 16.09350689 9.05272412 16.17942163 13 16 C13 18.97 13 21.94 13 25 C-0.6332574 26.33257403 -0.6332574 26.33257403 -7 25 C-7.495 23.515 -7.495 23.515 -8 22 C-8.66 22 -9.32 22 -10 22 C-10 22.33 -10 22.66 -10 23 C-12.97 23 -15.94 23 -19 23 C-19 23.66 -19 24.32 -19 25 C-26.33333333 25 -33.66666667 25 -41 25 C-40.34 25.66 -39.68 26.32 -39 27 C-40.65 27 -42.3 27 -44 27 C-44 26.34 -44 25.68 -44 25 C-45.65 25 -47.3 25 -49 25 C-49 24.67 -49 24.34 -49 24 C-55.93 23.67 -62.86 23.34 -70 23 C-70 20.03 -70 17.06 -70 14 C-67.27123692 13.66304138 -64.54206837 13.33031571 -61.8125 13 C-61.04357422 12.90460937 -60.27464844 12.80921875 -59.48242188 12.7109375 C-55.63071189 12.24807106 -51.88829149 11.87532532 -48 12 C-47.67 12.66 -47.34 13.32 -47 14 C-38.75 14 -30.5 14 -22 14 C-22 13.34 -22 12.68 -22 12 C-24.475 11.505 -24.475 11.505 -27 11 C-27 11.66 -27 12.32 -27 13 C-31.95 13 -36.9 13 -42 13 C-42 12.67 -42 12.34 -42 12 C-42.71027344 11.95101563 -43.42054687 11.90203125 -44.15234375 11.8515625 C-45.07144531 11.77679688 -45.99054688 11.70203125 -46.9375 11.625 C-47.85402344 11.55539062 -48.77054688 11.48578125 -49.71484375 11.4140625 C-50.84599609 11.20910156 -50.84599609 11.20910156 -52 11 C-52.33 10.34 -52.66 9.68 -53 9 C-52 6 -52 6 -49 4 C-45.86328125 3.8046875 -45.86328125 3.8046875 -42.3125 3.875 C-41.13300781 3.89304688 -39.95351562 3.91109375 -38.73828125 3.9296875 C-37.38283203 3.96449219 -37.38283203 3.96449219 -36 4 C-36 4.66 -36 5.32 -36 6 C-28.08 5.67 -20.16 5.34 -12 5 C-12 4.67 -12 4.34 -12 4 C-6.06 3.505 -6.06 3.505 0 3 C0 2.01 0 1.02 0 0 Z M35 13 C37.64 13.33 40.28 13.66 43 14 C43 14.33 43 14.66 43 15 C40.69 15 38.38 15 36 15 C35.67 14.34 35.34 13.68 35 13 Z M27.5 13.875 C30 14 30 14 31 15 C32.84891946 15.23363881 34.70488031 15.41303635 36.5625 15.5625 C37.57441406 15.64628906 38.58632812 15.73007813 39.62890625 15.81640625 C40.80259766 15.90728516 40.80259766 15.90728516 42 16 C42 16.99 42 17.98 42 19 C36.39 19 30.78 19 25 19 C24.67 17.68 24.34 16.36 24 15 C25 14 25 14 27.5 13.875 Z M26 20 C26 20.33 26 20.66 26 21 C22.04 21 18.08 21 14 21 C14 20.67 14 20.34 14 20 C15.43640171 19.80426392 16.87419504 19.61872184 18.3125 19.4375 C19.11300781 19.33308594 19.91351563 19.22867187 20.73828125 19.12109375 C23 19 23 19 26 20 Z " fill="#363638" transform="translate(150,0)"/>
<path d="M0 0 C26.73 0 53.46 0 81 0 C81 1.65 81 3.3 81 5 C70.77 5 60.54 5 50 5 C50 5.66 50 6.32 50 7 C53.465 6.505 53.465 6.505 57 6 C57 6.99 57 7.98 57 9 C54.69 9 52.38 9 50 9 C50 10.65 50 12.3 50 14 C50.66 14.33 51.32 14.66 52 15 C52.33 14.01 52.66 13.02 53 12 C57.29 12 61.58 12 66 12 C61.71 11.67 57.42 11.34 53 11 C53 10.67 53 10.34 53 10 C53.85464844 9.93941406 54.70929688 9.87882813 55.58984375 9.81640625 C56.69457031 9.73261719 57.79929688 9.64882812 58.9375 9.5625 C60.03964844 9.48128906 61.14179688 9.40007813 62.27734375 9.31640625 C64.91109903 9.29581916 64.91109903 9.29581916 66 8 C68.07262076 7.91232888 70.14820294 7.89304127 72.22265625 7.90234375 C73.48271484 7.90556641 74.74277344 7.90878906 76.04101562 7.91210938 C77.38151109 7.92046597 78.72200588 7.92893093 80.0625 7.9375 C81.40689942 7.9425134 82.7513006 7.94707658 84.09570312 7.95117188 C87.39717941 7.96300512 90.69856803 7.97949029 94 8 C94 8.99 94 9.98 94 11 C89.71 11 85.42 11 81 11 C82.03471457 12.26390712 82.03471457 12.26390712 84.29296875 12.0625 C85.24816406 12.041875 86.20335937 12.02125 87.1875 12 C91.25263946 11.9576548 95.0079602 12.13685626 99 13 C99 14.32 99 15.64 99 17 C96.69 17 94.38 17 92 17 C92 16.34 92 15.68 92 15 C91.34 15 90.68 15 90 15 C90 15.66 90 16.32 90 17 C86.37 17.33 82.74 17.66 79 18 C79 18.33 79 18.66 79 19 C70.42 19 61.84 19 53 19 C53 19.66 53 20.32 53 21 C53.66 20.67 54.32 20.34 55 20 C56.81341842 19.91528636 58.62994161 19.89278917 60.4453125 19.90234375 C61.52167969 19.90556641 62.59804687 19.90878906 63.70703125 19.91210938 C64.83496094 19.92048828 65.96289062 19.92886719 67.125 19.9375 C68.82849609 19.94426758 68.82849609 19.94426758 70.56640625 19.95117188 C73.37765638 19.96298385 76.1888023 19.97945493 79 20 C79 20.33 79 20.66 79 21 C74.38 21 69.76 21 65 21 C65 21.66 65 22.32 65 23 C60.05 23 55.1 23 50 23 C50 23.66 50 24.32 50 25 C48.35 25 46.7 25 45 25 C45 24.01 45 23.02 45 22 C41.7 21.67 38.4 21.34 35 21 C35.98267859 22.20561184 35.98267859 22.20561184 37.84765625 22.09765625 C39.8984375 22.06510417 41.94921875 22.03255208 44 22 C43.505 23.485 43.505 23.485 43 25 C36.68585599 26.07221313 30.26000678 26.68809172 24 25 C21.85985894 23.10700054 21.19008135 21.6635154 20 19 C20.33 20.32 20.66 21.64 21 23 C18.03 23 15.06 23 12 23 C12 23.66 12 24.32 12 25 C10.39815374 25.1352403 8.79303374 25.23210847 7.1875 25.3125 C6.29417969 25.37050781 5.40085938 25.42851562 4.48046875 25.48828125 C3.66191406 25.32714844 2.84335938 25.16601562 2 25 C1.01 23.35 0.02 21.7 -1 20 C3.95 20 8.9 20 14 20 C14.33 19.34 14.66 18.68 15 18 C19.39734576 16.13406397 23.1295203 15.77815348 27.875 15.875 C29.02742188 15.89304687 30.17984375 15.91109375 31.3671875 15.9296875 C32.23601562 15.95289063 33.10484375 15.97609375 34 16 C31.85420251 15.83287252 29.70836101 15.66631 27.5625 15.5 C26.36753906 15.4071875 25.17257813 15.314375 23.94140625 15.21875 C21.97251499 15.06058137 21.97251499 15.06058137 20 15 C18.66431979 14.67619874 17.33076989 14.34342449 16 14 C16 13.34 16 12.68 16 12 C17.65 11.34 19.3 10.68 21 10 C20.67 8.35 20.34 6.7 20 5 C20 5.66 20 6.32 20 7 C19.360625 6.814375 18.72125 6.62875 18.0625 6.4375 C17.0415625 6.2209375 17.0415625 6.2209375 16 6 C15.67 6.33 15.34 6.66 15 7 C12.32941149 7.14115161 9.67567762 7.04247107 7 7 C7 6.34 7 5.68 7 5 C6.21625 4.731875 5.4325 4.46375 4.625 4.1875 C2 3 2 3 0 0 Z M38 5 C37.34 7.31 36.68 9.62 36 12 C39.48476459 13.1615882 40.67248371 12.77669581 44.125 11.75 C45.01445312 11.49734375 45.90390625 11.2446875 46.8203125 10.984375 C47.53960937 10.65953125 48.25890625 10.3346875 49 10 C49.33 9.01 49.66 8.02 50 7 C49.67 6.34 49.34 5.68 49 5 C47.35 5 45.7 5 44 5 C44 5.66 44 6.32 44 7 C43.34 6.34 42.68 5.68 42 5 C40.68 5 39.36 5 38 5 Z M43 15 C43 15.33 43 15.66 43 16 C45.31 16 47.62 16 50 16 C50 15.67 50 15.34 50 15 C47.69 15 45.38 15 43 15 Z M9 9 C5.04 9 1.08 9 -3 9 C-3 8.67 -3 8.34 -3 8 C-1.56465159 7.7773254 -0.12654475 7.57238094 1.3125 7.375 C2.51326172 7.20097656 2.51326172 7.20097656 3.73828125 7.0234375 C6 7 6 7 9 9 Z " fill="#65666A" transform="translate(178,0)"/>
<path d="M0 0 C0 0.99 0 1.98 0 3 C-1.65 3.33 -3.3 3.66 -5 4 C-5.33 4.99 -5.66 5.98 -6 7 C-5.01 7.66 -4.02 8.32 -3 9 C-19.92166716 10.68016553 -19.92166716 10.68016553 -27 10 C-27.66 9.34 -28.32 8.68 -29 8 C-32.08347826 7.83318891 -32.08347826 7.83318891 -35 8 C-35 7.34 -35 6.68 -35 6 C-33.02 5.67 -31.04 5.34 -29 5 C-29 3.35 -29 1.7 -29 0 C-21.74214646 -3.62892677 -7.81793552 -0.81527819 0 0 Z M3 4 C6 5 6 5 8 6 C8 5.34 8 4.68 8 4 C11.96 4 15.92 4 20 4 C20 5.65 20 7.3 20 9 C18.86111328 9.05607422 18.86111328 9.05607422 17.69921875 9.11328125 C16.20841797 9.21189453 16.20841797 9.21189453 14.6875 9.3125 C13.70136719 9.37050781 12.71523437 9.42851562 11.69921875 9.48828125 C8.75615543 10.04622813 7.81817001 10.68540132 6 13 C6.99 13.495 6.99 13.495 8 14 C8 13.34 8 12.68 8 12 C11.96 12 15.92 12 20 12 C20 12.33 20 12.66 20 13 C21.98 13.33 23.96 13.66 26 14 C21.52285796 16.82708969 17.09950087 16.01484624 11.99609375 15.77734375 C9.00430101 15.7012312 9.00430101 15.7012312 7.2890625 17.47265625 C6.65097656 18.22869141 6.65097656 18.22869141 6 19 C4.989375 19.165 3.97875 19.33 2.9375 19.5 C1.968125 19.665 0.99875 19.83 0 20 C-0.99 21.485 -0.99 21.485 -2 23 C-1.34 23.33 -0.68 23.66 0 24 C0 23.34 0 22.68 0 22 C2.64 21.67 5.28 21.34 8 21 C8 20.01 8 19.02 8 18 C11.3 18 14.6 18 18 18 C18 19.65 18 21.3 18 23 C22.39436211 23.85743651 26.52572076 24.08948558 31 24 C31 24.66 31 25.32 31 26 C35.62 26 40.24 26 45 26 C45 26.33 45 26.66 45 27 C-32.55 27 -110.1 27 -190 27 C-190 26.67 -190 26.34 -190 26 C-140.995 25.505 -140.995 25.505 -91 25 C-91 24.67 -91 24.34 -91 24 C-88.66705225 23.95758277 -86.33297433 23.95907063 -84 24 C-83.67 24.33 -83.34 24.66 -83 25 C-82.505 23.515 -82.505 23.515 -82 22 C-80.02 22 -78.04 22 -76 22 C-76 22.33 -76 22.66 -76 23 C-70.39 23.33 -64.78 23.66 -59 24 C-59 23.34 -59 22.68 -59 22 C-55.92382812 21.70703125 -55.92382812 21.70703125 -52.84765625 21.4140625 C-52.23792969 21.27742188 -51.62820312 21.14078125 -51 21 C-50.67 20.34 -50.34 19.68 -50 19 C-44.06 19.495 -44.06 19.495 -38 20 C-38.33 21.32 -38.66 22.64 -39 24 C-38.67 23.34 -38.34 22.68 -38 22 C-35.93359375 21.5859375 -35.93359375 21.5859375 -33.4375 21.375 C-32.61121094 21.30023437 -31.78492188 21.22546875 -30.93359375 21.1484375 C-29.97646484 21.07496094 -29.97646484 21.07496094 -29 21 C-29 19.35 -29 17.7 -29 16 C-32.96 15.67 -36.92 15.34 -41 15 C-38 12 -38 12 -35.5546875 11.70703125 C-34.22824219 11.75923828 -34.22824219 11.75923828 -32.875 11.8125 C-31.54082031 11.85310547 -31.54082031 11.85310547 -30.1796875 11.89453125 C-29.10074219 11.94673828 -29.10074219 11.94673828 -28 12 C-27.67 12 -27.34 12 -27 12 C-26.67 11.67 -26.34 11.34 -26 11 C-20.60118412 10.65431311 -15.30017571 10.88417353 -10 12 C-10 11.34 -10 10.68 -10 10 C-7.69 10 -5.38 10 -3 10 C-3 10.66 -3 11.32 -3 12 C-1.68 11.34 -0.36 10.68 1 10 C1 9.34 1 8.68 1 8 C-0.98 7.67 -2.96 7.34 -5 7 C-5 6.67 -5 6.34 -5 6 C-2.36 6 0.28 6 3 6 C3 5.34 3 4.68 3 4 Z M-5 12 C-4.67 12.66 -4.34 13.32 -4 14 C-1.69 14 0.62 14 3 14 C3 13.67 3 13.34 3 13 C0.36 12.67 -2.28 12.34 -5 12 Z M-15 13 C-15.33 13.99 -15.66 14.98 -16 16 C-15.67 16.66 -15.34 17.32 -15 18 C-9.39 18 -3.78 18 2 18 C2 17.01 2 16.02 2 15 C0.82630859 14.90912109 0.82630859 14.90912109 -0.37109375 14.81640625 C-1.38300781 14.73261719 -2.39492187 14.64882812 -3.4375 14.5625 C-4.95150391 14.44068359 -4.95150391 14.44068359 -6.49609375 14.31640625 C-9 14 -9 14 -10 13 C-11.66617115 12.95936168 -13.33388095 12.957279 -15 13 Z M-21.625 18.5 C-22.85089844 18.63921875 -22.85089844 18.63921875 -24.1015625 18.78125 C-24.72804687 18.8534375 -25.35453125 18.925625 -26 19 C-26 19.33 -26 19.66 -26 20 C-22.04 20 -18.08 20 -14 20 C-14.33 19.34 -14.66 18.68 -15 18 C-17.24374952 18 -19.39568543 18.24522119 -21.625 18.5 Z M-37 8 C-35 9 -35 9 -35 9 Z M-29 10 C-27 11 -27 11 -27 11 Z M22 18 C26.62 18 31.24 18 36 18 C36.33 19.65 36.66 21.3 37 23 C35.02 23.33 33.04 23.66 31 24 C30.67 23.34 30.34 22.68 30 22 C28.329375 22.061875 28.329375 22.061875 26.625 22.125 C23 22 23 22 21 20 C21.33 19.34 21.66 18.68 22 18 Z " fill="#020205" transform="translate(190,1)"/>
<path d="M0 0 C102.3 0 204.6 0 310 0 C310 2.31 310 4.62 310 7 C297.46 7 284.92 7 272 7 C272 6.01 272 5.02 272 4 C182.24 3.67 92.48 3.34 0 3 C0 2.01 0 1.02 0 0 Z " fill="#221A25" transform="translate(0,84)"/>
<path d="M0 0 C10.00499195 -0.0462752 20.00995858 -0.08184462 30.01503563 -0.10362434 C34.66045274 -0.11407582 39.30579681 -0.12825979 43.95117188 -0.15087891 C48.43153225 -0.1725588 52.91182222 -0.18455834 57.39223099 -0.18975449 C59.10431655 -0.19345899 60.81639812 -0.20069266 62.52845383 -0.21146011 C64.92058486 -0.22591068 67.31242242 -0.22798067 69.70458984 -0.22705078 C70.41740616 -0.23424133 71.13022247 -0.24143188 71.86463928 -0.24884033 C76.77189568 -0.22810432 76.77189568 -0.22810432 79 2 C79 1.34 79 0.68 79 0 C83.95 0 88.9 0 94 0 C94.99 2.475 94.99 2.475 96 5 C99.63 5.33 103.26 5.66 107 6 C107 6.33 107 6.66 107 7 C104.69 7.66 102.38 8.32 100 9 C100 9.33 100 9.66 100 10 C67 10 34 10 0 10 C0 6.7 0 3.4 0 0 Z " fill="#0A0709" transform="translate(0,17)"/>
<path d="M0 0 C4.62 0 9.24 0 14 0 C14 7.92 14 15.84 14 24 C-11.41 24 -36.82 24 -63 24 C-63 23.67 -63 23.34 -63 23 C-42.21 23 -21.42 23 0 23 C0 17.06 0 11.12 0 5 C-2.14628906 5.0721875 -4.29257812 5.144375 -6.50390625 5.21875 C-29.34155363 5.95419602 -52.15179095 6.12050743 -75 6 C-75 6.66 -75 7.32 -75 8 C-83.58 8 -92.16 8 -101 8 C-101 7.01 -101 6.02 -101 5 C-100.27522461 4.97494385 -99.55044922 4.9498877 -98.80371094 4.92407227 C-95.45236255 4.80651383 -92.10118854 4.68452697 -88.75 4.5625 C-87.61046875 4.52318359 -86.4709375 4.48386719 -85.296875 4.44335938 C-84.1625 4.40146484 -83.028125 4.35957031 -81.859375 4.31640625 C-80.31975098 4.26141968 -80.31975098 4.26141968 -78.74902344 4.20532227 C-75.64799449 4.03548863 -72.58306487 3.77625305 -69.4921875 3.48632812 C-62.41184412 2.8834472 -55.36758136 2.87402191 -48.265625 2.90234375 C-46.89272107 2.90421452 -45.51981646 2.9056353 -44.14691162 2.90663147 C-40.57631507 2.91040487 -37.00576079 2.92018931 -33.43518066 2.93133545 C-29.77450126 2.94166249 -26.11381485 2.946153 -22.453125 2.95117188 C-15.3020663 2.96181758 -8.15103594 2.97882974 -1 3 C-0.67 2.01 -0.34 1.02 0 0 Z " fill="#5F3769" transform="translate(296,139)"/>
<path d="M0 0 C26.73 0 53.46 0 81 0 C81 1.65 81 3.3 81 5 C70.77 5 60.54 5 50 5 C50 5.66 50 6.32 50 7 C46 7 42 7 38 7 C38 8.98 38 10.96 38 13 C34.4188802 15.24593686 31.47989175 15.20900118 27.3125 15.125 C26.15363281 15.10695313 24.99476563 15.08890625 23.80078125 15.0703125 C22.41439453 15.03550781 22.41439453 15.03550781 21 15 C20.67 15 20.34 15 20 15 C18.66431979 14.67619874 17.33076989 14.34342449 16 14 C16 13.34 16 12.68 16 12 C17.65 11.34 19.3 10.68 21 10 C20.67 8.35 20.34 6.7 20 5 C20 5.66 20 6.32 20 7 C19.360625 6.814375 18.72125 6.62875 18.0625 6.4375 C17.0415625 6.2209375 17.0415625 6.2209375 16 6 C15.67 6.33 15.34 6.66 15 7 C12.32941149 7.14115161 9.67567762 7.04247107 7 7 C7 6.34 7 5.68 7 5 C6.21625 4.731875 5.4325 4.46375 4.625 4.1875 C2 3 2 3 0 0 Z M9 9 C5.04 9 1.08 9 -3 9 C-3 8.67 -3 8.34 -3 8 C-1.56465159 7.7773254 -0.12654475 7.57238094 1.3125 7.375 C2.51326172 7.20097656 2.51326172 7.20097656 3.73828125 7.0234375 C6 7 6 7 9 9 Z " fill="#5B5B5F" transform="translate(178,0)"/>
<path d="M0 0 C3.51477272 0.00540696 7.02942037 0.00000331 10.54418945 -0.00634766 C12.78833036 -0.00568764 15.03247119 -0.00440805 17.27661133 -0.00244141 C18.32244888 -0.00446564 19.36828644 -0.00648987 20.44581604 -0.00857544 C21.42130905 -0.00542328 22.39680206 -0.00227112 23.40185547 0.00097656 C24.25453506 0.00177216 25.10721466 0.00256775 25.98573303 0.00338745 C28.54903947 0.13661234 30.92768902 0.56746444 33.42895508 1.13037109 C33.09895508 2.78037109 32.76895508 4.43037109 32.42895508 6.13037109 C26.7506543 6.15501814 21.07238438 6.17320571 15.39404297 6.18530273 C13.46076923 6.19034365 11.52749932 6.19717628 9.59423828 6.20581055 C6.82168636 6.21788674 4.04918467 6.22360166 1.27661133 6.22802734 C-0.0280735 6.23576927 -0.0280735 6.23576927 -1.3591156 6.2436676 C-3.43010306 6.24386295 -5.50098817 6.19245277 -7.57104492 6.13037109 C-8.06604492 5.63537109 -8.06604492 5.63537109 -8.57104492 5.13037109 C-8.57104492 5.46037109 -8.57104492 5.79037109 -8.57104492 6.13037109 C-9.7028418 6.16775391 -10.83463867 6.20513672 -12.00073242 6.24365234 C-13.48253697 6.30930191 -14.96430632 6.3757496 -16.44604492 6.44287109 C-17.5655957 6.47670898 -17.5655957 6.47670898 -18.70776367 6.51123047 C-20.67064892 6.60849055 -22.62432814 6.86079403 -24.57104492 7.13037109 C-25.56104492 8.61537109 -25.56104492 8.61537109 -26.57104492 10.13037109 C-28.69995117 10.57177734 -28.69995117 10.57177734 -31.13354492 10.69287109 C-33.5084334 10.77727245 -33.5084334 10.77727245 -35.57104492 11.13037109 C-35.90104492 11.79037109 -36.23104492 12.45037109 -36.57104492 13.13037109 C-38.22104492 13.13037109 -39.87104492 13.13037109 -41.57104492 13.13037109 C-41.57104492 9.50037109 -41.57104492 5.87037109 -41.57104492 2.13037109 C-27.93188976 -0.59745994 -13.84806765 -0.02543622 0 0 Z " fill="#06070B" transform="translate(121.571044921875,-0.13037109375)"/>
<path d="M0 0 C33.66 0 67.32 0 102 0 C101.67 1.65 101.34 3.3 101 5 C67.33333333 5 33.66666667 5 0 5 C0 3.35 0 1.7 0 0 Z " fill="#453138" transform="translate(195,138)"/>
<path d="M0 0 C0.33 0.66 0.66 1.32 1 2 C9.25 2 17.5 2 26 2 C25.01 2.33 24.02 2.66 23 3 C23 3.66 23 4.32 23 5 C19.7 5.33 16.4 5.66 13 6 C13 6.66 13 7.32 13 8 C15.31 8 17.62 8 20 8 C20 8.99 20 9.98 20 11 C17.69 11 15.38 11 13 11 C13 11.66 13 12.32 13 13 C11.02 12.67 9.04 12.34 7 12 C7.99 13.485 7.99 13.485 9 15 C7.35 15 5.7 15 4 15 C4 14.34 4 13.68 4 13 C2.35 13 0.7 13 -1 13 C-1 12.67 -1 12.34 -1 12 C-7.93 11.67 -14.86 11.34 -22 11 C-22 8.03 -22 5.06 -22 2 C-19.27123692 1.66304138 -16.54206837 1.33031571 -13.8125 1 C-13.04357422 0.90460937 -12.27464844 0.80921875 -11.48242188 0.7109375 C-7.63071189 0.24807106 -3.88829149 -0.12467468 0 0 Z " fill="#818184" transform="translate(102,12)"/>
<path d="M0 0 C1.16781006 0.00523682 2.33562012 0.01047363 3.53881836 0.01586914 C4.79887695 0.0190918 6.05893555 0.02231445 7.35717773 0.02563477 C8.6976732 0.03399136 10.03816799 0.04245632 11.37866211 0.05102539 C12.72306153 0.05603879 14.06746271 0.06060197 15.41186523 0.06469727 C18.71334151 0.07653051 22.01473014 0.09301568 25.31616211 0.11352539 C25.31616211 1.10352539 25.31616211 2.09352539 25.31616211 3.11352539 C21.02616211 3.11352539 16.73616211 3.11352539 12.31616211 3.11352539 C13.35087668 4.37743251 13.35087668 4.37743251 15.60913086 4.17602539 C16.56432617 4.15540039 17.51952148 4.13477539 18.50366211 4.11352539 C22.56880157 4.07118019 26.32412231 4.25038165 30.31616211 5.11352539 C30.31616211 6.43352539 30.31616211 7.75352539 30.31616211 9.11352539 C28.00616211 9.11352539 25.69616211 9.11352539 23.31616211 9.11352539 C23.31616211 8.45352539 23.31616211 7.79352539 23.31616211 7.11352539 C22.65616211 7.11352539 21.99616211 7.11352539 21.31616211 7.11352539 C21.31616211 7.77352539 21.31616211 8.43352539 21.31616211 9.11352539 C17.06636325 9.28281103 12.81634327 9.44316789 8.56591797 9.59570312 C7.12377136 9.64866286 5.681708 9.7039481 4.23974609 9.76171875 C-3.49070911 10.06986514 -11.00221367 10.27220614 -18.68383789 9.11352539 C-18.68383789 8.45352539 -18.68383789 7.79352539 -18.68383789 7.11352539 C-18.02383789 7.11352539 -17.36383789 7.11352539 -16.68383789 7.11352539 C-16.35383789 6.12352539 -16.02383789 5.13352539 -15.68383789 4.11352539 C-11.39383789 4.11352539 -7.10383789 4.11352539 -2.68383789 4.11352539 C-6.97383789 3.78352539 -11.26383789 3.45352539 -15.68383789 3.11352539 C-15.68383789 2.78352539 -15.68383789 2.45352539 -15.68383789 2.11352539 C-14.40186523 2.02264648 -14.40186523 2.02264648 -13.09399414 1.92993164 C-11.4369043 1.80424805 -11.4369043 1.80424805 -9.74633789 1.67602539 C-8.64418945 1.59481445 -7.54204102 1.51360352 -6.40649414 1.42993164 C-3.33768353 1.07329798 -3.07636682 0.13012923 0 0 Z M-28.68383789 6.11352539 C-27.69383789 6.44352539 -26.70383789 6.77352539 -25.68383789 7.11352539 C-26.01383789 7.77352539 -26.34383789 8.43352539 -26.68383789 9.11352539 C-24.04383789 9.11352539 -21.40383789 9.11352539 -18.68383789 9.11352539 C-18.68383789 9.44352539 -18.68383789 9.77352539 -18.68383789 10.11352539 C-22.31383789 10.11352539 -25.94383789 10.11352539 -29.68383789 10.11352539 C-29.35383789 8.79352539 -29.02383789 7.47352539 -28.68383789 6.11352539 Z " fill="#4D4D50" transform="translate(246.683837890625,7.886474609375)"/>
<path d="M0 0 C0 0.33 0 0.66 0 1 C-2.31 1.66 -4.62 2.32 -7 3 C-7 3.33 -7 3.66 -7 4 C-40 4 -73 4 -107 4 C-107 3.01 -107 2.02 -107 1 C-97.18328779 0.86740798 -87.36655038 0.73690718 -77.54977798 0.60884857 C-72.98808715 0.549281 -68.42640685 0.48907693 -63.86474609 0.42724609 C-42.57514717 0.1391661 -21.29189461 -0.08818767 0 0 Z " fill="#432B26" transform="translate(107,23)"/>
<path d="M0 0 C2.97 0.495 2.97 0.495 6 1 C5.67 1.99 5.34 2.98 5 4 C3.35 4.33 1.7 4.66 0 5 C-0.33 4.34 -0.66 3.68 -1 3 C-0.67 2.01 -0.34 1.02 0 0 Z M-43 5 C-40.83125748 5.50603992 -39.00032373 5.99983813 -37 7 C-37 6.34 -37 5.68 -37 5 C-35.35 5 -33.7 5 -32 5 C-31.67 5.99 -31.34 6.98 -31 8 C-32 10 -32 10 -34.1796875 10.921875 C-35.06914062 11.19515625 -35.95859375 11.4684375 -36.875 11.75 C-38.20144531 12.17539063 -38.20144531 12.17539063 -39.5546875 12.609375 C-42 13 -42 13 -45 11 C-44.34 9.02 -43.68 7.04 -43 5 Z M-31 5 C-20.77 5 -10.54 5 0 5 C0 5.33 0 5.66 0 6 C4.29 6.33 8.58 6.66 13 7 C13 6.34 13 5.68 13 5 C14.98 5 16.96 5 19 5 C19 7.31 19 9.62 19 12 C12.65758005 13.15316726 6.43311296 13.09507063 0 13 C0 12.34 0 11.68 0 11 C3.63 10.67 7.26 10.34 11 10 C11 9.67 11 9.34 11 9 C6.68751391 8.97113463 2.37505238 8.95324745 -1.9375 8.9375 C-3.16919922 8.92912109 -4.40089844 8.92074219 -5.66992188 8.91210938 C-6.83974609 8.90888672 -8.00957031 8.90566406 -9.21484375 8.90234375 C-10.29886475 8.89710693 -11.38288574 8.89187012 -12.49975586 8.88647461 C-14.94049948 8.71573103 -14.94049948 8.71573103 -16 10 C-9.07 10.495 -9.07 10.495 -2 11 C-2 11.33 -2 11.66 -2 12 C-10.68761489 12.65655389 -19.28217363 13.16311941 -28 13 C-28.33 13.66 -28.66 14.32 -29 15 C-31.64 14.67 -34.28 14.34 -37 14 C-37 13.67 -37 13.34 -37 13 C-35.35 12.67 -33.7 12.34 -32 12 C-31.67 11.01 -31.34 10.02 -31 9 C-28.69 9 -26.38 9 -24 9 C-24 8.01 -24 7.02 -24 6 C-26.31 6.33 -28.62 6.66 -31 7 C-31 6.34 -31 5.68 -31 5 Z M-2 13 C0 14 0 14 0 14 Z M4 13 C6 14 6 14 6 14 Z M-38 15 C-35.69 15 -33.38 15 -31 15 C-31 15.33 -31 15.66 -31 16 C-33.31 16 -35.62 16 -38 16 C-38 15.67 -38 15.34 -38 15 Z " fill="#030406" transform="translate(259,0)"/>
<path d="M0 0 C24.75 0 49.5 0 75 0 C75 0.99 75 1.98 75 3 C65.29176503 3.17254646 55.58343175 3.33894363 45.875 3.5 C44.80139284 3.51781588 44.80139284 3.51781588 43.70609665 3.53599167 C20.46947063 3.91964021 -2.75984327 4.14820074 -26 4 C-26 3.67 -26 3.34 -26 3 C-13.625 2.505 -13.625 2.505 -1 2 C-0.67 1.34 -0.34 0.68 0 0 Z " fill="#281B21" transform="translate(221,159)"/>
<path d="M0 0 C28.05 0 56.1 0 85 0 C85 0.33 85 0.66 85 1 C83.02 1 81.04 1 79 1 C79 1.66 79 2.32 79 3 C52.93 3 26.86 3 0 3 C0 2.01 0 1.02 0 0 Z " fill="#1E191E" transform="translate(0,0)"/>
<path d="M0 0 C4.29 0 8.58 0 13 0 C13 2.31 13 4.62 13 7 C10.36 7 7.72 7 5 7 C5 7.66 5 8.32 5 9 C-0.61 9 -6.22 9 -12 9 C-12 8.67 -12 8.34 -12 8 C-14.64 7.67 -17.28 7.34 -20 7 C-20 7.66 -20 8.32 -20 9 C-30.56 9 -41.12 9 -52 9 C-52 8.01 -52 7.02 -52 6 C-48.36804504 3.57869669 -46.61650652 3.78977215 -42.3125 3.875 C-41.13300781 3.89304688 -39.95351562 3.91109375 -38.73828125 3.9296875 C-37.38283203 3.96449219 -37.38283203 3.96449219 -36 4 C-36 4.66 -36 5.32 -36 6 C-28.08 5.67 -20.16 5.34 -12 5 C-12 4.67 -12 4.34 -12 4 C-6.06 3.505 -6.06 3.505 0 3 C0 2.01 0 1.02 0 0 Z " fill="#8B8B8D" transform="translate(150,0)"/>
<path d="M0 0 C0.94735519 0.00141495 1.89471039 0.0028299 2.87077332 0.00428772 C5.8865377 0.00987014 8.90222693 0.02241943 11.91796875 0.03515625 C13.9667958 0.04017352 16.01562402 0.04473603 18.06445312 0.04882812 C23.07815381 0.05983382 28.09179855 0.07708637 33.10546875 0.09765625 C33.10546875 1.74765625 33.10546875 3.39765625 33.10546875 5.09765625 C22.87546875 5.09765625 12.64546875 5.09765625 2.10546875 5.09765625 C2.10546875 5.75765625 2.10546875 6.41765625 2.10546875 7.09765625 C0.10546875 7.09765625 -1.89453125 7.09765625 -3.89453125 7.09765625 C-5.07015625 7.22140625 -5.07015625 7.22140625 -6.26953125 7.34765625 C-8.89453125 7.09765625 -8.89453125 7.09765625 -10.51953125 5.22265625 C-10.97328125 4.52140625 -11.42703125 3.82015625 -11.89453125 3.09765625 C-12.88453125 2.43765625 -13.87453125 1.77765625 -14.89453125 1.09765625 C-9.95462651 -0.19901266 -5.06615996 -0.02858424 0 0 Z " fill="#06070C" transform="translate(225.89453125,-0.09765625)"/>
<path d="M0 0 C10.00499195 -0.0462752 20.00995858 -0.08184462 30.01503563 -0.10362434 C34.66045274 -0.11407582 39.30579681 -0.12825979 43.95117188 -0.15087891 C48.43153225 -0.1725588 52.91182222 -0.18455834 57.39223099 -0.18975449 C59.10431655 -0.19345899 60.81639812 -0.20069266 62.52845383 -0.21146011 C64.92058486 -0.22591068 67.31242242 -0.22798067 69.70458984 -0.22705078 C70.41740616 -0.23424133 71.13022247 -0.24143188 71.86463928 -0.24884033 C76.77189568 -0.22810432 76.77189568 -0.22810432 79 2 C76.01756445 3.49121778 72.97384248 3.13001472 69.70458984 3.11352539 C68.57761436 3.11374443 68.57761436 3.11374443 67.4278717 3.1139679 C64.9388645 3.11326996 62.44993167 3.10548314 59.9609375 3.09765625 C58.23743735 3.09579165 56.51393666 3.09436794 54.79043579 3.09336853 C50.24974103 3.08954669 45.70907815 3.07971922 41.168396 3.06866455 C36.53674755 3.05844329 31.90509397 3.05386937 27.2734375 3.04882812 C18.18227764 3.03809667 9.09114147 3.02102422 0 3 C0 2.01 0 1.02 0 0 Z " fill="#0C090D" transform="translate(0,13)"/>
<path d="M0 0 C8.85831262 -0.02323316 17.71661466 -0.04097084 26.57495117 -0.05181217 C30.68881308 -0.05701707 34.80265405 -0.06407098 38.91650391 -0.07543945 C42.89114588 -0.08635372 46.86576778 -0.09229485 50.84042358 -0.09487724 C52.35216589 -0.09671616 53.86390717 -0.10030696 55.37564087 -0.10573006 C69.96036289 -0.15594041 69.96036289 -0.15594041 77 1 C77 1.33 77 1.66 77 2 C69.07259095 3.3017166 61.13300334 3.12638365 53.125 3.09765625 C51.58943732 3.09578836 50.05387404 3.09436621 48.51831055 3.09336853 C44.50049153 3.08957256 40.48270936 3.0797676 36.46490479 3.06866455 C32.35551451 3.05838726 28.24611821 3.05385744 24.13671875 3.04882812 C16.09112903 3.03814238 8.04556911 3.02110153 0 3 C0 2.01 0 1.02 0 0 Z " fill="#3C2622" transform="translate(0,20)"/>
<path d="M0 0 C0.66 0 1.32 0 2 0 C2 0.66 2 1.32 2 2 C3.73926758 1.75552124 3.73926758 1.75552124 5.51367188 1.50610352 C9.61844779 0.99481023 13.64147326 0.8856511 17.78125 0.90234375 C18.48020386 0.9037587 19.17915771 0.90517365 19.89929199 0.90663147 C22.09957429 0.9121633 24.29974923 0.92470223 26.5 0.9375 C28.00520685 0.94252384 29.51041532 0.94708518 31.015625 0.95117188 C34.67711735 0.96211023 38.33854817 0.97932641 42 1 C42 2.65 42 4.3 42 6 C26.16 6 10.32 6 -6 6 C-6.33 5.01 -6.66 4.02 -7 3 C-3.535 2.505 -3.535 2.505 0 2 C0 1.34 0 0.68 0 0 Z " fill="#292A30" transform="translate(268,15)"/>
<path d="M0 0 C1.12124268 0.00193359 2.24248535 0.00386719 3.39770508 0.00585938 C19.2699912 0.08289373 35.1366868 0.61870972 51 1.125 C51 1.455 51 1.785 51 2.125 C25.99244684 2.97972593 1.02130411 3.2569689 -24 3.125 C-24 3.785 -24 4.445 -24 5.125 C-32.58 5.125 -41.16 5.125 -50 5.125 C-50 4.135 -50 3.145 -50 2.125 C-49.27522461 2.09994385 -48.55044922 2.0748877 -47.80371094 2.04907227 C-44.45236255 1.93151383 -41.10118854 1.80952697 -37.75 1.6875 C-36.61046875 1.64818359 -35.4709375 1.60886719 -34.296875 1.56835938 C-28.81162282 1.36577904 -23.35742386 1.09690729 -17.890625 0.59765625 C-11.91692627 0.07163616 -5.99436291 -0.02585967 0 0 Z " fill="#644047" transform="translate(245,141.875)"/>
<path d="M0 0 C16.5 0 33 0 50 0 C50 0.99 50 1.98 50 3 C48.85934082 3.01981934 47.71868164 3.03963867 46.54345703 3.06005859 C42.32024677 3.13600567 38.09738601 3.22473928 33.87451172 3.31738281 C32.04515471 3.35571777 30.21572115 3.39056263 28.38623047 3.421875 C25.75981241 3.46742805 23.13392341 3.52543731 20.5078125 3.5859375 C19.27649094 3.60326431 19.27649094 3.60326431 18.02029419 3.62094116 C13.5375356 3.5572544 13.5375356 3.5572544 10 6 C1.67907708 7.89274212 -7.51171595 7.09478233 -16 7 C-16 6.67 -16 6.34 -16 6 C-11.05 5.67 -6.1 5.34 -1 5 C-0.67 3.35 -0.34 1.7 0 0 Z " fill="#2F3035" transform="translate(260,0)"/>
<path d="M0 0 C7.92 0 15.84 0 24 0 C24 0.33 24 0.66 24 1 C27.3 1.33 30.6 1.66 34 2 C34 2.33 34 2.66 34 3 C45.22 3.33 56.44 3.66 68 4 C68 4.33 68 4.66 68 5 C52.82 5 37.64 5 22 5 C21.67 5.99 21.34 6.98 21 8 C20.34 7.34 19.68 6.68 19 6 C17.06318864 5.72345612 17.06318864 5.72345612 14.8671875 5.8046875 C14.06152344 5.81113281 13.25585938 5.81757813 12.42578125 5.82421875 C11.16314453 5.84935547 11.16314453 5.84935547 9.875 5.875 C9.02550781 5.88402344 8.17601562 5.89304687 7.30078125 5.90234375 C5.20040116 5.92594353 3.10016556 5.96181517 1 6 C1 5.34 1 4.68 1 4 C-2.96 4 -6.92 4 -11 4 C-11 3.34 -11 2.68 -11 2 C-5.555 1.505 -5.555 1.505 0 1 C0 0.67 0 0.34 0 0 Z M-1 6 C1 7 1 7 1 7 Z " fill="#010101" transform="translate(242,17)"/>
<path d="M0 0 C12.21 0 24.42 0 37 0 C37 1.32 37 2.64 37 4 C24.13 4 11.26 4 -2 4 C-2 3.34 -2 2.68 -2 2 C-1.34 2 -0.68 2 0 2 C0 1.34 0 0.68 0 0 Z " fill="#090A10" transform="translate(273,23)"/>
<path d="M0 0 C2.58532701 0.45064632 2.58532701 0.45064632 5.25 0.625 C6.14203125 0.69976562 7.0340625 0.77453125 7.953125 0.8515625 C8.96632812 0.92503906 8.96632812 0.92503906 10 1 C10 3.97 10 6.94 10 10 C-5.61261922 11.52604549 -5.61261922 11.52604549 -10 10 C-11.53225423 7.69332124 -12.16829793 5.69080081 -13 3 C-10.36 2.67 -7.72 2.34 -5 2 C-5 1.34 -5 0.68 -5 0 C-5.66 0 -6.32 0 -7 0 C-7 0.66 -7 1.32 -7 2 C-9.31 2 -11.62 2 -14 2 C-14 1.67 -14 1.34 -14 1 C-12.42298018 0.44021816 -10.83800758 -0.09719401 -9.25 -0.625 C-7.92742187 -1.07746094 -7.92742187 -1.07746094 -6.578125 -1.5390625 C-3.48547259 -2.09199126 -2.67173766 -1.50285244 0 0 Z " fill="#8D8D91" transform="translate(153,15)"/>
<path d="M0 0 C0 0.33 0 0.66 0 1 C-8.58 1 -17.16 1 -26 1 C-26 1.66 -26 2.32 -26 3 C-25.34 2.67 -24.68 2.34 -24 2 C-22.18658158 1.91528636 -20.37005839 1.89278917 -18.5546875 1.90234375 C-16.94013672 1.90717773 -16.94013672 1.90717773 -15.29296875 1.91210938 C-14.16503906 1.92048828 -13.03710938 1.92886719 -11.875 1.9375 C-10.17150391 1.94426758 -10.17150391 1.94426758 -8.43359375 1.95117188 C-5.62234362 1.96298385 -2.8111977 1.97945493 0 2 C0 2.33 0 2.66 0 3 C-4.62 3 -9.24 3 -14 3 C-14 3.66 -14 4.32 -14 5 C-18.95 5 -23.9 5 -29 5 C-29 5.66 -29 6.32 -29 7 C-30.65 7 -32.3 7 -34 7 C-34 6.01 -34 5.02 -34 4 C-37.3 3.67 -40.6 3.34 -44 3 C-44.33 2.01 -44.66 1.02 -45 0 C-29.99720098 -1.53571959 -15.03205286 -0.67205346 0 0 Z " fill="#A5A6A7" transform="translate(257,18)"/>
<path d="M0 0 C0 0.33 0 0.66 0 1 C-6.435 1.495 -6.435 1.495 -13 2 C-13 2.66 -13 3.32 -13 4 C-15.97 4 -18.94 4 -22 4 C-22 4.66 -22 5.32 -22 6 C-27.28 6 -32.56 6 -38 6 C-38 5.34 -38 4.68 -38 4 C-35.69 4 -33.38 4 -31 4 C-31 3.01 -31 2.02 -31 1 C-33.31 1.33 -35.62 1.66 -38 2 C-38 1.34 -38 0.68 -38 0 C-26.9133402 -3.69555327 -11.55522308 -0.7033614 0 0 Z " fill="#414245" transform="translate(153,19)"/>
<path d="M0 0 C3.96 0 7.92 0 12 0 C12 1.32 12 2.64 12 4 C16.95 4.33 21.9 4.66 27 5 C27 5.33 27 5.66 27 6 C30.3 6.33 33.6 6.66 37 7 C37 6.34 37 5.68 37 5 C38.65 5 40.3 5 42 5 C42.495 6.98 42.495 6.98 43 9 C34.09 9 25.18 9 16 9 C15.67 8.34 15.34 7.68 15 7 C9.72 7 4.44 7 -1 7 C-0.67 4.69 -0.34 2.38 0 0 Z M-3 7 C-1 8 -1 8 -1 8 Z M14 9 C16 10 16 10 16 10 Z M25 9 C27 10 27 10 27 10 Z " fill="#07080D" transform="translate(86,6)"/>
<path d="M0 0 C3.22914752 -0.02917228 6.45826083 -0.04685663 9.6875 -0.0625 C10.59951172 -0.07087891 11.51152344 -0.07925781 12.45117188 -0.08789062 C13.33740234 -0.09111328 14.22363281 -0.09433594 15.13671875 -0.09765625 C15.94842529 -0.10289307 16.76013184 -0.10812988 17.59643555 -0.11352539 C20.14864673 0.0070209 22.51026137 0.440051 25 1 C24.67 2.65 24.34 4.3 24 6 C19.87501532 6.02938023 15.75005809 6.04692535 11.625 6.0625 C10.46871094 6.07087891 9.31242187 6.07925781 8.12109375 6.08789062 C1.34599441 6.10702932 -5.27639726 5.85222001 -12 5 C-12 4.67 -12 4.34 -12 4 C-6.06 3.505 -6.06 3.505 0 3 C0 2.01 0 1.02 0 0 Z " fill="#2E2F31" transform="translate(130,0)"/>
<path d="M0 0 C1.65 0 3.3 0 5 0 C5 1.65 5 3.3 5 5 C3.02 5 1.04 5 -1 5 C-0.67 3.35 -0.34 1.7 0 0 Z M-3 5 C-0.36 5.33 2.28 5.66 5 6 C5 6.33 5 6.66 5 7 C2.69 7 0.38 7 -2 7 C-2.33 6.34 -2.66 5.68 -3 5 Z M-10.5 5.875 C-8 6 -8 6 -7 7 C-5.15108054 7.23363881 -3.29511969 7.41303635 -1.4375 7.5625 C-0.42558594 7.64628906 0.58632812 7.73007813 1.62890625 7.81640625 C2.80259766 7.90728516 2.80259766 7.90728516 4 8 C4 8.99 4 9.98 4 11 C-1.61 11 -7.22 11 -13 11 C-13.33 9.68 -13.66 8.36 -14 7 C-13 6 -13 6 -10.5 5.875 Z M-12 12 C-12 12.33 -12 12.66 -12 13 C-15.96 13 -19.92 13 -24 13 C-24 12.67 -24 12.34 -24 12 C-22.56359829 11.80426392 -21.12580496 11.61872184 -19.6875 11.4375 C-18.88699219 11.33308594 -18.08648437 11.22867187 -17.26171875 11.12109375 C-15 11 -15 11 -12 12 Z " fill="#6F6F71" transform="translate(188,8)"/>
<path d="M0 0 C0 0.33 0 0.66 0 1 C-2.31 1 -4.62 1 -7 1 C-7.65417994 2.30835987 -8.30036548 3.62075532 -8.9375 4.9375 C-10 7 -10 7 -12 10 C-14.12890625 10.44140625 -14.12890625 10.44140625 -16.5625 10.5625 C-18.93738847 10.64690135 -18.93738847 10.64690135 -21 11 C-21.33 11.66 -21.66 12.32 -22 13 C-23.65 13 -25.3 13 -27 13 C-27 9.37 -27 5.74 -27 2 C-18.1288689 0.22577378 -9.03829122 -0.18076582 0 0 Z " fill="#454546" transform="translate(107,0)"/>
<path d="M0 0 C1.16781006 0.00523682 2.33562012 0.01047363 3.53881836 0.01586914 C4.79887695 0.0190918 6.05893555 0.02231445 7.35717773 0.02563477 C8.6976732 0.03399136 10.03816799 0.04245632 11.37866211 0.05102539 C12.72306153 0.05603879 14.06746271 0.06060197 15.41186523 0.06469727 C18.71334151 0.07653051 22.01473014 0.09301568 25.31616211 0.11352539 C25.31616211 1.10352539 25.31616211 2.09352539 25.31616211 3.11352539 C21.02616211 3.11352539 16.73616211 3.11352539 12.31616211 3.11352539 C12.31616211 3.77352539 12.31616211 4.43352539 12.31616211 5.11352539 C7.36616211 5.11352539 2.41616211 5.11352539 -2.68383789 5.11352539 C-2.68383789 4.78352539 -2.68383789 4.45352539 -2.68383789 4.11352539 C-6.97383789 3.78352539 -11.26383789 3.45352539 -15.68383789 3.11352539 C-15.68383789 2.78352539 -15.68383789 2.45352539 -15.68383789 2.11352539 C-14.82918945 2.05293945 -13.97454102 1.99235352 -13.09399414 1.92993164 C-11.4369043 1.80424805 -11.4369043 1.80424805 -9.74633789 1.67602539 C-8.64418945 1.59481445 -7.54204102 1.51360352 -6.40649414 1.42993164 C-3.33768353 1.07329798 -3.07636682 0.13012923 0 0 Z " fill="#626368" transform="translate(246.683837890625,7.886474609375)"/>
<path d="M0 0 C10.89 0 21.78 0 33 0 C33 0.99 33 1.98 33 3 C28.41039478 3.16841537 23.820604 3.3288849 19.23046875 3.48217773 C17.67082349 3.53536215 16.11124911 3.59067114 14.55175781 3.64819336 C12.3028898 3.73076674 10.05387293 3.80555406 7.8046875 3.87890625 C6.76838699 3.91945885 6.76838699 3.91945885 5.71115112 3.96083069 C1.6735017 4.0837296 -2.04106359 3.79986674 -6 3 C-6 2.67 -6 2.34 -6 2 C-4.02 2 -2.04 2 0 2 C0 1.34 0 0.68 0 0 Z " fill="#05060A" transform="translate(277,13)"/>
<path d="M0 0 C2.64 0 5.28 0 8 0 C5.08235 1.9451 3.37462715 2.45276317 0 3 C0 2.01 0 1.02 0 0 Z M-9 1 C-7.53984709 1.28241641 -6.08190207 1.57626614 -4.625 1.875 C-3.81289062 2.03742187 -3.00078125 2.19984375 -2.1640625 2.3671875 C0 3 0 3 2 5 C2 4.34 2 3.68 2 3 C2.66 3 3.32 3 4 3 C4 3.66 4 4.32 4 5 C5.98 5 7.96 5 10 5 C10 5.33 10 5.66 10 6 C-0.08152977 6.59490587 -10.14882857 7.10073049 -20.25 7.125 C-21.01030518 7.12951172 -21.77061035 7.13402344 -22.55395508 7.13867188 C-27.44942489 7.12570231 -32.15291002 6.69087482 -37 6 C-37 5.67 -37 5.34 -37 5 C-31.06 5 -25.12 5 -19 5 C-19 4.34 -19 3.68 -19 3 C-18.01 3 -17.02 3 -16 3 C-15.67 3.33 -15.34 3.66 -15 4 C-15 3.67 -15 3.34 -15 3 C-13.02 3 -11.04 3 -9 3 C-9 2.34 -9 1.68 -9 1 Z " fill="#010101" transform="translate(144,12)"/>
<path d="M0 0 C6.93 0 13.86 0 21 0 C20.67 1.65 20.34 3.3 20 5 C18.35 5 16.7 5 15 5 C15 5.66 15 6.32 15 7 C12.36 7 9.72 7 7 7 C7 6.34 7 5.68 7 5 C6.21625 4.731875 5.4325 4.46375 4.625 4.1875 C2 3 2 3 0 0 Z M9 9 C5.04 9 1.08 9 -3 9 C-3 8.67 -3 8.34 -3 8 C-1.56465159 7.7773254 -0.12654475 7.57238094 1.3125 7.375 C2.51326172 7.20097656 2.51326172 7.20097656 3.73828125 7.0234375 C6 7 6 7 9 9 Z " fill="#6A6B6F" transform="translate(178,0)"/>
<path d="M0 0 C1.17949219 0.01804688 2.35898438 0.03609375 3.57421875 0.0546875 C4.92966797 0.08949219 4.92966797 0.08949219 6.3125 0.125 C6.3125 0.785 6.3125 1.445 6.3125 2.125 C7.29992187 2.17398437 8.28734375 2.22296875 9.3046875 2.2734375 C11.22667969 2.38558594 11.22667969 2.38558594 13.1875 2.5 C14.46367188 2.56960938 15.73984375 2.63921875 17.0546875 2.7109375 C20.3125 3.125 20.3125 3.125 22.3125 5.125 C11.7525 5.125 1.1925 5.125 -9.6875 5.125 C-9.6875 4.135 -9.6875 3.145 -9.6875 2.125 C-6.05554504 -0.29630331 -4.30400652 -0.08522785 0 0 Z " fill="#727376" transform="translate(107.6875,3.875)"/>
<path d="M0 0 C1.18722656 -0.01611328 2.37445313 -0.03222656 3.59765625 -0.04882812 C4.72816406 -0.04947266 5.85867187 -0.05011719 7.0234375 -0.05078125 C8.05130371 -0.05376221 9.07916992 -0.05674316 10.13818359 -0.05981445 C10.95883301 0.06304932 11.77948242 0.18591309 12.625 0.3125 C13.285 1.3025 13.945 2.2925 14.625 3.3125 C4.395 3.3125 -5.835 3.3125 -16.375 3.3125 C-16.375 3.9725 -16.375 4.6325 -16.375 5.3125 C-18.025 5.3125 -19.675 5.3125 -21.375 5.3125 C-21.375 4.3225 -21.375 3.3325 -21.375 2.3125 C-14.22714316 0.09754683 -7.44911801 -0.02062325 0 0 Z " fill="#606065" transform="translate(244.375,1.6875)"/>
<path d="M0 0 C0 0.33 0 0.66 0 1 C-3.3 1.33 -6.6 1.66 -10 2 C-10 2.66 -10 3.32 -10 4 C-12.60527105 4.10792837 -15.20608311 4.18724878 -17.8125 4.25 C-18.55048828 4.28351562 -19.28847656 4.31703125 -20.04882812 4.3515625 C-22.20703125 4.390625 -22.20703125 4.390625 -26 4 C-28.01171875 1.984375 -28.01171875 1.984375 -29 0 C-21.74214646 -3.62892677 -7.81793552 -0.81527819 0 0 Z M-29 2 C-27 3 -27 3 -27 3 Z " fill="#0B0D16" transform="translate(190,1)"/>
<path d="M0 0 C0 0.99 0 1.98 0 3 C-2.31 3 -4.62 3 -7 3 C-7 4.98 -7 6.96 -7 9 C-10.3 9 -13.6 9 -17 9 C-17.33 9.66 -17.66 10.32 -18 11 C-19.65 11 -21.3 11 -23 11 C-23 10.01 -23 9.02 -23 8 C-22.28972656 7.81824219 -21.57945312 7.63648438 -20.84765625 7.44921875 C-19.46900391 7.07216797 -19.46900391 7.07216797 -18.0625 6.6875 C-17.14597656 6.44386719 -16.22945312 6.20023438 -15.28515625 5.94921875 C-14.15400391 5.47935547 -14.15400391 5.47935547 -13 5 C-12.67 4.01 -12.34 3.02 -12 2 C-7.68964518 0.65743047 -4.52218352 0 0 0 Z M-15 9 C-12.36 9.33 -9.72 9.66 -7 10 C-7 10.33 -7 10.66 -7 11 C-9.64 11 -12.28 11 -15 11 C-15 10.34 -15 9.68 -15 9 Z " fill="#878789" transform="translate(235,6)"/>
<path d="M0 0 C1.66289063 0.00966797 1.66289063 0.00966797 3.359375 0.01953125 C4.50148438 0.03628906 5.64359375 0.05304687 6.8203125 0.0703125 C8.56828125 0.08384766 8.56828125 0.08384766 10.3515625 0.09765625 C13.21635827 0.12113818 16.08072785 0.15398109 18.9453125 0.1953125 C17.9553125 0.5253125 16.9653125 0.8553125 15.9453125 1.1953125 C15.9453125 1.8553125 15.9453125 2.5153125 15.9453125 3.1953125 C12.21660797 3.39288053 8.48734454 3.57659349 4.7578125 3.7578125 C3.70271484 3.81388672 2.64761719 3.86996094 1.56054688 3.92773438 C0.02817383 4.00024414 0.02817383 4.00024414 -1.53515625 4.07421875 C-2.47254639 4.1213501 -3.40993652 4.16848145 -4.37573242 4.21704102 C-7.06771682 4.19520682 -9.43985726 3.81117656 -12.0546875 3.1953125 C-12.0546875 2.8653125 -12.0546875 2.5353125 -12.0546875 2.1953125 C-7.87705847 0.62121238 -4.45744269 -0.04595302 0 0 Z " fill="#636366" transform="translate(109.0546875,13.8046875)"/>
<path d="M0 0 C0 0.99 0 1.98 0 3 C-1.98 3 -3.96 3 -6 3 C-6 3.66 -6 4.32 -6 5 C-11.28 5 -16.56 5 -22 5 C-22 4.01 -22 3.02 -22 2 C-19.27123692 1.66304138 -16.54206837 1.33031571 -13.8125 1 C-13.04357422 0.90460937 -12.27464844 0.80921875 -11.48242188 0.7109375 C-7.63071189 0.24807106 -3.88829149 -0.12467468 0 0 Z " fill="#606061" transform="translate(102,12)"/>
<path d="M0 0 C9 0 18 0 27 0 C27 0.33 27 0.66 27 1 C25.35 1.33 23.7 1.66 22 2 C22 2.66 22 3.32 22 4 C18.37506666 4.05787784 14.75025143 4.0935542 11.125 4.125 C10.09246094 4.14175781 9.05992187 4.15851562 7.99609375 4.17578125 C7.00996094 4.18222656 6.02382812 4.18867187 5.0078125 4.1953125 C3.64100342 4.21102295 3.64100342 4.21102295 2.24658203 4.22705078 C0 4 0 4 -2 2 C-1.34 2 -0.68 2 0 2 C0 1.34 0 0.68 0 0 Z M-8 4 C-5.36 4 -2.72 4 0 4 C0 4.33 0 4.66 0 5 C-2.64 5.33 -5.28 5.66 -8 6 C-8 5.34 -8 4.68 -8 4 Z M-10 6 C-8 7 -8 7 -8 7 Z " fill="#000001" transform="translate(163,3)"/>
<path d="M0 0 C3.3 0 6.6 0 10 0 C10 1.65 10 3.3 10 5 C8.02 5.33 6.04 5.66 4 6 C4 6.66 4 7.32 4 8 C-0.62 8 -5.24 8 -10 8 C-9.34 6.68 -8.68 5.36 -8 4 C-5.32209537 3.16113831 -2.8262059 3.18233586 0 3 C0 2.01 0 1.02 0 0 Z " fill="#07080D" transform="translate(198,19)"/>
<path d="M0 0 C1.24394531 0.00644531 2.48789063 0.01289063 3.76953125 0.01953125 C5.69732422 0.04466797 5.69732422 0.04466797 7.6640625 0.0703125 C8.97246094 0.07933594 10.28085938 0.08835937 11.62890625 0.09765625 C14.8491462 0.12116165 18.06900957 0.15402163 21.2890625 0.1953125 C21.2890625 0.5253125 21.2890625 0.8553125 21.2890625 1.1953125 C16.6690625 1.1953125 12.0490625 1.1953125 7.2890625 1.1953125 C7.2890625 1.8553125 7.2890625 2.5153125 7.2890625 3.1953125 C2.3390625 3.1953125 -2.6109375 3.1953125 -7.7109375 3.1953125 C-7.7109375 3.8553125 -7.7109375 4.5153125 -7.7109375 5.1953125 C-9.3609375 5.1953125 -11.0109375 5.1953125 -12.7109375 5.1953125 C-12.7109375 4.2053125 -12.7109375 3.2153125 -12.7109375 2.1953125 C-8.30918965 0.51040504 -4.70321575 -0.04314877 0 0 Z " fill="#838487" transform="translate(235.7109375,19.8046875)"/>
<path d="M0 0 C0 0.33 0 0.66 0 1 C-12.68270851 1.74136918 -25.29571603 2.13809004 -38 2 C-38 1.34 -38 0.68 -38 0 C-26.9133402 -3.69555327 -11.55522308 -0.7033614 0 0 Z " fill="#444446" transform="translate(153,19)"/>
<path d="M0 0 C15.18 0 30.36 0 46 0 C46 0.33 46 0.66 46 1 C33.79 1 21.58 1 9 1 C9 1.66 9 2.32 9 3 C6.03 3 3.06 3 0 3 C0 2.01 0 1.02 0 0 Z " fill="#121421" transform="translate(264,22)"/>
<path d="M0 0 C2.16874252 0.50603992 3.99967627 0.99983813 6 2 C8.204364 2.22950319 10.41392173 2.41075933 12.625 2.5625 C13.81351563 2.64628906 15.00203125 2.73007812 16.2265625 2.81640625 C17.14179687 2.87699219 18.05703125 2.93757813 19 3 C19 3.33 19 3.66 19 4 C12.73 4 6.46 4 0 4 C0 4.66 0 5.32 0 6 C-5.28 6 -10.56 6 -16 6 C-16 5.01 -16 4.02 -16 3 C-8.08 2.505 -8.08 2.505 0 2 C0 1.34 0 0.68 0 0 Z " fill="#BABABA" transform="translate(96,15)"/>
<path d="M0 0 C0.74886475 0.00523682 1.49772949 0.01047363 2.26928711 0.01586914 C3.07817383 0.0190918 3.88706055 0.02231445 4.72045898 0.02563477 C5.5705957 0.03401367 6.42073242 0.04239258 7.29663086 0.05102539 C8.15063477 0.05553711 9.00463867 0.06004883 9.88452148 0.06469727 C12.00108749 0.07652166 14.11761771 0.0944577 16.23413086 0.11352539 C16.56413086 1.10352539 16.89413086 2.09352539 17.23413086 3.11352539 C7.99413086 3.11352539 -1.24586914 3.11352539 -10.76586914 3.11352539 C-10.76586914 2.78352539 -10.76586914 2.45352539 -10.76586914 2.11352539 C-8.71508789 1.88566081 -6.66430664 1.65779622 -4.61352539 1.42993164 C-2.4853226 1.06548254 -2.1372651 0.13740195 0 0 Z " fill="#48494F" transform="translate(245.765869140625,21.886474609375)"/>
<path d="M0 0 C2.79736328 -0.34057617 2.79736328 -0.34057617 6.3203125 -0.29296875 C7.57714844 -0.28330078 8.83398438 -0.27363281 10.12890625 -0.26367188 C12.10697266 -0.2259668 12.10697266 -0.2259668 14.125 -0.1875 C15.46482903 -0.17245483 16.80467404 -0.15876613 18.14453125 -0.14648438 C21.43008842 -0.11102872 24.71484582 -0.06160849 28 0 C28 0.99 28 1.98 28 3 C18.1 3 8.2 3 -2 3 C-1.34 2.01 -0.68 1.02 0 0 Z " fill="#3F4044" transform="translate(231,0)"/>
<path d="M0 0 C5.94 0 11.88 0 18 0 C18 0.33 18 0.66 18 1 C9.8677724 4.12777985 1.54537874 4.14931336 -7.0625 4.0625 C-7.92810547 4.05798828 -8.79371094 4.05347656 -9.68554688 4.04882812 C-11.79039539 4.03719913 -13.89520758 4.01927073 -16 4 C-16 3.67 -16 3.34 -16 3 C-10.72 3 -5.44 3 0 3 C0 2.01 0 1.02 0 0 Z " fill="#69696A" transform="translate(96,19)"/>
<path d="M0 0 C5.00860026 0.01351849 9.78592529 0.06878959 14.70703125 1.1328125 C14.70703125 2.4528125 14.70703125 3.7728125 14.70703125 5.1328125 C12.39703125 5.1328125 10.08703125 5.1328125 7.70703125 5.1328125 C7.70703125 4.4728125 7.70703125 3.8128125 7.70703125 3.1328125 C7.04703125 3.1328125 6.38703125 3.1328125 5.70703125 3.1328125 C5.70703125 3.7928125 5.70703125 4.4528125 5.70703125 5.1328125 C3.39703125 5.1328125 1.08703125 5.1328125 -1.29296875 5.1328125 C-1.95296875 3.8128125 -2.61296875 2.4928125 -3.29296875 1.1328125 C-2.29296875 0.1328125 -2.29296875 0.1328125 0 0 Z " fill="#6D6E71" transform="translate(262.29296875,11.8671875)"/>
<path d="M0 0 C0.72832031 -0.01224609 1.45664063 -0.02449219 2.20703125 -0.03710938 C4.09782978 -0.04235188 5.98815581 0.06516615 7.875 0.1875 C8.535 0.8475 9.195 1.5075 9.875 2.1875 C6.2938802 4.43343686 3.35489175 4.39650118 -0.8125 4.3125 C-1.97136719 4.29445313 -3.13023437 4.27640625 -4.32421875 4.2578125 C-5.71060547 4.22300781 -5.71060547 4.22300781 -7.125 4.1875 C-7.455 4.1875 -7.785 4.1875 -8.125 4.1875 C-9.46068021 3.86369874 -10.79423011 3.53092449 -12.125 3.1875 C-12.125 2.5275 -12.125 1.8675 -12.125 1.1875 C-8.15575579 -0.11133646 -4.12870441 0.00369294 0 0 Z " fill="#3D3E43" transform="translate(206.125,10.8125)"/>
<path d="M0 0 C3.37498158 -0.02922646 6.74993021 -0.04687468 10.125 -0.0625 C11.55199219 -0.07506836 11.55199219 -0.07506836 13.0078125 -0.08789062 C17.79018487 -0.10449608 22.29771569 -0.00537055 27 1 C23.72075593 2.93897212 21.14466781 3.29325528 17.359375 3.4140625 C15.75449219 3.47207031 15.75449219 3.47207031 14.1171875 3.53125 C13.00601563 3.5621875 11.89484375 3.593125 10.75 3.625 C9.06003906 3.68300781 9.06003906 3.68300781 7.3359375 3.7421875 C4.55745452 3.83637336 1.77897666 3.92199586 -1 4 C-0.67 2.68 -0.34 1.36 0 0 Z " fill="#313235" transform="translate(238,14)"/>
<path d="M0 0 C2.31 0 4.62 0 7 0 C7 0.66 7 1.32 7 2 C19.87 2 32.74 2 46 2 C46 2.33 46 2.66 46 3 C31.15 3 16.3 3 1 3 C0.67 2.01 0.34 1.02 0 0 Z " fill="#000000" transform="translate(264,25)"/>
<path d="M0 0 C6.27 0 12.54 0 19 0 C19.33 0.66 19.66 1.32 20 2 C12.96094956 2.93854006 6.09727428 3.10808032 -1 3 C-0.67 2.01 -0.34 1.02 0 0 Z M-3 3 C-1 4 -1 4 -1 4 Z " fill="#111218" transform="translate(164,6)"/>
<path d="M0 0 C3.96 0 7.92 0 12 0 C12 0.99 12 1.98 12 3 C7.71 3 3.42 3 -1 3 C-0.67 2.01 -0.34 1.02 0 0 Z M-1 3 C-1 3.66 -1 4.32 -1 5 C-5.95 5 -10.9 5 -16 5 C-16 4.67 -16 4.34 -16 4 C-13.8750734 3.83240016 -11.75005624 3.66594799 -9.625 3.5 C-8.44164062 3.4071875 -7.25828125 3.314375 -6.0390625 3.21875 C-4.36213157 3.09804546 -2.68126944 3 -1 3 Z " fill="#595A5F" transform="translate(260,8)"/>
<path d="M0 0 C4.29 0.33 8.58 0.66 13 1 C13 1.33 13 1.66 13 2 C9.7 2 6.4 2 3 2 C3 2.99 3 3.98 3 5 C-0.63 5 -4.26 5 -8 5 C-8 4.34 -8 3.68 -8 3 C-5.36 2.67 -2.72 2.34 0 2 C0 1.34 0 0.68 0 0 Z M-9 5 C-4.71 5.33 -0.42 5.66 4 6 C4 6.33 4 6.66 4 7 C-0.29 7 -4.58 7 -9 7 C-9 6.34 -9 5.68 -9 5 Z " fill="#080910" transform="translate(139,20)"/>
<path d="M0 0 C4.29 0 8.58 0 13 0 C13 0.99 13 1.98 13 3 C10.36 3 7.72 3 5 3 C5 3.66 5 4.32 5 5 C-0.61 5 -6.22 5 -12 5 C-12 4.67 -12 4.34 -12 4 C-6.06 3.505 -6.06 3.505 0 3 C0 2.01 0 1.02 0 0 Z " fill="#AEAFB1" transform="translate(150,0)"/>
<path d="M0 0 C1.65 0 3.3 0 5 0 C5 0.33 5 0.66 5 1 C21.335 1.495 21.335 1.495 38 2 C38 2.33 38 2.66 38 3 C25.13 3 12.26 3 -1 3 C-0.67 2.01 -0.34 1.02 0 0 Z " fill="#3E4049" transform="translate(272,0)"/>
<path d="M0 0 C0 0.33 0 0.66 0 1 C-2.31 1 -4.62 1 -7 1 C-7 1.66 -7 2.32 -7 3 C-12.61 3 -18.22 3 -24 3 C-24 2.34 -24 1.68 -24 1 C-15.97497656 0.20318916 -8.06350113 -0.12867289 0 0 Z M-25 3 C-24.67 3.66 -24.34 4.32 -24 5 C-25.65 5 -27.3 5 -29 5 C-27.68 4.34 -26.36 3.68 -25 3 Z " fill="#545558" transform="translate(187,10)"/>
<path d="M0 0 C0.97582031 0.10183594 1.95164063 0.20367187 2.95703125 0.30859375 C3.69308594 0.39238281 4.42914063 0.47617188 5.1875 0.5625 C4.8575 1.5525 4.5275 2.5425 4.1875 3.5625 C2.06311661 3.64328641 -0.0621323 3.70159141 -2.1875 3.75 C-3.37085938 3.78480469 -4.55421875 3.81960937 -5.7734375 3.85546875 C-7.27777344 3.71044922 -7.27777344 3.71044922 -8.8125 3.5625 C-9.4725 2.5725 -10.1325 1.5825 -10.8125 0.5625 C-7.01982808 -0.3735342 -3.87575435 -0.42026252 0 0 Z " fill="#010103" transform="translate(149.8125,0.4375)"/>
<path d="M0 0 C4.29 0 8.58 0 13 0 C13.33 0.99 13.66 1.98 14 3 C9.05 3 4.1 3 -1 3 C-0.67 2.01 -0.34 1.02 0 0 Z " fill="#0C0E17" transform="translate(164,22)"/>
<path d="M0 0 C4.95 0 9.9 0 15 0 C15 0.99 15 1.98 15 3 C10.05 3 5.1 3 0 3 C0 2.01 0 1.02 0 0 Z " fill="#78797C" transform="translate(108,0)"/>
<path d="M0 0 C0.33 0.99 0.66 1.98 1 3 C-8.9 3 -18.8 3 -29 3 C-29 2.34 -29 1.68 -29 1 C-24.72920293 0.8323954 -20.45835675 0.66607641 -16.1875 0.5 C-14.97255859 0.45230469 -13.75761719 0.40460937 -12.50585938 0.35546875 C-11.34248047 0.31035156 -10.17910156 0.26523437 -8.98046875 0.21875 C-7.90692139 0.17685547 -6.83337402 0.13496094 -5.72729492 0.09179688 C-3.81903204 0.02756746 -1.90934351 0 0 0 Z " fill="#050609" transform="translate(260,18)"/>
<path d="M0 0 C4.62 0 9.24 0 14 0 C13.01 0.33 12.02 0.66 11 1 C11 1.66 11 2.32 11 3 C7.04 3 3.08 3 -1 3 C-0.67 2.01 -0.34 1.02 0 0 Z " fill="#56575B" transform="translate(114,14)"/>
<path d="M0 0 C1.134375 0.020625 2.26875 0.04125 3.4375 0.0625 C3.4375 1.0525 3.4375 2.0425 3.4375 3.0625 C-4.8125 3.0625 -13.0625 3.0625 -21.5625 3.0625 C-21.5625 2.7325 -21.5625 2.4025 -21.5625 2.0625 C-19.73912109 1.97162109 -19.73912109 1.97162109 -17.87890625 1.87890625 C-16.29425772 1.79451668 -14.70962298 1.7098679 -13.125 1.625 C-12.32255859 1.58568359 -11.52011719 1.54636719 -10.69335938 1.50585938 C-6.74417951 1.28923769 -3.74082681 0.06562854 0 0 Z " fill="#75767A" transform="translate(159.5625,7.9375)"/>
<path d="M0 0 C3.96 0 7.92 0 12 0 C10 3 10 3 7.87109375 3.44140625 C6.66646484 3.50134766 6.66646484 3.50134766 5.4375 3.5625 C3.06261153 3.64690135 3.06261153 3.64690135 1 4 C0.67 4.66 0.34 5.32 0 6 C-1.65 6 -3.3 6 -5 6 C-5 5.01 -5 4.02 -5 3 C-3.35 2.67 -1.7 2.34 0 2 C0 1.34 0 0.68 0 0 Z " fill="#3E3E3E" transform="translate(85,7)"/>
<path d="M0 0 C2.97 0 5.94 0 9 0 C9.33 0.99 9.66 1.98 10 3 C7.36 3 4.72 3 2 3 C2 2.34 2 1.68 2 1 C1.34 0.67 0.68 0.34 0 0 Z M4 5 C0.04 5 -3.92 5 -8 5 C-8 4.67 -8 4.34 -8 4 C-6.56465159 3.7773254 -5.12654475 3.57238094 -3.6875 3.375 C-2.48673828 3.20097656 -2.48673828 3.20097656 -1.26171875 3.0234375 C1 3 1 3 4 5 Z " fill="#7C7C80" transform="translate(183,4)"/>
<path d="M0 0 C3.63 0 7.26 0 11 0 C11 0.99 11 1.98 11 3 C7.04 3 3.08 3 -1 3 C-0.67 2.01 -0.34 1.02 0 0 Z " fill="#050A0E" transform="translate(299,88)"/>
<path d="M0 0 C1.09570312 0.00902344 2.19140625 0.01804687 3.3203125 0.02734375 C4.16335937 0.03894531 5.00640625 0.05054688 5.875 0.0625 C5.875 0.3925 5.875 0.7225 5.875 1.0625 C4.225 1.0625 2.575 1.0625 0.875 1.0625 C0.875 1.7225 0.875 2.3825 0.875 3.0625 C0.215 2.7325 -0.445 2.4025 -1.125 2.0625 C-1.455 2.3925 -1.785 2.7225 -2.125 3.0625 C-4.12458364 3.10330783 -6.12545254 3.10504356 -8.125 3.0625 C-8.125 2.4025 -8.125 1.7425 -8.125 1.0625 C-5.36047967 -0.31976016 -3.0788637 -0.03275387 0 0 Z M-9.125 3.0625 C-6.815 3.3925 -4.505 3.7225 -2.125 4.0625 C-2.125 4.3925 -2.125 4.7225 -2.125 5.0625 C-4.435 5.0625 -6.745 5.0625 -9.125 5.0625 C-9.125 4.4025 -9.125 3.7425 -9.125 3.0625 Z " fill="#8F9092" transform="translate(137.125,11.9375)"/>
<path d="M0 0 C1.05960938 0.00676758 1.05960938 0.00676758 2.140625 0.01367188 C3.88545275 0.02546125 5.630237 0.04339676 7.375 0.0625 C7.375 0.7225 7.375 1.3825 7.375 2.0625 C4.91720024 2.28376178 2.45972352 2.49000395 0 2.6875 C-1.04800781 2.78417969 -1.04800781 2.78417969 -2.1171875 2.8828125 C-3.94869111 3.02369739 -5.78812748 3.05011659 -7.625 3.0625 C-8.285 2.4025 -8.945 1.7425 -9.625 1.0625 C-6.55966836 -0.47016582 -3.35745728 -0.04026471 0 0 Z M-9.625 3.0625 C-7.625 4.0625 -7.625 4.0625 -7.625 4.0625 Z " fill="#06070C" transform="translate(170.625,-0.0625)"/>
<path d="M0 0 C1.32 0.33 2.64 0.66 4 1 C4 2.32 4 3.64 4 5 C4.66 5.66 5.32 6.32 6 7 C3.125 7.625 3.125 7.625 0 8 C-0.66 7.34 -1.32 6.68 -2 6 C-1.34 4.02 -0.68 2.04 0 0 Z M6 4 C7.65 4 9.3 4 11 4 C9.02 4.99 9.02 4.99 7 6 C6.67 5.34 6.34 4.68 6 4 Z " fill="#000000" transform="translate(216,5)"/>
<path d="M0 0 C4.62 0 9.24 0 14 0 C13.67 0.99 13.34 1.98 13 3 C9.04 3 5.08 3 1 3 C0.67 2.01 0.34 1.02 0 0 Z " fill="#9A9B9E" transform="translate(130,0)"/>
<path d="M0 0 C3.3 0 6.6 0 10 0 C9.67 0.99 9.34 1.98 9 3 C6.03 3 3.06 3 0 3 C0 2.01 0 1.02 0 0 Z " fill="#818183" transform="translate(264,22)"/>
<path d="M0 0 C0 0.99 0 1.98 0 3 C-2.31 3 -4.62 3 -7 3 C-7 3.66 -7 4.32 -7 5 C-8.65 5 -10.3 5 -12 5 C-12 4.01 -12 3.02 -12 2 C-10.7625 1.67 -9.525 1.34 -8.25 1 C-7.55390625 0.814375 -6.8578125 0.62875 -6.140625 0.4375 C-4 0 -4 0 0 0 Z " fill="#989899" transform="translate(235,6)"/>
<path d="M0 0 C0 0.99 0 1.98 0 3 C-2.31 3 -4.62 3 -7 3 C-7 3.66 -7 4.32 -7 5 C-8.9375 4.625 -8.9375 4.625 -11 4 C-11.33 3.34 -11.66 2.68 -12 2 C-10.7625 1.67 -9.525 1.34 -8.25 1 C-7.55390625 0.814375 -6.8578125 0.62875 -6.140625 0.4375 C-4 0 -4 0 0 0 Z " fill="#888889" transform="translate(122,20)"/>
<path d="M0 0 C0.90105469 0.02707031 1.80210937 0.05414063 2.73046875 0.08203125 C3.76107422 0.13423828 3.76107422 0.13423828 4.8125 0.1875 C4.4825 1.1775 4.1525 2.1675 3.8125 3.1875 C0.04870313 4.9941225 -4.22888185 3.78129272 -8.1875 3.1875 C-5.67753317 0.01043235 -3.96125134 -0.15433447 0 0 Z " fill="#010105" transform="translate(157.1875,12.8125)"/>
<path d="M0 0 C3.375 -0.125 3.375 -0.125 7 0 C9 2 9 2 9 4 C5.7 3.67 2.4 3.34 -1 3 C-0.67 2.01 -0.34 1.02 0 0 Z " fill="#545456" transform="translate(154,19)"/>
<path d="M0 0 C-0.33 0.99 -0.66 1.98 -1 3 C-3.97 3 -6.94 3 -10 3 C-10 2.34 -10 1.68 -10 1 C-6.78548731 -0.60725635 -3.56387464 -0.05748185 0 0 Z " fill="#7B7B7D" transform="translate(132,22)"/>
<path d="M0 0 C2.64 0 5.28 0 8 0 C7.67 0.99 7.34 1.98 7 3 C4.69 3 2.38 3 0 3 C0 2.01 0 1.02 0 0 Z " fill="#7B7C7D" transform="translate(214,22)"/>
<path d="M0 0 C0.66 0.33 1.32 0.66 2 1 C2.33 1.99 2.66 2.98 3 4 C0.03 3.67 -2.94 3.34 -6 3 C-6 2.67 -6 2.34 -6 2 C-4.02 2 -2.04 2 0 2 C0 1.34 0 0.68 0 0 Z M-1 4 C1.97 4.495 1.97 4.495 5 5 C5 5.33 5 5.66 5 6 C3.02 6 1.04 6 -1 6 C-1 5.34 -1 4.68 -1 4 Z " fill="#06070C" transform="translate(135,13)"/>
<path d="M0 0 C2.31 0 4.62 0 7 0 C6.01 0.495 6.01 0.495 5 1 C5 1.66 5 2.32 5 3 C3.02 3 1.04 3 -1 3 C-0.67 2.01 -0.34 1.02 0 0 Z M-3 3 C-1 4 -1 4 -1 4 Z " fill="#6D6D6E" transform="translate(223,0)"/>
<path d="M0 0 C0.99 0.33 1.98 0.66 3 1 C2.67 1.66 2.34 2.32 2 3 C4.31 3 6.62 3 9 3 C9 3.33 9 3.66 9 4 C5.7 4 2.4 4 -1 4 C-0.67 2.68 -0.34 1.36 0 0 Z " fill="#08090C" transform="translate(218,14)"/>
<path d="M0 0 C1.65 0 3.3 0 5 0 C5.33 0.99 5.66 1.98 6 3 C3.69 3 1.38 3 -1 3 C-0.67 2.01 -0.34 1.02 0 0 Z " fill="#909092" transform="translate(175,14)"/>
<path d="M0 0 C1.98 0 3.96 0 6 0 C5.67 0.99 5.34 1.98 5 3 C3.02 3.33 1.04 3.66 -1 4 C-0.67 2.68 -0.34 1.36 0 0 Z " fill="#0B0D15" transform="translate(181,12)"/>
<path d="M0 0 C2.64 0 5.28 0 8 0 C5.08235 1.9451 3.37462715 2.45276317 0 3 C0 2.01 0 1.02 0 0 Z M-2 3 C0 4 0 4 0 4 Z " fill="#04050E" transform="translate(144,12)"/>
</svg>
