<?xml version="1.0" encoding="UTF-8"?>
<svg version="1.1" xmlns="http://www.w3.org/2000/svg" width="800" height="600">
<path d="M0 0 C264 0 528 0 800 0 C800 198 800 396 800 600 C536 600 272 600 0 600 C0 402 0 204 0 0 Z " fill="#EA8BCB" transform="translate(0,0)"/>
<path d="M0 0 C0 0.66 0 1.32 0 2 C0.680625 2.165 1.36125 2.33 2.0625 2.5 C9.62672879 6.36258491 13.96142531 14.34421611 17 22 C18.79364105 27.80130778 20.4881446 33.98045078 17.69824219 39.64135742 C13.40216989 43.39672789 8.96637904 42.61822472 3.453125 42.48828125 C2.3267865 42.48120651 1.200448 42.47413177 0.03997803 42.46684265 C-3.557357 42.43885492 -7.15313544 42.37610397 -10.75 42.3125 C-13.18877961 42.28742299 -15.62758361 42.26460879 -18.06640625 42.24414062 C-24.0448019 42.18901378 -30.02228975 42.10534231 -36 42 C-36 41.34 -36 40.68 -36 40 C-36.66 40 -37.32 40 -38 40 C-39.30990116 34.76039536 -39.30990116 34.76039536 -38.11206055 31.82128906 C-34.66211864 28.84630737 -30.91875923 29.5088201 -26.51953125 29.609375 C-25.12754768 29.61786469 -25.12754768 29.61786469 -23.70744324 29.62652588 C-20.74193854 29.64892624 -17.7776398 29.69912927 -14.8125 29.75 C-12.80275182 29.77006027 -10.79298471 29.78831187 -8.78320312 29.8046875 C-3.85500371 29.84880304 1.07229365 29.91785576 6 30 C4.91372494 27.90466431 3.81891475 25.81459048 2.71875 23.7265625 C2.10966797 22.56205566 1.50058594 21.39754883 0.87304688 20.19775391 C-2.34000004 14.71228877 -6.84290564 10.7416109 -12.86328125 8.46875 C-21.04941315 6.67288925 -30.45262191 7.23884813 -38 11 C-44.83100383 15.78385757 -50.3795462 21.58553346 -52 30 C-52.81399528 40.59528284 -51.91159558 49.24654306 -45.3125 57.8125 C-41.83032161 61.57966486 -37.57311988 63.78660998 -33 66 C-32.01 66.495 -32.01 66.495 -31 67 C-20.37288344 67.76535314 -9.87095728 67.96510361 -1.31640625 60.73046875 C0.36916764 59.14006842 2.01714504 57.50826838 3.61328125 55.828125 C6.59367511 53.54527013 8.33451344 53.64032744 12 54 C12 54.66 12 55.32 12 56 C12.66 56 13.32 56 14 56 C14.75 59.1875 14.75 59.1875 15 63 C8.79388577 72.22216975 -1.34596379 77.68504892 -12 80 C-25.82345658 82.27754891 -38.53583791 79.99544815 -50 71.875 C-50.66 71.25625 -51.32 70.6375 -52 70 C-52 69.34 -52 68.68 -52 68 C-52.8971875 67.62488281 -52.8971875 67.62488281 -53.8125 67.2421875 C-60.20258303 63.61353321 -63.27701836 55.00110743 -65.3046875 48.3046875 C-67.75252599 36.67057874 -66.33130373 25.55833943 -60.421875 15.24609375 C-53.54003524 4.84583592 -43.27519021 -2.97759011 -30.8828125 -5.6796875 C-19.85289942 -6.9052334 -9.89242566 -5.2918518 0 0 Z " fill="#FEF9FE" transform="translate(581,283)"/>
<path d="M0 0 C1.10666016 0.00499512 2.21332031 0.00999023 3.35351562 0.01513672 C11.80153918 0.19538443 18.31873927 1.26151147 25.75 5.5 C26.65234375 5.98082031 27.5546875 6.46164062 28.484375 6.95703125 C32.26067356 9.17941814 34.34780029 10.49450072 36 14.625 C35.75 17.5 35.75 17.5 34.6875 19.875 C31.94831275 22.17238285 30.26199387 21.80724612 26.75 21.5 C24.0390625 20.2578125 24.0390625 20.2578125 21.375 18.625 C14.31555258 14.31436397 7.43518706 13.10650993 -0.6875 13.125 C-1.42887207 13.12661133 -2.17024414 13.12822266 -2.93408203 13.12988281 C-9.80818047 13.28367927 -15.13983846 14.67258042 -20.3125 19.375 C-21.6387096 22.3810751 -21.78121479 24.24630939 -21.25 27.5 C-17.44302035 32.95667083 -12.4037587 34.00744134 -6.25 35.5 C-1.03323212 36.42813401 4.21707492 37.11626408 9.47265625 37.78515625 C18.30268905 39.05278059 27.05407086 41.37273866 32.8125 48.6875 C33.63427734 49.69876953 33.63427734 49.69876953 34.47265625 50.73046875 C37.88919058 55.46346585 37.25827099 60.87372248 36.75 66.5 C34.51176209 73.95673826 29.39023189 78.78459484 22.7890625 82.60546875 C8.44620035 88.89764391 -7.92643293 87.15383534 -22.125 81.6875 C-27.40850839 79.59541016 -31.14839754 77.35098294 -35.25 73.5 C-36.3125 70.9375 -36.3125 70.9375 -36.25 68.5 C-35.25 66.1875 -35.25 66.1875 -33.25 64.5 C-27.03640006 63.20550001 -23.29067187 65.99275321 -17.98046875 69.03125 C-8.73724357 74.00328529 4.70500903 74.16452533 14.80859375 71.77734375 C18.26102143 70.37709804 20.35040672 68.93485151 22.875 66.1875 C24.11566505 62.37688592 24.06433097 60.30464229 22.75 56.5 C16.47773499 51.46976766 7.69297005 50.60231903 0 49.5625 C-11.07454151 48.02272417 -22.64363148 46.39387459 -30.6875 37.9375 C-34.96554272 31.26375335 -35.08892836 25.37709575 -34.25 17.5 C-32.11663885 11.18922003 -27.0174583 6.61332542 -21.25 3.5 C-14.24779011 0.39636798 -7.59017671 -0.04476964 0 0 Z " fill="#FEFAFC" transform="translate(236.25,277.5)"/>
<path d="M0 0 C1.39667947 1.20447588 2.77284284 2.43324855 4.125 3.6875 C4.77339844 4.25726563 5.42179687 4.82703125 6.08984375 5.4140625 C10.31591141 9.32741902 13.01402891 13.33503776 15.125 18.6875 C15.6351062 19.87037598 15.6351062 19.87037598 16.15551758 21.07714844 C17.54127467 26.23770645 17.45014079 31.22109321 17.4609375 36.54296875 C17.4709227 38.2508532 17.4709227 38.2508532 17.48110962 39.99324036 C17.4912111 42.39285673 17.49592742 44.79250106 17.49560547 47.19213867 C17.49999725 50.87269713 17.53639602 54.55207392 17.57421875 58.23242188 C17.58008355 60.56510006 17.58405519 62.89778395 17.5859375 65.23046875 C17.60030853 66.33359909 17.61467957 67.43672943 17.62948608 68.57328796 C17.62333282 69.59477432 17.61717957 70.61626068 17.61083984 71.66870117 C17.61368988 72.56771652 17.61653992 73.46673187 17.61947632 74.39299011 C17.125 76.6875 17.125 76.6875 15.28994751 78.51289368 C12.23676313 80.16941868 10.39956368 79.61292017 7.125 78.6875 C4.68898242 76.25148242 4.87152686 75.62758734 4.85375977 72.28881836 C4.83847984 70.92115578 4.83847984 70.92115578 4.82289124 69.52586365 C4.82075119 68.53635208 4.81861115 67.54684052 4.81640625 66.52734375 C4.79122684 64.43294016 4.76582912 62.33853918 4.74023438 60.24414062 C4.71159518 56.94182126 4.68758318 53.63954786 4.66870117 50.3371582 C4.64691109 47.15029945 4.60743917 43.96400464 4.56640625 40.77734375 C4.56623253 39.31433083 4.56623253 39.31433083 4.5660553 37.82176208 C4.45368518 29.9547932 3.15534018 22.58827885 -1.8125 16.25 C-2.29589844 15.61191406 -2.77929688 14.97382813 -3.27734375 14.31640625 C-5.01025933 12.54959501 -6.61386014 11.65935061 -8.875 10.6875 C-8.875 10.0275 -8.875 9.3675 -8.875 8.6875 C-18.62927992 6.08635869 -29.67379908 4.59541683 -38.875 9.6875 C-46.21989353 15.04111128 -51.01696885 20.49406283 -53.625 29.1875 C-54.63013161 39.23881615 -53.12456965 47.87055372 -46.6171875 55.8671875 C-39.7195286 63.07415845 -33.26891921 65.82693631 -23.3984375 66.24609375 C-20.49448319 66.75406099 -19.56385929 67.30094802 -17.875 69.6875 C-17.4375 73.1875 -17.4375 73.1875 -17.875 76.6875 C-20.07714401 78.94597792 -21.34257076 79.64398795 -24.50390625 79.90234375 C-39.30566129 78.50297676 -49.81149557 73.17568123 -59.375 61.73046875 C-61.68539712 58.58375601 -63.42360835 55.30566116 -64.875 51.6875 C-65.23078125 50.80578125 -65.5865625 49.9240625 -65.953125 49.015625 C-68.76880731 38.85053462 -68.10235352 26.69781019 -63.42578125 17.265625 C-56.36195864 5.52224233 -46.97697014 -3.16141462 -33.4375 -6.625 C-21.68914743 -8.74422997 -9.74387141 -7.35761718 0 0 Z " fill="#FEF9FD" transform="translate(443.875,284.3125)"/>
<path d="M0 0 C2.1953125 1.1171875 2.1953125 1.1171875 4.1875 2.375 C4.88617188 2.81070312 5.58484375 3.24640625 6.3046875 3.6953125 C11.97480518 7.6109032 18.49068699 12.68189107 19.8125 19.6875 C19.1875 22.375 19.1875 22.375 18.0625 24.25 C15.12455242 26.01276855 13.55775536 26.03583438 10.1875 25.375 C8.60360406 23.80464163 7.31946186 22.09636306 5.9609375 20.328125 C1.20701907 15.09253201 -5.49451005 11.6999428 -12.51171875 11.171875 C-21.70985187 11.02759056 -29.591295 12.27709355 -36.8125 18.375 C-42.64283761 25.73437223 -46.44342572 32.92878586 -46.16796875 42.46484375 C-45.30385017 49.5392211 -42.55360542 57.02606055 -37.8125 62.375 C-28.08482174 69.42170669 -19.72562536 71.94472266 -7.8125 70.375 C-0.49229458 67.9935166 3.92388176 63.85805717 8.62890625 57.95703125 C10.1875 56.375 10.1875 56.375 13.4375 55.6875 C16.1875 56.375 16.1875 56.375 18.0625 57.5 C19.84702249 60.47420415 19.83596 61.93816202 19.1875 65.375 C12.89570254 74.59573766 3.92523628 81.30554442 -7 83.6875 C-18.21051072 85.40861575 -29.61783919 83.95548706 -39.28515625 77.80078125 C-49.51428748 70.20151014 -55.82627414 60.83295545 -58.8125 48.375 C-60.02255024 35.395619 -58.34041257 25.23939812 -50.4375 14.5 C-38.27310538 0.00736641 -18.42142523 -6.98044572 0 0 Z " fill="#FEF9FD" transform="translate(344.8125,279.625)"/>
<path d="M0 0 C1.63353943 1.63353943 1.13640271 3.47681222 1.14717102 5.73165894 C1.15432632 6.75522491 1.16148163 7.77879089 1.16885376 8.83337402 C1.17288712 10.53209656 1.17288712 10.53209656 1.17700195 12.26513672 C1.18357315 13.45039948 1.19014435 14.63566223 1.19691467 15.85684204 C1.21328575 19.11721218 1.22488236 22.37754867 1.2331202 25.63794851 C1.23826533 27.67339046 1.24434126 29.7088278 1.25063133 31.74426651 C1.26968915 38.10824836 1.28391934 44.47221857 1.2922433 50.83622348 C1.30202074 58.19074501 1.32835058 65.54496595 1.36874419 72.89938152 C1.398869 78.5783851 1.41370867 84.25730236 1.41702431 89.93638432 C1.41937892 93.3308825 1.42839157 96.72505979 1.45348549 100.1194725 C1.47768741 103.90525343 1.4769464 107.69024055 1.4699707 111.47607422 C1.48278076 112.60450745 1.49559082 113.73294067 1.50878906 114.89556885 C1.50184525 115.92477448 1.49490143 116.9539801 1.48774719 118.01437378 C1.49013555 118.90997953 1.4925239 119.80558529 1.49498463 120.72833061 C1 123 1 123 -0.87032795 124.81941414 C-3 126 -3 126 -5.5625 125.875 C-8.23711824 124.91488063 -9.26290636 124.21890576 -11 122 C-11.37473011 119.76515198 -11.37473011 119.76515198 -11.3742218 117.10375977 C-11.38123611 116.09427277 -11.38825043 115.08478577 -11.39547729 114.04470825 C-11.38783356 112.93811859 -11.38018982 111.83152893 -11.37231445 110.69140625 C-11.37596512 109.52535858 -11.37961578 108.35931091 -11.38337708 107.15792847 C-11.39150177 103.29263879 -11.37785603 99.4277658 -11.36328125 95.5625 C-11.36276288 92.88353891 -11.36322722 90.20459377 -11.36479187 87.52563477 C-11.36567494 81.9066874 -11.3545918 76.28786065 -11.33618164 70.66894531 C-11.31501375 64.17111477 -11.31150404 57.67346095 -11.3177436 51.17560291 C-11.32343687 44.92693051 -11.31779205 38.6783204 -11.30657005 32.42965698 C-11.30271262 29.76944225 -11.30157207 27.10922218 -11.3031559 24.44900513 C-11.30352551 20.73543062 -11.29093508 17.0221276 -11.2746582 13.30859375 C-11.27713562 12.20200409 -11.27961304 11.09541443 -11.28216553 9.95529175 C-11.27508072 8.94580475 -11.26799591 7.93631775 -11.26069641 6.89624023 C-11.25864354 6.0179808 -11.25659067 5.13972137 -11.25447559 4.23484802 C-11 2 -11 2 -9 -1 C-5.21801096 -2.26066301 -3.63636792 -1.42292658 0 0 Z " fill="#FEFAFE" transform="translate(493,238)"/>
<path d="M0 0 C0.99 0 1.98 0 3 0 C3 1.32 3 2.64 3 4 C3.66 4 4.32 4 5 4 C5 5.32 5 6.64 5 8 C5.66 8 6.32 8 7 8 C7 8.66 7 9.32 7 10 C7.66 10 8.32 10 9 10 C9 13.3 9 16.6 9 20 C9.66 20 10.32 20 11 20 C11.30722508 24.45476369 11.44097453 26.93631599 9.7109375 31.109375 C6.6232168 34.4017573 6.06666352 34.44941441 1.77246094 34.68115234 C-0.40713193 34.68020328 -2.5868694 34.64635261 -4.765625 34.5859375 C-5.91415955 34.57744781 -7.06269409 34.56895813 -8.24603271 34.56021118 C-11.91497534 34.52662012 -15.58172151 34.45132247 -19.25 34.375 C-21.73694743 34.34490813 -24.22392931 34.31753099 -26.7109375 34.29296875 C-32.80804128 34.22680981 -38.90386374 34.12640172 -45 34 C-45 33.67 -45 33.34 -45 33 C-44.38025803 32.99635437 -43.76051605 32.99270874 -43.12199402 32.98895264 C-36.68177555 32.9471989 -30.2422745 32.87790393 -23.80249023 32.79248047 C-21.39794077 32.76422413 -18.99329761 32.74303294 -16.58862305 32.72900391 C-13.13541532 32.70763945 -9.6833397 32.66102094 -6.23046875 32.609375 C-4.61316109 32.60753204 -4.61316109 32.60753204 -2.96318054 32.60565186 C-1.96236954 32.58593323 -0.96155853 32.5662146 0.06958008 32.54589844 C0.95116287 32.53701599 1.83274567 32.52813354 2.74104309 32.51898193 C5.15611073 32.18257708 5.15611073 32.18257708 6.79472351 30.11651611 C9.14259426 25.99355652 7.8624563 21.48014214 7 17 C5.38434195 11.34154148 3.54785582 6.69330641 0 2 C0 1.34 0 0.68 0 0 Z " fill="#D6A5D7" transform="translate(591,292)"/>
<path d="M0 0 C0.66 0 1.32 0 2 0 C4 2 4 2 4.23046875 3.91015625 C4.11111111 9.88888889 4.11111111 9.88888889 3 11 C2.63239269 13.32817964 2.29758419 15.6618385 2 18 C1.34 18 0.68 18 0 18 C0 19.32 0 20.64 0 22 C-0.66 22 -1.32 22 -2 22 C-2 22.66 -2 23.32 -2 24 C-2.66 24 -3.32 24 -4 24 C-4 24.66 -4 25.32 -4 26 C-4.66 26 -5.32 26 -6 26 C-6.226875 26.61875 -6.45375 27.2375 -6.6875 27.875 C-8.42148712 30.68240771 -9.84570354 31.17387474 -13 32 C-15.1640625 31.54296875 -15.1640625 31.54296875 -17 31 C-15.56429734 30.18432826 -14.12636566 29.37257907 -12.6875 28.5625 C-11.88699219 28.11003906 -11.08648437 27.65757812 -10.26171875 27.19140625 C-8 26 -8 26 -5 25 C-3.89831016 23.30230766 -3.89831016 23.30230766 -3 21 C-2.46375 20.05125 -1.9275 19.1025 -1.375 18.125 C1.08920276 12.49076756 0.22500238 6.00839692 0 0 Z " fill="#D8A4BB" transform="translate(272,330)"/>
<path d="M0 0 C0.66 0.99 1.32 1.98 2 3 C0.37660195 4.70884005 -1.29319053 6.37446717 -3 8 C-3.66 8 -4.32 8 -5 8 C-4.979375 8.969375 -4.95875 9.93875 -4.9375 10.9375 C-5 14 -5 14 -6 15 C-6.15582303 16.34015221 -6.25044142 17.68758903 -6.31640625 19.03515625 C-6.37924805 20.24848633 -6.37924805 20.24848633 -6.44335938 21.48632812 C-6.48267578 22.33646484 -6.52199219 23.18660156 -6.5625 24.0625 C-6.60568359 24.91650391 -6.64886719 25.77050781 -6.69335938 26.65039062 C-6.79976702 28.76672037 -6.90041731 30.88333813 -7 33 C-10.34547868 26.85677217 -9.81855417 19.31288626 -8.53515625 12.55078125 C-6.85453132 7.4890174 -3.6653876 3.79587065 0 0 Z " fill="#D99DD6" transform="translate(537,298)"/>
<path d="M0 0 C0.99 0 1.98 0 3 0 C3 0.66 3 1.32 3 2 C3.66 2 4.32 2 5 2 C5.50731767 7.32683552 4.26718004 9.82526994 1 14 C-1.87953797 17.21131082 -4.57743042 19.02902399 -8.5 20.8125 C-9.4384375 21.25207031 -10.376875 21.69164062 -11.34375 22.14453125 C-14.13241822 23.04264645 -15.31058083 23.03390407 -18 22 C-17.443125 21.78085937 -16.88625 21.56171875 -16.3125 21.3359375 C-9.20013789 18.3804627 -2.20668737 14.70001272 2 8 C2.25063732 4.33285151 2.25063732 4.33285151 2 1 C1.34 0.67 0.68 0.34 0 0 Z " fill="#DEA5DC" transform="translate(593,338)"/>
<path d="M0 0 C0.33 0.99 0.66 1.98 1 3 C0.34 3 -0.32 3 -1 3 C-1 4.32 -1 5.64 -1 7 C-1.66 7 -2.32 7 -3 7 C-4.0390378 11.42682491 -4.31592951 15.78934632 -4.5625 20.3125 C-4.60568359 21.05306641 -4.64886719 21.79363281 -4.69335938 22.55664062 C-4.79870432 24.37091464 -4.89978316 26.1854355 -5 28 C-7.80059557 23.12154321 -7.82263457 18.48883904 -7 13 C-3.15678776 3.15678776 -3.15678776 3.15678776 0 0 Z " fill="#DAA2C1" transform="translate(305,301)"/>
<path d="M0 0 C3 3.75 3 3.75 3 6 C-10.53 6 -24.06 6 -38 6 C-38 5.67 -38 5.34 -38 5 C-25.46 5 -12.92 5 0 5 C0 3.35 0 1.7 0 0 Z " fill="#DAB5DA" transform="translate(584,307)"/>
<path d="M0 0 C-1.423125 0.928125 -1.423125 0.928125 -2.875 1.875 C-5.94445109 3.81970969 -5.94445109 3.81970969 -8 6 C-8.40047444 8.32275177 -8.7397104 10.65739357 -9 13 C-8.34 13 -7.68 13 -7 13 C-7 13.66 -7 14.32 -7 15 C-6.01 15.33 -5.02 15.66 -4 16 C-8 16 -8 16 -9.75 14.375 C-11.40662088 11.22742032 -11.56347734 9.52173339 -11 6 C-8.04888627 1.28914808 -5.6083346 -1.68250038 0 0 Z " fill="#DD93B2" transform="translate(225,293)"/>
<path d="M0 0 C0.99 0 1.98 0 3 0 C3 3.3 3 6.6 3 10 C2.34 10 1.68 10 1 10 C1 10.66 1 11.32 1 12 C-0.32 11.67 -1.64 11.34 -3 11 C-2.01 10.34 -1.02 9.68 0 9 C0.36362818 6.79274927 0.36362818 6.79274927 0.1875 4.375 C0.14689453 3.14910156 0.14689453 3.14910156 0.10546875 1.8984375 C0.07066406 1.27195312 0.03585937 0.64546875 0 0 Z " fill="#DD9DCB" transform="translate(425,352)"/>
<path d="M0 0 C-2.98682077 1.24450866 -5.86830624 2.21707656 -9 3 C-10.5877111 3.50733153 -12.17107494 4.02845182 -13.75 4.5625 C-14.94882812 4.96662109 -14.94882812 4.96662109 -16.171875 5.37890625 C-16.77515625 5.58386719 -17.3784375 5.78882813 -18 6 C-14.01340327 0.74494068 -6.35489648 -2.16243005 0 0 Z " fill="#DDA0DC" transform="translate(557,291)"/>
<path d="M0 0 C0.33 0 0.66 0 1 0 C1 2.97 1 5.94 1 9 C0.34 9 -0.32 9 -1 9 C-1 10.98 -1 12.96 -1 15 C-1.33 15 -1.66 15 -2 15 C-2.19392201 9.47322267 -1.7479503 5.24385089 0 0 Z " fill="#D9A6C9" transform="translate(391,309)"/>
<path d="M0 0 C0.33 0.99 0.66 1.98 1 3 C0.34 3 -0.32 3 -1 3 C-1 4.32 -1 5.64 -1 7 C-1.66 7 -2.32 7 -3 7 C-3.33 8.65 -3.66 10.3 -4 12 C-4.66 12 -5.32 12 -6 12 C-4.68139111 7.38486888 -2.78644563 3.90102388 0 0 Z " fill="#D796BC" transform="translate(305,301)"/>
<path d="M0 0 C0.66 0 1.32 0 2 0 C4 2 4 2 4.1953125 3.9453125 C4.13020833 5.96354167 4.06510417 7.98177083 4 10 C3.01 10.495 3.01 10.495 2 11 C1.34 7.37 0.68 3.74 0 0 Z " fill="#E18CB5" transform="translate(272,330)"/>
<path d="M0 0 C0.66 0 1.32 0 2 0 C2 1.98 2 3.96 2 6 C2.66 6 3.32 6 4 6 C4 7.98 4 9.96 4 12 C0.46209597 8.30827405 0.40884117 4.90609405 0 0 Z " fill="#D998C6" transform="translate(390,324)"/>
<path d="M0 0 C-1.03491649 2.82249951 -1.69915265 3.83374226 -4.375 5.3125 C-7.16653942 6.04361747 -8.30861211 5.79596365 -11 5 C-9.54462432 4.16151196 -8.08559627 3.32936066 -6.625 2.5 C-5.81289063 2.0359375 -5.00078125 1.571875 -4.1640625 1.09375 C-2 0 -2 0 0 0 Z " fill="#E498B8" transform="translate(266,356)"/>
<path d="M0 0 C0.66 0 1.32 0 2 0 C2 0.66 2 1.32 2 2 C2.66 2 3.32 2 4 2 C4 2.66 4 3.32 4 4 C5.32 4 6.64 4 8 4 C7.67 5.32 7.34 6.64 7 8 C4.36 6.02 1.72 4.04 -1 2 C-0.67 1.34 -0.34 0.68 0 0 Z " fill="#DD95D2" transform="translate(440,280)"/>
<path d="M0 0 C0.66 0 1.32 0 2 0 C2 0.66 2 1.32 2 2 C2.66 2 3.32 2 4 2 C4 3.98 4 5.96 4 8 C2.02 8.99 2.02 8.99 0 10 C0.185625 8.906875 0.37125 7.81375 0.5625 6.6875 C1.2578068 3.06375867 1.2578068 3.06375867 0 0 Z " fill="#D98FB9" transform="translate(270,288)"/>
<path d="M0 0 C0.66 0 1.32 0 2 0 C2 0.66 2 1.32 2 2 C2.66 2 3.32 2 4 2 C4 2.66 4 3.32 4 4 C4.66 4 5.32 4 6 4 C6.33 4.99 6.66 5.98 7 7 C3.63408134 5.55746343 1.48952921 3.66735273 -1 1 C-0.67 0.67 -0.34 0.34 0 0 Z " fill="#D99DDB" transform="translate(584,284)"/>
<path d="M0 0 C2.475 0.495 2.475 0.495 5 1 C4.67 1.99 4.34 2.98 4 4 C2.68 4 1.36 4 0 4 C0 2.68 0 1.36 0 0 Z " fill="#EC97DA" transform="translate(482,362)"/>
</svg>
