<?xml version="1.0" encoding="UTF-8"?>
<svg version="1.1" xmlns="http://www.w3.org/2000/svg" width="451" height="112">
<path d="M0 0 C148.83 0 297.66 0 451 0 C451 36.96 451 73.92 451 112 C302.17 112 153.34 112 0 112 C0 75.04 0 38.08 0 0 Z " fill="#1F0934" transform="translate(0,0)"/>
<path d="M0 0 C4.1402585 1.46126771 7.36288255 3.5425664 10.08203125 7.0625 C12.04313126 11.20167278 11.68871812 15.56968824 11 20 C8.40949348 25.96942806 3.39574507 28.74871771 -2 32 C-1.22076172 32.32871094 -1.22076172 32.32871094 -0.42578125 32.6640625 C4.29777583 34.81192764 8.84236316 37.0215994 11 42 C11.96201939 47.6696061 12.15256035 52.60396717 9 57.5625 C5.84173717 61.64711918 1.91063701 63.74786873 -2.625 66.0625 C-3.42099609 66.48587646 -4.21699219 66.90925293 -5.03710938 67.34545898 C-6.62182038 68.1874572 -8.2099724 69.02301609 -9.80175781 69.8515625 C-12.7256605 71.37911006 -15.61160691 72.96890381 -18.5 74.5625 C-24.37068892 77.76057591 -28.24578311 78.56551895 -35 78 C-39.12394117 76.47593479 -41.23723212 74.00903649 -43.26953125 70.09375 C-45.10762174 64.82521254 -44.77631519 59.8349268 -42.625 54.75 C-38.94524046 50.89501382 -34.66698365 48.51162097 -30 46 C-30.60328125 45.76925781 -31.2065625 45.53851563 -31.828125 45.30078125 C-37.61515809 42.93929839 -41.11912519 40.76174962 -44 35 C-44.30859375 32.64453125 -44.30859375 32.64453125 -44.4375 29.8125 C-44.52837891 28.42998047 -44.52837891 28.42998047 -44.62109375 27.01953125 C-43.48757896 21.50879584 -40.03896522 18.37376533 -35.46313477 15.29077148 C-32.532039 13.55594859 -29.56535723 11.91974358 -26.5625 10.3125 C-25.0455957 9.48008789 -25.0455957 9.48008789 -23.49804688 8.63085938 C-21.54298475 7.55831714 -19.58421944 6.49249006 -17.62133789 5.43432617 C-15.39107346 4.21398497 -13.21015728 2.94131972 -11.03125 1.6328125 C-6.75761832 -0.66922106 -4.78535804 -0.53170645 0 0 Z " fill="#FBFAFA" transform="translate(157,16)"/>
<path d="M0 0 C2.875 1.5 2.875 1.5 5 3 C5 2.34 5 1.68 5 1 C6.32 1 7.64 1 9 1 C9.0992502 5.03833789 9.17164562 9.07619872 9.21972656 13.11547852 C9.2397799 14.48800023 9.26703028 15.86043717 9.30175781 17.23266602 C9.35054552 19.21072044 9.37088876 21.18941119 9.390625 23.16796875 C9.41157227 24.35672607 9.43251953 25.5454834 9.45410156 26.77026367 C8.91043198 30.63704051 7.69280063 32.23226872 5 35 C1.16441512 37.60078894 -2.13471198 37.15053256 -6.58203125 36.625 C-10.27687329 35.66995198 -11.70710853 33.98075891 -14 31 C-13.67 30.01 -13.34 29.02 -13 28 C-10.54314575 28.42359556 -9.3035088 28.65510363 -7.625 30.5625 C-5.98690901 32.27469613 -5.98690901 32.27469613 -3.0625 32.4375 C0.05583297 32.23645392 0.05583297 32.23645392 2.3125 30.3125 C4.14301602 27.80401508 4.66009204 26.05917167 5 23 C4.34 23 3.68 23 3 23 C3 23.66 3 24.32 3 25 C-0.42299979 26.7114999 -4.24847297 26.41683634 -8 26 C-9.35113205 25.02418241 -10.68946944 24.02970259 -12 23 C-14.71475105 23.56911789 -14.71475105 23.56911789 -17 25 C-17.33 25.66 -17.66 26.32 -18 27 C-18.66 27 -19.32 27 -20 27 C-20.33 25.68 -20.66 24.36 -21 23 C-21.99 23.33 -22.98 23.66 -24 24 C-24.66 23.67 -25.32 23.34 -26 23 C-26 18.05 -26 13.1 -26 8 C-25.01 7.67 -24.02 7.34 -23 7 C-24.32 6.67 -25.64 6.34 -27 6 C-27 12.93 -27 19.86 -27 27 C-28.98 27 -30.96 27 -33 27 C-33 18.42 -33 9.84 -33 1 C-27.72 1 -22.44 1 -17 1 C-17.33 2.65 -17.66 4.3 -18 6 C-18.99 6.495 -18.99 6.495 -20 7 C-19.34 7.33 -18.68 7.66 -18 8 C-18 8.99 -18 9.98 -18 11 C-17.34 11 -16.68 11 -16 11 C-14.81544841 9.30315786 -14.81544841 9.30315786 -13.6875 7.1875 C-10.24413364 1.49889769 -6.83563259 -0.85445407 0 0 Z " fill="#FCF9FD" transform="translate(277,41)"/>
<path d="M0 0 C0 6.6 0 13.2 0 20 C-48.51 20 -97.02 20 -147 20 C-147 19.67 -147 19.34 -147 19 C-145.84628906 18.9906543 -144.69257813 18.98130859 -143.50390625 18.97167969 C-122.31012185 18.7721211 -101.22093065 18.28230763 -80.125 16.125 C-79.31208496 16.04390991 -78.49916992 15.96281982 -77.66162109 15.87927246 C-67.28271437 14.82607211 -57.20655158 13.18475537 -47 11 C-45.26541153 10.66360802 -43.52984568 10.33218152 -41.79296875 10.0078125 C-29.56742219 7.67950613 -17.4577423 4.92538381 -5.6796875 0.8515625 C-3 0 -3 0 0 0 Z " fill="#4A1E38" transform="translate(451,92)"/>
<path d="M0 0 C3.45075871 2.04372953 5.77663596 4.66495394 8 8 C8 10.31 8 12.62 8 15 C1.73 15 -4.54 15 -11 15 C-9.37717193 19.87102002 -9.37717193 19.87102002 -6 23 C-2.42243314 23.00082535 -2.42243314 23.00082535 1 22 C1.66 21.01 2.32 20.02 3 19 C4.32 19 5.64 19 7 19 C6.64607333 21.47748667 5.935181 23.10606746 4.625 25.25 C0.37344637 28.08436908 -4.05664797 27.86417117 -9 27 C-12.41311667 24.47429367 -13.66637768 23.00086696 -15 19 C-15.9026689 8.61190875 -15.9026689 8.61190875 -13.25 3.875 C-8.85023758 0.20853132 -5.84320664 -0.70521459 0 0 Z " fill="#E2DBE5" transform="translate(308,41)"/>
<path d="M0 0 C5.28 0 10.56 0 16 0 C15.67 1.65 15.34 3.3 15 5 C14.01 5.495 14.01 5.495 13 6 C13.66 6.33 14.32 6.66 15 7 C15 7.99 15 8.98 15 10 C15.66 10 16.32 10 17 10 C17 11.98 17 13.96 17 16 C17.66 16 18.32 16 19 16 C19.66 17.65 20.32 19.3 21 21 C19.7934375 21.680625 19.7934375 21.680625 18.5625 22.375 C15.91143428 23.74725665 15.91143428 23.74725665 15 26 C14.34 26 13.68 26 13 26 C12.67 24.68 12.34 23.36 12 22 C11.01 22.33 10.02 22.66 9 23 C8.34 22.67 7.68 22.34 7 22 C7 17.05 7 12.1 7 7 C7.99 6.67 8.98 6.34 10 6 C8.68 5.67 7.36 5.34 6 5 C6 11.93 6 18.86 6 26 C4.02 26 2.04 26 0 26 C0 17.42 0 8.84 0 0 Z " fill="#231036" transform="translate(244,42)"/>
<path d="M0 0 C-14.91016904 9.94011269 -39.1813214 12.24057956 -56.66772461 14.65673828 C-59.35591727 15.05238351 -62.02951139 15.51426008 -64.70703125 15.9765625 C-92.05400367 20.55231005 -119.3660083 20.36153159 -147 20 C-147 19.34 -147 18.68 -147 18 C-140.40179561 17.02111841 -133.93020748 16.81962885 -127.265625 16.75390625 C-124.97655873 16.72096387 -122.68749633 16.68775229 -120.3984375 16.65429688 C-116.82652448 16.60701435 -113.25462666 16.56255098 -109.68261719 16.52319336 C-106.21012713 16.48313355 -102.73794208 16.43167679 -99.265625 16.37890625 C-98.21522034 16.3704921 -97.16481567 16.36207794 -96.08258057 16.35340881 C-87.53123008 16.2131107 -79.28843339 15.12181951 -71 13 C-61.06749404 11.11090526 -51.12413941 9.77501912 -41 10 C-41 9.34 -41 8.68 -41 8 C-40.195625 8.061875 -39.39125 8.12375 -38.5625 8.1875 C-34.75591058 7.98715319 -31.93920386 7.07552838 -28.38671875 5.796875 C-25.22137713 4.74003426 -22.02001602 4.07687817 -18.75 3.4296875 C-16.98346216 3.15616145 -16.98346216 3.15616145 -16 2 C-14.25990151 1.60001092 -12.50709069 1.25462198 -10.75 0.9375 C-9.79609375 0.76089844 -8.8421875 0.58429688 -7.859375 0.40234375 C-5.1915009 0.02694617 -2.68901371 -0.07360439 0 0 Z " fill="#2E0922" transform="translate(451,91)"/>
<path d="M0 0 C0 0.99 0 1.98 0 3 C-1.65 3 -3.3 3 -5 3 C-5 3.66 -5 4.32 -5 5 C-8.82066382 6.71467408 -12.29073146 7.42464877 -16.4375 7.9375 C-21.24036623 8.62285282 -24.74108913 9.62293347 -29 12 C-30.95832099 12.51365796 -32.91840845 13.02377816 -34.89379883 13.46728516 C-37.01731267 14.00437884 -38.96896846 14.73699926 -41.01171875 15.5234375 C-46.62971852 17.42244718 -52.11363647 17.52055248 -58 17.625 C-60.06260088 17.67574049 -62.12511454 17.73021363 -64.1875 17.7890625 C-65.08855469 17.80662598 -65.98960937 17.82418945 -66.91796875 17.84228516 C-68.9889562 17.77173084 -68.9889562 17.77173084 -70 19 C-74.7760522 19.85260462 -79.37548587 20.12228664 -84.22045898 20.11352539 C-84.90423111 20.11367142 -85.58800323 20.11381744 -86.29249573 20.1139679 C-88.52706197 20.11327755 -90.76154228 20.10552677 -92.99609375 20.09765625 C-94.55550593 20.09578895 -96.11491869 20.09436652 -97.67433167 20.09336853 C-101.75956876 20.08956796 -105.84476975 20.07975891 -109.92999268 20.06866455 C-114.10631828 20.05839731 -118.28264976 20.05385957 -122.45898438 20.04882812 C-130.6393394 20.03813423 -138.8196652 20.02108765 -147 20 C-147 19.67 -147 19.34 -147 19 C-145.84628906 18.9906543 -144.69257813 18.98130859 -143.50390625 18.97167969 C-122.31012185 18.7721211 -101.22093065 18.28230763 -80.125 16.125 C-79.31208496 16.04390991 -78.49916992 15.96281982 -77.66162109 15.87927246 C-67.28271437 14.82607211 -57.20655158 13.18475537 -47 11 C-45.26541153 10.66360802 -43.52984568 10.33218152 -41.79296875 10.0078125 C-29.56742219 7.67950613 -17.4577423 4.92538381 -5.6796875 0.8515625 C-3 0 -3 0 0 0 Z " fill="#7F4752" transform="translate(451,92)"/>
<path d="M0 0 C2.40893555 0.12353516 2.40893555 0.12353516 5 1 C6.39379883 3.17724609 6.39379883 3.17724609 7.45703125 6.0234375 C8.04194336 7.55484375 8.04194336 7.55484375 8.63867188 9.1171875 C9.2197168 10.72980469 9.2197168 10.72980469 9.8125 12.375 C10.42254883 13.97601563 10.42254883 13.97601563 11.04492188 15.609375 C14 23.49620536 14 23.49620536 14 27 C12.68 27 11.36 27 10 27 C9.34 25.02 8.68 23.04 8 21 C4.04 21 0.08 21 -4 21 C-4.66 22.98 -5.32 24.96 -6 27 C-7.32 27 -8.64 27 -10 27 C-9.37882101 21.1473292 -7.21219333 16.08262185 -5 10.6875 C-4.63132812 9.76904297 -4.26265625 8.85058594 -3.8828125 7.90429688 C-1.14520575 1.14520575 -1.14520575 1.14520575 0 0 Z " fill="#F7F1F9" transform="translate(338,41)"/>
<path d="M0 0 C3.4375 1.8125 3.4375 1.8125 6 4 C6 4.99 6 5.98 6 7 C4.68 7.33 3.36 7.66 2 8 C1.67 7.34 1.34 6.68 1 6 C-0.89533342 5.53476937 -0.89533342 5.53476937 -3.0625 5.375 C-4.361875 5.25125 -5.66125 5.1275 -7 5 C-7.5534764 7.07553648 -8 8.84365964 -8 11 C-7.40832031 11.03738281 -6.81664062 11.07476562 -6.20703125 11.11328125 C2.5116135 11.83864974 2.5116135 11.83864974 6 15 C7.26326886 18.63189798 7.31752505 20.28556863 5.75 23.8125 C4 26 4 26 1 27 C-4.30746489 27.50116929 -8.58486487 27.88792792 -13.1875 25 C-13.785625 24.34 -14.38375 23.68 -15 23 C-14.34 21.68 -13.68 20.36 -13 19 C-12.34 19 -11.68 19 -11 19 C-10.4225 19.66 -9.845 20.32 -9.25 21 C-7.10802588 23.29782433 -7.10802588 23.29782433 -3.875 23.3125 C-1.06060827 23.17528074 -1.06060827 23.17528074 1 22 C1.65555119 19.47266765 1.65555119 19.47266765 2 17 C1.25234375 16.89042969 0.5046875 16.78085937 -0.265625 16.66796875 C-1.74289063 16.43013672 -1.74289063 16.43013672 -3.25 16.1875 C-4.22453125 16.03667969 -5.1990625 15.88585938 -6.203125 15.73046875 C-9.19489995 14.94909736 -10.82297288 14.18722397 -13 12 C-13.69328139 9.29238135 -13.48101248 6.74291641 -13 4 C-9.92339696 -0.5416521 -5.07289981 -0.42990676 0 0 Z " fill="#E6E1E9" transform="translate(203,41)"/>
<path d="M0 0 C1.65 0 3.3 0 5 0 C5 4.95 5 9.9 5 15 C2.37472811 15.05382106 -0.24944713 15.09358313 -2.875 15.125 C-3.62136719 15.14175781 -4.36773437 15.15851563 -5.13671875 15.17578125 C-7.09194461 15.1933959 -9.04742021 15.10320189 -11 15 C-11.66 14.34 -12.32 13.68 -13 13 C-12.34 12.67 -11.68 12.34 -11 12 C-13.31 12 -15.62 12 -18 12 C-18 11.34 -18 10.68 -18 10 C-16.02 9.34 -14.04 8.68 -12 8 C-14.64 8.33 -17.28 8.66 -20 9 C-20 9.66 -20 10.32 -20 11 C-23.47325181 12.1577506 -26.36067448 12.06866652 -30 12 C-27.08235 10.0549 -25.37462715 9.54723683 -22 9 C-21.67 8.01 -21.34 7.02 -21 6 C-14.3642728 3.37657297 -7.0300636 2.91654088 0 2 C0 1.34 0 0.68 0 0 Z " fill="#602436" transform="translate(446,95)"/>
<path d="M0 0 C1.32 0 2.64 0 4 0 C4.33 6.93 4.66 13.86 5 21 C8.3 21 11.6 21 15 21 C15.33 14.07 15.66 7.14 16 0 C17.65 0 19.3 0 21 0 C21.10876982 2.85520781 21.18766466 5.70620561 21.25 8.5625 C21.30027344 9.76229492 21.30027344 9.76229492 21.3515625 10.98632812 C21.44711725 16.83905657 20.47595172 20.24244737 17 25 C14.32296769 25.8923441 12.40616916 26.25160342 9.625 26.375 C8.49964844 26.44847656 8.49964844 26.44847656 7.3515625 26.5234375 C3.53068105 25.67294229 2.25108204 24.18147671 0 21 C-0.60116897 17.37364162 -0.47239725 13.85037708 -0.3125 10.1875 C-0.28994141 9.20845703 -0.26738281 8.22941406 -0.24414062 7.22070312 C-0.18539727 4.81222545 -0.10332129 2.40690922 0 0 Z " fill="#E6E1EA" transform="translate(216,42)"/>
<path d="M0 0 C2.0625 1.4375 2.0625 1.4375 3 4 C3.62304044 8.35329536 3.7644591 11.74628708 1.4375 15.5625 C-1.91522677 17.53974912 -4.17459766 17.48686939 -8 17 C-10.10358381 15.45737187 -10.84054159 14.31891683 -12 12 C-12.203125 9.94140625 -12.203125 9.94140625 -12.25 7.5625 C-12.28867187 6.38880859 -12.28867187 6.38880859 -12.328125 5.19140625 C-12 3 -12 3 -10.765625 1.2421875 C-7.49422295 -1.05937412 -3.81995926 -0.61176256 0 0 Z " fill="#1E0F30" transform="translate(279,46)"/>
<path d="M0 0 C1.875 1.5 1.875 1.5 3 3 C2.34 3 1.68 3 1 3 C1 3.66 1 4.32 1 5 C-0.27875 5.12375 -1.5575 5.2475 -2.875 5.375 C-6.34790936 5.69042399 -6.34790936 5.69042399 -9 8 C-9.28103071 10.07354839 -9.28103071 10.07354839 -9.1875 12.375 C-9.18105469 13.14585938 -9.17460937 13.91671875 -9.16796875 14.7109375 C-9.00595151 16.91889344 -8.60634894 18.87535332 -8 21 C-6.5629191 21.05422947 -5.12524538 21.09289723 -3.6875 21.125 C-2.88699219 21.14820312 -2.08648437 21.17140625 -1.26171875 21.1953125 C1.28388576 21.15817322 1.28388576 21.15817322 4 19 C4.33 20.32 4.66 21.64 5 23 C4.34 23 3.68 23 3 23 C3 23.66 3 24.32 3 25 C-0.47747287 26.73873643 -4.2061837 26.59073264 -8 26 C-11.23569211 23.52159753 -13.76679461 20.92383532 -15 17 C-15.46225901 12.22332358 -15.49973779 9.98096677 -13.3125 5.6875 C-9.36717008 1.10238684 -6.14182573 -0.8011077 0 0 Z " fill="#EBE4ED" transform="translate(277,41)"/>
<path d="M0 0 C2.9375 2.5 2.9375 2.5 5 5 C4.34 7.31 3.68 9.62 3 12 C0.70858714 12.05384521 -1.58318188 12.09272087 -3.875 12.125 C-5.78925781 12.15980469 -5.78925781 12.15980469 -7.7421875 12.1953125 C-11 12 -11 12 -13 10 C-13.99 10.495 -13.99 10.495 -15 11 C-14.58534283 6.16233301 -12.5801385 4.14353624 -9 1 C-5.86128812 -0.56935594 -3.46144178 -0.35201103 0 0 Z " fill="#DBD3DF" transform="translate(308,41)"/>
<path d="M0 0 C5.28 0 10.56 0 16 0 C16 1.32 16 2.64 16 4 C12.37 4 8.74 4 5 4 C5 11.26 5 18.52 5 26 C3.35 26 1.7 26 0 26 C0 17.42 0 8.84 0 0 Z " fill="#E6DFE8" transform="translate(244,42)"/>
<path d="M0 0 C0 0.99 0 1.98 0 3 C-1.65 3 -3.3 3 -5 3 C-5 3.66 -5 4.32 -5 5 C-8.82066382 6.71467408 -12.29073146 7.42464877 -16.4375 7.9375 C-21.24036623 8.62285282 -24.74108913 9.62293347 -29 12 C-30.941559 12.50926138 -32.88466691 13.01609877 -34.84375 13.453125 C-37.99411284 14.25213007 -40.99330215 15.4310203 -44.01953125 16.609375 C-46 17 -46 17 -49 15 C-48.34 15 -47.68 15 -47 15 C-47 14.34 -47 13.68 -47 13 C-43.04 12.34 -39.08 11.68 -35 11 C-35 10.34 -35 9.68 -35 9 C-33.77925781 8.68546875 -32.55851562 8.3709375 -31.30078125 8.046875 C-22.61758683 5.79387596 -14.00006503 3.48069131 -5.46875 0.69921875 C-3 0 -3 0 0 0 Z " fill="#804252" transform="translate(451,92)"/>
<path d="M0 0 C1.65 0 3.3 0 5 0 C5 8.91 5 17.82 5 27 C3.35 27 1.7 27 0 27 C0 18.09 0 9.18 0 0 Z " fill="#D3CBD6" transform="translate(355,41)"/>
<path d="M0 0 C1.65 0.33 3.3 0.66 5 1 C5.33 2.32 5.66 3.64 6 5 C5.01 5 4.02 5 3 5 C3.32484375 5.92232422 3.32484375 5.92232422 3.65625 6.86328125 C3.9346875 7.67152344 4.213125 8.47976562 4.5 9.3125 C4.7784375 10.11300781 5.056875 10.91351563 5.34375 11.73828125 C6 14 6 14 6 17 C4.7625 17.04125 3.525 17.0825 2.25 17.125 C1.55390625 17.14820312 0.8578125 17.17140625 0.140625 17.1953125 C-2.30155975 16.97248542 -3.88636771 16.20915 -6 15 C-4.36041242 9.76727367 -2.61047965 4.84803364 0 0 Z " fill="#E3DDE6" transform="translate(338,41)"/>
<path d="M0 0 C0.99 0 1.98 0 3 0 C3 1.66666667 3 3.33333333 3 5 C3.53595018 8.57447763 4.09530286 12.14482266 4.66015625 15.71484375 C5 19 5 19 4 22 C3.65772583 23.33106622 3.32248257 24.66400079 3 26 C2.34 24.68 1.68 23.36 1 22 C0.87625 23.134375 0.7525 24.26875 0.625 25.4375 C0.41875 26.613125 0.2125 27.78875 0 29 C-0.66 29.33 -1.32 29.66 -2 30 C-1.88201748 25.88806264 -1.75778941 21.77636712 -1.62768555 17.66479492 C-1.58428566 16.26510801 -1.54261436 14.86536641 -1.50268555 13.46557617 C-1.44510555 11.45738505 -1.38086 9.44938851 -1.31640625 7.44140625 C-1.27974854 6.23170166 -1.24309082 5.02199707 -1.20532227 3.77563477 C-1 1 -1 1 0 0 Z " fill="#160826" transform="translate(288,41)"/>
<path d="M0 0 C0.66 0 1.32 0 2 0 C2.3125 2.1875 2.3125 2.1875 2 5 C-0.49884415 8.30729372 -1.94370415 9.80598648 -6.0625 10.5625 C-9.60922658 9.88333959 -10.62382554 8.62198561 -13 6 C-13.99 6 -14.98 6 -16 6 C-16.33 7.32 -16.66 8.64 -17 10 C-17.66 10 -18.32 10 -19 10 C-18.67 8.02 -18.34 6.04 -18 4 C-17.01 3.67 -16.02 3.34 -15 3 C-14.34 3.33 -13.68 3.66 -13 4 C-13 3.34 -13 2.68 -13 2 C-8.71 2 -4.42 2 0 2 C0 1.34 0 0.68 0 0 Z " fill="#21182C" transform="translate(280,64)"/>
<path d="M0 0 C-0.47276852 4.25491665 -2.92547477 6.22542845 -6 9 C-9.72204473 10.86102237 -14.05560068 9.9350146 -18 9 C-20.21389964 7.51917971 -21.35256017 6.14167178 -23 4 C-22.67 3.01 -22.34 2.02 -22 1 C-19.54314575 1.42359556 -18.3035088 1.65510363 -16.625 3.5625 C-14.99445368 5.26673919 -14.99445368 5.26673919 -12.125 5.4375 C-8.32488312 4.90548364 -6.79082739 3.55825844 -4 1 C-2 0 -2 0 0 0 Z " fill="#E1D7E4" transform="translate(286,68)"/>
<path d="M0 0 C0.33 0 0.66 0 1 0 C1 9.57 1 19.14 1 29 C2.32 29.33 3.64 29.66 5 30 C3.35 30 1.7 30 0 30 C-8.22284696 14.13933077 -8.22284696 14.13933077 -7.6875 9 C-7.460625 8.34 -7.23375 7.68 -7 7 C-6.01 8.485 -6.01 8.485 -5 10 C-5.33 10.99 -5.66 11.98 -6 13 C-5.34 13 -4.68 13 -4 13 C-3.34 13.66 -2.68 14.32 -2 15 C-1.34 10.05 -0.68 5.1 0 0 Z " fill="#150723" transform="translate(354,40)"/>
<path d="M0 0 C1.32 0 2.64 0 4 0 C4 3.63 4 7.26 4 11 C-0.62 11 -5.24 11 -10 11 C-8.68 9.68 -7.36 8.36 -6 7 C-7.32 6.34 -8.64 5.68 -10 5 C-5.05 3.515 -5.05 3.515 0 2 C0 1.34 0 0.68 0 0 Z " fill="#4D213D" transform="translate(447,98)"/>
<path d="M0 0 C1.65 0 3.3 0 5 0 C4.67 0.66 4.34 1.32 4 2 C3.01 2 2.02 2 1 2 C1 6.95 1 11.9 1 17 C2.98 16.67 4.96 16.34 7 16 C7 17.65 7 19.3 7 21 C7.66 20.67 8.32 20.34 9 20 C8.67 19.34 8.34 18.68 8 18 C10.31 17.34 12.62 16.68 15 16 C17 18 17 18 17 21 C15.63875 20.9690625 15.63875 20.9690625 14.25 20.9375 C11.57327412 20.9889755 9.53011948 21.2215017 7 22 C7 22.66 7 23.32 7 24 C6.01 24.33 5.02 24.66 4 25 C3.34 24.01 2.68 23.02 2 22 C0.68 22.33 -0.64 22.66 -2 23 C-1.67 22.34 -1.34 21.68 -1 21 C-0.84824451 19.40737934 -0.75099675 17.80935144 -0.68359375 16.2109375 C-0.64169922 15.26992188 -0.59980469 14.32890625 -0.55664062 13.359375 C-0.51732422 12.37453125 -0.47800781 11.3896875 -0.4375 10.375 C-0.39431641 9.38242187 -0.35113281 8.38984375 -0.30664062 7.3671875 C-0.20038931 4.91160162 -0.09835036 2.45591297 0 0 Z " fill="#180829" transform="translate(250,47)"/>
<path d="M0 0 C2.3828125 0.2421875 2.3828125 0.2421875 5.125 0.875 C6.03507813 1.07867187 6.94515625 1.28234375 7.8828125 1.4921875 C8.58148438 1.65976562 9.28015625 1.82734375 10 2 C10.1875 4.375 10.1875 4.375 10 7 C6.51131349 9.32579101 5.10281481 9.41865457 1 9 C-1.375 7.5 -1.375 7.5 -3 6 C-2.42655063 3.13275314 -2.1385485 2.1385485 0 0 Z " fill="#32283D" transform="translate(195,56)"/>
<path d="M0 0 C1.34888732 0.00015905 2.69778075 0.00584927 4.04663086 0.01586914 C5.10991859 0.01799156 5.10991859 0.01799156 6.19468689 0.02015686 C8.46699173 0.02577096 10.73919936 0.03832576 13.01147461 0.05102539 C14.54858257 0.05603858 16.08569206 0.0606018 17.62280273 0.06469727 C21.39823103 0.07574497 25.17358632 0.09301898 28.94897461 0.11352539 C25.90227641 3.16022359 23.65649686 3.091059 19.3737793 3.22705078 C17.95612621 3.22689341 16.53846659 3.22130071 15.12084961 3.21118164 C14.37184387 3.20976669 13.62283813 3.20835175 12.85113525 3.20689392 C10.46704049 3.20131198 8.08304083 3.18876284 5.69897461 3.17602539 C4.0791843 3.17100805 2.45939252 3.16644556 0.83959961 3.16235352 C-3.12397851 3.15134847 -7.08748584 3.1340963 -11.05102539 3.11352539 C-11.05102539 2.78352539 -11.05102539 2.45352539 -11.05102539 2.11352539 C-9.91665039 1.96915039 -8.78227539 1.82477539 -7.61352539 1.67602539 C-3.99615916 1.1048623 -3.50988782 0.13059917 0 0 Z " fill="#632B35" transform="translate(385.051025390625,108.886474609375)"/>
<path d="M0 0 C1.32 0 2.64 0 4 0 C4 6.93 4 13.86 4 21 C2.68 21 1.36 21 0 21 C0 14.07 0 7.14 0 0 Z " fill="#F6F2F9" transform="translate(216,42)"/>
<path d="M0 0 C3.96 0 7.92 0 12 0 C11.67 0.66 11.34 1.32 11 2 C10.34 1.67 9.68 1.34 9 1 C9.33 2.32 9.66 3.64 10 5 C11.32 5 12.64 5 14 5 C11.95450468 7.42429075 10.69945412 8.83858751 7.5625 9.5625 C3.84243071 8.74589942 2.33392213 6.93407353 0 4 C0 2.68 0 1.36 0 0 Z " fill="#190A26" transform="translate(297,56)"/>
<path d="M0 0 C2.72869407 0.03287583 5.2966618 0.56397771 8 1 C8.33 2.32 8.66 3.64 9 5 C9.99 5 10.98 5 12 5 C11.67 6.65 11.34 8.3 11 10 C5.06 8.515 5.06 8.515 -1 7 C-1.33 5.35 -1.66 3.7 -2 2 C-1.34 1.34 -0.68 0.68 0 0 Z " fill="#20132F" transform="translate(196,45)"/>
<path d="M0 0 C0.99 0 1.98 0 3 0 C3 0.66 3 1.32 3 2 C4.98 1.67 6.96 1.34 9 1 C9 9.58 9 18.16 9 27 C8.67 27 8.34 27 8 27 C7.67 19.08 7.34 11.16 7 3 C6.01 3.495 6.01 3.495 5 4 C5 9.61 5 15.22 5 21 C4.01 21.33 3.02 21.66 2 22 C2 15.07 2 8.14 2 1 C1.34 0.67 0.68 0.34 0 0 Z " fill="#0E041D" transform="translate(235,40)"/>
<path d="M0 0 C1.875 1.8125 1.875 1.8125 3 4 C3 4.99 3 5.98 3 7 C-1.29 7 -5.58 7 -10 7 C-9.67 5.35 -9.34 3.7 -9 2 C-5.52957297 -0.31361802 -4.08165827 -0.51020728 0 0 Z " fill="#271E34" transform="translate(308,45)"/>
<path d="M0 0 C0.33 0.66 0.66 1.32 1 2 C4.63 2 8.26 2 12 2 C12.33 3.32 12.66 4.64 13 6 C8.9680536 7.34398213 5.2159948 7.58597762 1 7 C-1.5625 5 -1.5625 5 -3 3 C-2.01 2.67 -1.02 2.34 0 2 C0 1.34 0 0.68 0 0 Z " fill="#E6DDEA" transform="translate(220,61)"/>
<path d="M0 0 C1.62276158 2.43414237 2.61744792 4.31319446 3.625 7 C4.01558594 8.0209375 4.01558594 8.0209375 4.4140625 9.0625 C5 11 5 11 5 14 C3.68 14 2.36 14 1 14 C0.34 12.02 -0.32 10.04 -1 8 C-4.96 8 -8.92 8 -13 8 C-13 7.67 -13 7.34 -13 7 C-12.31292969 6.99742188 -11.62585938 6.99484375 -10.91796875 6.9921875 C-8.1597464 6.87380886 -5.67734829 6.68550463 -3 6 C-0.76113268 3.11320156 -0.76113268 3.11320156 0 0 Z " fill="#EAE1EE" transform="translate(347,54)"/>
<path d="M0 0 C-1.11375 0.45375 -2.2275 0.9075 -3.375 1.375 C-6.96199008 2.72465986 -6.96199008 2.72465986 -9 5 C-11.72265625 5.4140625 -11.72265625 5.4140625 -15.0625 5.625 C-16.80273438 5.73521484 -16.80273438 5.73521484 -18.578125 5.84765625 C-22.72950227 6.03247784 -26.84547213 6.07041573 -31 6 C-29 4 -29 4 -27.15234375 3.91015625 C-26.05599609 3.98556641 -26.05599609 3.98556641 -24.9375 4.0625 C-20.57584481 4.16734748 -17.27350611 3.30023868 -13.20703125 1.8046875 C-4.31360947 -1.43786982 -4.31360947 -1.43786982 0 0 Z " fill="#4C121E" transform="translate(425,104)"/>
<path d="M0 0 C0.66 0 1.32 0 2 0 C3 2 3 2 3 9 C-2.61 9 -8.22 9 -14 9 C-13.67 8.34 -13.34 7.68 -13 7 C-9.04 7 -5.08 7 -1 7 C-1 5.02 -1 3.04 -1 1 C-0.67 0.67 -0.34 0.34 0 0 Z " fill="#FAF4FB" transform="translate(312,46)"/>
<path d="M0 0 C0.33 0 0.66 0 1 0 C1.01981934 0.62044189 1.03963867 1.24088379 1.06005859 1.88012695 C1.15531845 4.69134537 1.26499302 7.50182166 1.375 10.3125 C1.4059375 11.28896484 1.436875 12.26542969 1.46875 13.27148438 C1.50742188 14.20927734 1.54609375 15.14707031 1.5859375 16.11328125 C1.6173584 16.97735596 1.6487793 17.84143066 1.68115234 18.73168945 C1.87188037 21.27742445 1.87188037 21.27742445 4 24 C3.34 24 2.68 24 2 24 C2 24.66 2 25.32 2 26 C3.32 26.66 4.64 27.32 6 28 C2.62182575 28.84454356 0.32534757 29.10844919 -3 28 C-2.49396008 25.83125748 -2.00016187 24.00032373 -1 22 C-0.84777027 20.33434251 -0.75082785 18.66343504 -0.68359375 16.9921875 C-0.64169922 16.00605469 -0.59980469 15.01992188 -0.55664062 14.00390625 C-0.51732422 12.97136719 -0.47800781 11.93882813 -0.4375 10.875 C-0.39431641 9.83472656 -0.35113281 8.79445313 -0.30664062 7.72265625 C-0.2003712 5.14857472 -0.09833417 2.57439492 0 0 Z " fill="#3E304A" transform="translate(215,42)"/>
<path d="M0 0 C0.66 0 1.32 0 2 0 C2.08703823 3.43734063 2.14040272 6.87439837 2.1875 10.3125 C2.22520508 11.77719727 2.22520508 11.77719727 2.26367188 13.27148438 C2.27817383 14.67817383 2.27817383 14.67817383 2.29296875 16.11328125 C2.3086792 16.97735596 2.32438965 17.84143066 2.34057617 18.73168945 C1.93240678 21.45018536 1.10407096 22.30363829 -1 24 C-1 23.34 -1 22.68 -1 22 C-1.66 22 -2.32 22 -3 22 C-3 19.69 -3 17.38 -3 15 C-2.67 15.99 -2.34 16.98 -2 18 C-1.34 18 -0.68 18 0 18 C0.33 13.71 0.66 9.42 1 5 C0.34 4.67 -0.32 4.34 -1 4 C-0.67 2.68 -0.34 1.36 0 0 Z M-5 26 C-4.34 26 -3.68 26 -3 26 C-3.33 26.66 -3.66 27.32 -4 28 C-4.33 27.34 -4.66 26.68 -5 26 Z " fill="#150521" transform="translate(213,43)"/>
<path d="M0 0 C1.07765625 0.00902344 2.1553125 0.01804687 3.265625 0.02734375 C4.08546875 0.03894531 4.9053125 0.05054687 5.75 0.0625 C3.78617993 1.56809539 1.96736634 2.95381683 -0.25 4.0625 C4.04 4.3925 8.33 4.7225 12.75 5.0625 C12.75 5.3925 12.75 5.7225 12.75 6.0625 C10.12472811 6.11632106 7.50055287 6.15608313 4.875 6.1875 C4.12863281 6.20425781 3.38226563 6.22101563 2.61328125 6.23828125 C0.65805539 6.2558959 -1.29742021 6.16570189 -3.25 6.0625 C-3.91 5.4025 -4.57 4.7425 -5.25 4.0625 C-4.59 3.7325 -3.93 3.4025 -3.25 3.0625 C-5.56 3.0625 -7.87 3.0625 -10.25 3.0625 C-10.25 2.4025 -10.25 1.7425 -10.25 1.0625 C-6.78777385 -0.00473961 -3.60960734 -0.03923486 0 0 Z " fill="#5B2E48" transform="translate(438.25,103.9375)"/>
<path d="M0 0 C1.32 0 2.64 0 4 0 C4.35233161 5.37305699 4.35233161 5.37305699 4 8 C2 10 2 10 0 11 C-4 4.25 -4 4.25 -4 2 C-2.68 2 -1.36 2 0 2 C0 1.34 0 0.68 0 0 Z " fill="#F4EFF6" transform="translate(282,42)"/>
<path d="M0 0 C-0.33843807 3.04594267 -1.23791285 4.29909045 -3.1875 6.75 C-6 9 -6 9 -9.3125 9.3125 C-10.6428125 9.1578125 -10.6428125 9.1578125 -12 9 C-12 8.01 -12 7.02 -12 6 C-11.236875 5.731875 -10.47375 5.46375 -9.6875 5.1875 C-7.09118877 4.04029271 -5.8749652 3.05353332 -4 1 C-2 0 -2 0 0 0 Z " fill="#F0E7F1" transform="translate(286,68)"/>
<path d="M0 0 C1.875 1.5 1.875 1.5 3 3 C2.34 3 1.68 3 1 3 C1 3.66 1 4.32 1 5 C-5.625 5.125 -5.625 5.125 -9 4 C-9.99 4 -10.98 4 -12 4 C-7.88586849 0.86542361 -5.23458693 -0.81426908 0 0 Z " fill="#F3EBF6" transform="translate(277,41)"/>
<path d="M0 0 C0.66 0.99 1.32 1.98 2 3 C1.67 3.99 1.34 4.98 1 6 C1.66 6 2.32 6 3 6 C3.66 6.66 4.32 7.32 5 8 C5.33 8 5.66 8 6 8 C6 10.97 6 13.94 6 17 C5.34 17.33 4.68 17.66 4 18 C3.13007846 15.94409546 2.27962311 13.87994664 1.4375 11.8125 C0.96183594 10.66394531 0.48617188 9.51539063 -0.00390625 8.33203125 C-1.01536316 4.94860873 -1.04283184 3.31583059 0 0 Z " fill="#1A0C25" transform="translate(347,47)"/>
<path d="M0 0 C-3.37097383 1.49821059 -5.20442119 2 -9 2 C-9 2.66 -9 3.32 -9 4 C-6.03 4 -3.06 4 0 4 C0 4.33 0 4.66 0 5 C-6.27 5 -12.54 5 -19 5 C-17.68 4.34 -16.36 3.68 -15 3 C-14.030625 2.484375 -13.06125 1.96875 -12.0625 1.4375 C-7.74505656 -0.58905508 -4.60082722 -1.53360907 0 0 Z " fill="#3B1029" transform="translate(427,107)"/>
<path d="M0 0 C0.66 0 1.32 0 2 0 C2.36554789 3.28993102 2.26218503 4.63099885 0.3125 7.375 C-2 9 -2 9 -4.75 8.75 C-5.4925 8.5025 -6.235 8.255 -7 8 C-6.67 7.01 -6.34 6.02 -6 5 C-6.99 4.34 -7.98 3.68 -9 3 C-4.545 2.505 -4.545 2.505 0 2 C0 1.34 0 0.68 0 0 Z " fill="#2F263C" transform="translate(280,64)"/>
<path d="M0 0 C4.27547053 -0.34203764 6.59660493 -0.21269922 10.4375 1.8125 C11.283125 2.534375 12.12875 3.25625 13 4 C13 4.99 13 5.98 13 7 C11.68 7.33 10.36 7.66 9 8 C8.67 7.34 8.34 6.68 8 6 C6.35636866 5.27840576 4.68949614 4.60648579 3 4 C3.33 3.01 3.66 2.02 4 1 C2.68 0.67 1.36 0.34 0 0 Z " fill="#D7CFDD" transform="translate(196,41)"/>
<path d="M0 0 C0.33 0.66 0.66 1.32 1 2 C-0.134375 2.268125 -1.26875 2.53625 -2.4375 2.8125 C-6.42359069 3.78419827 -10.19878676 5.12165148 -14.01953125 6.609375 C-16 7 -16 7 -19 5 C-18.34 5 -17.68 5 -17 5 C-17 4.34 -17 3.68 -17 3 C-15.10614563 2.49255577 -13.20981334 1.99435426 -11.3125 1.5 C-9.72888672 1.08234375 -9.72888672 1.08234375 -8.11328125 0.65625 C-5.28857328 0.0608285 -2.87163292 -0.12786492 0 0 Z " fill="#7B343B" transform="translate(421,102)"/>
<path d="M0 0 C6.75 3.75 6.75 3.75 9 6 C9 6.66 9 7.32 9 8 C5.06329512 9.31223496 2.87511856 8.24296256 -1 7 C-1 4.37886292 -0.68707555 2.49064888 0 0 Z " fill="#27173A" transform="translate(115,55)"/>
<path d="M0 0 C0.33 0 0.66 0 1 0 C1.28875 1.11375 1.5775 2.2275 1.875 3.375 C2.69241329 7.00291092 2.69241329 7.00291092 5 9 C1.77208445 11.1519437 0.71599191 11.20086443 -3 11 C-3 10.34 -3 9.68 -3 9 C-3.66 9 -4.32 9 -5 9 C-4.67 7.35 -4.34 5.7 -4 4 C-3.01 4 -2.02 4 -1 4 C-0.67 2.68 -0.34 1.36 0 0 Z " fill="#241537" transform="translate(189,47)"/>
<path d="M0 0 C0 0.33 0 0.66 0 1 C-1.65 1.33 -3.3 1.66 -5 2 C-4.67 2.99 -4.34 3.98 -4 5 C-6.31 5.66 -8.62 6.32 -11 7 C-11.66 6.34 -12.32 5.68 -13 5 C-12 2 -12 2 -10.4375 0.8125 C-6.88877617 -0.37040794 -3.73298379 -0.12443279 0 0 Z " fill="#E8E6EB" transform="translate(157,16)"/>
<path d="M0 0 C0.66 0 1.32 0 2 0 C2.99 2.97 3.98 5.94 5 9 C2.69 9 0.38 9 -2 9 C-1.125 2.25 -1.125 2.25 0 0 Z " fill="#282035" transform="translate(339,48)"/>
<path d="M0 0 C0.99 0.66 1.98 1.32 3 2 C2.54625 2.37125 2.0925 2.7425 1.625 3.125 C-0.47029394 5.54264685 -1.12013285 7.95430602 -2 11 C-2.99 11 -3.98 11 -5 11 C-5.125 4.25 -5.125 4.25 -4 2 C-1.9375 0.875 -1.9375 0.875 0 0 Z " fill="#F6F1F6" transform="translate(268,44)"/>
<path d="M0 0 C1.8871875 0.0309375 1.8871875 0.0309375 3.8125 0.0625 C3.4825 0.7225 3.1525 1.3825 2.8125 2.0625 C0.74609375 2.6953125 0.74609375 2.6953125 -1.75 3.1875 C-2.98943359 3.43886719 -2.98943359 3.43886719 -4.25390625 3.6953125 C-4.89199219 3.81648438 -5.53007812 3.93765625 -6.1875 4.0625 C-6.1875 4.7225 -6.1875 5.3825 -6.1875 6.0625 C-9.66075181 7.2202506 -12.54817448 7.13116652 -16.1875 7.0625 C-13.26985 5.1174 -11.56212715 4.60973683 -8.1875 4.0625 C-7.8575 3.0725 -7.5275 2.0825 -7.1875 1.0625 C-4.43671116 0.14557039 -2.82801087 -0.04636083 0 0 Z " fill="#6C303E" transform="translate(432.1875,99.9375)"/>
<path d="M0 0 C3.96 0 7.92 0 12 0 C11.67 0.66 11.34 1.32 11 2 C10.34 1.67 9.68 1.34 9 1 C8.34 2.65 7.68 4.3 7 6 C6.01 5.01 5.02 4.02 4 3 C3.01 3.66 2.02 4.32 1 5 C0.67 3.35 0.34 1.7 0 0 Z " fill="#1F0E2D" transform="translate(297,56)"/>
<path d="M0 0 C1.32 0 2.64 0 4 0 C4 1.65 4 3.3 4 5 C-0.62 5.33 -5.24 5.66 -10 6 C-7.80202597 3.80202597 -6.82453855 3.54102483 -3.875 2.875 C-2.59625 2.58625 -1.3175 2.2975 0 2 C0 1.34 0 0.68 0 0 Z " fill="#441129" transform="translate(447,98)"/>
<path d="M0 0 C0 0.99 0 1.98 0 3 C-1.65 3 -3.3 3 -5 3 C-5 3.66 -5 4.32 -5 5 C-7.31 5.66 -9.62 6.32 -12 7 C-12.66 6.34 -13.32 5.68 -14 5 C-13.01 5 -12.02 5 -11 5 C-11 4.34 -11 3.68 -11 3 C-9.73160474 2.49384702 -8.46016898 1.99530901 -7.1875 1.5 C-6.12595703 1.08234375 -6.12595703 1.08234375 -5.04296875 0.65625 C-3 0 -3 0 0 0 Z " fill="#78394A" transform="translate(451,92)"/>
<path d="M0 0 C0.33 0 0.66 0 1 0 C1.144375 0.7425 1.28875 1.485 1.4375 2.25 C1.91152838 4.87078954 1.91152838 4.87078954 2.625 6.8125 C3.22226755 10.29656071 2.52266557 13.51556289 2 17 C1.67 17 1.34 17 1 17 C1 15.02 1 13.04 1 11 C0.34 11 -0.32 11 -1 11 C-2.625 8.5 -2.625 8.5 -4 6 C-3.01 5.67 -2.02 5.34 -1 5 C-0.67 3.35 -0.34 1.7 0 0 Z " fill="#140724" transform="translate(260,41)"/>
<path d="M0 0 C0.66 0 1.32 0 2 0 C3.7143618 1.95927063 5.38405168 3.95880212 7 6 C5.02 6.99 5.02 6.99 3 8 C1.35 6.68 -0.3 5.36 -2 4 C-1.34 2.68 -0.68 1.36 0 0 Z " fill="#E3D9E6" transform="translate(190,60)"/>
<path d="M0 0 C0.66 0.33 1.32 0.66 2 1 C2.625 3.5625 2.625 3.5625 3 6 C-0.76624671 7.25541557 -2.37188934 6.37061958 -6 5 C-2.25 1.125 -2.25 1.125 0 0 Z " fill="#20182B" transform="translate(160,44)"/>
<path d="M0 0 C0.99 0 1.98 0 3 0 C3.33 1.65 3.66 3.3 4 5 C1.23749964 6.38125018 -0.94731099 6.19079306 -4 6 C-4.66 5.34 -5.32 4.68 -6 4 C-5.34 3.01 -4.68 2.02 -4 1 C-3.01 1.66 -2.02 2.32 -1 3 C-0.34 2.67 0.32 2.34 1 2 C0.67 1.34 0.34 0.68 0 0 Z " fill="#261835" transform="translate(227,58)"/>
<path d="M0 0 C-4.67266246 3.58237455 -7.02023637 4.11073636 -13 4 C-9.41420832 -0.98892755 -5.61771415 -0.43213186 0 0 Z " fill="#330A26" transform="translate(450,105)"/>
<path d="M0 0 C0.33 0 0.66 0 1 0 C1.63019694 8.19256018 1.63019694 8.19256018 -1 11.5625 C-1.66 12.036875 -2.32 12.51125 -3 13 C-3.99 12.67 -4.98 12.34 -6 12 C-5.67 11.01 -5.34 10.02 -5 9 C-5.66 8.67 -6.32 8.34 -7 8 C-4.69 8 -2.38 8 0 8 C0 5.36 0 2.72 0 0 Z " fill="#3B2F48" transform="translate(281,50)"/>
<path d="M0 0 C0.66 0.33 1.32 0.66 2 1 C2.99 0.67 3.98 0.34 5 0 C4.25 6.75 4.25 6.75 2 9 C0.5 7.8125 0.5 7.8125 -1 6 C-1.25 3.375 -1.25 3.375 -1 1 C-0.67 0.67 -0.34 0.34 0 0 Z " fill="#170B27" transform="translate(329,47)"/>
<path d="M0 0 C0.66 0.99 1.32 1.98 2 3 C1.125 6.6875 1.125 6.6875 0 10 C-0.33 9.34 -0.66 8.68 -1 8 C-4.96 8 -8.92 8 -13 8 C-13 7.67 -13 7.34 -13 7 C-12.31292969 6.99742188 -11.62585938 6.99484375 -10.91796875 6.9921875 C-8.1597464 6.87380886 -5.67734829 6.68550463 -3 6 C-0.76113268 3.11320156 -0.76113268 3.11320156 0 0 Z " fill="#B0A9B1" transform="translate(347,54)"/>
<path d="M0 0 C2.97 0.495 2.97 0.495 6 1 C5.375 2.9375 5.375 2.9375 4 5 C0.875 5.75 0.875 5.75 -2 6 C-1.34 4.02 -0.68 2.04 0 0 Z " fill="#190D29" transform="translate(198,57)"/>
<path d="M0 0 C0.33 0 0.66 0 1 0 C1 1.65 1 3.3 1 5 C1.99 5 2.98 5 4 5 C4.33 4.01 4.66 3.02 5 2 C5.33 4.64 5.66 7.28 6 10 C5.01 9.67 4.02 9.34 3 9 C2.01 9.495 2.01 9.495 1 10 C-0.60725635 6.78548731 -0.05748185 3.56387464 0 0 Z " fill="#D2CBD6" transform="translate(262,50)"/>
<path d="M0 0 C0.99 0.33 1.98 0.66 3 1 C2.34 3.31 1.68 5.62 1 8 C-0.32 7.34 -1.64 6.68 -3 6 C-2.42655063 3.13275314 -2.1385485 2.1385485 0 0 Z " fill="#2A1B38" transform="translate(195,56)"/>
<path d="M0 0 C-1.11375 0.45375 -2.2275 0.9075 -3.375 1.375 C-6.96199008 2.72465986 -6.96199008 2.72465986 -9 5 C-11.125 4.625 -11.125 4.625 -13 4 C-10.72674319 1.28957842 -9.40421209 0.10723994 -5.9375 -0.8125 C-3 -1 -3 -1 0 0 Z " fill="#5A1A25" transform="translate(425,104)"/>
<path d="M0 0 C1.9453125 -0.29296875 1.9453125 -0.29296875 4.125 -0.1875 C5.40375 -0.125625 6.6825 -0.06375 8 0 C7.67 0.99 7.34 1.98 7 3 C4.03 3 1.06 3 -2 3 C-1.34 2.01 -0.68 1.02 0 0 Z " fill="#F8F3FA" transform="translate(197,65)"/>
<path d="M0 0 C1.65 0 3.3 0 5 0 C4.34 1.98 3.68 3.96 3 6 C1.68 6 0.36 6 -1 6 C-0.67 4.02 -0.34 2.04 0 0 Z " fill="#E3D8E7" transform="translate(329,62)"/>
<path d="M0 0 C0 0.66 0 1.32 0 2 C-0.66 2 -1.32 2 -2 2 C-2.33 2.66 -2.66 3.32 -3 4 C-3.66 4 -4.32 4 -5 4 C-5.66 4.66 -6.32 5.32 -7 6 C-8.125 2.25 -8.125 2.25 -7 0 C-3.86650268 -1.04449911 -3.01031744 -0.93423645 0 0 Z " fill="#160822" transform="translate(313,57)"/>
<path d="M0 0 C0.66 0 1.32 0 2 0 C4 5.75 4 5.75 4 8 C2.68 7.67 1.36 7.34 0 7 C-0.38133299 5.0085944 -0.71325582 3.00720923 -1 1 C-0.67 0.67 -0.34 0.34 0 0 Z " fill="#291B34" transform="translate(292,60)"/>
<path d="M0 0 C1.85776765 3.13498292 2.20140476 5.37471432 2 9 C0.68 9 -0.64 9 -2 9 C-2.6875 7.3125 -2.6875 7.3125 -3 5 C-1.5625 2.25 -1.5625 2.25 0 0 Z " fill="#311F3F" transform="translate(236,60)"/>
<path d="M0 0 C1.98 0 3.96 0 6 0 C6 0.66 6 1.32 6 2 C6.66 2 7.32 2 8 2 C8 2.66 8 3.32 8 4 C7.34 4 6.68 4 6 4 C5.67 4.99 5.34 5.98 5 7 C5 6.01 5 5.02 5 4 C3.68 3.67 2.36 3.34 1 3 C1.66 3 2.32 3 3 3 C3 2.34 3 1.68 3 1 C2.01 0.67 1.02 0.34 0 0 Z " fill="#271936" transform="translate(310,56)"/>
<path d="M0 0 C5.53846154 -0.36923077 5.53846154 -0.36923077 7.875 1.5 C8.24625 1.995 8.6175 2.49 9 3 C8.34 3 7.68 3 7 3 C7 3.66 7 4.32 7 5 C5.02 5 3.04 5 1 5 C1.66 3.68 2.32 2.36 3 1 C2.01 0.67 1.02 0.34 0 0 Z " fill="#C3BBC7" transform="translate(271,41)"/>
<path d="M0 0 C0.33 0.66 0.66 1.32 1 2 C0.34 2 -0.32 2 -1 2 C-0.649375 2.7425 -0.29875 3.485 0.0625 4.25 C1.04509293 7.1322726 1.0326802 8.21176345 0 11 C-0.33 10.01 -0.66 9.02 -1 8 C-3.01508358 7.26676204 -3.01508358 7.26676204 -5 7 C-5 5 -5 5 -3 3 C-2 2 -1 1 0 0 Z " fill="#18062A" transform="translate(261,69)"/>
<path d="M0 0 C0.66 0.33 1.32 0.66 2 1 C-3.75 6 -3.75 6 -6 6 C-6.33 6.66 -6.66 7.32 -7 8 C-6.875 6.25 -6.875 6.25 -6 4 C-2.9375 1.75 -2.9375 1.75 0 0 Z " fill="#1A0B27" transform="translate(169,72)"/>
<path d="M0 0 C0.66 0 1.32 0 2 0 C1.34 1.32 0.68 2.64 0 4 C-0.99 4 -1.98 4 -3 4 C-3.33 5.32 -3.66 6.64 -4 8 C-4.66 8 -5.32 8 -6 8 C-5.67 6.02 -5.34 4.04 -5 2 C-4.01 1.67 -3.02 1.34 -2 1 C-1.34 1.33 -0.68 1.66 0 2 C0 1.34 0 0.68 0 0 Z " fill="#2E1F3E" transform="translate(267,66)"/>
<path d="M0 0 C2.31 0.33 4.62 0.66 7 1 C7.33 1.99 7.66 2.98 8 4 C5.69 4 3.38 4 1 4 C0.67 2.68 0.34 1.36 0 0 Z " fill="#FBF6FD" transform="translate(300,64)"/>
<path d="M0 0 C1.98 0.495 1.98 0.495 4 1 C4 2.32 4 3.64 4 5 C6.31 5 8.62 5 11 5 C11 5.33 11 5.66 11 6 C2.42857143 6.28571429 2.42857143 6.28571429 -1 4 C-0.67 2.68 -0.34 1.36 0 0 Z " fill="#C3BCC8" transform="translate(333,52)"/>
<path d="M0 0 C2.72869407 0.03287583 5.2966618 0.56397771 8 1 C8 1.99 8 2.98 8 4 C7.05125 3.814375 6.1025 3.62875 5.125 3.4375 C2.10131207 2.71313368 2.10131207 2.71313368 0 4 C-0.66 3.34 -1.32 2.68 -2 2 C-1.34 1.34 -0.68 0.68 0 0 Z " fill="#282133" transform="translate(196,45)"/>
<path d="M0 0 C2.31 0 4.62 0 7 0 C7.33 0.66 7.66 1.32 8 2 C7.67 2.66 7.34 3.32 7 4 C4.625 3.6875 4.625 3.6875 2 3 C1.34 2.01 0.68 1.02 0 0 Z " fill="#F3F0F4" transform="translate(197,53)"/>
<path d="M0 0 C0.66 0.99 1.32 1.98 2 3 C1.67 3.33 1.34 3.66 1 4 C0.76636119 5.84891946 0.58696365 7.70488031 0.4375 9.5625 C0.35371094 10.57441406 0.26992188 11.58632813 0.18359375 12.62890625 C0.12300781 13.41136719 0.06242187 14.19382812 0 15 C-0.33 15 -0.66 15 -1 15 C-1.22211116 13.06403108 -1.42722992 11.12610672 -1.625 9.1875 C-1.74101562 8.10855469 -1.85703125 7.02960937 -1.9765625 5.91796875 C-2 3 -2 3 0 0 Z " fill="#453751" transform="translate(293,44)"/>
<path d="M0 0 C-3.82517513 2.39073445 -7.59665524 2.55966552 -12 3 C-7.40611595 -0.52197777 -5.79080563 -1.13298371 0 0 Z " fill="#411129" transform="translate(424,99)"/>
<path d="M0 0 C0.33 0.99 0.66 1.98 1 3 C0 4 0 4 -3.5625 4.0625 C-4.696875 4.041875 -5.83125 4.02125 -7 4 C-5 1 -5 1 -2.375 0.3125 C-1.59125 0.209375 -0.8075 0.10625 0 0 Z " fill="#FBF6FD" transform="translate(230,64)"/>
<path d="M0 0 C1.32 1.32 2.64 2.64 4 4 C2.68 4.99 1.36 5.98 0 7 C-0.66 6.67 -1.32 6.34 -2 6 C-1.34 4.02 -0.68 2.04 0 0 Z " fill="#F1ECF4" transform="translate(332,56)"/>
<path d="M0 0 C0.66 0.33 1.32 0.66 2 1 C2 1.99 2 2.98 2 4 C-1.3 4 -4.6 4 -8 4 C-8 3.34 -8 2.68 -8 2 C-5.36 2 -2.72 2 0 2 C0 1.34 0 0.68 0 0 Z " fill="#1A0F24" transform="translate(309,48)"/>
<path d="M0 0 C1.25541557 3.76624671 0.37061958 5.37188934 -1 9 C-1.99 8.34 -2.98 7.68 -4 7 C-3.67 5.68 -3.34 4.36 -3 3 C-2.34 3.33 -1.68 3.66 -1 4 C-0.67 2.68 -0.34 1.36 0 0 Z " fill="#160723" transform="translate(189,44)"/>
<path d="M0 0 C2.97 0.33 5.94 0.66 9 1 C4.375 5 4.375 5 1 5 C0.67 3.35 0.34 1.7 0 0 Z " fill="#1B0D28" transform="translate(124,24)"/>
<path d="M0 0 C-1.0625 1.5 -1.0625 1.5 -3 3 C-6.6875 3.1875 -6.6875 3.1875 -10 3 C-6.68152292 -0.06320961 -4.44849969 -0.3033068 0 0 Z " fill="#2F051E" transform="translate(436,106)"/>
<path d="M0 0 C1.5 1.25 1.5 1.25 3 3 C3 4.32 3 5.64 3 7 C0.525 6.01 0.525 6.01 -2 5 C-1.34 3.35 -0.68 1.7 0 0 Z " fill="#D4CDDA" transform="translate(298,61)"/>
<path d="M0 0 C1.98 0 3.96 0 6 0 C3.47043472 3.0916909 0.77545388 3.90931332 -3 5 C-3 4.01 -3 3.02 -3 2 C-2.01 1.67 -1.02 1.34 0 1 C0 0.67 0 0.34 0 0 Z " fill="#190E24" transform="translate(122,61)"/>
<path d="M0 0 C-3.4352048 2.29013653 -4.985331 2.17842973 -9 2 C-9 1.34 -9 0.68 -9 0 C-5.67465243 -1.10844919 -3.37817425 -0.84454356 0 0 Z " fill="#2B0523" transform="translate(430,97)"/>
<path d="M0 0 C0.66 1.32 1.32 2.64 2 4 C0.824375 4.4640625 0.824375 4.4640625 -0.375 4.9375 C-2.92330128 5.92875038 -2.92330128 5.92875038 -5 7 C-3.75023244 3.34683329 -3.32901247 2.21934164 0 0 Z " fill="#EEE8F2" transform="translate(119,67)"/>
<path d="M0 0 C-0.57344937 2.86724686 -0.8614515 3.8614515 -3 6 C-3 5.34 -3 4.68 -3 4 C-3.99 4 -4.98 4 -6 4 C-5.67 3.01 -5.34 2.02 -5 1 C-2 0 -2 0 0 0 Z " fill="#DFD7E4" transform="translate(286,68)"/>
<path d="M0 0 C2.475 0.495 2.475 0.495 5 1 C5 2.98 5 4.96 5 7 C4.34 7 3.68 7 3 7 C2.87625 6.030625 2.7525 5.06125 2.625 4.0625 C2.41875 3.051875 2.2125 2.04125 2 1 C1.34 0.67 0.68 0.34 0 0 Z " fill="#FBF6FD" transform="translate(339,45)"/>
<path d="M0 0 C0.99 0 1.98 0 3 0 C3.33 0.99 3.66 1.98 4 3 C3.01 3.99 2.02 4.98 1 6 C0.34 5.67 -0.32 5.34 -1 5 C-0.67 3.35 -0.34 1.7 0 0 Z " fill="#211531" transform="translate(262,42)"/>
<path d="M0 0 C2.31 0 4.62 0 7 0 C6.01 0.33 5.02 0.66 4 1 C4 1.66 4 2.32 4 3 C2.125 3.625 2.125 3.625 0 4 C-0.66 3.34 -1.32 2.68 -2 2 C-1.34 2 -0.68 2 0 2 C0 1.34 0 0.68 0 0 Z " fill="#6C2933" transform="translate(404,105)"/>
<path d="M0 0 C1.53166168 4.08443115 0.63081652 7.79455657 0 12 C-0.33 12 -0.66 12 -1 12 C-1.33 8.37 -1.66 4.74 -2 1 C-1.34 0.67 -0.68 0.34 0 0 Z " fill="#14071C" transform="translate(170,56)"/>
<path d="M0 0 C0.66 0.33 1.32 0.66 2 1 C2 2.98 2 4.96 2 7 C1.01 7.495 1.01 7.495 0 8 C-0.66 6.02 -1.32 4.04 -2 2 C-1.34 2 -0.68 2 0 2 C0 1.34 0 0.68 0 0 Z " fill="#1E112D" transform="translate(351,57)"/>
<path d="M0 0 C0.99 0.66 1.98 1.32 3 2 C3 2.66 3 3.32 3 4 C1 6 1 6 -1 7 C-1.66 6.34 -2.32 5.68 -3 5 C-2.01 3.35 -1.02 1.7 0 0 Z " fill="#261438" transform="translate(164,46)"/>
<path d="M0 0 C-2.55068845 2.35448165 -3.71017358 2.98327924 -7.25 3.1875 C-8.1575 3.125625 -9.065 3.06375 -10 3 C-6.88378718 -0.11621282 -4.21175599 -0.11383124 0 0 Z " fill="#470F21" transform="translate(436,102)"/>
<path d="M0 0 C0.99 0.33 1.98 0.66 3 1 C-0.32307692 4.93846154 -0.32307692 4.93846154 -3.75 5.25 C-4.4925 5.1675 -5.235 5.085 -6 5 C-5.38125 4.731875 -4.7625 4.46375 -4.125 4.1875 C-1.7004767 3.04443152 -1.7004767 3.04443152 0 0 Z " fill="#423548" transform="translate(308,60)"/>
<path d="M0 0 C2.475 0.495 2.475 0.495 5 1 C4 3 4 3 1 5 C0.67 3.35 0.34 1.7 0 0 Z " fill="#271F2F" transform="translate(297,56)"/>
</svg>
