<?xml version="1.0" encoding="UTF-8"?>
<svg version="1.1" xmlns="http://www.w3.org/2000/svg" width="1920" height="1080">
<path d="M0 0 C633.6 0 1267.2 0 1920 0 C1920 356.4 1920 712.8 1920 1080 C1286.4 1080 652.8 1080 0 1080 C0 723.6 0 367.2 0 0 Z " fill="#FD8000" transform="translate(0,0)"/>
<path d="M0 0 C43.56 0 87.12 0 132 0 C132.33 94.71 132.66 189.42 133 287 C136.3 281.72 139.6 276.44 143 271 C145.64978658 266.98635267 148.30691106 262.9838941 151 259 C157.24123111 249.726853 163.26744554 240.31645071 169.25 230.875 C176.18601093 219.96169608 183.21986282 209.10429526 190.4375 198.375 C192.75130698 194.92849254 194.95446628 191.45093155 197.0625 187.875 C198.996581 184.59795123 201.03690295 181.47024063 203.25 178.375 C206.27977435 174.11999821 209.06687495 169.75287682 211.8125 165.3125 C215.0996636 160.00025895 218.45328813 154.74775808 221.9375 149.5625 C225.41712461 144.38077431 228.85925982 139.1779028 232.25 133.9375 C232.69545166 133.24946289 233.14090332 132.56142578 233.59985352 131.85253906 C236.30274566 127.66478612 238.97601943 123.45934146 241.6328125 119.2421875 C242.56432129 117.76697632 242.56432129 117.76697632 243.51464844 116.26196289 C244.72748384 114.33909354 245.93665139 112.41390434 247.14160156 110.48608398 C249.51267236 106.72824426 251.83491366 103.05819959 254.734375 99.68359375 C256.89962777 97.11888917 258.3653873 94.73349492 259.875 91.75 C262.28372421 87.20086517 264.96416984 83.07690767 267.96484375 78.90234375 C272.00322343 73.14319576 275.74107075 67.18092797 279.54296875 61.26416016 C282.36121289 56.88473721 285.19819714 52.51741198 288.03222656 48.14819336 C290.46796547 44.38690465 292.88191351 40.61275175 295.28125 36.828125 C299.74835857 29.79953412 304.32383185 22.84241853 308.89501953 15.88134766 C310.00895091 14.1844509 311.12170998 12.48678978 312.234375 10.7890625 C312.88631836 9.79600098 313.53826172 8.80293945 314.20996094 7.77978516 C316.03048902 5.09284673 316.03048902 5.09284673 317.22155476 2.36384296 C319 0 319 0 321.78983593 -0.61523914 C322.93009385 -0.61063018 324.07035177 -0.60602121 325.24516296 -0.60127258 C326.55348083 -0.6081459 327.86179871 -0.61501923 329.20976257 -0.62210083 C330.66287801 -0.6044049 332.1159877 -0.58623085 333.5690918 -0.56762695 C335.09660801 -0.56621685 336.62412761 -0.56700772 338.15164185 -0.56983948 C342.30245398 -0.57127655 346.45254654 -0.54184038 350.60319114 -0.50696969 C354.93934738 -0.47575431 359.27551936 -0.47277927 363.61177063 -0.46684265 C371.82479298 -0.45128997 380.03748333 -0.4102424 388.25035936 -0.3600952 C397.59965999 -0.3042459 406.94897632 -0.27672638 416.29840219 -0.25161803 C435.5324565 -0.19932767 454.76620157 -0.11135788 474 0 C472.19774022 3.71322788 470.02052052 7.08803514 467.71484375 10.50390625 C467.27897446 11.1535585 466.84310516 11.80321075 466.39402771 12.47254944 C464.93188123 14.65007829 463.4660838 16.82512042 462 19 C460.94279396 20.57139993 459.88566703 22.14285309 458.82861328 23.71435547 C455.99395449 27.92609639 453.15492414 32.13487137 450.31420898 36.3425293 C448.56737718 38.93027497 446.82174194 41.51882498 445.07617188 44.10742188 C439.31503455 52.64571892 433.53510721 61.16983356 427.68226624 69.64561462 C421.75098331 78.2391987 415.92182539 86.90268801 410.375 95.75 C408.18011487 99.22734688 405.88631084 102.57195282 403.4375 105.875 C397.75024349 113.60189879 392.52791433 121.64041848 387.22998047 129.63671875 C382.80958601 136.30641018 378.37357707 142.96573358 373.9375 149.625 C373.45966064 150.34247406 372.98182129 151.05994812 372.48950195 151.79916382 C366.50185678 160.78684651 360.48042924 169.74811588 354.35620117 178.64355469 C350.77093303 183.85481768 347.24864971 189.10523817 343.75 194.375 C338.55276562 202.2007304 333.24143085 209.93745117 327.85595703 217.63525391 C323.38963558 224.02293628 319.03917763 230.45553826 314.89428711 237.05761719 C312.99190624 240.01257197 311.01088735 242.89408782 308.99609375 245.7734375 C303.39987028 253.81161081 297.98419198 261.96858388 292.5625 270.125 C291.56065665 271.6302814 290.55870408 273.13549012 289.55664062 274.640625 C287.73834298 277.37211315 285.92063126 280.10398881 284.10375977 282.83642578 C282.736999 284.89172182 281.36914087 286.9462887 280 289 C280.31975802 292.70451363 282.37310105 295.30936028 284.4375 298.3125 C285.14777344 299.35792969 285.85804688 300.40335938 286.58984375 301.48046875 C286.9751123 302.0429834 287.36038086 302.60549805 287.75732422 303.18505859 C290.01930259 306.48870245 292.26255887 309.8047063 294.5 313.125 C294.94529053 313.77637939 295.39058105 314.42775879 295.84936523 315.09887695 C299 319.77383295 299 319.77383295 299 322 C299.66 322 300.32 322 301 322 C302.48719621 324.01006309 303.84457559 326.02015176 305.1875 328.125 C306.08061036 329.49571851 306.97524013 330.86544781 307.87109375 332.234375 C308.36464355 332.99041016 308.85819336 333.74644531 309.36669922 334.52539062 C312.43864519 339.17968724 315.59980623 343.77347112 318.75 348.375 C320.58917148 351.06303808 322.42713174 353.75183588 324.25976562 356.44433594 C325.43093346 358.16428331 326.60680892 359.8810335 327.78710938 361.59472656 C328.33689453 362.40135742 328.88667969 363.20798828 329.453125 364.0390625 C329.94458008 364.75529785 330.43603516 365.4715332 330.94238281 366.20947266 C332 368 332 368 332 370 C332.66 370 333.32 370 334 370 C335.375 371.9140625 335.375 371.9140625 337 374.625 C339.83652037 379.22252676 342.82832454 383.6326437 346 388 C349.66609162 393.0619098 353.09444737 398.21513109 356.3984375 403.5234375 C358.38521515 406.59567415 360.56479999 409.47750159 362.8359375 412.34375 C364 414 364 414 365 417 C365.86625 417.8353125 365.86625 417.8353125 366.75 418.6875 C369.19361122 421.1989893 370.78849416 423.7591123 372.59375 426.7421875 C374.08795299 429.14121341 375.6803575 431.44274401 377.3125 433.75 C379.84910782 437.33943644 382.3222511 440.96103541 384.75 444.625 C393.29537724 457.50091657 402.13439112 470.19198731 410.99609375 482.8515625 C416.82121699 491.19833644 422.45909861 499.66387625 428.06469727 508.15942383 C431.98591254 514.07647015 436.03361769 519.87061708 440.23413086 525.59277344 C446.55283407 534.20640729 452.43257636 543.12849452 458.32470703 552.03613281 C462.46603167 558.26859521 466.76274581 564.38137489 471.16723633 570.43066406 C471.64056396 571.08905273 472.1138916 571.74744141 472.6015625 572.42578125 C473.01744629 572.99723877 473.43333008 573.56869629 473.86181641 574.1574707 C475 576 475 576 477 581 C424.86 581 372.72 581 319 581 C317.68 578.69 316.36 576.38 315 574 C311.52661824 568.35161966 307.88773973 562.81427059 304.1875 557.3125 C301.11015399 552.72306075 298.15702826 548.07278065 295.25 543.375 C291.10579776 536.68541907 286.79023172 530.12501589 282.40478516 523.59155273 C278.5184519 517.79723466 274.72619581 511.94992178 270.9765625 506.06640625 C268.75276912 502.61645012 266.44833572 499.22901266 264.09375 495.8671875 C262.95049443 493.91548692 262.43223376 492.21028627 262 490 C261.34 490 260.68 490 260 490 C259.48824219 489.07316406 258.97648437 488.14632813 258.44921875 487.19140625 C255.46077123 481.96391987 252.1194222 476.96690629 248.8125 471.9375 C247.46317239 469.87784604 246.1142127 467.817951 244.765625 465.7578125 C243.79206055 464.2713623 243.79206055 464.2713623 242.79882812 462.75488281 C240.53401833 459.28635488 238.29352013 455.80282051 236.0625 452.3125 C233.48078754 448.28157348 230.86031622 444.28354124 228.1875 440.3125 C224.73480044 435.16433962 221.42120671 429.9370144 218.125 424.6875 C214.57251774 419.03213378 210.98361647 413.41254274 207.25 407.875 C202.72008834 401.1551621 198.35645021 394.33330091 194 387.5 C189.1965832 379.96692508 184.36114746 372.46391722 179.37719727 365.04907227 C175.92923706 359.91554016 172.577207 354.72414473 169.25 349.51171875 C167.66177454 347.02448446 166.05501053 344.55031821 164.4375 342.08203125 C164.01927979 341.44080322 163.60105957 340.7995752 163.17016602 340.13891602 C162.36429638 338.90401537 161.55502422 337.67132672 160.74194336 336.44116211 C158 332.22472535 158 332.22472535 158 330 C157.34 330 156.68 330 156 330 C155.34 328.02 154.68 326.04 154 324 C153.34 324 152.68 324 152 324 C151.32517578 322.7625 151.32517578 322.7625 150.63671875 321.5 C145.23966397 311.80909602 139.35749284 303.24726231 133 294 C132.505 436.065 132.505 436.065 132 581 C88.44 581 44.88 581 0 581 C0 389.27 0 197.54 0 0 Z " fill="#091817" transform="translate(350,254)"/>
<path d="M0 0 C67.98 0 135.96 0 206 0 C206 155.1 206 310.2 206 470 C232.4 470 258.8 470 286 470 C286 506.63 286 543.26 286 581 C191.62 581 97.24 581 0 581 C0 544.37 0 507.74 0 470 C26.4 470 52.8 470 80 470 C80 350.54 80 231.08 80 108 C53.6 108 27.2 108 0 108 C0 72.36 0 36.72 0 0 Z " fill="#081817" transform="translate(1074,254)"/>
<path d="M0 0 C68.31 0 136.62 0 207 0 C207 128.37 207 256.74 207 389 C165.09 389 123.18 389 80 389 C80 296.27 80 203.54 80 108 C53.6 108 27.2 108 0 108 C0 72.36 0 36.72 0 0 Z " fill="#081817" transform="translate(1351,446)"/>
<path d="M0 0 C67.98 0 135.96 0 206 0 C206 128.37 206 256.74 206 389 C164.42 389 122.84 389 80 389 C80 296.27 80 203.54 80 108 C53.6 108 27.2 108 0 108 C0 72.36 0 36.72 0 0 Z " fill="#081817" transform="translate(796,446)"/>
<path d="M0 0 C0.99 0.21785156 1.98 0.43570313 3 0.66015625 C8.31513488 1.95359998 11.8829381 3.25721646 16 7 C18.18214568 7.77833534 18.18214568 7.77833534 20 8 C20 8.66 20 9.32 20 10 C21.02673828 10.32677734 21.02673828 10.32677734 22.07421875 10.66015625 C37.27467122 17.62111112 48.0395944 34.04642855 54 49 C59.26681052 63.48652844 59.66315438 79.06560136 56 94 C55.84015625 94.84046875 55.6803125 95.6809375 55.515625 96.546875 C51.9142021 112.99661744 40.14444349 129.03155833 26.3984375 138.6015625 C21.03135743 141.73090234 15.4370279 144.44327972 9.82714844 147.10693359 C8.23348756 147.88587687 6.67873536 148.74343637 5.1328125 149.61328125 C-10.50293286 156.53434061 -32.25645243 154.70238731 -48 149 C-56.53488904 145.53686375 -63.76491666 140.64520834 -71 135 C-71.93585937 134.33097656 -71.93585937 134.33097656 -72.890625 133.6484375 C-86.13281564 123.56209603 -95.04993158 104.96493592 -98 89 C-100.35027611 66.96636739 -96.94281761 46.4135073 -83.29492188 28.58935547 C-75.07482224 18.50020603 -65.27772841 9.68785994 -53 5 C-52.360625 4.68417969 -51.72125 4.36835938 -51.0625 4.04296875 C-35.3937232 -3.64740516 -16.77681697 -3.83674365 0 0 Z " fill="#091817" transform="translate(956,247)"/>
<path d="M0 0 C21.10453252 -0.64393751 40.05169555 5.71810462 56.0390625 19.76171875 C65.23031732 28.50324856 71.60473437 36.30847812 76.59375 48.19140625 C77.10035156 49.26003906 77.60695313 50.32867187 78.12890625 51.4296875 C84.68789154 67.26991102 84.0649307 88.07110307 78.0078125 103.9921875 C77.54117187 105.04792969 77.07453125 106.10367188 76.59375 107.19140625 C76.20960938 108.11308594 75.82546875 109.03476562 75.4296875 109.984375 C72.39143513 116.64992867 68.05599499 122.41621443 63.59375 128.19140625 C62.65015625 129.44630859 62.65015625 129.44630859 61.6875 130.7265625 C59.38158211 133.44117852 56.92647674 135.58024541 54.15625 137.81640625 C53.22941406 138.57179688 52.30257813 139.3271875 51.34765625 140.10546875 C33.8540135 153.35597262 11.84866023 157.61722171 -9.63867188 154.91015625 C-30.63021061 151.46699612 -47.13505143 139.24708642 -60.40625 123.19140625 C-60.40625 122.53140625 -60.40625 121.87140625 -60.40625 121.19140625 C-61.06625 121.19140625 -61.72625 121.19140625 -62.40625 121.19140625 C-65.4476053 116.18172793 -67.64631804 111.2940105 -69.53125 105.75390625 C-69.78261719 105.04169922 -70.03398438 104.32949219 -70.29296875 103.59570312 C-77.06948955 84.06442197 -76.41898243 63.50917965 -67.5078125 44.73388672 C-64.59927706 38.84164224 -61.46133578 33.38218327 -57.40625 28.19140625 C-56.74625 28.19140625 -56.08625 28.19140625 -55.40625 28.19140625 C-55.1690625 27.62164062 -54.931875 27.051875 -54.6875 26.46484375 C-50.25164144 18.5938996 -41.14671172 13.37022695 -33.40625 9.19140625 C-32.77460937 8.82402344 -32.14296875 8.45664063 -31.4921875 8.078125 C-21.89118757 2.78736121 -10.82962503 0.60854544 0 0 Z " fill="#081817" transform="translate(1487.40625,244.80859375)"/>
<path d="M0 0 C68.31 0 136.62 0 207 0 C207 128.37 207 256.74 207 389 C165.09 389 123.18 389 80 389 C80 296.27 80 203.54 80 108 C80.33 108 80.66 108 81 108 C81 200.4 81 292.8 81 388 C121.92 388 162.84 388 205 388 C205 387.34 205 386.68 205 386 C204.34 386 203.68 386 203 386 C202.97713308 337.2421083 202.95950149 288.48421714 202.94893467 239.72632114 C202.9476839 233.97575054 202.94638958 228.22517996 202.94506836 222.47460938 C202.94467489 220.75728812 202.94467489 220.75728812 202.94427348 219.00527351 C202.93991695 200.44445881 202.9320295 181.88364719 202.9228472 163.32283433 C202.91351018 144.29115602 202.90794429 125.25947933 202.90591151 106.22779882 C202.90453638 94.47528844 202.90018635 82.72278678 202.89208353 70.97027908 C202.88681548 62.92150932 202.88519584 54.87274408 202.88649862 46.82397272 C202.88714191 42.17370707 202.88612555 37.5234567 202.88079453 32.87319374 C202.87595637 28.62204272 202.87566412 24.37091736 202.87910111 20.11976521 C202.87952639 18.57599773 202.87823415 17.0322287 202.87511682 15.48846431 C202.87114514 13.40146035 202.87324147 11.31455089 202.87695217 9.2275486 C202.87657245 8.06484495 202.87619273 6.9021413 202.8758015 5.7042042 C203 3 203 3 204 1 C137.01 1 70.02 1 1 1 C1 36.31 1 71.62 1 108 C0.67 108 0.34 108 0 108 C0 72.36 0 36.72 0 0 Z " fill="#392810" transform="translate(1351,446)"/>
<path d="M0 0 C0.66 0.33 1.32 0.66 2 1 C2 155.77 2 310.54 2 470 C27.41 470 52.82 470 79 470 C79 470.33 79 470.66 79 471 C52.6 471 26.2 471 -1 471 C-1.01689959 426.20576554 -1.03301495 381.41153108 -1.04234314 336.61729431 C-1.0424812 335.95485572 -1.04261925 335.29241714 -1.04276149 334.60990465 C-1.04575405 320.21506924 -1.04852428 305.82023379 -1.05106533 291.42539829 C-1.05231272 284.36668805 -1.05360927 277.30797781 -1.05493164 270.24926758 C-1.0550624 269.54682227 -1.05519316 268.84437696 -1.05532788 268.12064544 C-1.05959305 245.33178346 -1.0671072 222.54292395 -1.07629722 199.75406347 C-1.08598691 175.68256821 -1.0919936 151.61107458 -1.09408849 127.53957742 C-1.09546407 113.11073494 -1.09981651 98.68189956 -1.10791647 84.25305926 C-1.11318188 74.37327188 -1.11480476 64.49348819 -1.11350138 54.6136995 C-1.11285768 48.9043445 -1.11387911 43.19500193 -1.11920547 37.48564911 C-1.12403787 32.26801438 -1.12433971 27.05040057 -1.12089889 21.83276492 C-1.12047304 19.93639316 -1.12177012 18.04002015 -1.12488318 16.1436509 C-1.12884452 13.58347832 -1.12676505 11.02338317 -1.12304783 8.46321201 C-1.12567484 7.71179667 -1.12830186 6.96038133 -1.13100848 6.18619582 C-1.1141458 1.1141458 -1.1141458 1.1141458 0 0 Z " fill="#D37C20" transform="translate(1281,253)"/>
<path d="M0 0 C0.99 0 1.98 0 3 0 C3 92.4 3 184.8 3 280 C43.59 280 84.18 280 126 280 C126 280.33 126 280.66 126 281 C84.42 281 42.84 281 0 281 C0 188.27 0 95.54 0 0 Z " fill="#331C05" transform="translate(876,554)"/>
<path d="M0 0 C26.4 0 52.8 0 80 0 C80 0.33 80 0.66 80 1 C54.59 1 29.18 1 3 1 C3.33 1.99 3.66 2.98 4 4 C3.67 38.98 3.34 73.96 3 110 C96.06 110 189.12 110 285 110 C285 73.7 285 37.4 285 0 C285.33 0 285.66 0 286 0 C286 36.63 286 73.26 286 111 C191.62 111 97.24 111 0 111 C0 74.37 0 37.74 0 0 Z " fill="#32230E" transform="translate(1074,724)"/>
<path d="M0 0 C0.33 0 0.66 0 1 0 C1.33 95.04 1.66 190.08 2 288 C2.99 286.35 3.98 284.7 5 283 C5.495 284.485 5.495 284.485 6 286 C5.34 286.99 4.68 287.98 4 289 C4.66 289.33 5.32 289.66 6 290 C5.01 290.99 4.02 291.98 3 293 C3 292.34 3 291.68 3 291 C2.34 291 1.68 291 1 291 C1 386.04 1 481.08 1 579 C0.67 579 0.34 579 0 579 C0 387.93 0 196.86 0 0 Z " fill="#211B0B" transform="translate(480,255)"/>
<path d="M0 0 C5.625 5.625 5.625 5.625 7 9 C5.68 9 4.36 9 3 9 C2.67 101.07 2.34 193.14 2 288 C1.34 288 0.68 288 0 288 C0 192.96 0 97.92 0 0 Z " fill="#E38421" transform="translate(482,547)"/>
<path d="M0 0 C0.66 0 1.32 0 2 0 C2 92.4 2 184.8 2 280 C2.99 280 3.98 280 5 280 C3.7191375 283.64553172 2.83328987 285.16671013 0 288 C0 192.96 0 97.92 0 0 Z " fill="#E38321" transform="translate(482,254)"/>
<path d="M0 0 C0.66 0 1.32 0 2 0 C2.33 92.4 2.66 184.8 3 280 C2.01 280 1.02 280 0 280 C0 187.6 0 95.2 0 0 Z " fill="#211207" transform="translate(1432,554)"/>
<path d="M0 0 C0.66 0 1.32 0 2 0 C2 35.64 2 71.28 2 108 C1.34 108 0.68 108 0 108 C-1.15350904 105.69298193 -1.12571473 104.39093564 -1.12698364 101.82470703 C-1.12980347 100.949776 -1.13262329 100.07484497 -1.13552856 99.17340088 C-1.13350433 98.21125671 -1.1314801 97.24911255 -1.12939453 96.2578125 C-1.13114685 95.24636169 -1.13289917 94.23491089 -1.13470459 93.19281006 C-1.1391194 89.83685611 -1.1361864 86.48095452 -1.1328125 83.125 C-1.13348565 80.80094391 -1.13445576 78.47688788 -1.13571167 76.15283203 C-1.13718814 71.27701142 -1.1350357 66.40120911 -1.13037109 61.52539062 C-1.12467385 55.26370793 -1.12795312 49.00206809 -1.13394356 42.74038696 C-1.13755053 37.93985672 -1.13640995 33.1393367 -1.13381577 28.33880615 C-1.13314687 26.02943924 -1.1339736 23.72007141 -1.13629532 21.41070557 C-1.13882405 18.18784106 -1.13497807 14.96504676 -1.12939453 11.7421875 C-1.13141876 10.78004333 -1.13344299 9.81789917 -1.13552856 8.82659912 C-1.13270874 7.95166809 -1.12988892 7.07673706 -1.12698364 6.17529297 C-1.12660662 5.41280243 -1.12622959 4.65031189 -1.12584114 3.86471558 C-1 2 -1 2 0 0 Z " fill="#E57A0A" transform="translate(794,446)"/>
<path d="M0 0 C0.33 0 0.66 0 1 0 C1 2.64 1 5.28 1 8 C0.01 8.495 0.01 8.495 -1 9 C-2.81361617 14.01660614 -3.2968163 18.61462678 -3.265625 23.9453125 C-3.26753845 24.67821503 -3.2694519 25.41111755 -3.27142334 26.16622925 C-3.27277548 27.70408474 -3.26914741 29.24195204 -3.26074219 30.77978516 C-3.24999731 33.12558661 -3.26068604 35.47062778 -3.2734375 37.81640625 C-3.27211634 39.31771001 -3.26955483 40.8190133 -3.265625 42.3203125 C-3.27169769 43.36422653 -3.27169769 43.36422653 -3.27789307 44.42922974 C-3.23973528 48.41025729 -2.6922815 51.40144686 -1 55 C-0.72048844 56.34838446 -0.47001217 57.70313912 -0.25 59.0625 C1.18439256 65.87873346 4.0893577 74.0595718 10 78 C10.68268138 79.32520503 11.3507041 80.65812182 12 82 C12.66 82.33 13.32 82.66 14 83 C14.625 85.5625 14.625 85.5625 15 88 C14.34 88 13.68 88 13 88 C11.33265995 85.9943149 9.81229797 84.00192527 8.3125 81.875 C7.64528931 80.92971436 7.64528931 80.92971436 6.96459961 79.96533203 C-2.8493312 65.733276 -7.59590435 51.88464792 -7.625 34.5 C-7.62951172 33.29053711 -7.63402344 32.08107422 -7.63867188 30.83496094 C-7.43046799 19.58302816 -4.59843716 10.18225371 0 0 Z " fill="#1A1409" transform="translate(865,288)"/>
<path d="M0 0 C0.33 0 0.66 0 1 0 C1.125 5.75 1.125 5.75 0 8 C-2.12420637 22.86944462 -3.85225951 43.4037232 3.078125 56.98828125 C4.44700466 59.97545509 4.72285245 62.74351631 5 66 C1.60584611 64.30292305 1.16278229 60.35964887 0 56.9375 C-0.26039062 56.19822266 -0.52078125 55.45894531 -0.7890625 54.69726562 C-3.75158895 46.14633701 -5.38855618 38.59380158 -5.375 29.5 C-5.37556396 28.54254883 -5.37612793 27.58509766 -5.37670898 26.59863281 C-5.2395859 17.61594701 -4.07168756 8.14337512 0 0 Z " fill="#3C1D04" transform="translate(1418,294)"/>
<path d="M0 0 C0.33 0 0.66 0 1 0 C1.0501123 0.97348389 1.10022461 1.94696777 1.15185547 2.94995117 C1.34076505 6.57528753 1.54101594 10.19992507 1.74462891 13.82446289 C1.83103989 15.39070238 1.91440958 16.95711283 1.99462891 18.52368164 C2.11073759 20.78063384 2.23791451 23.03673691 2.3671875 25.29296875 C2.40061249 25.98899704 2.43403748 26.68502533 2.46847534 27.40214539 C2.70675195 31.34634216 3.46885947 34.38387731 5 38 C5 39.32 5 40.64 5 42 C5.66 42 6.32 42 7 42 C7.47050781 42.98742187 7.94101562 43.97484375 8.42578125 44.9921875 C9.05425994 46.286666 9.68318981 47.58092553 10.3125 48.875 C10.7755957 49.85146484 10.7755957 49.85146484 11.24804688 50.84765625 C12.88807385 54.19676398 13.83508818 55.89005879 17 58 C17.68268138 59.32520503 18.3507041 60.65812182 19 62 C19.66 62.33 20.32 62.66 21 63 C21.625 65.5625 21.625 65.5625 22 68 C21.34 68 20.68 68 20 68 C18.33265995 65.9943149 16.81229797 64.00192527 15.3125 61.875 C14.86769287 61.24480957 14.42288574 60.61461914 13.96459961 59.96533203 C3.71606086 45.10301228 -0.55627234 31.36712326 -0.1875 13.25 C-0.17396484 11.96867187 -0.16042969 10.68734375 -0.14648438 9.3671875 C-0.11152705 6.24433305 -0.0624609 3.12240459 0 0 Z " fill="#582601" transform="translate(858,308)"/>
<path d="M0 0 C0.61328125 1.796875 0.61328125 1.796875 1 4 C-0.8125 7.25 -0.8125 7.25 -3 10 C-3.66 10 -4.32 10 -5 10 C-5.165 10.928125 -5.33 11.85625 -5.5 12.8125 C-7.129535 18.60508063 -11.09086657 23.52578392 -15 28 C-15.99 28.33 -16.98 28.66 -18 29 C-16.367786 24.35446784 -16.367786 24.35446784 -14.59765625 22.6484375 C-12.61434366 20.60208564 -11.54849728 18.47248766 -10.25 15.9375 C-7.2552897 10.2942017 -3.77361395 5.14685216 0 0 Z " fill="#442203" transform="translate(620,330)"/>
<path d="M0 0 C1.09448564 3.28345693 0.88890619 4.23355142 0.1015625 7.4921875 C-1.09941992 13.04496503 -1.43400224 18.4587332 -1.625 24.125 C-1.66367188 25.08148438 -1.70234375 26.03796875 -1.7421875 27.0234375 C-1.83520128 29.34878199 -1.92103771 31.67414335 -2 34 C-2.66 34 -3.32 34 -4 34 C-4 26.08 -4 18.16 -4 10 C-3.34 10 -2.68 10 -2 10 C-2.04125 8.72125 -2.0825 7.4425 -2.125 6.125 C-2.1953125 3.9453125 -2.1953125 3.9453125 -2 2 C-1.34 1.34 -0.68 0.68 0 0 Z " fill="#E97F16" transform="translate(1415,299)"/>
<path d="M0 0 C4.12566242 1.37522081 5.61946112 4.25322258 8 7.6875 C8.43828125 8.30044922 8.8765625 8.91339844 9.328125 9.54492188 C16 19.02019014 16 19.02019014 16 23 C16.99 23 17.98 23 19 23 C20.06775224 24.96466413 21.06553465 26.96855359 22 29 C21.67 29.66 21.34 30.32 21 31 C11 18.42465753 11 18.42465753 11 15 C10.01 14.67 9.02 14.34 8 14 C6.56475147 11.68508302 5.26922686 9.40162257 4 7 C3.25466186 5.68484704 2.50487823 4.37220039 1.75 3.0625 C1.1725 2.051875 0.595 1.04125 0 0 Z " fill="#C77C27" transform="translate(706,657)"/>
<path d="M0 0 C0.99 0 1.98 0 3 0 C3 0.66 3 1.32 3 2 C3.66 2 4.32 2 5 2 C5.38091797 2.81404297 5.38091797 2.81404297 5.76953125 3.64453125 C6.11371094 4.35996094 6.45789063 5.07539062 6.8125 5.8125 C7.14894531 6.52019531 7.48539063 7.22789062 7.83203125 7.95703125 C8.9068218 10.04478569 8.9068218 10.04478569 10.57421875 11.57421875 C12 13 12 13 13 16 C13.66 16.33 14.32 16.66 15 17 C15 17.99 15 18.98 15 20 C15.66 20 16.32 20 17 20 C17.33 21.98 17.66 23.96 18 26 C14.31023241 22.62625418 11.71623741 18.84005083 9 14.6875 C8.57460938 14.04876953 8.14921875 13.41003906 7.7109375 12.75195312 C4.96268369 8.5916364 2.43237409 4.35237309 0 0 Z " fill="#D17D24" transform="translate(656,584)"/>
<path d="M0 0 C0.67578125 1.703125 0.67578125 1.703125 1 4 C-0.14453125 6.359375 -0.14453125 6.359375 -1.8125 8.75 C-2.35519531 9.54921875 -2.89789062 10.3484375 -3.45703125 11.171875 C-3.96621094 11.77515625 -4.47539063 12.3784375 -5 13 C-5.66 13 -6.32 13 -7 13 C-7 13.99 -7 14.98 -7 16 C-7.66 16 -8.32 16 -9 16 C-9 17.32 -9 18.64 -9 20 C-9.928125 20.12375 -9.928125 20.12375 -10.875 20.25 C-13.18437567 20.81258459 -13.18437567 20.81258459 -14.25 23.0625 C-14.4975 23.701875 -14.745 24.34125 -15 25 C-15 21.31965916 -14.01641354 20.16994009 -11.97265625 17.1484375 C-11.34552734 16.21515625 -10.71839844 15.281875 -10.07226562 14.3203125 C-9.40904297 13.34835937 -8.74582031 12.37640625 -8.0625 11.375 C-7.40314453 10.3953125 -6.74378906 9.415625 -6.06445312 8.40625 C-1.19611207 1.19611207 -1.19611207 1.19611207 0 0 Z " fill="#C47825" transform="translate(756,355)"/>
<path d="M0 0 C0.33 1.32 0.66 2.64 1 4 C0.01 4.33 -0.98 4.66 -2 5 C-2.67258667 7.33163378 -3.33847444 9.6652039 -4 12 C-6 14.9375 -6 14.9375 -8 17 C-8.66 17 -9.32 17 -10 17 C-10.33 19.31 -10.66 21.62 -11 24 C-12.65 24.33 -14.3 24.66 -16 25 C-11.41966566 16.15521644 -5.70461759 8.14231758 0 0 Z " fill="#CE7C23" transform="translate(780,319)"/>
<path d="M0 0 C1 2 1 2 0.546875 3.91015625 C0.28390625 4.62042969 0.0209375 5.33070313 -0.25 6.0625 C-0.50265625 6.77535156 -0.7553125 7.48820312 -1.015625 8.22265625 C-2 10 -2 10 -5 11 C-5.58282813 12.85015286 -5.58282813 12.85015286 -6 15 C-7.0859375 17.140625 -7.0859375 17.140625 -8.375 19.25 C-8.79523437 19.95640625 -9.21546875 20.6628125 -9.6484375 21.390625 C-10.31746094 22.18726563 -10.31746094 22.18726563 -11 23 C-11.99 23 -12.98 23 -14 23 C-12.28863928 19.38320673 -10.22662648 16.02725569 -8.125 12.625 C-7.44695313 11.52414062 -6.76890625 10.42328125 -6.0703125 9.2890625 C-4.09698216 6.15407355 -2.06950138 3.07177111 0 0 Z " fill="#452305" transform="translate(566,413)"/>
<path d="M0 0 C0 1.66666667 0 3.33333333 0 5 C-1.91583647 5.1958009 -3.83272539 5.38132214 -5.75 5.5625 C-7.35101562 5.71912109 -7.35101562 5.71912109 -8.984375 5.87890625 C-11.64141204 5.98560074 -13.49960572 5.81930395 -16 5 C-5.85 -2.25 -5.85 -2.25 0 0 Z " fill="#0C1713" transform="translate(916,249)"/>
<path d="M0 0 C1.32 0.33 2.64 0.66 4 1 C4.33 2.65 4.66 4.3 5 6 C5.66 6 6.32 6 7 6 C9.29648649 8.5614657 10 9.47967572 10 13 C10.66 13 11.32 13 12 13 C16.09326923 19.45 16.09326923 19.45 15.62109375 22.234375 C15.41613281 22.81703125 15.21117187 23.3996875 15 24 C14.57589844 23.32195313 14.15179687 22.64390625 13.71484375 21.9453125 C10.09601465 16.20290676 6.36367683 10.59198414 2.3828125 5.09375 C1 3 1 3 0 0 Z " fill="#D17E23" transform="translate(755,728)"/>
<path d="M0 0 C1 2 1 2 0.6875 4.0625 C0 6 0 6 -2 7 C-2.33 7.99 -2.66 8.98 -3 10 C-3.99 10.495 -3.99 10.495 -5 11 C-6.41072302 13.64510566 -7.70418475 16.30272119 -8.875 19.0625 C-10.48103768 21.82845379 -12.69067282 23.81221635 -15 26 C-15.66 25.67 -16.32 25.34 -17 25 C-11.43109857 16.59622521 -5.84032365 8.21899852 0 0 Z " fill="#C07727" transform="translate(689,454)"/>
<path d="M0 0 C0.33 0 0.66 0 1 0 C1.14285714 8.57142857 1.14285714 8.57142857 0 12 C-0.66 12 -1.32 12 -2 12 C-2.33 15.63 -2.66 19.26 -3 23 C-4.32 23.33 -5.64 23.66 -7 24 C-7 24.66 -7 25.32 -7 26 C-7.66 26 -8.32 26 -9 26 C-8.58234375 24.95779297 -8.58234375 24.95779297 -8.15625 23.89453125 C-7.58390625 22.46173828 -7.58390625 22.46173828 -7 21 C-6.5978125 19.99324219 -6.195625 18.98648437 -5.78125 17.94921875 C-3.44859125 12.0108954 -1.34581329 6.23967981 0 0 Z " fill="#CD7C23" transform="translate(1568,336)"/>
<path d="M0 0 C2.475 0.495 2.475 0.495 5 1 C5 1.66 5 2.32 5 3 C8.98399958 3.69096471 8.98399958 3.69096471 13 4 C15 6 15 6 16 9 C16.66 9.33 17.32 9.66 18 10 C18 10.66 18 11.32 18 12 C13.3811151 10.68618385 10.03300555 8.86177157 6.1875 6 C5.23230469 5.29875 4.27710938 4.5975 3.29296875 3.875 C1 2 1 2 0 0 Z " fill="#332109" transform="translate(1439,380)"/>
<path d="M0 0 C0.70703125 1.640625 0.70703125 1.640625 1 4 C-0.36328125 6.796875 -0.36328125 6.796875 -2.3125 9.75 C-3.26576172 11.22726562 -3.26576172 11.22726562 -4.23828125 12.734375 C-4.81964844 13.48203125 -5.40101563 14.2296875 -6 15 C-6.66 15 -7.32 15 -8 15 C-7.484375 15.928125 -6.96875 16.85625 -6.4375 17.8125 C-5 21 -5 21 -6 24 C-10.03073286 18.74783294 -10.03073286 18.74783294 -9.90625 15.71875 C-8.69910958 12.09732873 -6.66145611 9.24245962 -4.4375 6.1875 C-4.01275391 5.59001953 -3.58800781 4.99253906 -3.15039062 4.37695312 C-2.10776741 2.91259467 -1.05489548 1.45554265 0 0 Z " fill="#C57A27" transform="translate(639,528)"/>
<path d="M0 0 C3.12127001 3.92255126 5.29051313 8.20442089 7.59765625 12.63671875 C8.78052882 15.11567378 8.78052882 15.11567378 11 16 C11.66666667 17.33333333 12.33333333 18.66666667 13 20 C13.66 20.33 14.32 20.66 15 21 C15.625 23.5625 15.625 23.5625 16 26 C15.34 26 14.68 26 14 26 C12.28076341 23.86742778 10.68992527 21.74201817 9.125 19.5 C8.67463379 18.8601416 8.22426758 18.2202832 7.76025391 17.56103516 C0 6.38072043 0 6.38072043 0 0 Z " fill="#331903" transform="translate(864,350)"/>
<path d="M0 0 C0.33 0.66 0.66 1.32 1 2 C-0.28922773 4.96522379 -1.65896878 7.5540361 -3.625 10.125 C-5.08426667 12.11490909 -5.42966705 13.63719208 -6 16 C-6.66 16.33 -7.32 16.66 -8 17 C-8.33 17.99 -8.66 18.98 -9 20 C-10.32 19.67 -11.64 19.34 -13 19 C-11.39726826 16.58237088 -9.79287303 14.1658743 -8.1875 11.75 C-7.73568359 11.06808594 -7.28386719 10.38617188 -6.81835938 9.68359375 C-4.62668041 6.38807647 -2.42750212 3.12913895 0 0 Z " fill="#BB7628" transform="translate(820,260)"/>
<path d="M0 0 C5.92056432 1.26869235 10.66068812 3.13965435 16 6 C16 6.33 16 6.66 16 7 C10.85335511 7 6.10192873 6.75584129 1 6 C0.67 4.02 0.34 2.04 0 0 Z " fill="#1D2017" transform="translate(1512,248)"/>
<path d="M0 0 C0.66 0 1.32 0 2 0 C2.33 1.65 2.66 3.3 3 5 C3.99 5 4.98 5 6 5 C6 5.99 6 6.98 6 8 C7.65 8 9.3 8 11 8 C11.33 8.66 11.66 9.32 12 10 C12.556875 10.928125 12.556875 10.928125 13.125 11.875 C14.17534644 14.42584136 13.76534022 15.42371391 13 18 C11.49405319 16.38050958 9.99539332 14.75424026 8.5 13.125 C7.6646875 12.22007812 6.829375 11.31515625 5.96875 10.3828125 C4 8 4 8 4 6 C3.34 6 2.68 6 2 6 C1.34 4.02 0.68 2.04 0 0 Z " fill="#3E1F05" transform="translate(1423,360)"/>
<path d="M0 0 C0.99 0 1.98 0 3 0 C3.26554688 0.55429687 3.53109375 1.10859375 3.8046875 1.6796875 C4.15789063 2.40414062 4.51109375 3.12859375 4.875 3.875 C5.22304688 4.59429688 5.57109375 5.31359375 5.9296875 6.0546875 C6.96557543 8.15135019 6.96557543 8.15135019 9 10 C9 11.32 9 12.64 9 14 C9.66 14 10.32 14 11 14 C11.66 15.98 12.32 17.96 13 20 C13.66 20 14.32 20 15 20 C14.67 21.32 14.34 22.64 14 24 C13.49210938 23.16597656 12.98421875 22.33195313 12.4609375 21.47265625 C8.77866947 15.45276863 5.07056785 9.49743635 1.03125 3.70703125 C0 2 0 2 0 0 Z " fill="#3F1E02" transform="translate(565,672)"/>
<path d="M0 0 C0.99110257 3.11393712 1.09952347 3.76611984 -0.25 6.9375 C-0.8275 7.948125 -1.405 8.95875 -2 10 C-2.45375 10.9075 -2.9075 11.815 -3.375 12.75 C-5.3132761 15.4337669 -6.87151033 16.06990848 -10 17 C-8.51364884 12.78345644 -6.38750841 9.37521395 -3.875 5.6875 C-3.15054688 4.61886719 -2.42609375 3.55023438 -1.6796875 2.44921875 C-0.84824219 1.23685547 -0.84824219 1.23685547 0 0 Z " fill="#442406" transform="translate(601,359)"/>
<path d="M0 0 C1 2 1 2 0.0625 5.125 C-0.288125 6.07375 -0.63875 7.0225 -1 8 C-1.66 8 -2.32 8 -3 8 C-3.33 9.32 -3.66 10.64 -4 12 C-4.66 12 -5.32 12 -6 12 C-6.2475 12.7425 -6.495 13.485 -6.75 14.25 C-8.09147301 17.20124062 -9.60905526 18.84814974 -12 21 C-12 17.50663182 -11.30454854 16.60355566 -9.375 13.76953125 C-8.83359375 12.96708984 -8.2921875 12.16464844 -7.734375 11.33789062 C-6.87585938 10.08782227 -6.87585938 10.08782227 -6 8.8125 C-5.42765625 7.96751953 -4.8553125 7.12253906 -4.265625 6.25195312 C-2.84986029 4.16370018 -1.42781918 2.08002117 0 0 Z " fill="#4C2402" transform="translate(641,298)"/>
<path d="M0 0 C1.60717771 2.41076656 2.61542515 4.28099245 3.625 6.9375 C3.88539062 7.60652344 4.14578125 8.27554687 4.4140625 8.96484375 C5 11 5 11 5 15 C1.74275395 14.43840585 -0.03790401 13.70956113 -2 11 C-1.85546875 8.30078125 -1.85546875 8.30078125 -1.1875 5.3125 C-0.97480469 4.31863281 -0.76210937 3.32476562 -0.54296875 2.30078125 C-0.36378906 1.54152344 -0.18460938 0.78226562 0 0 Z " fill="#202013" transform="translate(1563,293)"/>
<path d="M0 0 C0.33 1.32 0.66 2.64 1 4 C0.01 4.33 -0.98 4.66 -2 5 C-2.268125 5.845625 -2.53625 6.69125 -2.8125 7.5625 C-4.74250768 13.14936434 -8.07575692 17.71717128 -13 21 C-11.3518456 15.96617902 -8.39351949 11.9739509 -5.375 7.6875 C-4.859375 6.94693359 -4.34375 6.20636719 -3.8125 5.44335938 C-2.54605274 3.62577303 -1.27514241 1.81149162 0 0 Z " fill="#C67A26" transform="translate(664,491)"/>
<path d="M0 0 C0.99 0 1.98 0 3 0 C3 0.66 3 1.32 3 2 C3.66 2 4.32 2 5 2 C5.28875 2.639375 5.5775 3.27875 5.875 3.9375 C6.82823451 6.15206079 6.82823451 6.15206079 9 7 C9.88671875 8.9609375 9.88671875 8.9609375 10.6875 11.375 C10.95949219 12.16648437 11.23148438 12.95796875 11.51171875 13.7734375 C12 16 12 16 11 19 C10.54109375 18.19175781 10.0821875 17.38351562 9.609375 16.55078125 C8.68898438 14.94783203 8.68898438 14.94783203 7.75 13.3125 C7.14671875 12.25675781 6.5434375 11.20101563 5.921875 10.11328125 C4.07134768 6.9699248 4.07134768 6.9699248 1.765625 4.23046875 C0 2 0 2 0 0 Z " fill="#CE7D24" transform="translate(996,272)"/>
<path d="M0 0 C0.99 0 1.98 0 3 0 C7 5.25714286 7 5.25714286 7 8 C7.66 8 8.32 8 9 8 C9 8.66 9 9.32 9 10 C9.66 10 10.32 10 11 10 C11.66 12.64 12.32 15.28 13 18 C9.3162993 14.51629006 6.47981377 11.01997888 3.6875 6.75 C2.99011719 5.69296875 2.29273438 4.6359375 1.57421875 3.546875 C0 1 0 1 0 0 Z " fill="#CB7B25" transform="translate(738,704)"/>
<path d="M0 0 C3.53942155 1.17980718 3.92994678 1.99772695 5.875 5.0625 C6.38933594 5.87203125 6.90367187 6.6815625 7.43359375 7.515625 C8.20896484 8.74539063 8.20896484 8.74539063 9 10 C9.50660156 10.73734375 10.01320313 11.4746875 10.53515625 12.234375 C10.99792969 12.92015625 11.46070313 13.6059375 11.9375 14.3125 C12.35902344 14.92738281 12.78054688 15.54226563 13.21484375 16.17578125 C14.21827694 18.50714095 13.69313302 19.61918515 13 22 C11.20565495 19.08497315 9.4149985 16.16769755 7.625 13.25 C7.11710937 12.425 6.60921875 11.6 6.0859375 10.75 C5.59609375 9.95078125 5.10625 9.1515625 4.6015625 8.328125 C4.15119629 7.5949707 3.70083008 6.86181641 3.23681641 6.10644531 C2.06338832 4.10795784 1.00964528 2.08522657 0 0 Z " fill="#391A02" transform="translate(488,554)"/>
<path d="M0 0 C0.93423645 3.01031744 1.04449911 3.86650268 0 7 C-0.66 7 -1.32 7 -2 7 C-2 7.66 -2 8.32 -2 9 C-2.66 9 -3.32 9 -4 9 C-4.33 10.65 -4.66 12.3 -5 14 C-5.99 14 -6.98 14 -8 14 C-8 14.66 -8 15.32 -8 16 C-8.66 16 -9.32 16 -10 16 C-8.55797524 11.84848662 -6.4989562 8.70021555 -3.875 5.1875 C-3.15054688 4.21167969 -2.42609375 3.23585938 -1.6796875 2.23046875 C-0.84824219 1.12638672 -0.84824219 1.12638672 0 0 Z " fill="#BB7524" transform="translate(735,386)"/>
<path d="M0 0 C1 2 1 2 0.875 4 C0.441875 4.99 0.441875 4.99 0 6 C-0.804375 6.28875 -1.60875 6.5775 -2.4375 6.875 C-5.33663628 7.79704705 -5.33663628 7.79704705 -6.3125 11.125 C-6.539375 12.07375 -6.76625 13.0225 -7 14 C-8.65 14.33 -10.3 14.66 -12 15 C-11 13 -10 11 -9 9 C-8.34 9 -7.68 9 -7 9 C-6.773125 8.443125 -6.54625 7.88625 -6.3125 7.3125 C-4.64103234 4.36753316 -2.44723648 2.31843456 0 0 Z " fill="#432505" transform="translate(1439,264)"/>
<path d="M0 0 C2 2.5 2 2.5 4 5 C5.11375 6.3303125 5.11375 6.3303125 6.25 7.6875 C8 10 8 10 8 12 C7.01 12 6.02 12 5 12 C5 12.66 5 13.32 5 14 C4.01 14 3.02 14 2 14 C2 10.7 2 7.4 2 4 C1.34 4 0.68 4 0 4 C0 2.68 0 1.36 0 0 Z M0 6 C0.66 6.66 1.32 7.32 2 8 C1.34 8 0.68 8 0 8 C0 7.34 0 6.68 0 6 Z " fill="#1F1F12" transform="translate(706,658)"/>
<path d="M0 0 C0 0.33 0 0.66 0 1 C-0.97582031 1.04898438 -1.95164062 1.09796875 -2.95703125 1.1484375 C-4.22933594 1.22320312 -5.50164063 1.29796875 -6.8125 1.375 C-8.70935547 1.47941406 -8.70935547 1.47941406 -10.64453125 1.5859375 C-13.96222948 1.99533914 -15.5995438 2.5995438 -18 5 C-21.16620913 5.34229288 -22.60483847 5.25632099 -25.3125 3.5 C-25.869375 3.005 -26.42625 2.51 -27 2 C-18.08489362 -0.641513 -9.20604186 -0.17875809 0 0 Z " fill="#4A300E" transform="translate(944,245)"/>
<path d="M0 0 C0.99 0.33 1.98 0.66 3 1 C3 1.66 3 2.32 3 3 C3.66 3 4.32 3 5 3 C5.103125 3.598125 5.20625 4.19625 5.3125 4.8125 C6.09385053 7.29861534 7.14895416 8.22943442 9 10 C9 10.66 9 11.32 9 12 C9.66 12 10.32 12 11 12 C11.33 14.31 11.66 16.62 12 19 C8.89583535 15.28059551 6.2586358 11.38460345 3.75 7.25 C3.38648438 6.66089844 3.02296875 6.07179688 2.6484375 5.46484375 C0 1.13375235 0 1.13375235 0 0 Z " fill="#371A02" transform="translate(620,757)"/>
<path d="M0 0 C5.36748524 1.78916175 7.67599922 5.75399362 10.3125 10.5625 C10.84488281 11.51253906 11.37726562 12.46257813 11.92578125 13.44140625 C13 16 13 16 12 19 C9.99629574 16.02330902 7.99766337 13.0432477 6 10.0625 C5.42765625 9.21236328 4.8553125 8.36222656 4.265625 7.48632812 C3.45351563 6.27299805 3.45351563 6.27299805 2.625 5.03515625 C2.12226562 4.2862915 1.61953125 3.53742676 1.1015625 2.76586914 C0 1 0 1 0 0 Z " fill="#391B02" transform="translate(552,653)"/>
<path d="M0 0 C1.24546405 2.49092811 0.7767578 3.41080733 0 6 C-0.66 6 -1.32 6 -2 6 C-2.433125 7.2065625 -2.433125 7.2065625 -2.875 8.4375 C-4 11 -4 11 -6 12 C-6.72693904 13.97888961 -7.39816251 15.97954558 -8 18 C-8.99 18 -9.98 18 -11 18 C-9.51971645 13.81490516 -7.42574276 10.41688407 -4.9375 6.75 C-4.22464844 5.69296875 -3.51179687 4.6359375 -2.77734375 3.546875 C-1 1 -1 1 0 0 Z " fill="#412203" transform="translate(545,446)"/>
<path d="M0 0 C1.125 3.75 1.125 3.75 0 6 C-0.66 6 -1.32 6 -2 6 C-2.4021875 7.2065625 -2.4021875 7.2065625 -2.8125 8.4375 C-3.204375 9.283125 -3.59625 10.12875 -4 11 C-4.99 11.33 -5.98 11.66 -7 12 C-8.20882096 14.00016466 -8.20882096 14.00016466 -9 16 C-9 11.93725548 -7.34403285 10.20307076 -5.0625 6.875 C-4.33160156 5.79992187 -3.60070312 4.72484375 -2.84765625 3.6171875 C-1 1 -1 1 0 0 Z " fill="#C07523" transform="translate(650,512)"/>
<path d="M0 0 C1.57499749 3.14999498 0.70833498 5.63540882 0 9 C-1.3125 11 -1.3125 11 -3 12 C-5.10546875 11.5625 -5.10546875 11.5625 -7 11 C-6.02262231 9.35310365 -5.0430468 7.70751146 -4.0625 6.0625 C-3.51722656 5.14597656 -2.97195313 4.22945313 -2.41015625 3.28515625 C-1 1 -1 1 0 0 Z " fill="#3C2307" transform="translate(524,478)"/>
<path d="M0 0 C1.12297956 3.75122961 0.72975914 5.44944177 -1 9 C-1.99 10.485 -1.99 10.485 -3 12 C-4.32 12 -5.64 12 -7 12 C-5.44298069 7.32894208 -2.91552627 3.91294315 0 0 Z " fill="#D17A1E" transform="translate(801,288)"/>
<path d="M0 0 C0.33 0.66 0.66 1.32 1 2 C0.34 2 -0.32 2 -1 2 C-1 3.65 -1 5.3 -1 7 C-2.32 6.67 -3.64 6.34 -5 6 C-5.33 6.66 -5.66 7.32 -6 8 C-6.66 8 -7.32 8 -8 8 C-8.33 8.99 -8.66 9.98 -9 11 C-10.32 10.67 -11.64 10.34 -13 10 C-4.738041 2.51708428 -4.738041 2.51708428 0 0 Z " fill="#392106" transform="translate(895,256)"/>
<path d="M0 0 C-1.31224548 3.93673644 -2.91910327 6.22719294 -6 9 C-6 8.01 -6 7.02 -6 6 C-6.66 5.67 -7.32 5.34 -8 5 C-7.625 3.0625 -7.625 3.0625 -7 1 C-4.53721199 -0.231394 -2.7204945 -0.07159196 0 0 Z " fill="#161C12" transform="translate(665,489)"/>
<path d="M0 0 C5.28 0 10.56 0 16 0 C12.30876429 3.69123571 6.40345379 3.88706238 1.33984375 4.125 C-0.77384822 4.125 -2.88740691 4.06814816 -5 4 C-2 2 -2 2 0 2 C0 1.34 0 0.68 0 0 Z " fill="#372E17" transform="translate(944,396)"/>
<path d="M0 0 C3.01693943 2.85674795 5.40554531 5.82348931 7.75 9.25 C8.67039062 10.58804688 8.67039062 10.58804688 9.609375 11.953125 C10.06828125 12.62859375 10.5271875 13.3040625 11 14 C10.67 14.66 10.34 15.32 10 16 C7.21611025 14.29374499 6.14615794 13.52373261 5.25 10.3125 C5.1675 9.549375 5.085 8.78625 5 8 C4.34 8 3.68 8 3 8 C3 7.34 3 6.68 3 6 C1.68 6.33 0.36 6.66 -1 7 C-0.67 4.69 -0.34 2.38 0 0 Z " fill="#231F0E" transform="translate(803,800)"/>
<path d="M0 0 C0.75 1.625 0.75 1.625 1 4 C-1.76776139 9.53552279 -5.96339472 12.55261484 -11 16 C-9.53461846 12.78348751 -7.70270269 10.1955451 -5.5 7.4375 C-3.55613602 4.99531495 -1.73348485 2.60022728 0 0 Z " fill="#B67328" transform="translate(1558,362)"/>
<path d="M0 0 C0.33 0 0.66 0 1 0 C1 2.64 1 5.28 1 8 C0.01 8.495 0.01 8.495 -1 9 C-1.78015621 10.82510997 -2.47795406 12.68606676 -3.125 14.5625 C-3.47820313 15.57441406 -3.83140625 16.58632813 -4.1953125 17.62890625 C-4.46085938 18.41136719 -4.72640625 19.19382812 -5 20 C-6.02826931 16.86332092 -5.99386675 15.16815258 -4.78515625 12.109375 C-4.37426758 11.04589844 -4.37426758 11.04589844 -3.95507812 9.9609375 C-3.66052734 9.23132813 -3.36597656 8.50171875 -3.0625 7.75 C-2.77181641 7.00492187 -2.48113281 6.25984375 -2.18164062 5.4921875 C-1.46426278 3.65758186 -0.73342561 1.82824935 0 0 Z " fill="#4A2302" transform="translate(865,288)"/>
<path d="M0 0 C-2.12547529 6.04942966 -2.12547529 6.04942966 -5 8 C-8.1875 8.1875 -8.1875 8.1875 -11 8 C-3.21621622 0 -3.21621622 0 0 0 Z " fill="#36210A" transform="translate(1452,256)"/>
<path d="M0 0 C0.99 0 1.98 0 3 0 C4.64800856 3.66447432 5.33580973 6.81203466 5.625 10.8125 C5.69976563 11.78832031 5.77453125 12.76414062 5.8515625 13.76953125 C5.90054687 14.50558594 5.94953125 15.24164063 6 16 C4.2133211 13.31998165 3.0677863 10.96871256 1.875 8 C1.52179688 7.13375 1.16859375 6.2675 0.8046875 5.375 C0 3 0 3 0 0 Z " fill="#C97C28" transform="translate(1562,288)"/>
<path d="M0 0 C0.33 0.99 0.66 1.98 1 3 C0.01 3.33 -0.98 3.66 -2 4 C-2.37756808 5.32148827 -2.7018576 6.65835921 -3 8 C-4.4375 10.75 -4.4375 10.75 -6 13 C-6.66 13 -7.32 13 -8 13 C-8 13.99 -8 14.98 -8 16 C-8.66 16 -9.32 16 -10 16 C-8.61936434 12.14254559 -6.82183102 9.07512134 -4.4375 5.75 C-3.81746094 4.87859375 -3.19742188 4.0071875 -2.55859375 3.109375 C-1 1 -1 1 0 0 Z " fill="#522702" transform="translate(876,272)"/>
<path d="M0 0 C0.99 0 1.98 0 3 0 C3.83819158 1.62249941 4.6704116 3.24808497 5.5 4.875 C5.9640625 5.77992188 6.428125 6.68484375 6.90625 7.6171875 C8 10 8 10 8 12 C8.66 12 9.32 12 10 12 C9.67 13.32 9.34 14.64 9 16 C7.49445366 13.71180854 5.99542957 11.41978831 4.5 9.125 C4.07074219 8.47402344 3.64148438 7.82304688 3.19921875 7.15234375 C0 2.2265625 0 2.2265625 0 0 Z " fill="#3C1E02" transform="translate(522,606)"/>
<path d="M0 0 C0.33 0.99 0.66 1.98 1 3 C1.66 3.33 2.32 3.66 3 4 C1.68 4.33 0.36 4.66 -1 5 C-1.061875 5.78375 -1.12375 6.5675 -1.1875 7.375 C-1.5896875 8.674375 -1.5896875 8.674375 -2 10 C-4.5625 11.3125 -4.5625 11.3125 -7 12 C-5.44298069 7.32894208 -2.91552627 3.91294315 0 0 Z " fill="#CE7B21" transform="translate(716,414)"/>
<path d="M0 0 C0.33 0 0.66 0 1 0 C1.40214229 6.16618181 -0.03181664 11.17745757 -2 17 C-2.33 17 -2.66 17 -3 17 C-3 13.7 -3 10.4 -3 7 C-2.34 7 -1.68 7 -1 7 C-1.020625 6.030625 -1.04125 5.06125 -1.0625 4.0625 C-1 1 -1 1 0 0 Z " fill="#201C0C" transform="translate(1012,331)"/>
<path d="M0 0 C0.99 0 1.98 0 3 0 C3 0.66 3 1.32 3 2 C3.66 2 4.32 2 5 2 C5.69965443 3.26418246 6.38434763 4.53665402 7.0625 5.8125 C7.63677734 6.87404297 7.63677734 6.87404297 8.22265625 7.95703125 C9 10 9 10 8 13 C6.66388095 11.0226631 5.33100742 9.04327287 4 7.0625 C3.6184375 6.49853516 3.236875 5.93457031 2.84375 5.35351562 C0 1.11328125 0 1.11328125 0 0 Z " fill="#C87A27" transform="translate(804,800)"/>
<path d="M0 0 C0.66 1.32 1.32 2.64 2 4 C1.01 4.33 0.02 4.66 -1 5 C-0.67 5.99 -0.34 6.98 0 8 C-1.21484375 9.82421875 -1.21484375 9.82421875 -2.9375 11.6875 C-3.50339844 12.31011719 -4.06929687 12.93273437 -4.65234375 13.57421875 C-5.09707031 14.04472656 -5.54179688 14.51523437 -6 15 C-6.33 14.34 -6.66 13.68 -7 13 C-6.54625 12.649375 -6.0925 12.29875 -5.625 11.9375 C-3.3589589 9.23568176 -2.90425443 6.3758832 -2 3 C-1.34 2.01 -0.68 1.02 0 0 Z " fill="#E28013" transform="translate(668,485)"/>
<path d="M0 0 C0.93134261 2.52143975 1.16007332 3.61526236 0.109375 6.140625 C-0.33921875 6.83671875 -0.7878125 7.5328125 -1.25 8.25 C-1.68828125 8.95640625 -2.1265625 9.6628125 -2.578125 10.390625 C-3.04734375 10.92171875 -3.5165625 11.4528125 -4 12 C-4.99 12 -5.98 12 -7 12 C-5.44298069 7.32894208 -2.91552627 3.91294315 0 0 Z " fill="#C67825" transform="translate(697,442)"/>
<path d="M0 0 C1.60031344 3.20062687 0.03173691 5.72271806 -1 9 C-1.66 9 -2.32 9 -3 9 C-3.103125 9.639375 -3.20625 10.27875 -3.3125 10.9375 C-3.539375 11.618125 -3.76625 12.29875 -4 13 C-4.99 13.33 -5.98 13.66 -7 14 C-5.23570801 9.02790438 -2.6060834 4.56561939 0 0 Z " fill="#472303" transform="translate(1426,279)"/>
<path d="M0 0 C1.76171875 0.1328125 1.76171875 0.1328125 4 1 C5.95703125 3.6171875 5.95703125 3.6171875 7.8125 6.875 C8.43769531 7.94492187 9.06289062 9.01484375 9.70703125 10.1171875 C11 13 11 13 10 16 C9.61328125 15.33613281 9.2265625 14.67226563 8.828125 13.98828125 C6.12358529 9.40261368 3.43023072 5.08989047 0 1 C0 0.67 0 0.34 0 0 Z " fill="#C47B2C" transform="translate(1551,272)"/>
<path d="M0 0 C0.625 1.8125 0.625 1.8125 1 4 C0.01 5.485 0.01 5.485 -1 7 C-1.66 7 -2.32 7 -3 7 C-3.0825 7.78375 -3.165 8.5675 -3.25 9.375 C-4 12 -4 12 -6.0625 13.3125 C-7.0215625 13.6528125 -7.0215625 13.6528125 -8 14 C-6.6744419 10.37723685 -5.05653045 7.36494652 -2.875 4.1875 C-2.33617187 3.39730469 -1.79734375 2.60710937 -1.2421875 1.79296875 C-0.83226562 1.20128906 -0.42234375 0.60960937 0 0 Z " fill="#4A2401" transform="translate(590,376)"/>
<path d="M0 0 C1 3 1 3 -0.125 6.125 C-2 9 -2 9 -4.6875 9.875 C-5.450625 9.91625 -6.21375 9.9575 -7 10 C-4.75421558 6.59260295 -2.48862878 3.23521742 0 0 Z " fill="#D47C1D" transform="translate(1001,365)"/>
<path d="M0 0 C0.33 0 0.66 0 1 0 C1.08333357 4.8333472 0.95261487 9.23692563 0 14 C-0.99 14 -1.98 14 -3 14 C-2.40380045 9.13103697 -1.43023178 4.67209049 0 0 Z " fill="#BE7627" transform="translate(1012,338)"/>
<path d="M0 0 C0.66 0 1.32 0 2 0 C2.33 1.32 2.66 2.64 3 4 C4.32 4.33 5.64 4.66 7 5 C7.33 7.31 7.66 9.62 8 12 C4.72257902 8.89973691 2.06895163 6.02901106 0 2 C0 1.34 0 0.68 0 0 Z " fill="#D07E26" transform="translate(684,624)"/>
<path d="M0 0 C0.93134261 2.52143975 1.16007332 3.61526236 0.109375 6.140625 C-0.33921875 6.83671875 -0.7878125 7.5328125 -1.25 8.25 C-1.68828125 8.95640625 -2.1265625 9.6628125 -2.578125 10.390625 C-3.04734375 10.92171875 -3.5165625 11.4528125 -4 12 C-4.99 12 -5.98 12 -7 12 C-5.61735163 9.13132769 -4.07851447 6.43975968 -2.375 3.75 C-1.92898438 3.04359375 -1.48296875 2.3371875 -1.0234375 1.609375 C-0.68570313 1.07828125 -0.34796875 0.5471875 0 0 Z " fill="#4C2502" transform="translate(655,276)"/>
<path d="M0 0 C3.57089281 1.1902976 4.09823072 2.17419939 6.125 5.25 C6.64320313 6.01828125 7.16140625 6.7865625 7.6953125 7.578125 C9.04644403 10.08621346 9.59217235 12.19494153 10 15 C6.76612108 12.04732794 4.77754751 9.12077252 2.75 5.25 C2.22921875 4.26515625 1.7084375 3.2803125 1.171875 2.265625 C0.78515625 1.51796875 0.3984375 0.7703125 0 0 Z " fill="#441F01" transform="translate(658,816)"/>
<path d="M0 0 C2 2.5 2 2.5 4 5 C5.11375 6.3303125 5.11375 6.3303125 6.25 7.6875 C8 10 8 10 8 12 C7.01 12 6.02 12 5 12 C5 11.34 5 10.68 5 10 C4.34 10 3.68 10 3 10 C2.67 8.02 2.34 6.04 2 4 C1.34 4 0.68 4 0 4 C0 2.68 0 1.36 0 0 Z " fill="#322811" transform="translate(750,722)"/>
<path d="M0 0 C0.33 0 0.66 0 1 0 C1.14285714 8.57142857 1.14285714 8.57142857 0 12 C-0.66 12 -1.32 12 -2 12 C-2 13.32 -2 14.64 -2 16 C-2.66 16 -3.32 16 -4 16 C-2.68 10.72 -1.36 5.44 0 0 Z " fill="#BB782A" transform="translate(1568,336)"/>
<path d="M0 0 C1.39431504 2.78863007 1.25660094 4.92078868 1 8 C-2 10 -2 10 -5 10 C-3.66511872 6.40608886 -2.03977277 3.24509304 0 0 Z " fill="#3F2407" transform="translate(647,288)"/>
<path d="M0 0 C1 2 1 2 0.125 5 C-1 8 -1 8 -2 10 C-4.0625 10.625 -4.0625 10.625 -6 11 C-4.54955729 6.89041233 -2.48889248 3.56741255 0 0 Z " fill="#452304" transform="translate(577,396)"/>
<path d="M0 0 C0.66 0 1.32 0 2 0 C2 1.32 2 2.64 2 4 C1.01 4.495 1.01 4.495 0 5 C-0.33 5.99 -0.66 6.98 -1 8 C-2.32 7.67 -3.64 7.34 -5 7 C-4.21654285 5.82780457 -3.42297164 4.66236332 -2.625 3.5 C-2.18414063 2.8503125 -1.74328125 2.200625 -1.2890625 1.53125 C-0.65097656 0.77328125 -0.65097656 0.77328125 0 0 Z " fill="#CC7821" transform="translate(812,272)"/>
<path d="M0 0 C0.99 0 1.98 0 3 0 C3.86646667 1.43011973 4.71781829 2.86940619 5.5625 4.3125 C6.03816406 5.11300781 6.51382813 5.91351562 7.00390625 6.73828125 C8 9 8 9 7 12 C5.83061933 10.18924982 4.66456267 8.37635257 3.5 6.5625 C2.8503125 5.55316406 2.200625 4.54382813 1.53125 3.50390625 C0 1 0 1 0 0 Z " fill="#3C1C01" transform="translate(514,594)"/>
<path d="M0 0 C0.66 0 1.32 0 2 0 C3.59162079 5.57067277 4.20674944 10.21101581 4 16 C3.67 16 3.34 16 3 16 C2.49595192 13.89679937 1.99689492 11.79240209 1.5 9.6875 C1.08234375 7.92986328 1.08234375 7.92986328 0.65625 6.13671875 C0 3 0 3 0 0 Z " fill="#C97E2F" transform="translate(1010,296)"/>
<path d="M0 0 C2.5999298 2.51027705 4.99091227 4.9863684 7 8 C7 8.66 7 9.32 7 10 C5.35 9.67 3.7 9.34 2 9 C1.855625 8.071875 1.71125 7.14375 1.5625 6.1875 C1.07899889 2.99274889 1.07899889 2.99274889 0 0 Z " fill="#2E2610" transform="translate(692,638)"/>
<path d="M0 0 C0.66 0.33 1.32 0.66 2 1 C1.02501855 2.5027237 0.04490611 4.00211963 -0.9375 5.5 C-1.48277344 6.3353125 -2.02804687 7.170625 -2.58984375 8.03125 C-3.05519531 8.6809375 -3.52054688 9.330625 -4 10 C-4.33 10 -4.66 10 -5 10 C-5.36625971 5.48279689 -5.36625971 5.48279689 -3.625 3.1875 C-2 2 -2 2 0 2 C0 1.34 0 0.68 0 0 Z " fill="#211E10" transform="translate(743,371)"/>
<path d="M0 0 C0.6875 1.6875 0.6875 1.6875 1 4 C-0.3125 6.75 -0.3125 6.75 -2 9 C-2.66 9 -3.32 9 -4 9 C-4 9.66 -4 10.32 -4 11 C-4.66 11 -5.32 11 -6 11 C-4.54955729 6.89041233 -2.48889248 3.56741255 0 0 Z " fill="#472101" transform="translate(627,319)"/>
<path d="M0 0 C1 2 1 2 0.0625 5.125 C-0.288125 6.07375 -0.63875 7.0225 -1 8 C-1.66 8 -2.32 8 -3 8 C-3.33 9.32 -3.66 10.64 -4 12 C-4.66 11.67 -5.32 11.34 -6 11 C-4.34703566 6.90694544 -2.86453858 3.41016497 0 0 Z " fill="#3C1E03" transform="translate(641,298)"/>
<path d="M0 0 C2.97 0 5.94 0 9 0 C9.66 1.32 10.32 2.64 11 4 C6.44262737 3.56179109 3.42346555 3.14958831 0 0 Z " fill="#372507" transform="translate(1457,392)"/>
<path d="M0 0 C-0.33 0.33 -0.66 0.66 -1 1 C-0.01 1.33 0.98 1.66 2 2 C2 2.99 2 3.98 2 5 C-3.75 3.375 -3.75 3.375 -6 0 C-3 -1 -3 -1 0 0 Z " fill="#3C2607" transform="translate(901,388)"/>
<path d="M0 0 C0 4.38968456 -2.12805101 5.76905739 -5 9 C-6.32 8.67 -7.64 8.34 -9 8 C-6.03 5.36 -3.06 2.72 0 0 Z " fill="#C37624" transform="translate(993,375)"/>
<path d="M0 0 C0.75 1.625 0.75 1.625 1 4 C-2.136 9.712 -2.136 9.712 -6 11 C-4.18690997 7.22272911 -2.0926741 3.62730178 0 0 Z " fill="#BC7727" transform="translate(763,344)"/>
<path d="M0 0 C1.98 0.99 1.98 0.99 4 2 C4 3.32 4 4.64 4 6 C4.99 6.33 5.98 6.66 7 7 C6.67 8.32 6.34 9.64 6 11 C4.99735282 9.35577799 3.99794896 7.70957779 3 6.0625 C2.443125 5.14597656 1.88625 4.22945312 1.3125 3.28515625 C0 1 0 1 0 0 Z " fill="#3D1C03" transform="translate(646,797)"/>
<path d="M0 0 C2.66735273 2.48952921 4.55746343 4.63408134 6 8 C4.68 7.67 3.36 7.34 2 7 C2 6.34 2 5.68 2 5 C1.34 5 0.68 5 0 5 C0 3.35 0 1.7 0 0 Z " fill="#1D1E0E" transform="translate(737,704)"/>
<path d="M0 0 C4.16550041 2.08275021 5.14638809 2.90254209 7 7 C6.67 8.32 6.34 9.64 6 11 C4.02 7.37 2.04 3.74 0 0 Z " fill="#3D1C01" transform="translate(586,705)"/>
<path d="M0 0 C0.99 0 1.98 0 3 0 C3 0.99 3 1.98 3 3 C3.66 3 4.32 3 5 3 C5.33 5.31 5.66 7.62 6 10 C3.25722422 6.80009492 1.3697164 3.99500618 0 0 Z " fill="#C67A26" transform="translate(644,566)"/>
<path d="M0 0 C0.33 1.32 0.66 2.64 1 4 C0.01 4.33 -0.98 4.66 -2 5 C-2.70151152 6.3153341 -3.36525925 7.65117592 -4 9 C-5.625 10.75 -5.625 10.75 -7 12 C-5.44298069 7.32894208 -2.91552627 3.91294315 0 0 Z " fill="#A96C28" transform="translate(780,319)"/>
<path d="M0 0 C-1.4096347 0.70180531 -2.82807641 1.38593958 -4.25 2.0625 C-5.03890625 2.44535156 -5.8278125 2.82820312 -6.640625 3.22265625 C-9.25993522 4.08564091 -10.44855176 3.93045933 -13 3 C-11.5903653 2.29819469 -10.17192359 1.61406042 -8.75 0.9375 C-7.96109375 0.55464844 -7.1721875 0.17179688 -6.359375 -0.22265625 C-3.74006478 -1.08564091 -2.55144824 -0.93045933 0 0 Z " fill="#593205" transform="translate(916,249)"/>
<path d="M0 0 C2.52588702 2.36292656 3.88820837 3.66462511 5 7 C2 7 2 7 -1 5 C-0.67 3.35 -0.34 1.7 0 0 Z " fill="#302812" transform="translate(787,776)"/>
<path d="M0 0 C0.66 0 1.32 0 2 0 C0.6302836 3.99500618 -1.25722422 6.80009492 -4 10 C-4.20086443 6.28400809 -4.1519437 5.22791555 -2 2 C-1.34 2 -0.68 2 0 2 C0 1.34 0 0.68 0 0 Z " fill="#E67A10" transform="translate(511,494)"/>
<path d="M0 0 C0.99 0 1.98 0 3 0 C2.6875 1.875 2.6875 1.875 2 4 C1.01 4.66 0.02 5.32 -1 6 C-0.67 4.02 -0.34 2.04 0 0 Z M-3 6 C-2.34 6.33 -1.68 6.66 -1 7 C-1.99 7.66 -2.98 8.32 -4 9 C-3.67 8.01 -3.34 7.02 -3 6 Z " fill="#F5830A" transform="translate(690,454)"/>
<path d="M0 0 C0.93423645 3.01031744 1.04449911 3.86650268 0 7 C-0.66 7 -1.32 7 -2 7 C-2 7.66 -2 8.32 -2 9 C-2.66 8.67 -3.32 8.34 -4 8 C-1.125 1.125 -1.125 1.125 0 0 Z " fill="#CF7A1D" transform="translate(735,386)"/>
<path d="M0 0 C-1.65 1.65 -3.3 3.3 -5 5 C-5.66 4.67 -6.32 4.34 -7 4 C-7 2.68 -7 1.36 -7 0 C-3.98968256 -0.93423645 -3.13349732 -1.04449911 0 0 Z " fill="#181D13" transform="translate(1548,376)"/>
<path d="M0 0 C0.33 0 0.66 0 1 0 C1.34833144 4.87664009 0.41685712 7.77050005 -2 12 C-3.12377697 8.69564916 -2.89554742 6.9493138 -1.5625 3.75 C-1.27503906 3.04359375 -0.98757813 2.3371875 -0.69140625 1.609375 C-0.46324219 1.07828125 -0.23507812 0.5471875 0 0 Z " fill="#562601" transform="translate(1418,294)"/>
<path d="M0 0 C0.99 0 1.98 0 3 0 C6.22265625 5.17578125 6.22265625 5.17578125 7 7 C6.67 7.99 6.34 8.98 6 10 C4.99723227 8.52270825 3.99785546 7.04311423 3 5.5625 C2.443125 4.73878906 1.88625 3.91507813 1.3125 3.06640625 C0 1 0 1 0 0 Z " fill="#351902" transform="translate(636,782)"/>
<path d="M0 0 C2.79872437 2.52788007 4.45773019 4.20411134 5 8 C3.68 8 2.36 8 1 8 C0.67 5.36 0.34 2.72 0 0 Z " fill="#DB750C" transform="translate(600,728)"/>
<path d="M0 0 C0.99 0.33 1.98 0.66 3 1 C3 1.66 3 2.32 3 3 C3.99 3.33 4.98 3.66 6 4 C6.6875 6.0625 6.6875 6.0625 7 8 C6.01 8.495 6.01 8.495 5 9 C3.35 6.03 1.7 3.06 0 0 Z " fill="#381D03" transform="translate(508,585)"/>
<path d="M0 0 C2.60608273 2.5162178 4.89381685 5.05134359 7 8 C6.67 8.66 6.34 9.32 6 10 C2.64888166 7.76592111 1.18446044 6.73784176 0.1875 2.75 C0.125625 1.8425 0.06375 0.935 0 0 Z " fill="#322710" transform="translate(655,584)"/>
<path d="M0 0 C0.99 0 1.98 0 3 0 C3 0.66 3 1.32 3 2 C3.66 2 4.32 2 5 2 C5.33 3.98 5.66 5.96 6 8 C1.125 3.375 1.125 3.375 0 0 Z " fill="#CD7D27" transform="translate(634,552)"/>
<path d="M0 0 C2.66735273 2.48952921 4.55746343 4.63408134 6 8 C4.35 8 2.7 8 1 8 C0.67 5.36 0.34 2.72 0 0 Z " fill="#D67311" transform="translate(483,548)"/>
<path d="M0 0 C0.33 1.32 0.66 2.64 1 4 C0.01 4.33 -0.98 4.66 -2 5 C-2.69937532 6.31647119 -3.36729133 7.65022151 -4 9 C-4.99 9.495 -4.99 9.495 -6 10 C-4.34832443 6.4213696 -2.21713508 3.25179812 0 0 Z " fill="#B37228" transform="translate(664,491)"/>
<path d="M0 0 C0.66 0.33 1.32 0.66 2 1 C1.625 3.9375 1.625 3.9375 1 7 C0.01 7.495 0.01 7.495 -1 8 C-1.625 5.6875 -1.625 5.6875 -2 3 C-1.34 2.01 -0.68 1.02 0 0 Z " fill="#141911" transform="translate(683,456)"/>
<path d="M0 0 C1.485 0.99 1.485 0.99 3 2 C3.1875 5.125 3.1875 5.125 3 8 C1.68 7.01 0.36 6.02 -1 5 C-0.67 3.35 -0.34 1.7 0 0 Z " fill="#251A09" transform="translate(1434,370)"/>
<path d="M0 0 C0.33 0 0.66 0 1 0 C1.33 2.31 1.66 4.62 2 7 C0.68 7.99 -0.64 8.98 -2 10 C-1.85950482 8.52031676 -1.71245174 7.04125484 -1.5625 5.5625 C-1.48128906 4.73878906 -1.40007812 3.91507812 -1.31640625 3.06640625 C-1 1 -1 1 0 0 Z " fill="#17140D" transform="translate(1420,292)"/>
<path d="M0 0 C2.25245881 2.68841859 3.88213958 4.64641875 5 8 C2.525 7.01 2.525 7.01 0 6 C0 4.02 0 2.04 0 0 Z " fill="#242010" transform="translate(743,712)"/>
<path d="M0 0 C0.99 0 1.98 0 3 0 C4.75 2.25 4.75 2.25 6 5 C5.67 6.32 5.34 7.64 5 9 C3.35 6.03 1.7 3.06 0 0 Z " fill="#3C1D01" transform="translate(580,696)"/>
<path d="M0 0 C0.99 0 1.98 0 3 0 C5.125 4.625 5.125 4.625 4 8 C0 2.25 0 2.25 0 0 Z " fill="#D37E25" transform="translate(695,640)"/>
<path d="M0 0 C0.66 0.33 1.32 0.66 2 1 C0.35 3.64 -1.3 6.28 -3 9 C-3.33 7.68 -3.66 6.36 -4 5 C-3.34 5 -2.68 5 -2 5 C-2 4.01 -2 3.02 -2 2 C-1.34 2 -0.68 2 0 2 C0 1.34 0 0.68 0 0 Z " fill="#DC7712" transform="translate(505,504)"/>
<path d="M0 0 C0 3.38023517 -0.87455622 5.83468937 -2 9 C-2.99 9 -3.98 9 -5 9 C-3.7508258 5.54074837 -2.32472205 2.85306797 0 0 Z " fill="#502502" transform="translate(539,455)"/>
<path d="M0 0 C1.32 0.99 2.64 1.98 4 3 C2.68 4.65 1.36 6.3 0 8 C-0.98120464 4.94736336 -0.98120464 3.05263664 0 0 Z " fill="#1C1E12" transform="translate(793,292)"/>
<path d="M0 0 C0.93065133 2.60582371 1.14917407 3.64198224 0.0625 6.25 C-0.4634375 7.11625 -0.4634375 7.11625 -1 8 C-1.99 8 -2.98 8 -4 8 C-2.87548273 5.0280615 -1.77706209 2.66559313 0 0 Z " fill="#BD7527" transform="translate(806,280)"/>
<path d="M0 0 C0.99 0 1.98 0 3 0 C4.75 2.3125 4.75 2.3125 6 5 C5.67 5.99 5.34 6.98 5 8 C4.16382818 6.8562364 3.33113541 5.70992861 2.5 4.5625 C2.0359375 3.92441406 1.571875 3.28632812 1.09375 2.62890625 C0 1 0 1 0 0 Z " fill="#C57B28" transform="translate(782,768)"/>
<path d="M0 0 C4 2 4 2 5.3125 3.9375 C6 6 6 6 5 9 C3.35 6.03 1.7 3.06 0 0 Z " fill="#381802" transform="translate(614,748)"/>
<path d="M0 0 C0 3.10551666 -0.5393715 4.35261084 -2 7 C-2.99 7 -3.98 7 -5 7 C-3.70700306 4.11562221 -2.34058637 2.12780579 0 0 Z " fill="#3D1F02" transform="translate(557,429)"/>
<path d="M0 0 C0.66 0.33 1.32 0.66 2 1 C-0.64 2.65 -3.28 4.3 -6 6 C-6.66 5.34 -7.32 4.68 -8 4 C-6.71349294 3.30289269 -5.42059335 2.61757124 -4.125 1.9375 C-3.40570312 1.55464844 -2.68640625 1.17179687 -1.9453125 0.77734375 C-1.30335937 0.52082031 -0.66140625 0.26429688 0 0 Z " fill="#B66D1A" transform="translate(1526,391)"/>
<path d="M0 0 C1.98 0.495 1.98 0.495 4 1 C2.69593116 3.01920337 1.36176581 5.01924973 0 7 C-0.33 7 -0.66 7 -1 7 C-0.67 4.69 -0.34 2.38 0 0 Z " fill="#1E1D0F" transform="translate(748,361)"/>
<path d="M0 0 C0.33 1.32 0.66 2.64 1 4 C0.01 4.33 -0.98 4.66 -2 5 C-3.20882096 7.00016466 -3.20882096 7.00016466 -4 9 C-4 5.00095031 -2.27413033 3.19799578 0 0 Z " fill="#532602" transform="translate(661,267)"/>
</svg>
