<?xml version="1.0" encoding="UTF-8"?>
<svg version="1.1" xmlns="http://www.w3.org/2000/svg" width="512" height="512">
<path d="M0 0 C168.96 0 337.92 0 512 0 C512 168.96 512 337.92 512 512 C343.04 512 174.08 512 0 512 C0 343.04 0 174.08 0 0 Z " fill="#022179" transform="translate(0,0)"/>
<path d="M0 0 C3.76723984 2.16303998 6.2451304 4.88801511 7.71484375 9 C8.52143956 13.64019161 7.8805117 17.66664695 6 22 C2.09906134 26.37666289 -0.88491618 27.57730143 -6.65625 28.15234375 C-9 28 -9 28 -15 26 C-16.65 30.62 -18.3 35.24 -20 40 C-18.35 40.66 -16.7 41.32 -15 42 C-12.89656232 44.5814917 -13.00133628 46.07349545 -13.0625 49.4375 C-14.20013176 53.7605007 -15.37584352 55.40006166 -19 58 C-22.5 58.625 -22.5 58.625 -26 58 C-28.875 55.5625 -28.875 55.5625 -31 53 C-31.33 52.67 -31.66 52.34 -32 52 C-32.50464644 47.62639754 -32.52146897 45.68535922 -29.8125 42.125 C-27.02298284 40.01736482 -25.43533844 39.29445758 -22 39 C-21.8453125 37.453125 -21.8453125 37.453125 -21.6875 35.875 C-21.00237332 32.0133769 -19.7979125 29.44599896 -18 26 C-17.30092586 23.26427415 -17.30092586 23.26427415 -17 21 C-17.66 21 -18.32 21 -19 21 C-20.45228719 16.64313842 -20.63669736 12.54884895 -20 8 C-15.93823425 0.02269207 -8.20726656 -1.49328263 0 0 Z " fill="#4A3191" transform="translate(261,137)"/>
<path d="M0 0 C4.4125235 2.1661479 7.09058512 4.43862 9 9 C9.1875 12.8125 9.1875 12.8125 9 16 C9.81984375 15.7834375 10.6396875 15.566875 11.484375 15.34375 C12.56203125 15.0653125 13.6396875 14.786875 14.75 14.5 C15.81734375 14.2215625 16.8846875 13.943125 17.984375 13.65625 C21 13 21 13 25 13 C24.9175 11.9275 24.835 10.855 24.75 9.75 C25 6 25 6 26.4375 3.5625 C30.25080021 1.23731695 33.65419141 1.11073312 38 2 C41.47424741 4.41070228 42.76513615 5.77348878 43.5625 9.9375 C42.8627824 13.74707359 41.38777961 15.98016108 39 19 C35.90826248 20.54586876 33.40570448 20.29359521 30 20 C27.5625 18 27.5625 18 26 16 C25.05125 16.309375 24.1025 16.61875 23.125 16.9375 C19.99938216 17.87581935 17.19194743 18.08902958 13.9375 18.1875 C10.95333516 18.42297279 9.47319158 18.60046084 7.16796875 20.546875 C5.61532966 22.39351073 5.61532966 22.39351073 4.3515625 24.30859375 C2.73275297 26.33444498 1.40922238 27.07163423 -1 28 C-5.77667642 28.46225901 -8.01903323 28.49973779 -12.3125 26.3125 C-15.84797348 23.2703484 -17.7252781 20.72159058 -18.46875 16.0625 C-18.55359086 7.74809576 -18.55359086 7.74809576 -15.6875 3.875 C-10.09374576 -0.02761923 -6.77218595 -0.85443468 0 0 Z " fill="#9C2591" transform="translate(217,214)"/>
<path d="M0 0 C2.75329021 1.79562405 4.52627461 3.05254922 6 6 C5.8913684 7.56372326 5.76367998 9.12615471 5.625 10.6875 C5.56960819 13.88176113 5.62921788 15.47309909 7.484375 18.109375 C9.33564187 19.9429588 9.33564187 19.9429588 11.2734375 21.52734375 C13 23 13 23 15 26 C17.25286653 26.65259896 17.25286653 26.65259896 19.8125 26.9375 C24.21751212 27.71298554 26.89235085 28.60100874 30 32 C32.74939197 36.45139652 32.81044462 41.9347211 32 47 C30.08647163 50.59890527 27.37821637 52.74785575 24 55 C19.65384594 55.64817054 15.0333191 56.00465176 11.015625 54.01953125 C7.45378841 51.15419241 5.30469663 48.14704834 4.6640625 43.6328125 C4.57462947 37.89121169 5.06121206 34.50147193 9 30 C9.99 29.34 10.98 28.68 12 28 C10.39590198 24.2084956 8.54325082 20.24616793 5 18 C2.1478467 18.01739118 -0.51625818 18.44982922 -3.33203125 18.890625 C-6.37577875 19.01540528 -7.33154821 18.61999691 -9.625 16.6875 C-12.15957661 13.81942646 -12.89769728 12.92072446 -13.3125 9.1875 C-12.92835642 5.2692355 -11.70743683 3.78706733 -9 1 C-5.89951072 -0.55024464 -3.42105782 -0.28992015 0 0 Z " fill="#2B3691" transform="translate(282,185)"/>
<path d="M0 0 C4.38609057 2.23950811 6.52386959 4.51441912 8.09375 9.31640625 C8.64344961 13.25721053 8.492648 16.46162483 6.78125 20.12890625 C5.30429613 22.04347608 3.9576842 23.77663452 2.09375 25.31640625 C1.43375 25.31640625 0.77375 25.31640625 0.09375 25.31640625 C0.67125 26.38890625 1.24875 27.46140625 1.84375 28.56640625 C2.16859375 29.1696875 2.4934375 29.77296875 2.828125 30.39453125 C4.40481474 32.78876382 5.83537713 34.52869252 8.09375 36.31640625 C10.97595512 36.65004997 10.97595512 36.65004997 14.03125 36.31640625 C19.73877009 36.14239649 19.73877009 36.14239649 23.28125 37.87890625 C25.66445922 41.08391176 26.02286018 43.34657627 26.09375 47.31640625 C25.27701509 50.25665191 24.26294618 51.17621513 21.90625 53.12890625 C18.11209462 54.73088297 16.03506902 54.4424974 12.09375 53.31640625 C9.15625 51.31640625 9.15625 51.31640625 7.09375 48.31640625 C7.0703125 46.30078125 7.0703125 46.30078125 7.28125 44.06640625 C7.51410031 40.75660537 7.28270402 39.59128732 5.3671875 36.8046875 C3.92727591 35.22485517 2.45289816 33.67555441 0.94140625 32.1640625 C-0.90625 30.31640625 -0.90625 30.31640625 -1.90625 28.31640625 C-3.86832724 28.0003228 -3.86832724 28.0003228 -6.15625 27.94140625 C-10.55381874 27.52957045 -12.83271135 26.66113949 -15.90625 23.31640625 C-19.16784736 18.48024465 -19.68207691 13.98832998 -18.90625 8.31640625 C-17.28147535 4.57942456 -15.35003693 2.46877308 -11.90625 0.31640625 C-7.82470111 -1.04411005 -4.14036951 -1.48476366 0 0 Z " fill="#992591" transform="translate(216.90625,163.68359375)"/>
<path d="M0 0 C3.80191895 2.56047603 4.80450479 4.00475167 5.6875 8.5 C5 12 5 12 2.25 14.875 C-1 17 -1 17 -3.05859375 17.25 C-5.31451915 17.86735192 -5.31451915 17.86735192 -6.30078125 20.6953125 C-8.1374188 26.92144289 -9.46099269 31.54728227 -8 38 C-7.54027227 43.01667804 -7.44629466 46.82870024 -9.625 51.4375 C-13.22094935 55.31734009 -16.19914989 56.7708009 -21.4375 57.4375 C-25.75759317 56.90696224 -28.65505267 55.78313447 -32 53 C-35.30898069 48.30338225 -35.52885803 44.55300933 -35 39 C-33.3236408 35.31200976 -31.13150903 32.56262709 -28 30 C-24.87109375 29.5390625 -24.87109375 29.5390625 -21.4375 29.625 C-20.30183594 29.63789063 -19.16617187 29.65078125 -17.99609375 29.6640625 C-15 30 -15 30 -12 32 C-10.68 26.72 -9.36 21.44 -8 16 C-9.32 15.67 -10.64 15.34 -12 15 C-14.1595936 12.42905523 -14.11723416 10.15153372 -13.875 6.9375 C-13.43790602 4.32950591 -13.1105714 3.14742854 -11.5 1 C-7.63036098 -0.54785561 -4.09679504 -0.76541544 0 0 Z " fill="#4C3091" transform="translate(278,209)"/>
<path d="M0 0 C3.58922531 1.34595949 4.64627282 2.48770546 6.8125 5.625 C8.32077135 9.91166595 8.71677095 13.50608778 8 18 C6.21413657 21.70910097 4.63776905 23.54021301 1.3125 25.9375 C-4.07281527 27.66486528 -8.72650503 26.98847607 -13.875 24.75 C-16.42933885 22.64642683 -17.68399324 21.0475946 -19 18 C-19 15.69 -19 13.38 -19 11 C-26.425 12.485 -26.425 12.485 -34 14 C-34.99 16.97 -35.98 19.94 -37 23 C-37.66 23 -38.32 23 -39 23 C-39 23.66 -39 24.32 -39 25 C-48.01470128 25.77416328 -48.01470128 25.77416328 -51.625 22.9375 C-53.34750853 19.25759541 -53.57472081 17.02304567 -53 13 C-51.03689127 9.52680764 -49.87702012 8.27990004 -46.0625 7.0625 C-42.76138236 6.99513025 -40.90251888 7.46811503 -38 9 C-37.34 9.66 -36.68 10.32 -36 11 C-33.54857238 10.79440633 -33.54857238 10.79440633 -30.8125 10.125 C-26.39956218 9.21918645 -22.49009763 8.80044011 -18 9 C-17.95875 8.443125 -17.9175 7.88625 -17.875 7.3125 C-14.78841122 -0.8449132 -7.56981347 -1.04012704 0 0 Z " fill="#2B3691" transform="translate(305,162)"/>
<path d="M0 0 C4 1 4 1 5 2 C5.35748433 8.0408154 4.46658104 12.89007422 2.6640625 18.62890625 C2.42464935 19.42223862 2.18523621 20.21557098 1.93856812 21.03294373 C1.17769044 23.54607221 0.40175208 26.05423807 -0.375 28.5625 C-0.88904759 30.24903635 -1.40207756 31.93588322 -1.9140625 33.62304688 C-2.85741711 36.72928956 -3.80746734 39.83333218 -4.76318359 42.93579102 C-6.60813444 48.97502148 -8.23306561 54.60122732 -8.625 60.9375 C-8.73714844 62.65259766 -8.73714844 62.65259766 -8.8515625 64.40234375 C-8.90054688 65.25957031 -8.94953125 66.11679687 -9 67 C-8.34 67 -7.68 67 -7 67 C-6.74476563 66.16082031 -6.48953125 65.32164062 -6.2265625 64.45703125 C-4.89308427 60.69866107 -3.19946958 57.22235475 -1.375 53.6875 C1.22562173 48.58848787 3.73135728 43.46408952 6.11669922 38.26074219 C9.24391523 31.44295696 12.46770206 25.02589612 17 19 C17.99 19.33 18.98 19.66 20 20 C19.9278125 20.91136719 19.855625 21.82273437 19.78125 22.76171875 C19.1978366 30.90519752 18.86954289 39.0225237 18.8125 47.1875 C18.79316406 48.53171021 18.79316406 48.53171021 18.7734375 49.90307617 C18.76664956 54.38184161 18.870272 57.93415564 21 62 C24.512567 61.72295246 26.43331586 61.56444428 28.9765625 59.03125 C29.79253906 57.77828125 29.79253906 57.77828125 30.625 56.5 C31.17414063 55.6853125 31.72328125 54.870625 32.2890625 54.03125 C36.81900671 46.00559542 39.19663719 38.04465246 41.1875 29.0625 C41.44724609 27.94681641 41.70699219 26.83113281 41.97460938 25.68164062 C43.459489 19.13205532 44.535179 12.70156386 45 6 C45.99 6.33 46.98 6.66 48 7 C48.42264236 14.83908753 47.21884248 21.78825268 45.3125 29.375 C45.04284424 30.47465088 44.77318848 31.57430176 44.49536133 32.70727539 C42.61801224 40.13452047 40.46393355 47.14113555 37 54 C36.505 54.99 36.505 54.99 36 56 C35.34 56 34.68 56 34 56 C33.773125 56.7425 33.54625 57.485 33.3125 58.25 C31.6785185 61.67358029 30.28702654 63.10082911 27 65 C22.69394529 65.07554482 20.77417455 64.73342852 17.625 61.75 C14.37318833 56.2469341 14.84756289 50.40200466 14.875 44.1875 C14.86919922 42.89102539 14.86919922 42.89102539 14.86328125 41.56835938 C14.87125043 36.28878077 15.23546743 31.22430593 16 26 C14.21645464 29.51699112 12.43858251 33.03679028 10.66552734 36.55908203 C9.77076944 38.33380451 8.8717624 40.1063827 7.97265625 41.87890625 C4.99628377 47.79820883 2.18913362 53.67831375 -0.11206055 59.89477539 C-1.59072414 63.40055382 -3.57190139 66.07382988 -6 69 C-7.485 69.495 -7.485 69.495 -9 70 C-12.08221315 66.90965436 -12.36517133 64.27742874 -12.36132812 59.99609375 C-12.34521484 59.25488281 -12.32910156 58.51367188 -12.3125 57.75 C-12.31572266 57.02425781 -12.31894531 56.29851562 -12.32226562 55.55078125 C-12.27193327 50.41688087 -11.40172196 45.93674188 -10 41 C-9.34 41 -8.68 41 -8 41 C-7.89768066 40.41299316 -7.79536133 39.82598633 -7.68994141 39.22119141 C-6.42580468 32.41563341 -4.53308258 25.94574737 -2.375 19.375 C-2.05015625 18.37082031 -1.7253125 17.36664063 -1.390625 16.33203125 C-0.59869492 13.88636483 0.19823827 11.4424572 1 9 C0.34 9 -0.32 9 -1 9 C-0.67 6.03 -0.34 3.06 0 0 Z " fill="#CBD1E3" transform="translate(204,274)"/>
<path d="M0 0 C0.99 0.33 1.98 0.66 3 1 C3.42264236 8.83908753 2.21884248 15.78825268 0.3125 23.375 C0.04284424 24.47465088 -0.22681152 25.57430176 -0.50463867 26.70727539 C-2.38198776 34.13452047 -4.53606645 41.14113555 -8 48 C-8.33 48.66 -8.66 49.32 -9 50 C-9.66 50 -10.32 50 -11 50 C-11.226875 50.7425 -11.45375 51.485 -11.6875 52.25 C-13.3214815 55.67358029 -14.71297346 57.10082911 -18 59 C-22.30605471 59.07554482 -24.22582545 58.73342852 -27.375 55.75 C-30.62681167 50.2469341 -30.15243711 44.40200466 -30.125 38.1875 C-30.12886719 37.32318359 -30.13273438 36.45886719 -30.13671875 35.56835938 C-30.12874957 30.28878077 -29.76453257 25.22430593 -29 20 C-30.32 22.64 -31.64 25.28 -33 28 C-33.66 28 -34.32 28 -35 28 C-34.68383092 21.83470299 -31.50784939 17.82731567 -28 13 C-27.01 13.33 -26.02 13.66 -25 14 C-25.0721875 14.91136719 -25.144375 15.82273437 -25.21875 16.76171875 C-25.8021634 24.90519752 -26.13045711 33.0225237 -26.1875 41.1875 C-26.20039063 42.08364014 -26.21328125 42.97978027 -26.2265625 43.90307617 C-26.23335044 48.38184161 -26.129728 51.93415564 -24 56 C-20.487433 55.72295246 -18.56668414 55.56444428 -16.0234375 53.03125 C-15.20746094 51.77828125 -15.20746094 51.77828125 -14.375 50.5 C-13.82585937 49.6853125 -13.27671875 48.870625 -12.7109375 48.03125 C-8.18099329 40.00559542 -5.80336281 32.04465246 -3.8125 23.0625 C-3.55275391 21.94681641 -3.29300781 20.83113281 -3.02539062 19.68164062 C-1.540511 13.13205532 -0.464821 6.70156386 0 0 Z " fill="#BCC4DB" transform="translate(249,280)"/>
<path d="M0 0 C3.47424741 2.41070228 4.76513615 3.77348878 5.5625 7.9375 C4.8627824 11.74707359 3.38777961 13.98016108 1 17 C-2.09173752 18.54586876 -4.59429552 18.29359521 -8 18 C-10.4375 16 -10.4375 16 -12 14 C-12.928125 14.309375 -13.85625 14.61875 -14.8125 14.9375 C-19.77871546 16.3783156 -24.86205306 16.64694036 -30 17 C-29.505 15.515 -29.505 15.515 -29 14 C-26.41796875 13.05078125 -26.41796875 13.05078125 -23.1875 12.3125 C-22.12917969 12.06113281 -21.07085937 11.80976563 -19.98046875 11.55078125 C-17 11 -17 11 -13 11 C-13.0825 9.9275 -13.165 8.855 -13.25 7.75 C-13 4 -13 4 -11.5625 1.5625 C-7.74919979 -0.76268305 -4.34580859 -0.88926688 0 0 Z " fill="#652C90" transform="translate(255,216)"/>
<path d="M0 0 C0.37125 0.515625 0.7425 1.03125 1.125 1.5625 C1.74375 2.366875 2.3625 3.17125 3 4 C3.55107422 4.90298828 3.55107422 4.90298828 4.11328125 5.82421875 C5.61041004 8.00145915 6.82434562 9.48042817 9 11 C12.13282593 11.33535671 15.06839432 11.1871636 18.2109375 11.0078125 C21 11 21 11 24.1875 12.5625 C26.57070922 15.76750551 26.92911018 18.03017002 27 22 C26.18326509 24.94024566 25.16919618 25.85980888 22.8125 27.8125 C19.01834462 29.41447672 16.94131902 29.12609115 13 28 C10.0625 26 10.0625 26 8 23 C7.9765625 20.984375 7.9765625 20.984375 8.1875 18.75 C8.41940046 15.44817915 8.20206487 14.28983965 6.2734375 11.5234375 C4.83481359 9.96281015 3.36048059 8.43412376 1.84765625 6.9453125 C0 5 0 5 -1 2 C-0.67 1.34 -0.34 0.68 0 0 Z " fill="#822790" transform="translate(216,189)"/>
<path d="M0 0 C3.15148961 2.21456027 3.89975554 3.66167495 5 7.375 C5 11.83668484 3.81998243 13.61602108 1 17 C-2.13871188 18.56935594 -4.53855822 18.35201103 -8 18 C-10.875 15.5625 -10.875 15.5625 -13 13 C-13.33 12.67 -13.66 12.34 -14 12 C-14.375 8.75 -14.375 8.75 -14 5 C-9.75909666 -0.27247442 -6.57360318 -1.74401717 0 0 Z " fill="#752990" transform="translate(243,177)"/>
<path d="M0 0 C2.75329021 1.79562405 4.52627461 3.05254922 6 6 C6.039992 7.99960012 6.04346799 10.00047242 6 12 C5.34 12 4.68 12 4 12 C3.67 13.32 3.34 14.64 3 16 C2.34 16 1.68 16 1 16 C1 16.66 1 17.32 1 18 C-4.99151067 19.55779277 -4.99151067 19.55779277 -7.765625 18.0234375 C-11.07866725 15.27329078 -12.83611486 13.47496623 -13.3125 9.1875 C-12.92835642 5.2692355 -11.70743683 3.78706733 -9 1 C-5.89951072 -0.55024464 -3.42105782 -0.28992015 0 0 Z " fill="#3D3290" transform="translate(282,185)"/>
<path d="M0 0 C0.495 0.515625 0.99 1.03125 1.5 1.5625 C3.47448742 3.45471711 4.50044453 3.1968789 7.1875 3.1875 C8.445625 3.125625 9.70375 3.06375 11 3 C9 5 9 5 6.984375 5.33984375 C4.79118375 5.81094583 4.79118375 5.81094583 3.953125 8.06640625 C3.72109375 8.89011719 3.4890625 9.71382812 3.25 10.5625 C3.00765625 11.38878906 2.7653125 12.21507812 2.515625 13.06640625 C2.34546875 13.70449219 2.1753125 14.34257812 2 15 C1.34 15 0.68 15 0 15 C0 15.66 0 16.32 0 17 C-9.01470128 17.77416328 -9.01470128 17.77416328 -12.625 14.9375 C-14.34750853 11.25759541 -14.57472081 9.02304567 -14 5 C-10.06541212 -1.03303475 -6.88888009 -1.67567354 0 0 Z " fill="#542F91" transform="translate(266,170)"/>
<path d="M0 0 C0.75 2.125 0.75 2.125 1 5 C-0.74537657 8.06945534 -2.50653965 10.50653965 -5 13 C-7.625 13.125 -7.625 13.125 -10 13 C-10 14.98 -10 16.96 -10 19 C-3.19887856 17.63977571 2.74191417 14.53586969 8 10 C9.45770144 7.16131824 9.67044701 5.24060443 10 2 C10.33 1.34 10.66 0.68 11 0 C11.99 0 12.98 0 14 0 C14 1.32 14 2.64 14 4 C15.98 3.67 17.96 3.34 20 3 C18.26530349 4.82599632 16.69898944 6.19295549 14.5625 7.5625 C10.86843056 11.07637093 9.6248253 15.24352819 8 20 C7.34 20 6.68 20 6 20 C5.67 18.68 5.34 17.36 5 16 C4.50371094 16.3609375 4.00742187 16.721875 3.49609375 17.09375 C-1.07157925 20.21398203 -4.28195449 22.00906686 -10 21 C-12.0625 19.5625 -12.0625 19.5625 -13 17 C-12.8070517 10.86183216 -10.26847328 6.29953563 -6.73046875 1.43359375 C-4.42636623 -0.47522256 -2.9089704 -0.27163561 0 0 Z " fill="#C4CBDF" transform="translate(262,306)"/>
<path d="M0 0 C0.9075 0.00257813 1.815 0.00515625 2.75 0.0078125 C4.11125 0.00394531 4.11125 0.00394531 5.5 0 C7.75 0.1328125 7.75 0.1328125 8.75 1.1328125 C8.65913549 3.66822548 8.5129055 6.16836034 8.3125 8.6953125 C8.26029297 9.40623047 8.20808594 10.11714844 8.15429688 10.84960938 C8.02425893 12.61103249 7.88773103 14.37197423 7.75 16.1328125 C11.215 15.6378125 11.215 15.6378125 14.75 15.1328125 C13.76 16.4528125 12.77 17.7728125 11.75 19.1328125 C9.875 18.8203125 9.875 18.8203125 7.75 18.1328125 C5.63240175 14.95641512 5.41307156 12.86480859 5.03515625 9.140625 C4.67522329 6.60630251 3.83285428 4.44290162 2.75 2.1328125 C-1.28384128 4.20424451 -3.17856799 6.09897122 -5.25 10.1328125 C-4.92 10.4628125 -4.59 10.7928125 -4.25 11.1328125 C-3.79625 10.4728125 -3.3425 9.8128125 -2.875 9.1328125 C-2.33875 8.4728125 -1.8025 7.8128125 -1.25 7.1328125 C-0.59 7.1328125 0.07 7.1328125 0.75 7.1328125 C0.316875 7.968125 0.316875 7.968125 -0.125 8.8203125 C-1.33822678 11.13815442 -1.33822678 11.13815442 -2 13.8203125 C-2.4125 14.5834375 -2.825 15.3465625 -3.25 16.1328125 C-6.3125 17.0078125 -6.3125 17.0078125 -9.25 17.1328125 C-9.58 16.8028125 -9.91 16.4728125 -10.25 16.1328125 C-10.13363478 10.43091693 -6.67518367 0.39402126 0 0 Z " fill="#C8CFE2" transform="translate(292.25,306.8671875)"/>
<path d="M0 0 C4 1 4 1 5 2 C5.57680818 9.1139676 3.81444533 15.06362116 1.6875 21.8125 C1.37876953 22.84826172 1.07003906 23.88402344 0.75195312 24.95117188 C-1.81885446 33.28058847 -1.81885446 33.28058847 -5 36 C-5.36722391 29.38996962 -4.12572063 24.23353211 -2 18 C-1.71382812 17.12988281 -1.42765625 16.25976562 -1.1328125 15.36328125 C-0.43232208 13.23846032 0.27870966 11.11783122 1 9 C0.34 9 -0.32 9 -1 9 C-0.67 6.03 -0.34 3.06 0 0 Z " fill="#BFC7DD" transform="translate(204,274)"/>
<path d="M0 0 C0.75 2.125 0.75 2.125 1 5 C-0.74537657 8.06945534 -2.50653965 10.50653965 -5 13 C-7.625 13.125 -7.625 13.125 -10 13 C-10 14.98 -10 16.96 -10 19 C-9.34 19 -8.68 19 -8 19 C-8 19.66 -8 20.32 -8 21 C-11 20 -11 20 -13 17 C-12.90434692 10.93798635 -10.20523458 6.21256123 -6.73046875 1.43359375 C-4.42636623 -0.47522256 -2.9089704 -0.27163561 0 0 Z " fill="#A2AECE" transform="translate(262,306)"/>
<path d="M0 0 C0.99 0.33 1.98 0.66 3 1 C3.36386669 8.43703075 2.36687654 14.94004812 0.5 22.125 C0.14228516 23.55972656 0.14228516 23.55972656 -0.22265625 25.0234375 C-0.80474499 27.35179246 -1.39726878 29.67691998 -2 32 C-2.99 31.67 -3.98 31.34 -5 31 C-5.33 31.66 -5.66 32.32 -6 33 C-4.93802885 27.46525622 -3.7631449 21.97803259 -2.4375 16.5 C-1.14770041 11.00858053 -0.36823686 5.62513548 0 0 Z " fill="#97A4C8" transform="translate(249,280)"/>
<path d="M0 0 C0.99 0.33 1.98 0.66 3 1 C3.07654536 5.51617599 3.10228696 9.59085217 2 14 C1.34 14 0.68 14 0 14 C-0.33 11.69 -0.66 9.38 -1 7 C-2.32 9.64 -3.64 12.28 -5 15 C-5.66 15 -6.32 15 -7 15 C-6.68383092 8.83470299 -3.50784939 4.82731567 0 0 Z " fill="#E0E4EE" transform="translate(221,293)"/>
<path d="M0 0 C2.5 0.25 2.5 0.25 4.5 2.25 C4.625 5.375 4.625 5.375 4.5 8.25 C1.125 8.875 1.125 8.875 -2.5 9.25 C-4.5 7.25 -4.5 7.25 -4.75 4.75 C-4.40058445 1.25584452 -3.49415548 0.34941555 0 0 Z " fill="#68298F" transform="translate(230.5,243.75)"/>
<path d="M0 0 C2.31 0 4.62 0 7 0 C7.625 2.8125 7.625 2.8125 8 6 C7.01 7.485 7.01 7.485 6 9 C3.5 9.3125 3.5 9.3125 1 9 C0.34 8.34 -0.32 7.68 -1 7 C-0.625 3.375 -0.625 3.375 0 0 Z " fill="#A72290" transform="translate(201,197)"/>
<path d="M0 0 C5.56818182 0.56818182 5.56818182 0.56818182 7 2 C7.1875 4.4375 7.1875 4.4375 7 7 C5 9 5 9 2.5 9.25 C0 9 0 9 -2 7 C-2.25 4.5 -2.25 4.5 -2 2 C-1.34 1.34 -0.68 0.68 0 0 Z " fill="#28358F" transform="translate(305,197)"/>
<path d="M0 0 C2.5 0.25 2.5 0.25 4.5 2.25 C3.93181818 7.81818182 3.93181818 7.81818182 2.5 9.25 C0.0625 9.4375 0.0625 9.4375 -2.5 9.25 C-4.5 7.25 -4.5 7.25 -4.75 4.75 C-4.40058445 1.25584452 -3.49415548 0.34941555 0 0 Z " fill="#662A8F" transform="translate(228.5,149.75)"/>
<path d="M0 0 C3.5 0.125 3.5 0.125 4.5 1.125 C4.6875 3.5625 4.6875 3.5625 4.5 6.125 C2.5 8.125 2.5 8.125 -0.5625 8.3125 C-3.5 8.125 -3.5 8.125 -4.5 7.125 C-4.625 4.125 -4.625 4.125 -4.5 1.125 C-3.5 0.125 -3.5 0.125 0 0 Z " fill="#2C348F" transform="translate(281.5,244.875)"/>
<path d="M0 0 C0.66 0 1.32 0 2 0 C2.31144732 4.32033332 1.29076242 7.24627834 -0.4375 11.1875 C-0.88996094 12.23292969 -1.34242188 13.27835937 -1.80859375 14.35546875 C-2.51174825 15.9162412 -3.23443656 17.46887313 -4 19 C-4.66 19 -5.32 19 -6 19 C-6.33 19.99 -6.66 20.98 -7 22 C-7.99 22 -8.98 22 -10 22 C-8.13998898 17.1353558 -5.80212266 12.57216041 -3.4375 7.9375 C-2.15948168 5.32589735 -1.03783122 2.71432781 0 0 Z " fill="#C4CBE0" transform="translate(244,311)"/>
<path d="M0 0 C1 1 1 1 1.1875 3.4375 C1 6 1 6 -1 8 C-3.5 8.3125 -3.5 8.3125 -6 8 C-8 5 -8 5 -7.75 2.375 C-7.5025 1.59125 -7.255 0.8075 -7 0 C-4.31633121 -1.3418344 -2.84719317 -0.73004953 0 0 Z " fill="#28358F" transform="translate(287,151)"/>
<path d="M0 0 C3 4 3 4 2.97338867 6.10644531 C2.7901001 6.83959961 2.60681152 7.57275391 2.41796875 8.328125 C2.22783203 9.12734375 2.03769531 9.9265625 1.84179688 10.75 C1.62587891 11.575 1.40996094 12.4 1.1875 13.25 C0.98318359 14.09046875 0.77886719 14.9309375 0.56835938 15.796875 C0.06217253 17.86870953 -0.46674548 19.93496657 -1 22 C-1.33 22 -1.66 22 -2 22 C-2 20.35 -2 18.7 -2 17 C-2.99 17.33 -3.98 17.66 -5 18 C-4.67 15.36 -4.34 12.72 -4 10 C-3.34 10 -2.68 10 -2 10 C-1.34 6.7 -0.68 3.4 0 0 Z " fill="#A1ACCD" transform="translate(198,305)"/>
<path d="M0 0 C0.75 2.125 0.75 2.125 1 5 C-0.8125 8.3125 -0.8125 8.3125 -3 11 C-3.66 11 -4.32 11 -5 11 C-3.80100302 7.9168649 -2.52299523 4.93720508 -1 2 C-3.81939117 4.20979308 -6.53058944 6.40062046 -9 9 C-8.4 3.6 -8.4 3.6 -6.75 1.125 C-4.41786614 -0.37422891 -2.71628175 -0.22023906 0 0 Z " fill="#BEC6DC" transform="translate(262,306)"/>
<path d="M0 0 C-0.433125 0.8353125 -0.433125 0.8353125 -0.875 1.6875 C-2.08822678 4.00534192 -2.08822678 4.00534192 -2.75 6.6875 C-3.1625 7.450625 -3.575 8.21375 -4 9 C-7.0625 9.875 -7.0625 9.875 -10 10 C-10.33 9.67 -10.66 9.34 -11 9 C-10.6875 5.5 -10.6875 5.5 -10 2 C-9.34 1.67 -8.68 1.34 -8 1 C-7.67 2.32 -7.34 3.64 -7 5 C-6.21625 4.175 -5.4325 3.35 -4.625 2.5 C-2 0 -2 0 0 0 Z " fill="#9EAACB" transform="translate(293,314)"/>
<path d="M0 0 C0.04254356 1.99954746 0.04080783 4.00041636 0 6 C-0.33 6.33 -0.66 6.66 -1 7 C-1.23363881 8.84891946 -1.41303635 10.70488031 -1.5625 12.5625 C-1.64628906 13.57441406 -1.73007813 14.58632813 -1.81640625 15.62890625 C-1.87699219 16.41136719 -1.93757812 17.19382812 -2 18 C-2.66 18 -3.32 18 -4 18 C-4 12.39 -4 6.78 -4 1 C-2 0 -2 0 0 0 Z " fill="#BCC4DB" transform="translate(196,322)"/>
<path d="M0 0 C0 2.64 0 5.28 0 8 C-0.66 6.68 -1.32 5.36 -2 4 C-2.51949219 4.3609375 -3.03898437 4.721875 -3.57421875 5.09375 C-10.50087873 9.7029877 -10.50087873 9.7029877 -15 9 C-15 8.34 -15 7.68 -15 7 C-13.96875 6.5875 -12.9375 6.175 -11.875 5.75 C-7.95954279 4.09010029 -4.14466119 0 0 0 Z " fill="#ACB6D3" transform="translate(269,318)"/>
<path d="M0 0 C-3 2 -3 2 -5.375 3.125 C-9.0375431 5.74110221 -10.83245457 9.11686542 -13 13 C-14 10 -14 10 -12.75 6.5 C-9.3346528 -0.33069441 -7.38920282 -0.36340342 0 0 Z " fill="#C3CADF" transform="translate(298,307)"/>
<path d="M0 0 C0.33 0.66 0.66 1.32 1 2 C-2.66447432 3.64800856 -5.81203466 4.33580973 -9.8125 4.625 C-10.78832031 4.69976562 -11.76414063 4.77453125 -12.76953125 4.8515625 C-13.87361328 4.92503906 -13.87361328 4.92503906 -15 5 C-14.67 4.01 -14.34 3.02 -14 2 C-11.34765625 1.015625 -11.34765625 1.015625 -8.0625 0.25 C-6.98097656 -0.01296875 -5.89945313 -0.2759375 -4.78515625 -0.546875 C-2 -1 -2 -1 0 0 Z " fill="#502588" transform="translate(240,228)"/>
<path d="M0 0 C0.99 0 1.98 0 3 0 C3.33 0.99 3.66 1.98 4 3 C3.34 3 2.68 3 2 3 C2 3.66 2 4.32 2 5 C1.4225 5.2475 0.845 5.495 0.25 5.75 C-2.3002997 7.16683317 -4.01785701 8.87627537 -6 11 C-5.55443866 5.95030484 -3.44186399 3.52381313 0 0 Z " fill="#304991" transform="translate(292,309)"/>
<path d="M0 0 C0.99 0.66 1.98 1.32 3 2 C2.73445312 2.58007812 2.46890625 3.16015625 2.1953125 3.7578125 C0.22438666 8.11686745 -1.59049252 12.41910068 -3 17 C-3.66 16.67 -4.32 16.34 -5 16 C-4.49228528 10.03435204 -2.61407872 5.36190101 0 0 Z " fill="#50298B" transform="translate(244,160)"/>
<path d="M0 0 C0.99 0.33 1.98 0.66 3 1 C3.05416188 2.60379341 3.09286638 4.20811406 3.125 5.8125 C3.14820313 6.70582031 3.17140625 7.59914063 3.1953125 8.51953125 C3 11 3 11 1 14 C-0.38226016 11.23547967 -0.09525387 8.9538637 -0.0625 5.875 C-0.05347656 4.77929688 -0.04445312 3.68359375 -0.03515625 2.5546875 C-0.02355469 1.71164062 -0.01195312 0.86859375 0 0 Z " fill="#AAB4D2" transform="translate(249,280)"/>
<path d="M0 0 C0.99 0.33 1.98 0.66 3 1 C1.35 6.61 -0.3 12.22 -2 18 C-4 15 -4 15 -3.57421875 12.6953125 C-3.13529297 11.42300781 -3.13529297 11.42300781 -2.6875 10.125 C-1.54996218 6.7587116 -0.63339712 3.49936229 0 0 Z " fill="#382D8B" transform="translate(270,226)"/>
<path d="M0 0 C1 2 1 2 0.2578125 4.3125 C-0.30292969 5.6428125 -0.30292969 5.6428125 -0.875 7 C-1.24367187 7.886875 -1.61234375 8.77375 -1.9921875 9.6875 C-2.62568982 11.14111773 -3.29086959 12.58173918 -4 14 C-4.66 14 -5.32 14 -6 14 C-5.57202798 8.29370646 -3.15654048 4.58921384 0 0 Z " fill="#D5DAE9" transform="translate(220,294)"/>
<path d="M0 0 C0.33 0.99 0.66 1.98 1 3 C-3.30769231 6.93846154 -3.30769231 6.93846154 -6.8125 7.25 C-7.8953125 7.12625 -7.8953125 7.12625 -9 7 C-9.33 6.34 -9.66 5.68 -10 5 C-8.27473958 4.28385417 -6.54947917 3.56770833 -4.82421875 2.8515625 C-2.73466068 1.93193308 -2.73466068 1.93193308 0 0 Z " fill="#C9D0E2" transform="translate(235,332)"/>
<path d="M0 0 C0.99 0 1.98 0 3 0 C3 3.63 3 7.26 3 11 C1.68 10.34 0.36 9.68 -1 9 C-0.67 6.03 -0.34 3.06 0 0 Z " fill="#E3E7F0" transform="translate(204,274)"/>
<path d="M0 0 C2 3 2 3 1.625 5.1875 C1.41875 5.785625 1.2125 6.38375 1 7 C0.34 7 -0.32 7 -1 7 C-1.33 7.99 -1.66 8.98 -2 10 C-2.99 10 -3.98 10 -5 10 C-3.66511872 6.40608886 -2.03977277 3.24509304 0 0 Z " fill="#A6B1D0" transform="translate(239,323)"/>
<path d="M0 0 C-1.75 5.75 -1.75 5.75 -4 8 C-4.99 8 -5.98 8 -7 8 C-4.18918919 0 -4.18918919 0 0 0 Z " fill="#243F8B" transform="translate(261,308)"/>
<path d="M0 0 C0.99 0 1.98 0 3 0 C3 1.32 3 2.64 3 4 C4.98 3.67 6.96 3.34 9 3 C6.94766315 5.2477975 5.99332739 6.0022242 3 7 C2.34 5.68 1.68 4.36 1 3 C0.01 3.495 0.01 3.495 -1 4 C-0.67 2.68 -0.34 1.36 0 0 Z " fill="#8B99C1" transform="translate(273,306)"/>
<path d="M0 0 C0.33 0 0.66 0 1 0 C1.33 2.31 1.66 4.62 2 7 C0.68 7.99 -0.64 8.98 -2 10 C-2.25 3.375 -2.25 3.375 0 0 Z " fill="#E8EBF3" transform="translate(274,307)"/>
<path d="M0 0 C0.66 0 1.32 0 2 0 C1.52651586 4.1666604 0.95303159 6.92884715 -2 10 C-2.66 10 -3.32 10 -4 10 C-2.66666667 6.66666667 -1.33333333 3.33333333 0 0 Z " fill="#CBD1E3" transform="translate(261,307)"/>
<path d="M0 0 C3 4 3 4 2.6875 6.75 C2.460625 7.4925 2.23375 8.235 2 9 C1.01 8.67 0.02 8.34 -1 8 C-1.33 8.66 -1.66 9.32 -2 10 C-1.34 6.7 -0.68 3.4 0 0 Z " fill="#8998C0" transform="translate(245,303)"/>
<path d="M0 0 C0.33 1.32 0.66 2.64 1 4 C1.66 4 2.32 4 3 4 C2.38461538 9.53846154 2.38461538 9.53846154 0.4375 11.875 C-0.036875 12.24625 -0.51125 12.6175 -1 13 C-1.07654536 8.48382401 -1.10228696 4.40914783 0 0 Z " fill="#A5B0CF" transform="translate(220,303)"/>
<path d="M0 0 C0.66 0 1.32 0 2 0 C1.43454163 3.95820859 0.19097652 6.6659053 -2 10 C-2.6875 8.375 -2.6875 8.375 -3 6 C-1.5625 2.75 -1.5625 2.75 0 0 Z " fill="#D3D8E7" transform="translate(207,319)"/>
<path d="M0 0 C0.66 0.99 1.32 1.98 2 3 C4.05003955 4.19232613 4.05003955 4.19232613 6 5 C5.67 5.66 5.34 6.32 5 7 C3.35 7 1.7 7 0 7 C0.33 6.01 0.66 5.02 1 4 C0.34 4 -0.32 4 -1 4 C-0.67 2.68 -0.34 1.36 0 0 Z " fill="#8997C0" transform="translate(252,312)"/>
<path d="M0 0 C0.66 0.33 1.32 0.66 2 1 C-0.31 3.64 -2.62 6.28 -5 9 C-5.33 7.68 -5.66 6.36 -6 5 C-4.02 3.35 -2.04 1.7 0 0 Z " fill="#26418C" transform="translate(279,311)"/>
<path d="M0 0 C0.99 0.33 1.98 0.66 3 1 C1.87548273 3.9719385 0.77706209 6.33440687 -1 9 C-2.0326802 6.21176345 -2.04509293 5.1322726 -1.0625 2.25 C-0.711875 1.5075 -0.36125 0.765 0 0 Z " fill="#B0B9D5" transform="translate(203,327)"/>
<path d="M0 0 C0.66 0 1.32 0 2 0 C1.71125 0.556875 1.4225 1.11375 1.125 1.6875 C-0.0413253 4.08494645 -1.0339881 6.51596939 -2 9 C-2.66 8.67 -3.32 8.34 -4 8 C-3.40312566 4.65750371 -2.26396123 2.53563658 0 0 Z " fill="#7989B8" transform="translate(291,314)"/>
<path d="M0 0 C1.88343932 3.76687864 2.22057835 5.02958963 2 9 C1.34 9 0.68 9 0 9 C-0.33 9.99 -0.66 10.98 -1 12 C-0.67 8.04 -0.34 4.08 0 0 Z " fill="#D8DCEA" transform="translate(220,309)"/>
<path d="M0 0 C0.33 0 0.66 0 1 0 C0.50769231 6.52307692 0.50769231 6.52307692 -2.0625 8.9375 C-2.701875 9.288125 -3.34125 9.63875 -4 10 C-2.8905928 6.51329166 -1.73662334 3.22515763 0 0 Z " fill="#2D4790" transform="translate(220,298)"/>
<path d="M0 0 C-1.25 1.5625 -1.25 1.5625 -3 3 C-5.125 2.8125 -5.125 2.8125 -7 2 C-7.33 1.34 -7.66 0.68 -8 0 C-4.71303767 -0.79953138 -3.28976808 -1.09658936 0 0 Z " fill="#94A1C6" transform="translate(307,323)"/>
<path d="M0 0 C0.33 0 0.66 0 1 0 C0.67 2.97 0.34 5.94 0 9 C-0.66 9 -1.32 9 -2 9 C-2 6.69 -2 4.38 -2 2 C-1.34 2 -0.68 2 0 2 C0 1.34 0 0.68 0 0 Z " fill="#CBD2E3" transform="translate(203,295)"/>
</svg>
