<?xml version="1.0" encoding="UTF-8"?>
<svg version="1.1" xmlns="http://www.w3.org/2000/svg" width="311" height="162">
<path d="M0 0 C102.63 0 205.26 0 311 0 C311 53.46 311 106.92 311 162 C208.37 162 105.74 162 0 162 C0 108.54 0 55.08 0 0 Z " fill="#3C178D" transform="translate(0,0)"/>
<path d="M0 0 C7.68374853 6.22605991 13.27761636 12.95227577 14.47265625 22.95703125 C15.21630356 36.81691547 10.96507434 47.13640891 2.57421875 58.1484375 C-3.85736595 65.27295469 -11.52936652 70.6618264 -19.37695312 76.10546875 C-24.41456895 79.66498173 -28.78833751 83.49178916 -33 88 C-31.05716437 92.17542495 -29.28272905 93.35508447 -25.13671875 95.23828125 C-18.66530746 97.54527431 -12.11593846 95.50887403 -6 93 C4.24087621 87.67012225 12.35667661 80.18526203 18.515625 70.43359375 C20 69 20 69 22.671875 68.78515625 C23.44015625 68.85605469 24.2084375 68.92695312 25 69 C25.66 70.98 26.32 72.96 27 75 C28.65 75.33 30.3 75.66 32 76 C32.33 75.34 32.66 74.68 33 74 C33 74.66 33 75.32 33 76 C33.99 76 34.98 76 36 76 C36.185625 77.423125 36.185625 77.423125 36.375 78.875 C36.71687177 82.08667191 36.71687177 82.08667191 39 84 C38.01 84.33 37.02 84.66 36 85 C35.34 85.99 34.68 86.98 34 88 C32.35 87.34 30.7 86.68 29 86 C29 86.66 29 87.32 29 88 C31.97 88.99 31.97 88.99 35 90 C35.2165625 91.670625 35.2165625 91.670625 35.4375 93.375 C35.78372035 96.82142047 35.78372035 96.82142047 37 99 C37 102.10551666 36.4606285 103.35261084 35 106 C35.99 106.33 36.98 106.66 38 107 C32.46076421 109.5849767 26.11010672 111 20 111 C19.67 111.66 19.34 112.32 19 113 C22.3 113 25.6 113 29 113 C29 113.66 29 114.32 29 115 C23.24245013 118.00561014 19.20098103 118.23136817 12.8125 117.5625 C6.12346901 116.68724639 6.12346901 116.68724639 0 119 C-2.75 119.125 -2.75 119.125 -5 119 C-5 119.66 -5 120.32 -5 121 C-2.36 121.33 0.28 121.66 3 122 C3 122.66 3 123.32 3 124 C6.06290797 123.69141842 9.12523952 123.37743707 12.1875 123.0625 C13.05181641 122.97548828 13.91613281 122.88847656 14.80664062 122.79882812 C18.20345094 122.44743395 21.52845793 122.09738369 24.875 121.40625 C28.02741582 120.80358227 30.8692574 121.44751601 34 122 C34.33 122.99 34.66 123.98 35 125 C36.84725052 125.69159401 36.84725052 125.69159401 39 126 C39.59683594 126.17144531 40.19367188 126.34289062 40.80859375 126.51953125 C43.34699489 127.07607909 45.65373812 127.09666134 48.25 127.0625 C49.14203125 127.05347656 50.0340625 127.04445312 50.953125 127.03515625 C51.62859375 127.02355469 52.3040625 127.01195312 53 127 C53.33 126.01 53.66 125.02 54 124 C55.65 124 57.3 124 59 124 C59 123.34 59 122.68 59 122 C60.65 122.33 62.3 122.66 64 123 C64 123.66 64 124.32 64 125 C62.02 125.99 62.02 125.99 60 127 C60.33 127.99 60.66 128.98 61 130 C63.02474997 128.03946616 63.02474997 128.03946616 64.75 125.875 C67 124 67 124 70.0625 123.5 C73 124 73 124 74.875 126 C75.24625 126.66 75.6175 127.32 76 128 C80.49060792 126.22076345 80.49060792 126.22076345 83.3125 122.5 C83.539375 121.675 83.76625 120.85 84 120 C84.33 119.01 84.66 118.02 85 117 C88.0625 115.8125 88.0625 115.8125 91 115 C91.33 115.99 91.66 116.98 92 118 C99.20268933 115.19895415 102.91666426 112.68946473 107 106 C107.93748765 103.64301453 108.48008664 101.4955841 109 99 C107.68 98.34 106.36 97.68 105 97 C104.34 97.99 103.68 98.98 103 100 C102.01 100 101.02 100 100 100 C99.3125 98.1875 99.3125 98.1875 99 96 C100.52312424 93.91572472 101.6881597 93.11006128 104.125 92.25 C106.43724932 91.02555987 106.43724932 91.02555987 106.75 87.375 C106.8325 86.26125 106.915 85.1475 107 84 C108.65 84 110.3 84 112 84 C112.33 82.68 112.66 81.36 113 80 C111.35 80.33 109.7 80.66 108 81 C107.67 79.35 107.34 77.7 107 76 C109.97 75.01 112.94 74.02 116 73 C116.99219316 76.96877263 117 79.92500029 117 84 C118.65 84 120.3 84 122 84 C122 100.5 122 117 122 134 C27.95 134 -66.1 134 -163 134 C-162.03801036 130.15204146 -161.27546203 129.00360988 -159 126 C-158.67 125.113125 -158.34 124.22625 -158 123.3125 C-157.67 122.549375 -157.34 121.78625 -157 121 C-156.01 120.67 -155.02 120.34 -154 120 C-152.79117904 117.99983534 -152.79117904 117.99983534 -152 116 C-149.69 116 -147.38 116 -145 116 C-145 116.66 -145 117.32 -145 118 C-143.02 117.01 -143.02 117.01 -141 116 C-141.0928125 114.576875 -141.0928125 114.576875 -141.1875 113.125 C-141.0946875 111.578125 -141.0946875 111.578125 -141 110 C-138 108 -138 108 -135.6875 107.5625 C-132.8393511 107.08536129 -132.8393511 107.08536129 -129.875 105.4375 C-127 104 -127 104 -124 104 C-123.34 102.68 -122.68 101.36 -122 100 C-121.01 100.33 -120.02 100.66 -119 101 C-119.66 101.99 -120.32 102.98 -121 104 C-118.69 104.66 -116.38 105.32 -114 106 C-114 106.66 -114 107.32 -114 108 C-111.525 107.505 -111.525 107.505 -109 107 C-109 106.34 -109 105.68 -109 105 C-107.71073008 104.63720544 -106.41846728 104.28503302 -105.125 103.9375 C-104.40570313 103.74027344 -103.68640625 103.54304688 -102.9453125 103.33984375 C-101 103 -101 103 -99 104 C-99 104.99 -99 105.98 -99 107 C-99.99 107.33 -100.98 107.66 -102 108 C-102.99 107.505 -102.99 107.505 -104 107 C-105.73579559 107.99647524 -107.47013481 108.99931667 -109.1484375 110.08984375 C-111 111 -111 111 -115 111 C-115 111.66 -115 112.32 -115 113 C-113.02 113 -111.04 113 -109 113 C-109 114.32 -109 115.64 -109 117 C-107.700625 116.87625 -106.40125 116.7525 -105.0625 116.625 C-104.33160156 116.55539063 -103.60070312 116.48578125 -102.84765625 116.4140625 C-101.93306641 116.20910156 -101.93306641 116.20910156 -101 116 C-100.67 115.34 -100.34 114.68 -100 114 C-99.34 114.66 -98.68 115.32 -98 116 C-103.51208791 118.88131868 -103.51208791 118.88131868 -106.3125 119.5625 C-107.1478125 119.7790625 -107.1478125 119.7790625 -108 120 C-108.33 120.66 -108.66 121.32 -109 122 C-105.04 121.01 -105.04 121.01 -101 120 C-102 123 -102 123 -105.0625 124.6875 C-106.031875 125.120625 -107.00125 125.55375 -108 126 C-106.329375 125.7834375 -106.329375 125.7834375 -104.625 125.5625 C-99.75873212 124.95203629 -94.88153414 124.47014775 -90 124 C-90.495 123.5875 -90.99 123.175 -91.5 122.75 C-93 121 -93 121 -93 117 C-90.23723823 117.52268466 -87.6739124 118.10869587 -85 119 C-85 118.01 -85 117.02 -85 116 C-85.66 116 -86.32 116 -87 116 C-87 115.34 -87 114.68 -87 114 C-86.34 114 -85.68 114 -85 114 C-84.505 112.515 -84.505 112.515 -84 111 C-83.01 110.67 -82.02 110.34 -81 110 C-81.33 109.34 -81.66 108.68 -82 108 C-86.10899581 109.12795963 -90.07561214 110.33510818 -94 112 C-94.66 111.34 -95.32 110.68 -96 110 C-95.01 110 -94.02 110 -93 110 C-93 109.34 -93 108.68 -93 108 C-94.485 107.505 -94.485 107.505 -96 107 C-95.01 107 -94.02 107 -93 107 C-92.3185177 105.10820797 -92.3185177 105.10820797 -92 103 C-92.66 102.34 -93.32 101.68 -94 101 C-95.2077558 97.37673261 -94.54311128 96.35853631 -93 93 C-94.98 92.505 -94.98 92.505 -97 92 C-95.68 92 -94.36 92 -93 92 C-93 88.04 -93 84.08 -93 80 C-93.66 80 -94.32 80 -95 80 C-95.33 78.68 -95.66 77.36 -96 76 C-95.01 75.67 -94.02 75.34 -93 75 C-92.26676204 72.98491642 -92.26676204 72.98491642 -92 71 C-91.80508548 72.45736087 -91.61930642 73.91594593 -91.4375 75.375 C-91.33308594 76.18710938 -91.22867188 76.99921875 -91.12109375 77.8359375 C-91 80 -91 80 -92 82 C-91.34 82 -90.68 82 -90 82 C-90.33 83.65 -90.66 85.3 -91 87 C-90.01 87 -89.02 87 -88 87 C-88.33 85.865625 -88.66 84.73125 -89 83.5625 C-91.83468991 71.81291575 -88.56939233 61.28587407 -82.875 50.8125 C-75.45674181 38.88356363 -63.60970338 28.82450919 -50.1015625 24.3984375 C-44.43754197 23.32458974 -38.39677727 22.74979819 -33.19921875 25.4609375 C-31 27 -31 27 -30 28 C-30.69767442 34.39534884 -30.69767442 34.39534884 -32 37 C-32.66 37 -33.32 37 -34 37 C-34 37.66 -34 38.32 -34 39 C-35.57286684 40.41438406 -37.21139996 41.75604401 -38.875 43.0625 C-55.37546752 56.16379499 -55.37546752 56.16379499 -66 74 C-66.4258991 77.42154456 -66.4258991 77.42154456 -66 80 C-65.34 80 -64.68 80 -64 80 C-63.67 81.32 -63.34 82.64 -63 84 C-62.34 84 -61.68 84 -61 84 C-61 83.01 -61 82.02 -61 81 C-59.02 80.67 -57.04 80.34 -55 80 C-53.95550089 76.86650268 -54.06576355 76.01031744 -55 73 C-51.25 71.875 -51.25 71.875 -49 73 C-49 74.32 -49 75.64 -49 77 C-48.69449219 76.53851563 -48.38898438 76.07703125 -48.07421875 75.6015625 C-42.25582367 67.30830078 -34.72704407 60.83778806 -26.5 55 C-13.59378148 45.90952877 -13.59378148 45.90952877 -5 33 C-4.7577118 28.154236 -8.13994425 23.7400729 -11 20 C-17.08586797 13.33073728 -23.71288139 10.11173097 -32.76171875 9.53125 C-34.4033203 9.49693655 -36.04559013 9.48715376 -37.6875 9.5 C-38.99569702 9.50966797 -38.99569702 9.50966797 -40.33032227 9.51953125 C-55.79898346 9.95210167 -69.81553738 17.32333882 -80.4375 28.4375 C-81.54931641 29.70400391 -81.54931641 29.70400391 -82.68359375 30.99609375 C-85.49207069 33.42568678 -87.3166654 33.88347084 -91 34 C-91.66 33.34 -92.32 32.68 -93 32 C-92.14796939 20.00474546 -81.56386107 10.52054804 -73 3 C-53.81218204 -12.67057473 -20.6112627 -14.07598429 0 0 Z M-156 123 C-155 125 -155 125 -155 125 Z " fill="#642BD7" transform="translate(189,28)"/>
<path d="M0 0 C7.68374853 6.22605991 13.27761636 12.95227577 14.47265625 22.95703125 C15.21630356 36.81691547 10.96507434 47.13640891 2.57421875 58.1484375 C-3.85736595 65.27295469 -11.52936652 70.6618264 -19.37695312 76.10546875 C-24.41456895 79.66498173 -28.78833751 83.49178916 -33 88 C-31.05716437 92.17542495 -29.28272905 93.35508447 -25.13671875 95.23828125 C-18.66530746 97.54527431 -12.11593846 95.50887403 -6 93 C4.24087621 87.67012225 12.35667661 80.18526203 18.515625 70.43359375 C20 69 20 69 22.671875 68.78515625 C23.44015625 68.85605469 24.2084375 68.92695312 25 69 C27.11799029 76.28059162 22.84644553 82.59504475 19.421875 88.91015625 C13.27067631 99.1286195 5.63496464 106.57825332 -5 112 C-5.64453125 112.3403125 -6.2890625 112.680625 -6.953125 113.03125 C-15.01155689 116.68801741 -25.34455831 116.08322372 -33.58203125 113.234375 C-40.25146291 109.82962475 -46.462664 104.15460719 -49.3828125 97.16015625 C-51.2940032 90.47098881 -51.8649228 83.79117348 -49.24609375 77.23828125 C-44.04841282 67.90200799 -35.06121313 61.64079828 -26.71923828 55.30957031 C-13.87894114 45.90742289 -13.87894114 45.90742289 -5 33 C-5.16165013 27.18059535 -9.00433105 22.1869749 -12.79296875 18.03515625 C-20.02643361 11.20595689 -27.91045674 9.4235048 -37.6875 9.5 C-38.99569702 9.50966797 -38.99569702 9.50966797 -40.33032227 9.51953125 C-55.79898346 9.95210167 -69.81553738 17.32333882 -80.4375 28.4375 C-81.54931641 29.70400391 -81.54931641 29.70400391 -82.68359375 30.99609375 C-85.49207069 33.42568678 -87.3166654 33.88347084 -91 34 C-91.66 33.34 -92.32 32.68 -93 32 C-92.14796939 20.00474546 -81.56386107 10.52054804 -73 3 C-53.81218204 -12.67057473 -20.6112627 -14.07598429 0 0 Z " fill="#B4AADC" transform="translate(189,28)"/>
<path d="M0 0 C2.15120281 3.8990551 2 6.52357961 2 11 C3.65 11 5.3 11 7 11 C7 27.5 7 44 7 61 C-83.42 61 -173.84 61 -267 61 C-267 60.34 -267 59.68 -267 59 C-266.0925 58.5875 -265.185 58.175 -264.25 57.75 C-261.20334382 56.10949282 -259.28873194 54.55281639 -257 52 C-256.34 52.33 -255.68 52.66 -255 53 C-255 53.66 -255 54.32 -255 55 C-257 56.625 -257 56.625 -259 58 C-256.55369444 56.8709359 -254.50934313 55.64627063 -252.3125 54.0625 C-248.36407109 51.60404426 -244.43842296 50.3019374 -240 49 C-239.34 49.66 -238.68 50.32 -238 51 C-238.33 51.33 -238.66 51.66 -239 52 C-236.24358584 51.50243908 -236.24358584 51.50243908 -234 50 C-232.33382885 49.95936168 -230.66611905 49.957279 -229 50 C-229.99 50.33 -230.98 50.66 -232 51 C-231.34 51.99 -230.68 52.98 -230 54 C-227.525 53.505 -227.525 53.505 -225 53 C-225.33 54.32 -225.66 55.64 -226 57 C-228.475 57.495 -228.475 57.495 -231 58 C-227.18003267 57.52250408 -223.58201687 56.91803897 -219.875 55.875 C-216.24002299 55.05419874 -214.49457782 55.04693332 -211 56 C-209.7018576 54.8509288 -209.7018576 54.8509288 -209 52 C-207.07421875 51.26953125 -207.07421875 51.26953125 -204.6875 50.8125 C-203.90761719 50.65394531 -203.12773437 50.49539062 -202.32421875 50.33203125 C-200 50 -200 50 -196 50 C-196 50.66 -196 51.32 -196 52 C-196.99 52.66 -197.98 53.32 -199 54 C-199.495 54.99 -199.495 54.99 -200 56 C-198.88625 55.5875 -197.7725 55.175 -196.625 54.75 C-195.99851562 54.51796875 -195.37203125 54.2859375 -194.7265625 54.046875 C-192.52956719 52.7147602 -192.05763481 51.29356822 -191 49 C-182.92409446 48.60657791 -174.84809119 48.21525131 -166.7719574 47.82654572 C-163.02126131 47.64595928 -159.27060197 47.46467103 -155.52001953 47.28173828 C-151.89558792 47.10498503 -148.27106918 46.93012835 -144.64648438 46.75654602 C-143.26868472 46.69023659 -141.8909169 46.6232619 -140.51318359 46.55558777 C-133.669641 46.21984889 -126.85243192 45.90903851 -120 46 C-120 46.66 -120 47.32 -120 48 C-117.36 48.33 -114.72 48.66 -112 49 C-112 49.66 -112 50.32 -112 51 C-108.93709203 50.69141842 -105.87476048 50.37743707 -102.8125 50.0625 C-101.51602539 49.93198242 -101.51602539 49.93198242 -100.19335938 49.79882812 C-96.79654906 49.44743395 -93.47154207 49.09738369 -90.125 48.40625 C-86.97258418 47.80358227 -84.1307426 48.44751601 -81 49 C-80.67 49.99 -80.34 50.98 -80 52 C-78.15274948 52.69159401 -78.15274948 52.69159401 -76 53 C-75.40316406 53.17144531 -74.80632812 53.34289062 -74.19140625 53.51953125 C-71.65300511 54.07607909 -69.34626188 54.09666134 -66.75 54.0625 C-65.85796875 54.05347656 -64.9659375 54.04445312 -64.046875 54.03515625 C-63.03367188 54.01775391 -63.03367188 54.01775391 -62 54 C-61.67 53.01 -61.34 52.02 -61 51 C-59.35 51 -57.7 51 -56 51 C-56 50.34 -56 49.68 -56 49 C-54.35 49.33 -52.7 49.66 -51 50 C-51 50.66 -51 51.32 -51 52 C-52.32 52.66 -53.64 53.32 -55 54 C-54.67 54.99 -54.34 55.98 -54 57 C-51.97525003 55.03946616 -51.97525003 55.03946616 -50.25 52.875 C-48 51 -48 51 -44.9375 50.5 C-42 51 -42 51 -40.125 53 C-39.75375 53.66 -39.3825 54.32 -39 55 C-34.50939208 53.22076345 -34.50939208 53.22076345 -31.6875 49.5 C-31.3471875 48.2625 -31.3471875 48.2625 -31 47 C-30.67 46.01 -30.34 45.02 -30 44 C-26.9375 42.8125 -26.9375 42.8125 -24 42 C-23.67 42.99 -23.34 43.98 -23 45 C-15.79731067 42.19895415 -12.08333574 39.68946473 -8 33 C-7.06251235 30.64301453 -6.51991336 28.4955841 -6 26 C-7.98 25.01 -7.98 25.01 -10 24 C-10.66 24.99 -11.32 25.98 -12 27 C-12.99 27 -13.98 27 -15 27 C-15.6875 25.1875 -15.6875 25.1875 -16 23 C-14.47687576 20.91572472 -13.3118403 20.11006128 -10.875 19.25 C-8.56275068 18.02555987 -8.56275068 18.02555987 -8.25 14.375 C-8.1675 13.26125 -8.085 12.1475 -8 11 C-6.35 11 -4.7 11 -3 11 C-2.67 9.68 -2.34 8.36 -2 7 C-3.65 7.33 -5.3 7.66 -7 8 C-7.33 6.35 -7.66 4.7 -8 3 C-5.36 2.01 -2.72 1.02 0 0 Z " fill="#6D30E4" transform="translate(304,101)"/>
<path d="M0 0 C2.19921875 1.5390625 2.19921875 1.5390625 3.19921875 2.5390625 C2.50154433 8.93441134 2.50154433 8.93441134 1.19921875 11.5390625 C0.53921875 11.5390625 -0.12078125 11.5390625 -0.80078125 11.5390625 C-0.80078125 12.1990625 -0.80078125 12.8590625 -0.80078125 13.5390625 C-2.37364809 14.95344656 -4.01218121 16.29510651 -5.67578125 17.6015625 C-24.05600986 31.67090664 -24.05600986 31.67090664 -33.28515625 52.05859375 C-33.653236 61.98652252 -31.24961958 70.00258175 -26.64453125 78.73046875 C-25.55194414 81.07244945 -25.65906353 82.98814352 -25.80078125 85.5390625 C-28.73403353 86.40913911 -30.30333163 86.73301105 -33.1953125 85.60546875 C-44.70231125 78.44845014 -53.08310669 69.36235943 -56.47265625 55.86328125 C-58.35175102 42.55302666 -53.48898118 30.3173274 -45.80078125 19.5390625 C-36.34388898 8.06758579 -15.96495465 -8.32760535 0 0 Z " fill="#CEC7E5" transform="translate(155.80078125,53.4609375)"/>
<path d="M0 0 C6.28238083 5.09054653 11.90975589 11.02838277 14 19 C14.53139079 24.66378399 14.29605654 30.32887248 14 36 C13.01 36.495 13.01 36.495 12 37 C10.515 36.505 10.515 36.505 9 36 C8.67 38.64 8.34 41.28 8 44 C7.34 44 6.68 44 6 44 C5.505 44.99 5.505 44.99 5 46 C2.2656934 43.2656934 2.04659335 41.23006445 1.90234375 37.421875 C1.91394531 36.54015625 1.92554688 35.6584375 1.9375 34.75 C1.94652344 33.85796875 1.95554687 32.9659375 1.96484375 32.046875 C1.97644531 31.37140625 1.98804688 30.6959375 2 30 C1.2575 29.71125 0.515 29.4225 -0.25 29.125 C-1.1575 28.75375 -2.065 28.3825 -3 28 C-4.0209375 27.62875 -4.0209375 27.62875 -5.0625 27.25 C-7.35600578 25.77031885 -8.32049397 23.99436171 -9.75390625 21.71875 C-14.47808535 15.20264089 -20.28602556 11.84316203 -28 10 C-31.242899 9.56968007 -34.41847581 9.47442328 -37.6875 9.5 C-38.99569702 9.50966797 -38.99569702 9.50966797 -40.33032227 9.51953125 C-55.79898346 9.95210167 -69.81553738 17.32333882 -80.4375 28.4375 C-81.54931641 29.70400391 -81.54931641 29.70400391 -82.68359375 30.99609375 C-85.49207069 33.42568678 -87.3166654 33.88347084 -91 34 C-91.66 33.34 -92.32 32.68 -93 32 C-92.14796939 20.00474546 -81.56386107 10.52054804 -73 3 C-53.81218204 -12.67057473 -20.6112627 -14.07598429 0 0 Z " fill="#E6E3F1" transform="translate(189,28)"/>
<path d="M0 0 C2.15120281 3.8990551 2 6.52357961 2 11 C3.65 11 5.3 11 7 11 C7 27.5 7 44 7 61 C-1.58 61 -10.16 61 -19 61 C-19.33 59.68 -19.66 58.36 -20 57 C-21.65 57.66 -23.3 58.32 -25 59 C-24.34 58.01 -23.68 57.02 -23 56 C-22.34 56 -21.68 56 -21 56 C-21 55.34 -21 54.68 -21 54 C-21.53625 54.144375 -22.0725 54.28875 -22.625 54.4375 C-25.39915827 55.09453748 -28.18525388 55.55219948 -31 56 C-30.01 55.505 -30.01 55.505 -29 55 C-29 54.34 -29 53.68 -29 53 C-30.32 52.34 -31.64 51.68 -33 51 C-32.690625 50.401875 -32.38125 49.80375 -32.0625 49.1875 C-30.89790296 46.91043228 -30.89790296 46.91043228 -30 44 C-26.9375 42.8125 -26.9375 42.8125 -24 42 C-23.67 42.99 -23.34 43.98 -23 45 C-15.79731067 42.19895415 -12.08333574 39.68946473 -8 33 C-7.06251235 30.64301453 -6.51991336 28.4955841 -6 26 C-7.32 25.34 -8.64 24.68 -10 24 C-10.66 24.99 -11.32 25.98 -12 27 C-12.99 27 -13.98 27 -15 27 C-15.6875 25.1875 -15.6875 25.1875 -16 23 C-14.47687576 20.91572472 -13.3118403 20.11006128 -10.875 19.25 C-8.56275068 18.02555987 -8.56275068 18.02555987 -8.25 14.375 C-8.1675 13.26125 -8.085 12.1475 -8 11 C-6.35 11 -4.7 11 -3 11 C-2.67 9.68 -2.34 8.36 -2 7 C-3.65 7.33 -5.3 7.66 -7 8 C-7.33 6.35 -7.66 4.7 -8 3 C-5.36 2.01 -2.72 1.02 0 0 Z " fill="#692EDD" transform="translate(304,101)"/>
<path d="M0 0 C0.99 0.33 1.98 0.66 3 1 C1.54744301 4.82946843 -0.42895561 6.12050295 -4 8 C-3.236875 8.061875 -2.47375 8.12375 -1.6875 8.1875 C1 9 1 9 2.8125 11.5625 C3.4003125 12.7690625 3.4003125 12.7690625 4 14 C4.61488281 13.83242187 5.22976562 13.66484375 5.86328125 13.4921875 C6.67152344 13.28851563 7.47976562 13.08484375 8.3125 12.875 C9.11300781 12.66617188 9.91351563 12.45734375 10.73828125 12.2421875 C13 12 13 12 16 14 C15.41734375 14.07089844 14.8346875 14.14179687 14.234375 14.21484375 C11.16839481 15.2922249 10.16940598 16.96495679 8.25 19.5625 C-1.23976297 31.80848089 -11.68093108 40.4321185 -27.4375 42.4375 C-32.27274651 41.8436978 -36.1467852 39.98212143 -40 37 C-41.26171875 34.828125 -41.26171875 34.828125 -42 33 C-36.03746722 26.46960696 -29.60695462 21.36661218 -22.37890625 16.3671875 C-18.76996066 13.8696962 -15.3519465 11.16516781 -11.96484375 8.375 C-10 7 -10 7 -7.4296875 5.9765625 C-4.18095413 4.6708015 -2.34653228 2.54766362 0 0 Z " fill="#5223B4" transform="translate(197,83)"/>
<path d="M0 0 C0.99 0.33 1.98 0.66 3 1 C2.34 1.99 1.68 2.98 1 4 C3.31 4.66 5.62 5.32 8 6 C8 6.66 8 7.32 8 8 C9.65 7.67 11.3 7.34 13 7 C13 6.34 13 5.68 13 5 C14.28926992 4.63720544 15.58153272 4.28503302 16.875 3.9375 C17.59429687 3.74027344 18.31359375 3.54304687 19.0546875 3.33984375 C21 3 21 3 23 4 C23 4.99 23 5.98 23 7 C22.01 7.33 21.02 7.66 20 8 C19.34 7.67 18.68 7.34 18 7 C16.26420441 7.99647524 14.52986519 8.99931667 12.8515625 10.08984375 C11 11 11 11 7 11 C7 11.66 7 12.32 7 13 C8.98 13 10.96 13 13 13 C13 14.32 13 15.64 13 17 C14.299375 16.87625 15.59875 16.7525 16.9375 16.625 C18.03384766 16.52058594 18.03384766 16.52058594 19.15234375 16.4140625 C19.76207031 16.27742188 20.37179688 16.14078125 21 16 C21.33 15.34 21.66 14.68 22 14 C22.99 14.99 22.99 14.99 24 16 C18.48791209 18.88131868 18.48791209 18.88131868 15.6875 19.5625 C15.130625 19.706875 14.57375 19.85125 14 20 C13.67 20.66 13.34 21.32 13 22 C15.64 21.34 18.28 20.68 21 20 C20.505 21.485 20.505 21.485 20 23 C19.030625 23.474375 18.06125 23.94875 17.0625 24.4375 C13.89788363 26.05210019 13.12529972 26.73663082 12 30 C11.34 29.34 10.68 28.68 10 28 C9.01 28 8.02 28 7 28 C6.34 27.67 5.68 27.34 5 27 C5 26.01 5 25.02 5 24 C4.4225 24.350625 3.845 24.70125 3.25 25.0625 C0.64198224 26.14917407 -0.39417629 25.93065133 -3 25 C-3 24.34 -3 23.68 -3 23 C-9.10004553 24.60973424 -13.48474513 26.75224888 -18.2734375 30.890625 C-18.84320313 31.25671875 -19.41296875 31.6228125 -20 32 C-20.99 31.67 -21.98 31.34 -23 31 C-21.625 29.5 -21.625 29.5 -20 28 C-19.34 28 -18.68 28 -18 28 C-18.66 27.34 -19.32 26.68 -20 26 C-20.9075 26.804375 -21.815 27.60875 -22.75 28.4375 C-25.10309908 30.41142671 -26.86938046 31.63877467 -30 32 C-30 32.66 -30 33.32 -30 34 C-33.63 34 -37.26 34 -41 34 C-40.03801036 30.15204146 -39.27546203 29.00360988 -37 26 C-36.67 25.113125 -36.34 24.22625 -36 23.3125 C-35.67 22.549375 -35.34 21.78625 -35 21 C-34.01 20.67 -33.02 20.34 -32 20 C-30.79117904 17.99983534 -30.79117904 17.99983534 -30 16 C-27.69 16 -25.38 16 -23 16 C-23 16.66 -23 17.32 -23 18 C-21.68 17.34 -20.36 16.68 -19 16 C-19.061875 15.05125 -19.12375 14.1025 -19.1875 13.125 C-19.0946875 11.578125 -19.0946875 11.578125 -19 10 C-16 8 -16 8 -13.6875 7.5625 C-10.8393511 7.08536129 -10.8393511 7.08536129 -7.875 5.4375 C-5 4 -5 4 -2 4 C-1.34 2.68 -0.68 1.36 0 0 Z M-34 23 C-33 25 -33 25 -33 25 Z M5 30 C6.98 30 8.96 30 11 30 C11 30.66 11 31.32 11 32 C9.35 32 7.7 32 6 32 C5.67 31.34 5.34 30.68 5 30 Z " fill="#652CD8" transform="translate(67,128)"/>
<path d="M0 0 C6.875 2.75 6.875 2.75 8 5 C8.01976936 6.43751503 7.99303159 7.87592194 7.9375 9.3125 C7.88393323 13.00265498 8.27801153 15.66364735 10 19 C10.99 18.67 11.98 18.34 13 18 C13.33 15.36 13.66 12.72 14 10 C15.32 10.33 16.64 10.66 18 11 C14.38759869 29.39418137 0.01375975 40.06760301 -14.44116211 50.2578125 C-19.19205015 53.61682876 -23.63824727 57.14731125 -28 61 C-28 59.68 -28 58.36 -28 57 C-27.01 57 -26.02 57 -25 57 C-24.06628052 52.12390936 -24.05631012 48.02908105 -24.74609375 43.11328125 C-25 41 -25 41 -25 37 C-23.18527488 34.79640521 -21.67528282 33.30496644 -19.0625 32.125 C-15.90801126 30.40436978 -14.204976 27.81746933 -12 25 C-12.99 24.67 -13.98 24.34 -15 24 C-14.33613281 23.443125 -13.67226562 22.88625 -12.98828125 22.3125 C-5.14391126 15.70418766 -5.14391126 15.70418766 0 7 C-0.12092178 3.6699738 -0.12092178 3.6699738 -1 1 C-0.67 0.67 -0.34 0.34 0 0 Z " fill="#BAB0DA" transform="translate(184,54)"/>
<path d="M0 0 C0.66 0.33 1.32 0.66 2 1 C3.33059914 4.99179743 2.81502739 7.26317891 1 11 C1.33 11.33 1.66 11.66 2 12 C2.07205511 13.68608966 2.08386068 15.37500659 2.0625 17.0625 C2.05347656 17.98160156 2.04445313 18.90070313 2.03515625 19.84765625 C2.02355469 20.55792969 2.01195313 21.26820312 2 22 C3.98 22 5.96 22 8 22 C7.67 23.98 7.34 25.96 7 28 C7.66 28 8.32 28 9 28 C9 27.01 9 26.02 9 25 C9.66 25 10.32 25 11 25 C10.91621094 25.83402344 10.83242187 26.66804688 10.74609375 27.52734375 C10.04560946 35.26813855 9.5050256 42.5150768 12 50 C11.34 50 10.68 50 10 50 C10.061875 50.78375 10.12375 51.5675 10.1875 52.375 C10.0946875 53.674375 10.0946875 53.674375 10 55 C9.01 55.66 8.02 56.32 7 57 C7 57.99 7 58.98 7 60 C-1.19194617 56.47874029 -5.70503128 48.42630035 -9.08984375 40.578125 C-12.73733532 30.24617462 -10.97350235 21.01225971 -7 11 C-2.68817204 2.68817204 -2.68817204 2.68817204 0 0 Z " fill="#E9E6F4" transform="translate(110,74)"/>
<path d="M0 0 C0.66 0.33 1.32 0.66 2 1 C1.23883449 2.15227823 0.46567307 3.2966386 -0.3125 4.4375 C-0.74175781 5.07558594 -1.17101562 5.71367188 -1.61328125 6.37109375 C-3 8 -3 8 -6 9 C-7.68029994 9.97691857 -9.34928604 10.97388051 -11 12 C-10.814375 12.61875 -10.62875 13.2375 -10.4375 13.875 C-10 16 -10 16 -11 18 C-10.86062364 19.42220776 -10.66542363 20.8392727 -10.4375 22.25 C-9.90826593 26.34494863 -10.32490753 29.15714081 -12 33 C-12.99 33 -13.98 33 -15 33 C-15.103125 34.010625 -15.20625 35.02125 -15.3125 36.0625 C-16 40 -16 40 -17.625 43.25 C-19.78779013 49.14851853 -18.9704304 55.08870879 -17 61 C-23.06418964 58.97156026 -26.36896219 55.13678135 -30 50 C-33.56841288 42.75990828 -33.73379594 35.55437622 -31.34765625 27.91015625 C-26.37374966 16.33493584 -13.31363157 7.63601961 -3 1 C-2.01 0.67 -1.02 0.34 0 0 Z " fill="#E5E3F2" transform="translate(171,78)"/>
<path d="M0 0 C2.15120281 3.8990551 2 6.52357961 2 11 C3.65 11 5.3 11 7 11 C7.14553599 14.89543877 7.23415059 18.79017651 7.3125 22.6875 C7.35439453 23.79029297 7.39628906 24.89308594 7.43945312 26.02929688 C7.57762968 35.1765846 7.57762968 35.1765846 4.66796875 38.26953125 C2 40 2 40 -1 40 C-1 39.01 -1 38.02 -1 37 C-1.78375 37.99 -2.5675 38.98 -3.375 40 C-4.24125 40.99 -5.1075 41.98 -6 43 C-6.66 43 -7.32 43 -8 43 C-7.38998926 39.59919013 -6.13131396 37.56988255 -4 34.875 C-1.78944818 32.07102267 -1.78944818 32.07102267 0 29 C-0.66 29 -1.32 29 -2 29 C-2.226875 29.721875 -2.45375 30.44375 -2.6875 31.1875 C-4.25037704 34.53652223 -6.33585251 36.47247546 -9 39 C-9.33 39.66 -9.66 40.32 -10 41 C-10.99 41 -11.98 41 -13 41 C-11.93369824 38.78537326 -10.81421368 36.70583833 -9.5 34.625 C-7.89804126 31.82157221 -6.93231973 29.0838268 -6 26 C-7.32 25.34 -8.64 24.68 -10 24 C-10.66 24.99 -11.32 25.98 -12 27 C-12.99 27 -13.98 27 -15 27 C-15.6875 25.1875 -15.6875 25.1875 -16 23 C-14.47687576 20.91572472 -13.3118403 20.11006128 -10.875 19.25 C-8.56275068 18.02555987 -8.56275068 18.02555987 -8.25 14.375 C-8.1675 13.26125 -8.085 12.1475 -8 11 C-6.35 11 -4.7 11 -3 11 C-2.67 9.68 -2.34 8.36 -2 7 C-3.65 7.33 -5.3 7.66 -7 8 C-7.33 6.35 -7.66 4.7 -8 3 C-5.36 2.01 -2.72 1.02 0 0 Z " fill="#5E28CA" transform="translate(304,101)"/>
<path d="M0 0 C2 1 2 1 2 1 Z M-1 2 C-2.23924145 6.95696581 -3.78577758 9.11658466 -8 12 C-7.67 12.99 -7.34 13.98 -7 15 C-6.67 14.34 -6.34 13.68 -6 13 C-4.35 13 -2.7 13 -1 13 C-1 14.32 -1 15.64 -1 17 C-1.639375 17.2475 -2.27875 17.495 -2.9375 17.75 C-5.18741541 18.81562433 -5.18741541 18.81562433 -5.75 21.125 C-5.87375 22.053125 -5.87375 22.053125 -6 23 C-6.99 23 -7.98 23 -9 23 C-8.67 23.99 -8.34 24.98 -8 26 C-10.86177057 27.43088528 -12.93375773 26.59991697 -16 26 C-15.34 27.65 -14.68 29.3 -14 31 C-14.66 31 -15.32 31 -16 31 C-16 31.66 -16 32.32 -16 33 C-17.98 33.33 -19.96 33.66 -22 34 C-22 34.99 -22 35.98 -22 37 C-23.485 37.495 -23.485 37.495 -25 38 C-25 36.35 -25 34.7 -25 33 C-25.66 33 -26.32 33 -27 33 C-26.67 33.66 -26.34 34.32 -26 35 C-25.93003986 36.70702735 -25.91559846 38.41668003 -25.9375 40.125 C-25.94652344 41.03507812 -25.95554687 41.94515625 -25.96484375 42.8828125 C-25.97644531 43.58148438 -25.98804687 44.28015625 -26 45 C-29.48057523 39.77913716 -28.96149249 33.06960736 -28 27 C-24.7123806 17.26777569 -17.93370001 9.36639939 -10 3 C-6.96805074 1.88700597 -4.21859353 1.91059462 -1 2 Z " fill="#5223AE" transform="translate(150,75)"/>
<path d="M0 0 C1.32 0.99 2.64 1.98 4 3 C2.04783565 4.95216435 0.46800047 5.84826645 -2 7 C-2 8.98 -2 10.96 -2 13 C0.97 13 3.94 13 7 13 C6.505 10.03 6.505 10.03 6 7 C7.32 6.67 8.64 6.34 10 6 C10.495 8.475 10.495 8.475 11 11 C10.34 11 9.68 11 9 11 C9.495 12.485 9.495 12.485 10 14 C8.65808594 14.60134766 8.65808594 14.60134766 7.2890625 15.21484375 C-1.04882533 19.08534495 -7.41616728 23.47701601 -14 30 C-15.96219319 31.90588301 -17.74141138 33.4242405 -20 35 C-22.875 34.8125 -22.875 34.8125 -25 34 C-25.94128249 30.94360038 -26.14126451 29.38423947 -25.0234375 26.34375 C-18.83531962 15.66851347 -10.49746359 6.56683437 0 0 Z M11 7 C14 8 14 8 14 8 Z " fill="#C9BFE7" transform="translate(122,27)"/>
<path d="M0 0 C2.31 0.66 4.62 1.32 7 2 C7.33 1.34 7.66 0.68 8 0 C8 0.66 8 1.32 8 2 C8.99 2 9.98 2 11 2 C11.12375 2.94875 11.2475 3.8975 11.375 4.875 C11.71687177 8.08667191 11.71687177 8.08667191 14 10 C13.01 10.33 12.02 10.66 11 11 C10.34 11.99 9.68 12.98 9 14 C6.525 13.01 6.525 13.01 4 12 C4 12.66 4 13.32 4 14 C5.98 14.66 7.96 15.32 10 16 C10.38063221 18.3260857 10.71269945 20.66055264 11 23 C10.505 23.495 10.505 23.495 10 24 C7.99997287 24 5.99982307 23.9973189 4 23.96875 C1.86231706 24.0021513 0.04472308 24.39415612 -2 25 C-2.99 25 -3.98 25 -5 25 C-5.33 25.99 -5.66 26.98 -6 28 C-7.5778125 28.0928125 -7.5778125 28.0928125 -9.1875 28.1875 C-13.7003766 29.14926059 -14.89199304 30.72841373 -18 34 C-20.8125 34.8125 -20.8125 34.8125 -23 35 C-23 35.66 -23 36.32 -23 37 C-25.97 37.99 -28.94 38.98 -32 40 C-32 39.34 -32 38.68 -32 38 C-30.0205826 36.70519313 -27.98901237 35.48974893 -25.9375 34.3125 C-12.61810327 26.34094776 -5.02924815 14.65761139 0 0 Z " fill="#5926C3" transform="translate(214,102)"/>
<path d="M0 0 C0.495 1.485 0.495 1.485 1 3 C-0.093125 3.103125 -1.18625 3.20625 -2.3125 3.3125 C-5.85559629 3.97307727 -6.93243723 4.2027092 -9 7 C-8.649375 7.721875 -8.29875 8.44375 -7.9375 9.1875 C-6.84725534 12.45823397 -6.85201185 13.77065943 -8 17 C-10.37109375 18.703125 -10.37109375 18.703125 -13.4375 20.25 C-22.83548355 25.40157005 -30.03886362 32.10675995 -36 41 C-36.66 40.67 -37.32 40.34 -38 40 C-37.67 38.35 -37.34 36.7 -37 35 C-36.34 35 -35.68 35 -35 35 C-34.54625 34.195625 -34.0925 33.39125 -33.625 32.5625 C-32 30 -32 30 -29.8125 29.1875 C-29.214375 29.125625 -28.61625 29.06375 -28 29 C-28 28.01 -28 27.02 -28 26 C-26.68 25.67 -25.36 25.34 -24 25 C-24 24.34 -24 23.68 -24 23 C-24.763125 23.350625 -25.52625 23.70125 -26.3125 24.0625 C-29 25 -29 25 -32 24 C-31.625 21.5625 -31.625 21.5625 -31 19 C-30.34 18.67 -29.68 18.34 -29 18 C-30.98 18.33 -32.96 18.66 -35 19 C-27.4938415 8.70583977 -13.1428919 -0.5632668 0 0 Z " fill="#311477" transform="translate(143,38)"/>
<path d="M0 0 C0.73863281 0.10183594 1.47726563 0.20367187 2.23828125 0.30859375 C4.11718443 6.76732343 1.09479672 11.54631255 -1.76171875 17.30859375 C-5.5839122 24.21933688 -9.85682245 30.04982592 -15.76171875 35.30859375 C-16.75171875 34.97859375 -17.74171875 34.64859375 -18.76171875 34.30859375 C-19.46383769 32.65654919 -20.13143288 30.98935606 -20.76171875 29.30859375 C-21.42171875 28.97859375 -22.08171875 28.64859375 -22.76171875 28.30859375 C-22.10171875 28.30859375 -21.44171875 28.30859375 -20.76171875 28.30859375 C-20.76171875 27.64859375 -20.76171875 26.98859375 -20.76171875 26.30859375 C-21.75171875 25.97859375 -22.74171875 25.64859375 -23.76171875 25.30859375 C-22.3996539 21.03632476 -20.63686303 19.0133291 -17.19921875 16.18359375 C-12.36140987 12.03789915 -8.62062331 7.53212363 -4.8671875 2.3984375 C-2.76171875 0.30859375 -2.76171875 0.30859375 0 0 Z " fill="#D3D0EB" transform="translate(211.76171875,96.69140625)"/>
<path d="M0 0 C0.886875 0.185625 1.77375 0.37125 2.6875 0.5625 C5.83322104 1.16286945 5.83322104 1.16286945 8.2434082 0.53564453 C11.6761979 -0.13139476 14.92093705 -0.12978233 18.41796875 -0.1328125 C19.46565178 -0.13424759 19.46565178 -0.13424759 20.53450012 -0.13571167 C22.00273733 -0.13638923 23.47097761 -0.13456466 24.93920898 -0.13037109 C27.1906602 -0.12499245 29.44191412 -0.1303428 31.69335938 -0.13671875 C33.12239627 -0.13605837 34.55143305 -0.13477803 35.98046875 -0.1328125 C37.27879639 -0.13168457 38.57712402 -0.13055664 39.91479492 -0.12939453 C44.04377633 0.04377633 44.04377633 0.04377633 46 2 C46.66 1.34 47.32 0.68 48 0 C50.68839385 -0.26991906 53.29141936 -0.08737357 56 0 C56.495 4.455 56.495 4.455 57 9 C58.32 8.67 59.64 8.34 61 8 C64.33333333 8 67.66666667 8 71 8 C69.35 9.98 67.7 11.96 66 14 C67.175625 14.61875 67.175625 14.61875 68.375 15.25 C72.00197706 17.66798471 72.67899504 19.58757816 73.625 23.75 C73.74875 24.4925 73.8725 25.235 74 26 C74.804375 25.67 75.60875 25.34 76.4375 25 C79 24 79 24 80 24 C80.1875 26.375 80.1875 26.375 80 29 C77 31 77 31 74 31 C73.5978125 30.05640625 73.5978125 30.05640625 73.1875 29.09375 C68.42115711 18.68305368 61.7834976 12.02412062 51 8 C36.10804543 3.06835381 22.07986562 2.48856861 6.85546875 6.34375 C4 7 4 7 0 7 C0 4.69 0 2.38 0 0 Z " fill="#200E55" transform="translate(128,16)"/>
<path d="M0 0 C-0.33 0.99 -0.66 1.98 -1 3 C-0.76410156 3.93972656 -0.76410156 3.93972656 -0.5234375 4.8984375 C0.09720104 7.39025491 -0.20573499 9.10118904 -0.625 11.625 C-1.36251486 18.50510436 -0.22774923 24.0486708 3.984375 29.62890625 C5.92632888 31.82909868 7.90802402 33.94280747 10 36 C9.01 36.495 9.01 36.495 8 37 C6.53515625 35.69791667 5.0703125 34.39583333 3.60546875 33.09375 C1.910552 31.71848759 1.910552 31.71848759 -1 32 C-1.33 30.02 -1.66 28.04 -2 26 C-4.97 26.66 -7.94 27.32 -11 28 C-10.34 28.99 -9.68 29.98 -9 31 C-9.33 31.99 -9.66 32.98 -10 34 C-15.58957322 24.8207926 -16.97120053 17.54060458 -17 7 C-16.34 7 -15.68 7 -15 7 C-14.67 8.32 -14.34 9.64 -14 11 C-13.34 11 -12.68 11 -12 11 C-12 10.01 -12 9.02 -12 8 C-10.02 7.67 -8.04 7.34 -6 7 C-4.95550089 3.86650268 -5.06576355 3.01031744 -6 0 C-3.50907189 -1.24546405 -2.58919267 -0.7767578 0 0 Z " fill="#5626B6" transform="translate(140,101)"/>
<path d="M0 0 C3.33333333 1.66666667 6.66666667 3.33333333 10 5 C10 5.66 10 6.32 10 7 C11.32 7.66 12.64 8.32 14 9 C12.68 10.32 11.36 11.64 10 13 C11.32 13.33 12.64 13.66 14 14 C14 14.99 14 15.98 14 17 C15.32 17.33 16.64 17.66 18 18 C16.68 18 15.36 18 14 18 C14 18.66 14 19.32 14 20 C15.98 19.67 17.96 19.34 20 19 C20.66 19.99 21.32 20.98 22 22 C21.34 22.33 20.68 22.66 20 23 C20.66 23.66 21.32 24.32 22 25 C13.74447081 25.34937193 6.7629761 24.94397288 -1 22 C-3.20524478 14.29075585 -3.96993564 7.24025147 0 0 Z " fill="#A497CF" transform="translate(154,118)"/>
<path d="M0 0 C1.54300781 -0.03867187 1.54300781 -0.03867187 3.1171875 -0.078125 C6.81379068 0.3251408 9.47728721 1.60228721 12.125 4.25 C11.42732558 10.64534884 11.42732558 10.64534884 10.125 13.25 C9.465 13.25 8.805 13.25 8.125 13.25 C8.125 13.91 8.125 14.57 8.125 15.25 C6.53165761 16.68549726 4.87248918 18.04827327 3.1875 19.375 C-1.98633163 23.51004419 -6.9679575 27.80337136 -11.875 32.25 C-12.535 31.26 -13.195 30.27 -13.875 29.25 C-13.38 28.693125 -12.885 28.13625 -12.375 27.5625 C-10.62745633 24.86837017 -10.61281251 23.39624993 -10.875 20.25 C-8.565 20.25 -6.255 20.25 -3.875 20.25 C-2.69658072 16.71474216 -2.96100973 14.8297952 -3.875 11.25 C-4.865 10.59 -5.855 9.93 -6.875 9.25 C-5.885 8.59 -4.895 7.93 -3.875 7.25 C-3.545 6.26 -3.215 5.27 -2.875 4.25 C-3.865 4.25 -4.855 4.25 -5.875 4.25 C-5.875 3.59 -5.875 2.93 -5.875 2.25 C-6.865 1.92 -7.855 1.59 -8.875 1.25 C-5.71490467 0.19663489 -3.3196864 0.04967112 0 0 Z " fill="#A398D1" transform="translate(146.875,51.75)"/>
<path d="M0 0 C1.69141656 0.08963062 3.37959602 0.24577676 5.0625 0.4375 C6.44115234 0.59025391 6.44115234 0.59025391 7.84765625 0.74609375 C8.55792969 0.82988281 9.26820313 0.91367188 10 1 C10 4.76687864 9.76462683 5.91190305 8 9 C8.99 9.33 9.98 9.66 11 10 C6.91490639 11.90637702 2.80217023 12.71484962 -1.59765625 13.53515625 C-3.92248354 13.94315598 -3.92248354 13.94315598 -5.83203125 14.55078125 C-9.08126535 15.22404597 -12.32244303 15.14398021 -15.625 15.125 C-16.305625 15.12886719 -16.98625 15.13273438 -17.6875 15.13671875 C-22.74655878 15.12672061 -22.74655878 15.12672061 -25 14 C-25 13.34 -25 12.68 -25 12 C-24.278125 11.773125 -23.55625 11.54625 -22.8125 11.3125 C-19.81240915 10.13408235 -19.81240915 10.13408235 -17.625 7.375 C-15 5 -15 5 -11.1875 4.6875 C-10.135625 4.790625 -9.08375 4.89375 -8 5 C-7.67 3.68 -7.34 2.36 -7 1 C-5.5459375 1.0309375 -5.5459375 1.0309375 -4.0625 1.0625 C-1.12534105 1.35618499 -1.12534105 1.35618499 0 0 Z " fill="#6128D1" transform="translate(216,125)"/>
<path d="M0 0 C1 4.75 1 4.75 1 7 C-6.16754255 10.35734564 -11.93526769 12.56594613 -20 12 C-24.06256469 10.43747512 -26.91887229 8.91741687 -29 5 C-28.67 4.01 -28.34 3.02 -28 2 C-24.98860603 0.49430301 -21.81084868 0.62139408 -18.5 0.4375 C-17.42492187 0.37381226 -17.42492187 0.37381226 -16.328125 0.30883789 C-10.88234427 0.00459407 -5.45428338 -0.11800132 0 0 Z " fill="#5B25C2" transform="translate(186,113)"/>
<path d="M0 0 C0 1.98 0 3.96 0 6 C0.598125 5.773125 1.19625 5.54625 1.8125 5.3125 C2.8953125 5.1578125 2.8953125 5.1578125 4 5 C5.75 6.3125 5.75 6.3125 7 8 C7 8.66 7 9.32 7 10 C7.721875 9.938125 8.44375 9.87625 9.1875 9.8125 C12.58999583 10.03933306 14.12073415 11.21759733 17 13 C23.47814826 15.4293056 30.13720165 15.60784009 37 16 C37 16.33 37 16.66 37 17 C21.16 17 5.32 17 -11 17 C-10.01 16.34 -9.02 15.68 -8 15 C-7.34 15.33 -6.68 15.66 -6 16 C-5.67 15.34 -5.34 14.68 -5 14 C-4.67 14.33 -4.34 14.66 -4 15 C-1.67182036 15.36760731 0.6618385 15.70241581 3 16 C3 14.68 3 13.36 3 12 C-0.3 11.67 -3.6 11.34 -7 11 C-7 11.66 -7 12.32 -7 13 C-7.66 13 -8.32 13 -9 13 C-8.93489583 11.046875 -8.86979167 9.09375 -8.8046875 7.140625 C-9.02751458 4.69844025 -9.79085 3.11363229 -11 1 C-9.5437328 0.63743142 -8.08488815 0.28520207 -6.625 -0.0625 C-5.40683594 -0.35833984 -5.40683594 -0.35833984 -4.1640625 -0.66015625 C-2 -1 -2 -1 0 0 Z " fill="#6228CF" transform="translate(139,127)"/>
<path d="M0 0 C6.875 2.75 6.875 2.75 8 5 C8.01976936 6.43751503 7.99303159 7.87592194 7.9375 9.3125 C7.88393323 13.00265498 8.27801153 15.66364735 10 19 C10.99 18.67 11.98 18.34 13 18 C13.33 15.36 13.66 12.72 14 10 C15.32 10.33 16.64 10.66 18 11 C16.17549241 19.59038988 12.10667219 25.94041992 7 33 C5.0625 32.625 5.0625 32.625 3 32 C1.53492526 29.06985053 2.02343351 26.51366977 2.125 23.25 C2.26039714 16.35904263 1.24498203 10.33339527 -0.44140625 3.6328125 C-0.62574219 2.76398437 -0.81007812 1.89515625 -1 1 C-0.67 0.67 -0.34 0.34 0 0 Z " fill="#C8C0E0" transform="translate(184,54)"/>
<path d="M0 0 C0 0.99 0 1.98 0 3 C1.32 2.67 2.64 2.34 4 2 C3.67 2.99 3.34 3.98 3 5 C2.34 5 1.68 5 1 5 C1.33 5.99 1.66 6.98 2 8 C1.01 8.495 1.01 8.495 0 9 C-4.20652198 11.80434799 -7.51503815 15.35938229 -11 19 C-11.99 18.67 -12.98 18.34 -14 18 C-15.32 19.98 -16.64 21.96 -18 24 C-17.34 24 -16.68 24 -16 24 C-16 24.66 -16 25.32 -16 26 C-17.32 26 -18.64 26 -20 26 C-20 21.71 -20 17.42 -20 13 C-19.01 12.67 -18.02 12.34 -17 12 C-17 11.34 -17 10.68 -17 10 C-16.34 10 -15.68 10 -15 10 C-14.67 9.34 -14.34 8.68 -14 8 C-10.72730347 2.83258442 -6.31844583 -0.74334657 0 0 Z " fill="#672DDA" transform="translate(20,136)"/>
<path d="M0 0 C-0.33 0.99 -0.66 1.98 -1 3 C-3.475 2.01 -3.475 2.01 -6 1 C-6.5534764 3.07553648 -7 4.84365964 -7 7 C-7 10 -7 10 -7.625 13 C-8.3540441 16.17702205 -8.3540441 16.17702205 -6 19 C-2.43230448 19.73606499 -2.43230448 19.73606499 1 20 C0.96519531 20.94359375 0.96519531 20.94359375 0.9296875 21.90625 C0.80815919 27.67016398 1.36226294 32.47263742 3 38 C-3.06418964 35.97156026 -6.36896219 32.13678135 -10 27 C-13.23109527 20.44430509 -13.59894004 14.07927652 -12 7 C-10.75322739 3.67527305 -9.9360697 1.71765344 -7.125 -0.4375 C-4.4561719 -1.1439545 -2.63339607 -0.73149891 0 0 Z " fill="#E8DFF5" transform="translate(151,101)"/>
<path d="M0 0 C2.15120281 3.8990551 2 6.52357961 2 11 C3.65 11 5.3 11 7 11 C6.43697042 14.94120709 5.3208055 17.7508723 3 21 C2.34 21 1.68 21 1 21 C1 20.34 1 19.68 1 19 C0.34 19 -0.32 19 -1 19 C-1.66 20.32 -2.32 21.64 -3 23 C-3.33 21.68 -3.66 20.36 -4 19 C-4.4125 19.61875 -4.825 20.2375 -5.25 20.875 C-7.07515423 23.0912587 -8.44745809 23.80881377 -11 25 C-11.33 25.66 -11.66 26.32 -12 27 C-12.99 27 -13.98 27 -15 27 C-15.6875 25.1875 -15.6875 25.1875 -16 23 C-14.47687576 20.91572472 -13.3118403 20.11006128 -10.875 19.25 C-8.56275068 18.02555987 -8.56275068 18.02555987 -8.25 14.375 C-8.1675 13.26125 -8.085 12.1475 -8 11 C-6.35 11 -4.7 11 -3 11 C-2.67 9.68 -2.34 8.36 -2 7 C-3.65 7.33 -5.3 7.66 -7 8 C-7.33 6.35 -7.66 4.7 -8 3 C-5.36 2.01 -2.72 1.02 0 0 Z M0 21 C0.33 22.32 0.66 23.64 1 25 C0.34 25 -0.32 25 -1 25 C-0.67 23.68 -0.34 22.36 0 21 Z " fill="#5623BE" transform="translate(304,101)"/>
<path d="M0 0 C0.99 0.33 1.98 0.66 3 1 C1.54744301 4.82946843 -0.42895561 6.12050295 -4 8 C-1.525 8.495 -1.525 8.495 1 9 C1.495 10.485 1.495 10.485 2 12 C0.25215171 12.36463732 -1.49840502 12.7163078 -3.25 13.0625 C-4.71179688 13.35833984 -4.71179688 13.35833984 -6.203125 13.66015625 C-8.868119 13.98397535 -10.48871723 13.85503199 -13 13 C-12.95875 13.78375 -12.9175 14.5675 -12.875 15.375 C-13 18 -13 18 -15 20 C-16.98828125 20.5625 -16.98828125 20.5625 -19.3125 21 C-24.32809518 21.99600569 -24.32809518 21.99600569 -29 24 C-29.88693303 26.04105639 -29.88693303 26.04105639 -30 28 C-31.98 28 -33.96 28 -36 28 C-32.01554918 23.77430313 -27.6771322 20.36768459 -23 16.9375 C-21.60362681 15.90567811 -20.20778129 14.87314169 -18.8125 13.83984375 C-18.15572266 13.35507568 -17.49894531 12.87030762 -16.82226562 12.37084961 C-15.23876065 11.17961429 -13.69363967 9.93768501 -12.15625 8.6875 C-10 7 -10 7 -7.5 6.0625 C-4.24868882 4.68069275 -2.37131591 2.57457156 0 0 Z " fill="#4E24A5" transform="translate(197,83)"/>
<path d="M0 0 C1.65 0 3.3 0 5 0 C5 0.99 5 1.98 5 3 C6.98 2.34 8.96 1.68 11 1 C11.4125 2.175625 11.825 3.35125 12.25 4.5625 C14.77275525 11.24662257 18.29363189 16.63996965 23 22 C19.15226983 21.45032426 17.67967752 19.67967752 15 17 C14.01 17 13.02 17 12 17 C11.67 15.02 11.34 13.04 11 11 C9.14375 11.61875 9.14375 11.61875 7.25 12.25 C3.37614679 13.19266055 3.37614679 13.19266055 0.4375 11.6875 C-1.69556441 7.69959697 -0.84966324 4.32219996 0 0 Z " fill="#5923C3" transform="translate(127,116)"/>
<path d="M0 0 C2 1 2 1 2 1 Z M-1 2 C-2.22802821 6.91211284 -3.62397804 9.35403323 -8 12 C-9.66621616 12.03874921 -11.33394172 12.0450286 -13 12 C-15.10232344 14.8684413 -15.10232344 14.8684413 -16 18 C-18 20 -18 20 -20 20.25 C-20.66 20.4975 -21.32 20.745 -22 21 C-22.70381157 22.98723268 -23.3711811 24.98777953 -24 27 C-24.99 27.33 -25.98 27.66 -27 28 C-25.37723227 17.69815994 -17.8578204 9.41851666 -10 3 C-6.9670426 1.90013633 -4.21453112 1.91070747 -1 2 Z " fill="#422092" transform="translate(150,75)"/>
<path d="M0 0 C2.44921875 0.8359375 2.44921875 0.8359375 5 2 C5.8125 4.625 5.8125 4.625 6 7 C6.99 7.33 7.98 7.66 9 8 C2.09286262 16.40368381 2.09286262 16.40368381 -1 18 C-3.75 17.6875 -3.75 17.6875 -6 17 C-7.17333576 13.54410943 -7.12228996 12.26557247 -5.56640625 8.88671875 C-4.90511719 7.83097656 -4.24382812 6.77523437 -3.5625 5.6875 C-2.90378906 4.61886719 -2.24507813 3.55023438 -1.56640625 2.44921875 C-1.04949219 1.64097656 -0.53257813 0.83273438 0 0 Z " fill="#C1B5DC" transform="translate(103,44)"/>
<path d="M0 0 C0 0.33 0 0.66 0 1 C5.94 1.33 11.88 1.66 18 2 C18 2.33 18 2.66 18 3 C1.95671093 4.61636567 -13.87783332 5.28079872 -30 5 C-30 3.68 -30 2.36 -30 1 C-19.97562315 0.27095441 -10.05610192 -0.14141393 0 0 Z " fill="#6B30E3" transform="translate(158,143)"/>
<path d="M0 0 C2.31 0.66 4.62 1.32 7 2 C7.33 1.34 7.66 0.68 8 0 C8 0.66 8 1.32 8 2 C8.99 2 9.98 2 11 2 C11.12375 2.94875 11.2475 3.8975 11.375 4.875 C11.71687177 8.08667191 11.71687177 8.08667191 14 10 C13.01 10.33 12.02 10.66 11 11 C10.01 12.485 10.01 12.485 9 14 C6.69 13.34 4.38 12.68 2 12 C2.33 11.34 2.66 10.68 3 10 C3.039992 8.00039988 3.04346799 5.99952758 3 4 C0.81668311 5.76136355 0.81668311 5.76136355 0.8046875 7.9453125 C0.82789063 8.66460937 0.85109375 9.38390625 0.875 10.125 C0.91625 11.40375 0.9575 12.6825 1 14 C-1.07553648 14.5534764 -2.84365964 15 -5 15 C-5 15.99 -5 16.98 -5 18 C-5.66 18 -6.32 18 -7 18 C-7 18.66 -7 19.32 -7 20 C-7.66 19.67 -8.32 19.34 -9 19 C-8.43410156 17.87980469 -7.86820313 16.75960937 -7.28515625 15.60546875 C-6.54416494 14.13286578 -5.80328534 12.66020659 -5.0625 11.1875 C-4.50272461 10.08051758 -4.50272461 10.08051758 -3.93164062 8.95117188 C-3.57392578 8.23896484 -3.21621094 7.52675781 -2.84765625 6.79296875 C-2.51773682 6.1383667 -2.18781738 5.48376465 -1.84790039 4.80932617 C-0.88166321 2.83869379 -0.88166321 2.83869379 0 0 Z " fill="#5122BB" transform="translate(214,102)"/>
<path d="M0 0 C0.886875 0.185625 1.77375 0.37125 2.6875 0.5625 C5.96127027 0.99488475 7.81855004 0.64465915 11 0 C15.16458638 -0.21736218 19.33027342 -0.1851173 23.5 -0.1875 C24.62792969 -0.19974609 25.75585938 -0.21199219 26.91796875 -0.22460938 C28.55185547 -0.22750977 28.55185547 -0.22750977 30.21875 -0.23046875 C31.7027832 -0.23663208 31.7027832 -0.23663208 33.21679688 -0.24291992 C36.18110988 0.0158074 38.30012681 0.78352691 41 2 C41.99 2.33 42.98 2.66 44 3 C41.48437552 4.25781224 39.85713011 4.06766749 37.046875 3.9921875 C36.04108398 3.97349609 35.03529297 3.95480469 33.99902344 3.93554688 C32.9268457 3.91556641 31.85466797 3.89558594 30.75 3.875 C22.31771008 3.77983308 14.77931589 4.14884051 6.609375 6.34375 C4 7 4 7 0 7 C0 4.69 0 2.38 0 0 Z " fill="#180B48" transform="translate(128,16)"/>
<path d="M0 0 C2.30441554 3.45662331 2.25860135 4.94857881 2 9 C1.67 9.66 1.34 10.32 1 11 C1.66 11 2.32 11 3 11 C2.67 12.65 2.34 14.3 2 16 C3.32 16 4.64 16 6 16 C6.3403125 16.70125 6.680625 17.4025 7.03125 18.125 C10.15198924 24.23368106 13.40053071 28.89561806 18.4609375 33.5390625 C18.96882813 34.02117187 19.47671875 34.50328125 20 35 C20 35.33 20 35.66 20 36 C18.35 36 16.7 36 15 36 C15 35.01 15 34.02 15 33 C14.236875 32.814375 13.47375 32.62875 12.6875 32.4375 C8.81384272 30.36554378 8.43454737 28.07713462 7 24 C5.35 24.99 3.7 25.98 2 27 C1.67 25.68 1.34 24.36 1 23 C-0.65 22.67 -2.3 22.34 -4 22 C-2.68 21.67 -1.36 21.34 0 21 C0 17.04 0 13.08 0 9 C-0.66 9 -1.32 9 -2 9 C-2.33 7.68 -2.66 6.36 -3 5 C-2.01 4.67 -1.02 4.34 0 4 C0 2.68 0 1.36 0 0 Z " fill="#5829BD" transform="translate(96,99)"/>
<path d="M0 0 C0.66 0.99 1.32 1.98 2 3 C1.67 3.33 1.34 3.66 1 4 C1.66 4.33 2.32 4.66 3 5 C3.144375 5.78375 3.28875 6.5675 3.4375 7.375 C4.06600031 10.30800143 4.84812304 11.03748822 7 13 C5.90241493 13.84198307 4.79664683 14.67330671 3.6875 15.5 C3.07261719 15.9640625 2.45773438 16.428125 1.82421875 16.90625 C0 18 0 18 -3 18 C-3 17.01 -3 16.02 -3 15 C-2.34 15 -1.68 15 -1 15 C-1 14.34 -1 13.68 -1 13 C-1.66 13 -2.32 13 -3 13 C-3.33 11.68 -3.66 10.36 -4 9 C-5.134375 8.87625 -6.26875 8.7525 -7.4375 8.625 C-9.2009375 8.315625 -9.2009375 8.315625 -11 8 C-11.33 7.34 -11.66 6.68 -12 6 C-8.04 4.02 -4.08 2.04 0 0 Z " fill="#C9C1E1" transform="translate(188,118)"/>
<path d="M0 0 C2.625 -0.1875 2.625 -0.1875 5 0 C6.3461836 4.44897263 5.58477471 6.91767179 3.75 11.125 C3.31171875 12.15882812 2.8734375 13.19265625 2.421875 14.2578125 C1.15034162 16.71005545 0.07866147 18.22702404 -2 20 C-4 19 -4 19 -4.6875 17.125 C-5 15 -5 15 -4 12 C-4.33 11.01 -4.66 10.02 -5 9 C-4.34 8.34 -3.68 7.68 -3 7 C-2.65657551 5.66923011 -2.32380126 4.33568021 -2 3 C-1.34 2.01 -0.68 1.02 0 0 Z " fill="#F9F1F7" transform="translate(209,97)"/>
<path d="M0 0 C1.1875 2.0625 1.1875 2.0625 2 4 C2.66 4 3.32 4 4 4 C4.33 2.35 4.66 0.7 5 -1 C5.99 -0.67 6.98 -0.34 8 0 C8.33 0.99 8.66 1.98 9 3 C8.35933594 3.42410156 7.71867187 3.84820312 7.05859375 4.28515625 C-0.73296387 9.56855225 -7.0763554 14.92522286 -12 23 C-12.66 22.67 -13.32 22.34 -14 22 C-13.67 20.35 -13.34 18.7 -13 17 C-12.34 17 -11.68 17 -11 17 C-10.54625 16.195625 -10.0925 15.39125 -9.625 14.5625 C-8 12 -8 12 -5.8125 11.1875 C-5.214375 11.125625 -4.61625 11.06375 -4 11 C-4 10.01 -4 9.02 -4 8 C-2.68 7.67 -1.36 7.34 0 7 C0 6.34 0 5.68 0 5 C-1.1446875 5.5259375 -1.1446875 5.5259375 -2.3125 6.0625 C-5 7 -5 7 -8 6 C-7.75 3.625 -7.75 3.625 -7 1 C-4.12732844 -1.10662581 -3.46720491 -1.15573497 0 0 Z " fill="#351879" transform="translate(119,56)"/>
<path d="M0 0 C0.66 0.33 1.32 0.66 2 1 C1.649375 1.5775 1.29875 2.155 0.9375 2.75 C-0.18013646 5.4323275 0.15429611 6.29374754 1 9 C1 10.32 1 11.64 1 13 C1.268125 13.639375 1.53625 14.27875 1.8125 14.9375 C1.874375 15.618125 1.93625 16.29875 2 17 C-0.4375 19.75 -0.4375 19.75 -3 22 C-5.09749995 19.64031256 -5.96905704 18.45383006 -6.1875 15.25 C-6.0946875 14.13625 -6.0946875 14.13625 -6 13 C-6.99 13.33 -7.98 13.66 -9 14 C-7.64002446 7.95566426 -4.14348206 4.36505864 0 0 Z " fill="#E3DCF0" transform="translate(205,102)"/>
<path d="M0 0 C0.66 0.33 1.32 0.66 2 1 C1.23883449 2.15227823 0.46567307 3.2966386 -0.3125 4.4375 C-0.74175781 5.07558594 -1.17101562 5.71367188 -1.61328125 6.37109375 C-3 8 -3 8 -6 9 C-7.68029994 9.97691857 -9.34928604 10.97388051 -11 12 C-10.79375 12.61875 -10.5875 13.2375 -10.375 13.875 C-10.25125 14.57625 -10.1275 15.2775 -10 16 C-10.66 16.66 -11.32 17.32 -12 18 C-14.9425963 17.69347955 -17.34542308 17.32728846 -20 16 C-18.89014746 12.67044238 -18.22791603 12.14115079 -15.5078125 10.1171875 C-14.45013672 9.32634766 -14.45013672 9.32634766 -13.37109375 8.51953125 C-12.62988281 7.97683594 -11.88867188 7.43414062 -11.125 6.875 C-10.39152344 6.32457031 -9.65804687 5.77414063 -8.90234375 5.20703125 C-3.41336496 1.13778832 -3.41336496 1.13778832 0 0 Z " fill="#DCD2F2" transform="translate(171,78)"/>
<path d="M0 0 C-0.33 0.99 -0.66 1.98 -1 3 C-3.475 2.01 -3.475 2.01 -6 1 C-6.5534764 3.07553648 -7 4.84365964 -7 7 C-7 10 -7 10 -7.625 12.8125 C-8.05605748 16.47648857 -7.28940921 18.58685796 -6 22 C-6 22.99 -6 23.98 -6 25 C-5.01 25 -4.02 25 -3 25 C-3 25.66 -3 26.32 -3 27 C-3.66 27 -4.32 27 -5 27 C-5.33 27.66 -5.66 28.32 -6 29 C-6.81837442 27.58671871 -7.62946219 26.16921654 -8.4375 24.75 C-8.88996094 23.96109375 -9.34242188 23.1721875 -9.80859375 22.359375 C-12.30728582 17.41114547 -12.53013508 12.46228466 -12 7 C-10.78925897 3.67046217 -9.93599967 1.71759975 -7.125 -0.4375 C-4.4561719 -1.1439545 -2.63339607 -0.73149891 0 0 Z " fill="#F3EDFA" transform="translate(151,101)"/>
<path d="M0 0 C1.9375 0.875 1.9375 0.875 3.9375 3.875 C4.2675 3.215 4.5975 2.555 4.9375 1.875 C6.5875 1.875 8.2375 1.875 9.9375 1.875 C9.9375 3.195 9.9375 4.515 9.9375 5.875 C6.63615082 8.44271603 5.20875508 8.875 0.9375 8.875 C0.6075 10.195 0.2775 11.515 -0.0625 12.875 C-0.0625 12.215 -0.0625 11.555 -0.0625 10.875 C-2.0425 10.875 -4.0225 10.875 -6.0625 10.875 C-5.45766129 3.49596774 -5.45766129 3.49596774 -3.75 0.8125 C-2.0625 -0.125 -2.0625 -0.125 0 0 Z " fill="#481EA6" transform="translate(139.0625,86.125)"/>
<path d="M0 0 C6.75 -0.125 6.75 -0.125 9 1 C10.67654729 0.72057545 12.34608154 0.39171753 14 0 C11.63271982 1.90909692 9.25754527 3.80346455 6.83984375 5.6484375 C2.60539507 8.88612948 -1.34880842 12.11324767 -5 16 C-5.99 15.67 -6.98 15.34 -8 15 C-8 13.02 -8 11.04 -8 9 C-6.865625 8.71125 -5.73125 8.4225 -4.5625 8.125 C-3.386875 7.75375 -2.21125 7.3825 -1 7 C-0.67 6.34 -0.34 5.68 0 5 C-0.33 4.34 -0.66 3.68 -1 3 C-0.67 2.01 -0.34 1.02 0 0 Z " fill="#23115A" transform="translate(113,24)"/>
<path d="M0 0 C2.97 0.33 5.94 0.66 9 1 C7.35 2.98 5.7 4.96 4 7 C4.78375 7.4125 5.5675 7.825 6.375 8.25 C10.00197706 10.66798471 10.67899504 12.58757816 11.625 16.75 C11.74875 17.4925 11.8725 18.235 12 19 C12.804375 18.67 13.60875 18.34 14.4375 18 C17 17 17 17 18 17 C18.1875 19.375 18.1875 19.375 18 22 C15 24 15 24 12 24 C11.69707031 23.33613281 11.39414063 22.67226563 11.08203125 21.98828125 C8.58508006 16.72547644 6.20416872 13.08738625 2 9 C1.1875 6.1875 1.1875 6.1875 1 4 C0.01 4 -0.98 4 -2 4 C-1.34 2.68 -0.68 1.36 0 0 Z " fill="#270C6B" transform="translate(190,23)"/>
<path d="M0 0 C0.66 0 1.32 0 2 0 C3.25664978 2.90600261 4 4.79604584 4 8 C2.4221875 8.0928125 2.4221875 8.0928125 0.8125 8.1875 C-3.7003766 9.14926059 -4.89199304 10.72841373 -8 14 C-10.8125 14.8125 -10.8125 14.8125 -13 15 C-13 15.66 -13 16.32 -13 17 C-17.455 18.485 -17.455 18.485 -22 20 C-22 19.34 -22 18.68 -22 18 C-20.0205826 16.70519313 -17.98901237 15.48974893 -15.9375 14.3125 C-9.38296836 10.44094361 -4.235938 6.353907 0 0 Z " fill="#5C2BBA" transform="translate(204,122)"/>
<path d="M0 0 C1.98 0 3.96 0 6 0 C5.01 1.485 5.01 1.485 4 3 C4.061875 3.78375 4.12375 4.5675 4.1875 5.375 C3.91240674 9.22630567 1.78382626 10.48130005 -1 13 C-1.99 14.485 -1.99 14.485 -3 16 C-2.34 16 -1.68 16 -1 16 C-1 16.66 -1 17.32 -1 18 C-2.32 18 -3.64 18 -5 18 C-5 13.71 -5 9.42 -5 5 C-4.01 4.67 -3.02 4.34 -2 4 C-2 3.34 -2 2.68 -2 2 C-1.34 2 -0.68 2 0 2 C0 1.34 0 0.68 0 0 Z " fill="#6C31E1" transform="translate(5,144)"/>
<path d="M0 0 C6.875 2.75 6.875 2.75 8 5 C8.07116382 7.37402501 8.08409085 9.75000677 8.0625 12.125 C8.05347656 13.40632813 8.04445312 14.68765625 8.03515625 16.0078125 C8.02355469 16.99523437 8.01195312 17.98265625 8 19 C6.68 19 5.36 19 4 19 C1.94075996 15.43005111 1.16489056 11.82497266 0.3125 7.8125 C-0.09548828 5.93498047 -0.09548828 5.93498047 -0.51171875 4.01953125 C-0.67285156 3.02308594 -0.83398438 2.02664062 -1 1 C-0.67 0.67 -0.34 0.34 0 0 Z " fill="#D2CAE9" transform="translate(184,54)"/>
<path d="M0 0 C2.94619748 0.32735528 5.35360372 0.62467313 7.9375 2.125 C9.6604047 5.16542006 8.71957124 7.70196515 8 11 C7.67 11.66 7.34 12.32 7 13 C6.34 13 5.68 13 5 13 C5 13.66 5 14.32 5 15 C2.5 16.625 2.5 16.625 0 18 C-0.99 17.34 -1.98 16.68 -3 16 C-3 15.01 -3 14.02 -3 13 C-1.68 13 -0.36 13 1 13 C2.34164079 12.7018576 3.67851173 12.37756808 5 12 C4.484375 11.62875 3.96875 11.2575 3.4375 10.875 C2 9 2 9 2.3125 5.8125 C2.539375 4.884375 2.76625 3.95625 3 3 C2.01 2.67 1.02 2.34 0 2 C0 1.34 0 0.68 0 0 Z " fill="#9785D0" transform="translate(150,52)"/>
<path d="M0 0 C0.66 0 1.32 0 2 0 C1.67 4.29 1.34 8.58 1 13 C1.66 13.33 2.32 13.66 3 14 C3.81640625 16.1796875 3.81640625 16.1796875 4.5625 18.875 C4.81128906 19.75929688 5.06007813 20.64359375 5.31640625 21.5546875 C5.54199219 22.36164063 5.76757812 23.16859375 6 24 C6.74378388 26.97670763 6.74378388 26.97670763 8.5625 28.5625 C9.036875 29.036875 9.51125 29.51125 10 30 C10 30.66 10 31.32 10 32 C10.99 32.33 11.98 32.66 13 33 C13 33.66 13 34.32 13 35 C14.485 34.505 14.485 34.505 16 34 C16.33 35.65 16.66 37.3 17 39 C8.80805383 35.47874029 4.29496872 27.42630035 0.91015625 19.578125 C-0.53341496 15.48903917 -1.13987313 11.70308052 -1.125 7.375 C-1.12757812 6.61960937 -1.13015625 5.86421875 -1.1328125 5.0859375 C-1 3 -1 3 0 0 Z " fill="#ECDBFB" transform="translate(100,95)"/>
<path d="M0 0 C1 3 1 3 -0.11328125 5.38671875 C-2.21147519 8.29291283 -4.48538433 10.46130845 -7.1875 12.8125 C-8.53908203 13.99779297 -8.53908203 13.99779297 -9.91796875 15.20703125 C-10.94857422 16.09455078 -10.94857422 16.09455078 -12 17 C-12.33 15.68 -12.66 14.36 -13 13 C-12.01 13 -11.02 13 -10 13 C-9.97421875 12.39671875 -9.9484375 11.7934375 -9.921875 11.171875 C-9.46078683 4.67472358 -9.46078683 4.67472358 -7.25 1.4375 C-4.59984971 -0.25565158 -3.08799987 -0.3431111 0 0 Z " fill="#CEC9E3" transform="translate(169,98)"/>
<path d="M0 0 C2.31 0 4.62 0 7 0 C8.71050559 4.97601626 7.00885647 8.42616295 5 13 C3.35 13 1.7 13 0 13 C0 12.01 0 11.02 0 10 C-0.66 9.67 -1.32 9.34 -2 9 C-1.34 9 -0.68 9 0 9 C-0.185625 7.88625 -0.37125 6.7725 -0.5625 5.625 C-1 2 -1 2 0 0 Z " fill="#422288" transform="translate(96,80)"/>
<path d="M0 0 C1.32 0.99 2.64 1.98 4 3 C2.04783565 4.95216435 0.46800047 5.84826645 -2 7 C-2 8.98 -2 10.96 -2 13 C-2.9075 12.814375 -3.815 12.62875 -4.75 12.4375 C-7.75415443 12.0330946 -9.19690563 12.13007416 -12 13 C-12.99 13 -13.98 13 -15 13 C-5.77448747 3.40546697 -5.77448747 3.40546697 0 0 Z " fill="#D3CBF0" transform="translate(122,27)"/>
<path d="M0 0 C1.9375 0.75 1.9375 0.75 4 2 C4.62890625 4.078125 4.62890625 4.078125 5 6 C3.92456217 6.98783194 2.83926783 7.96493943 1.75 8.9375 C1.14671875 9.48277344 0.5434375 10.02804688 -0.078125 10.58984375 C-2.08467305 12.06212799 -3.57002449 12.57529189 -6 13 C-5.67 10.69 -5.34 8.38 -5 6 C-5.99 5.34 -6.98 4.68 -8 4 C-6.68 4 -5.36 4 -4 4 C-4 3.34 -4 2.68 -4 2 C-2.68 2 -1.36 2 0 2 C0 1.34 0 0.68 0 0 Z " fill="#5926B9" transform="translate(192,106)"/>
<path d="M0 0 C0.99 0.33 1.98 0.66 3 1 C3.33 1.99 3.66 2.98 4 4 C3.01 5.485 3.01 5.485 2 7 C3.32 7.66 4.64 8.32 6 9 C3 11 3 11 0 11 C-0.33 11.99 -0.66 12.98 -1 14 C-2.32 14 -3.64 14 -5 14 C-5 11.03 -5 8.06 -5 5 C-4.01 4.67 -3.02 4.34 -2 4 C-0.79117904 1.99983534 -0.79117904 1.99983534 0 0 Z " fill="#5123B3" transform="translate(85,100)"/>
<path d="M0 0 C0.33 0 0.66 0 1 0 C0.8864371 1.64666203 0.75882619 3.29236082 0.625 4.9375 C0.55539063 5.85402344 0.48578125 6.77054687 0.4140625 7.71484375 C0.27742187 8.46894531 0.14078125 9.22304687 0 10 C-0.99 10.495 -0.99 10.495 -2 11 C-3.05352843 13.30965848 -4.05719096 15.6429774 -5 18 C-5.66 18 -6.32 18 -7 18 C-7.061875 18.556875 -7.12375 19.11375 -7.1875 19.6875 C-8.33373872 22.94987173 -10.49390197 24.68667874 -13 27 C-11.71740434 23.65461223 -10.25588724 20.5296591 -8.5625 17.375 C-5.87732794 12.09998743 -4.34366083 6.74606175 -3 1 C-2.01 1.33 -1.02 1.66 0 2 C0 1.34 0 0.68 0 0 Z " fill="#3B1F7F" transform="translate(206,58)"/>
<path d="M0 0 C0.66 0 1.32 0 2 0 C2.33 0.99 2.66 1.98 3 3 C1.02 3.99 1.02 3.99 -1 5 C-1 5.66 -1 6.32 -1 7 C0.32 7 1.64 7 3 7 C1.58333333 11.25 1.58333333 11.25 -1 13 C-3.71836308 13.25786843 -6.25839624 13.13483297 -9 13 C-8.875 11.3125 -8.875 11.3125 -8 9 C-6.01739574 7.31267723 -4.0167658 5.64633943 -2 4 C-0.62745412 1.85019503 -0.62745412 1.85019503 0 0 Z " fill="#6B30E3" transform="translate(35,149)"/>
<path d="M0 0 C4.37147442 0.39740677 7.47774525 1.35830894 11 4 C12.3125 6.1875 12.3125 6.1875 13 8 C7.375 9.125 7.375 9.125 4 8 C3.34 8.66 2.68 9.32 2 10 C1 4.25 1 4.25 1 2 C0.34 1.67 -0.32 1.34 -1 1 C-0.67 0.67 -0.34 0.34 0 0 Z " fill="#F7F5FB" transform="translate(175,23)"/>
<path d="M0 0 C2.01822917 0.06510417 4.03645833 0.13020833 6.0546875 0.1953125 C6.0546875 3.1953125 6.0546875 6.1953125 6.0546875 9.1953125 C5.3946875 8.8653125 4.7346875 8.5353125 4.0546875 8.1953125 C4.0546875 7.5353125 4.0546875 6.8753125 4.0546875 6.1953125 C3.3946875 6.1953125 2.7346875 6.1953125 2.0546875 6.1953125 C1.8071875 6.8140625 1.5596875 7.4328125 1.3046875 8.0703125 C-0.15159889 10.54599937 -1.32343756 11.14656252 -3.9453125 12.1953125 C-3.9453125 11.5353125 -3.9453125 10.8753125 -3.9453125 10.1953125 C-4.6053125 9.8653125 -5.2653125 9.5353125 -5.9453125 9.1953125 C-4.6253125 8.2053125 -3.3053125 7.2153125 -1.9453125 6.1953125 C-2.6053125 4.8753125 -3.2653125 3.5553125 -3.9453125 2.1953125 C-1.9453125 0.1953125 -1.9453125 0.1953125 0 0 Z " fill="#5C25C8" transform="translate(233.9453125,118.8046875)"/>
<path d="M0 0 C1.60031344 3.20062687 0.03173691 5.72271806 -1 9 C-0.0409375 9.1546875 -0.0409375 9.1546875 0.9375 9.3125 C1.618125 9.539375 2.29875 9.76625 3 10 C3.33 10.99 3.66 11.98 4 13 C2.3125 14.5625 2.3125 14.5625 0 16 C-2.75 15.6875 -2.75 15.6875 -5 15 C-6.00772958 11.8040576 -6.19442012 10.42822437 -4.78515625 7.32421875 C-4.21667969 6.45410156 -3.64820312 5.58398438 -3.0625 4.6875 C-2.21365234 3.36298828 -2.21365234 3.36298828 -1.34765625 2.01171875 C-0.90292969 1.34785156 -0.45820312 0.68398438 0 0 Z " fill="#AC9ED6" transform="translate(102,46)"/>
<path d="M0 0 C-2.12342658 1.64789866 -4.2486449 3.29338788 -6.375 4.9375 C-6.97828125 5.40607422 -7.5815625 5.87464844 -8.203125 6.35742188 C-12.7734375 9.88671875 -12.7734375 9.88671875 -15 11 C-15.66 10.34 -16.32 9.68 -17 9 C-16.34 9 -15.68 9 -15 9 C-15 7.35 -15 5.7 -15 4 C-14.01 4 -13.02 4 -12 4 C-11.67 2.68 -11.34 1.36 -11 0 C-3.375 -1.125 -3.375 -1.125 0 0 Z " fill="#401F8D" transform="translate(168,80)"/>
<path d="M0 0 C0.886875 0.185625 1.77375 0.37125 2.6875 0.5625 C5.91350693 1.1863549 5.91350693 1.1863549 8.6875 0.375 C9.8321875 0.189375 9.8321875 0.189375 11 0 C12.8125 1.4375 12.8125 1.4375 14 3 C13.34 3 12.68 3 12 3 C12 3.66 12 4.32 12 5 C7.73383684 6.13764351 4.43513689 7 0 7 C0 4.69 0 2.38 0 0 Z " fill="#210E5B" transform="translate(128,16)"/>
<path d="M0 0 C1.32 0 2.64 0 4 0 C4 0.66 4 1.32 4 2 C5.32 2.66 6.64 3.32 8 4 C8 4.99 8 5.98 8 7 C8.99 7.66 9.98 8.32 11 9 C11 9.66 11 10.32 11 11 C4.375 10.25 4.375 10.25 1 8 C0.29947539 5.336937 0.22255182 2.75964263 0 0 Z " fill="#998EC6" transform="translate(152,131)"/>
<path d="M0 0 C-0.33 1.65 -0.66 3.3 -1 5 C-1.66 5 -2.32 5 -3 5 C-2.979375 6.11375 -2.95875 7.2275 -2.9375 8.375 C-3 12 -3 12 -4 14 C-4.66 14 -5.32 14 -6 14 C-6.33 13.34 -6.66 12.68 -7 12 C-7.99 11.67 -8.98 11.34 -10 11 C-10 10.34 -10 9.68 -10 9 C-10.66 8.67 -11.32 8.34 -12 8 C-10.02 7.67 -8.04 7.34 -6 7 C-4.95550089 3.86650268 -5.06576355 3.01031744 -6 0 C-3.50907189 -1.24546405 -2.58919267 -0.7767578 0 0 Z " fill="#5320BB" transform="translate(140,101)"/>
<path d="M0 0 C0.33 0 0.66 0 1 0 C1.33 3.3 1.66 6.6 2 10 C2.99 10.33 3.98 10.66 5 11 C5.66 8.69 6.32 6.38 7 4 C8.32 3.67 9.64 3.34 11 3 C11 6.63195496 10.04546845 7.74713911 8 10.6875 C7.443125 11.49574219 6.88625 12.30398437 6.3125 13.13671875 C5.879375 13.75160156 5.44625 14.36648437 5 15 C3.0625 14.625 3.0625 14.625 1 14 C-0.38226016 11.23547967 -0.09525387 8.9538637 -0.0625 5.875 C-0.05347656 4.77929688 -0.04445312 3.68359375 -0.03515625 2.5546875 C-0.02355469 1.71164063 -0.01195312 0.86859375 0 0 Z " fill="#C2B4E7" transform="translate(186,72)"/>
<path d="M0 0 C4.54805635 -0.17835515 7.8794254 0.00214565 12 2 C12 2.66 12 3.32 12 4 C12.99 4.33 13.98 4.66 15 5 C15.33 6.65 15.66 8.3 16 10 C12.26135158 10 11.76357294 9.14037109 9.125 6.625 C6.22115254 3.97296219 3.85853726 2.0852136 0 1 C0 0.67 0 0.34 0 0 Z " fill="#DDD5F3" transform="translate(165,38)"/>
<path d="M0 0 C0.78052734 -0.00773437 1.56105469 -0.01546875 2.36523438 -0.0234375 C8.18414502 -0.00335498 8.18414502 -0.00335498 10.4375 2.25 C6.50768591 4.86987606 5.01725581 4.00077964 0.4375 3.25 C-3.64682913 3.03663952 -7.63906203 2.94218734 -11.5625 4.25 C-11.5625 3.59 -11.5625 2.93 -11.5625 2.25 C-7.69957629 -0.32528248 -4.47303122 -0.04454471 0 0 Z " fill="#F6F1FA" transform="translate(160.5625,19.75)"/>
<path d="M0 0 C0.66 0.33 1.32 0.66 2 1 C1.03644647 10.41002278 1.03644647 10.41002278 0 15 C-1.66666667 15 -3.33333333 15 -5 15 C-5 15.99 -5 16.98 -5 18 C-5.66 18 -6.32 18 -7 18 C-7 18.66 -7 19.32 -7 20 C-7.66 19.67 -8.32 19.34 -9 19 C-8.43410156 17.87980469 -7.86820313 16.75960937 -7.28515625 15.60546875 C-6.54416494 14.13286578 -5.80328534 12.66020659 -5.0625 11.1875 C-4.50272461 10.08051758 -4.50272461 10.08051758 -3.93164062 8.95117188 C-3.57392578 8.23896484 -3.21621094 7.52675781 -2.84765625 6.79296875 C-2.51773682 6.1383667 -2.18781738 5.48376465 -1.84790039 4.80932617 C-0.88166321 2.83869379 -0.88166321 2.83869379 0 0 Z " fill="#522D9A" transform="translate(214,102)"/>
<path d="M0 0 C0.71542969 0.20496094 1.43085938 0.40992188 2.16796875 0.62109375 C9.79060262 2.68206461 17.11966992 3.63140392 25 4 C25 4.33 25 4.66 25 5 C20.41667994 5.02901401 15.83338349 5.04680348 11.25 5.0625 C9.94804687 5.07087891 8.64609375 5.07925781 7.3046875 5.08789062 C5.42910156 5.09272461 5.42910156 5.09272461 3.515625 5.09765625 C1.78747559 5.10551147 1.78747559 5.10551147 0.02441406 5.11352539 C-2.51926964 5.01804485 -4.58398313 4.74917261 -7 4 C-6.67 3.01 -6.34 2.02 -6 1 C-3.69 1.33 -1.38 1.66 1 2 C0.67 1.34 0.34 0.68 0 0 Z " fill="#5C2BC1" transform="translate(151,139)"/>
<path d="M0 0 C18.34042553 -0.76595745 18.34042553 -0.76595745 27 4 C26.01 4.66 25.02 5.32 24 6 C22.1328125 5.57421875 22.1328125 5.57421875 20.125 4.6875 C15.73586045 2.88067752 12.23610398 1.97831397 7.4375 2.0625 C4.07940747 2.00144377 2.82482757 1.5762167 0 0 Z " fill="#25105B" transform="translate(144,37)"/>
<path d="M0 0 C0.99 0.33 1.98 0.66 3 1 C1.29711802 2.13323463 -0.41258523 3.25622235 -2.125 4.375 C-3.07632813 5.00148437 -4.02765625 5.62796875 -5.0078125 6.2734375 C-10.36754301 9.36612795 -14.71121805 10.25079147 -20.875 10.125 C-22.02742187 10.10695312 -23.17984375 10.08890625 -24.3671875 10.0703125 C-25.23601562 10.04710937 -26.10484375 10.02390625 -27 10 C-27 9.67 -27 9.34 -27 9 C-25.80375 8.938125 -24.6075 8.87625 -23.375 8.8125 C-16.14304386 8.01916936 -7.57298204 5.76577594 -1.76953125 1.2734375 C-0.89361328 0.64308594 -0.89361328 0.64308594 0 0 Z " fill="#BEA5F2" transform="translate(192,132)"/>
<path d="M0 0 C3.12357086 3.12357086 2.85811935 6.71133489 3 11 C2.80456238 14.35501247 2.45182663 17.67038531 2 21 C1.67 21 1.34 21 1 21 C0.67 17.7 0.34 14.4 0 11 C-0.66 11 -1.32 11 -2 11 C-2 10.01 -2 9.02 -2 8 C-2.66 7.34 -3.32 6.68 -4 6 C-2.68 4.02 -1.36 2.04 0 0 Z " fill="#A494C9" transform="translate(184,61)"/>
<path d="M0 0 C0 0.66 0 1.32 0 2 C-0.928125 2.3403125 -0.928125 2.3403125 -1.875 2.6875 C-4.61410209 4.37929835 -5.05024472 5.99244161 -6 9 C-8.90542812 7.6975667 -10.8092961 6.29113732 -13 4 C-4.738041 -0.59225513 -4.738041 -0.59225513 0 0 Z " fill="#BAAEE3" transform="translate(141,54)"/>
<path d="M0 0 C1.4606285 2.64738916 2 3.89448334 2 7 C1 9.1875 1 9.1875 0 11 C-0.99 10.67 -1.98 10.34 -3 10 C-2.67 9.01 -2.34 8.02 -2 7 C-3.65 7.33 -5.3 7.66 -7 8 C-7.33 6.35 -7.66 4.7 -8 3 C-5.36 2.01 -2.72 1.02 0 0 Z " fill="#4F22B1" transform="translate(304,101)"/>
<path d="M0 0 C-1.3937282 4.43458973 -3.60582235 6.87378374 -7 10 C-7.66 7.36 -8.32 4.72 -9 2 C-3.375 -1.125 -3.375 -1.125 0 0 Z " fill="#301572" transform="translate(105,41)"/>
<path d="M0 0 C1.98 0 3.96 0 6 0 C6.33 0.66 6.66 1.32 7 2 C6.34 2 5.68 2 5 2 C5.33 2.99 5.66 3.98 6 5 C3.69 7.31 1.38 9.62 -1 12 C-1.66 11.01 -2.32 10.02 -3 9 C-2.505 8.443125 -2.01 7.88625 -1.5 7.3125 C0.24754367 4.61837017 0.26218749 3.14624993 0 0 Z " fill="#B6A8E1" transform="translate(136,72)"/>
<path d="M0 0 C0.66 0.33 1.32 0.66 2 1 C1.23883449 2.15227823 0.46567307 3.2966386 -0.3125 4.4375 C-0.74175781 5.07558594 -1.17101562 5.71367188 -1.61328125 6.37109375 C-3 8 -3 8 -6 9 C-8.6875 8.5625 -8.6875 8.5625 -11 8 C-7.71644638 4.32241995 -4.37221763 2.18610882 0 0 Z " fill="#CBBAEE" transform="translate(171,78)"/>
<path d="M0 0 C0 1.32 0 2.64 0 4 C-0.62261719 3.84660156 -1.24523437 3.69320312 -1.88671875 3.53515625 C-6.18274772 2.79669205 -10.46241952 2.63537838 -14.8125 2.4375 C-15.69615234 2.39431641 -16.57980469 2.35113281 -17.49023438 2.30664062 C-19.65999623 2.20108464 -21.8299791 2.10008929 -24 2 C-24 1.67 -24 1.34 -24 1 C-18.58806408 0.31277004 -13.39930219 -0.0938868 -7.9453125 0.0625 C-0.52747253 -0.17582418 -0.52747253 -0.17582418 0 0 Z " fill="#EAE4FC" transform="translate(167,34)"/>
<path d="M0 0 C0.99 0.33 1.98 0.66 3 1 C3.6875 3.0625 3.6875 3.0625 4 5 C3.34 5 2.68 5 2 5 C2.33 5.99 2.66 6.98 3 8 C-1.07369424 10.03684712 -3.58937864 10.0257259 -8 9 C-6 7 -6 7 -2.875 6.875 C-1.92625 6.91625 -0.9775 6.9575 0 7 C-0.185625 6.030625 -0.37125 5.06125 -0.5625 4.0625 C-0.706875 3.051875 -0.85125 2.04125 -1 1 C-0.67 0.67 -0.34 0.34 0 0 Z M4 1 C7 2 7 2 7 2 Z " fill="#D3CBE9" transform="translate(129,33)"/>
<path d="M0 0 C1.68006588 2.92529117 2.21355661 4.89050094 2.0625 8.25 C1.95400078 12.6116687 2.37231864 16.68469064 3 21 C2.01 21.33 1.02 21.66 0 22 C0 18 0 18 1 16 C0.34 16 -0.32 16 -1 16 C-0.979375 14.824375 -0.95875 13.64875 -0.9375 12.4375 C-0.93052739 8.52586533 -1.35749657 4.85502056 -2 1 C-1.34 0.67 -0.68 0.34 0 0 Z " fill="#441D9A" transform="translate(98,94)"/>
<path d="M0 0 C1.32 0.33 2.64 0.66 4 1 C3.01 4.3 2.02 7.6 1 11 C-0.65 11.33 -2.3 11.66 -4 12 C-4.66 12.66 -5.32 13.32 -6 14 C-6 12.68 -6 11.36 -6 10 C-5.01 10 -4.02 10 -3 10 C-3 9.34 -3 8.68 -3 8 C-2.34 8 -1.68 8 -1 8 C-0.67 5.36 -0.34 2.72 0 0 Z " fill="#CBBFED" transform="translate(198,64)"/>
<path d="M0 0 C0.33 0.66 0.66 1.32 1 2 C2.98 1.67 4.96 1.34 7 1 C7.33 1.66 7.66 2.32 8 3 C7.34 3 6.68 3 6 3 C5.67 3.66 5.34 4.32 5 5 C5.66 5.33 6.32 5.66 7 6 C6.17242187 5.83628906 5.34484375 5.67257813 4.4921875 5.50390625 C0.67805811 4.9535453 -3.03353501 4.88910945 -6.875 4.9375 C-7.56335938 4.94201172 -8.25171875 4.94652344 -8.9609375 4.95117188 C-10.64066335 4.96283664 -12.32034375 4.98076729 -14 5 C-11.7471953 2.7471953 -10.60907512 2.4503621 -7.5625 1.75 C-6.78003906 1.55921875 -5.99757812 1.3684375 -5.19140625 1.171875 C-3 1 -3 1 0 3 C0 2.01 0 1.02 0 0 Z " fill="#2D1171" transform="translate(152,48)"/>
<path d="M0 0 C2.18614424 2.18614424 2.68256535 3.53879949 3.625 6.4375 C3.88539063 7.21996094 4.14578125 8.00242187 4.4140625 8.80859375 C5 11 5 11 5 14 C5.99 14 6.98 14 8 14 C8 14.66 8 15.32 8 16 C7.34 16 6.68 16 6 16 C5.67 16.66 5.34 17.32 5 18 C0.85647028 11.74031045 -0.59672183 7.51869512 0 0 Z " fill="#F4F5F7" transform="translate(140,112)"/>
<path d="M0 0 C1.125 3.75 1.125 3.75 0 6 C-0.99 6 -1.98 6 -3 6 C-3.33 7.32 -3.66 8.64 -4 10 C-6.64 10.66 -9.28 11.32 -12 12 C-12 11.34 -12 10.68 -12 10 C-10.23947136 8.41929472 -8.41580202 6.90833714 -6.5625 5.4375 C-5.55316406 4.63183594 -4.54382813 3.82617188 -3.50390625 2.99609375 C-2.67761719 2.33738281 -1.85132813 1.67867188 -1 1 C-0.67 0.67 -0.34 0.34 0 0 Z " fill="#3B1E86" transform="translate(153,67)"/>
<path d="M0 0 C1.53161656 2.29742483 2.62126589 4.2747059 3.75 6.75 C5.87439797 11.09535948 8.70744251 14.48793867 12 18 C8.16175706 17.23876184 6.74948989 15.74948989 4 13 C3.01 13 2.02 13 1 13 C0.67 8.71 0.34 4.42 0 0 Z " fill="#5B31AA" transform="translate(138,120)"/>
<path d="M0 0 C2 3 2 3 1.625 5.6875 C1.41875 6.450625 1.2125 7.21375 1 8 C0.01 8 -0.98 8 -2 8 C-2 9.65 -2 11.3 -2 13 C-3.32 13.33 -4.64 13.66 -6 14 C-6.33 12.68 -6.66 11.36 -7 10 C-6.01 9.67 -5.02 9.34 -4 9 C-3.67 7.35 -3.34 5.7 -3 4 C-2.34 4 -1.68 4 -1 4 C-0.67 2.68 -0.34 1.36 0 0 Z " fill="#D1C7E3" transform="translate(123,120)"/>
<path d="M0 0 C0.66 0.99 1.32 1.98 2 3 C1.030625 3.61875 0.06125 4.2375 -0.9375 4.875 C-4.02835362 6.65678846 -4.02835362 6.65678846 -5 9 C-7.31 8.34 -9.62 7.68 -12 7 C-9.76425178 4.76425178 -7.71033371 3.75631642 -4.875 2.375 C-3.96492187 1.92898437 -3.05484375 1.48296875 -2.1171875 1.0234375 C-1.06917969 0.51683594 -1.06917969 0.51683594 0 0 Z " fill="#C6B6EE" transform="translate(188,118)"/>
<path d="M0 0 C0.70125 0.144375 1.4025 0.28875 2.125 0.4375 C2.125 1.0975 2.125 1.7575 2.125 2.4375 C1.465 2.4375 0.805 2.4375 0.125 2.4375 C0.455 3.7575 0.785 5.0775 1.125 6.4375 C-2.175 6.7675 -5.475 7.0975 -8.875 7.4375 C-3.58269231 0.54519231 -3.58269231 0.54519231 0 0 Z " fill="#BBB5D4" transform="translate(184.875,130.5625)"/>
<path d="M0 0 C0.33 0.99 0.66 1.98 1 3 C-0.010625 3.12375 -1.02125 3.2475 -2.0625 3.375 C-5.87937612 3.98085335 -9.31500112 4.87193912 -13 6 C-13.66 5.34 -14.32 4.68 -15 4 C-13.44219668 3.32243118 -11.87849904 2.65840543 -10.3125 2 C-9.44238281 1.62875 -8.57226562 1.2575 -7.67578125 0.875 C-4.9427998 -0.01870488 -2.85299066 -0.16449676 0 0 Z " fill="#2D1966" transform="translate(143,38)"/>
<path d="M0 0 C1 3 1 3 0.00390625 5.26171875 C-0.47175781 6.06222656 -0.94742188 6.86273438 -1.4375 7.6875 C-2.14712891 8.89986328 -2.14712891 8.89986328 -2.87109375 10.13671875 C-3.42990234 11.05904297 -3.42990234 11.05904297 -4 12 C-4.99 11.67 -5.98 11.34 -7 11 C-8.09405974 8.5594052 -8.1165418 7.37081482 -7.3125 4.8125 C-5.67529687 2.55160043 -4.67505458 2.50157273 -2 2 C-1.34 1.34 -0.68 0.68 0 0 Z " fill="#EEDAFC" transform="translate(212,105)"/>
<path d="M0 0 C0.99 0 1.98 0 3 0 C3.33 1.98 3.66 3.96 4 6 C4.66 6 5.32 6 6 6 C6 6.66 6 7.32 6 8 C5.01 8.33 4.02 8.66 3 9 C3 7.35 3 5.7 3 4 C2.34 4 1.68 4 1 4 C1.33 4.66 1.66 5.32 2 6 C2.06996014 7.70702735 2.08440154 9.41668003 2.0625 11.125 C2.05347656 12.03507812 2.04445313 12.94515625 2.03515625 13.8828125 C2.02355469 14.58148438 2.01195313 15.28015625 2 16 C-0.42130331 12.36804504 -0.21022785 10.61650652 -0.125 6.3125 C-0.09792969 4.54326172 -0.09792969 4.54326172 -0.0703125 2.73828125 C-0.04710938 1.83464844 -0.02390625 0.93101563 0 0 Z " fill="#4C23A8" transform="translate(122,104)"/>
<path d="M0 0 C-0.556875 0.20625 -1.11375 0.4125 -1.6875 0.625 C-4.92501302 2.55000774 -6.68231141 5.03850902 -9 8 C-9.66 7.67 -10.32 7.34 -11 7 C-11 5.02 -11 3.04 -11 1 C-6.87831311 -0.62950412 -4.29299643 -1.26264601 0 0 Z " fill="#4C27A1" transform="translate(213,96)"/>
<path d="M0 0 C0.66 0 1.32 0 2 0 C2 5.28 2 10.56 2 16 C1.01 15.67 0.02 15.34 -1 15 C-1.02715383 13.25008666 -1.04646551 11.50005055 -1.0625 9.75 C-1.07410156 8.77546875 -1.08570312 7.8009375 -1.09765625 6.796875 C-1.01195577 4.34241322 -0.70706066 2.33831086 0 0 Z " fill="#FAFAF1" transform="translate(102,93)"/>
<path d="M0 0 C1.32 0.33 2.64 0.66 4 1 C4 1.99 4 2.98 4 4 C3.16855469 4.30744141 3.16855469 4.30744141 2.3203125 4.62109375 C1.59585938 4.89050781 0.87140625 5.15992188 0.125 5.4375 C-0.95394531 5.83775391 -0.95394531 5.83775391 -2.0546875 6.24609375 C-4.03648845 6.97916854 -4.03648845 6.97916854 -6 8 C-6.66 7.34 -7.32 6.68 -8 6 C-7.01 6 -6.02 6 -5 6 C-5 5.34 -5 4.68 -5 4 C-5.99 3.67 -6.98 3.34 -8 3 C-5.36 2.34 -2.72 1.68 0 1 C0 0.67 0 0.34 0 0 Z " fill="#5F28D0" transform="translate(101,132)"/>
<path d="M0 0 C0.66 0 1.32 0 2 0 C1.67 0.99 1.34 1.98 1 3 C0.34 3 -0.32 3 -1 3 C-0.67 2.01 -0.34 1.02 0 0 Z M-5 2 C-3.02 2.66 -1.04 3.32 1 4 C0.67 4.99 0.34 5.98 0 7 C-3.5625 8.1875 -3.5625 8.1875 -7 9 C-7.125 6.625 -7.125 6.625 -7 4 C-6.34 3.34 -5.68 2.68 -5 2 Z " fill="#5823BE" transform="translate(71,111)"/>
<path d="M0 0 C1.32 0 2.64 0 4 0 C2.67265823 2.8960184 1.18177448 5.12727539 -0.9375 7.5 C-3.07406821 9.92910567 -5.10776671 12.37189821 -7 15 C-7.6875 13.1875 -7.6875 13.1875 -8 11 C-6.5625 9.375 -6.5625 9.375 -5 8 C-5 7.34 -5 6.68 -5 6 C-4.01 6 -3.02 6 -2 6 C-1.855625 5.195625 -1.71125 4.39125 -1.5625 3.5625 C-1 1 -1 1 0 0 Z " fill="#412088" transform="translate(146,92)"/>
<path d="M0 0 C3.08859947 1.35335595 5.007964 2.80886249 7.1875 5.375 C7.95126953 6.25285156 7.95126953 6.25285156 8.73046875 7.1484375 C10.07559273 9.11024909 10.57514402 10.676089 11 13 C10.566875 12.505 10.13375 12.01 9.6875 11.5 C8.00259517 9.66781808 8.00259517 9.66781808 5 10 C4.67 9.01 4.34 8.02 4 7 C4.33 6.34 4.66 5.68 5 5 C3.35 5 1.7 5 0 5 C0 3.33333333 0 1.66666667 0 0 Z " fill="#2D1662" transform="translate(172,43)"/>
<path d="M0 0 C0.99 0.99 1.98 1.98 3 3 C2.34 3 1.68 3 1 3 C2.32 5.97 3.64 8.94 5 12 C4.01 12 3.02 12 2 12 C2.33 12.99 2.66 13.98 3 15 C2.01 14.67 1.02 14.34 0 14 C0 11.69 0 9.38 0 7 C-0.33 7 -0.66 7 -1 7 C-1.04254356 5.00045254 -1.04080783 2.99958364 -1 1 C-0.67 0.67 -0.34 0.34 0 0 Z " fill="#F4F2F8" transform="translate(193,33)"/>
<path d="M0 0 C1.03165283 0.0628418 2.06330566 0.12568359 3.1262207 0.19042969 C4.24448242 0.2484375 5.36274414 0.30644531 6.51489258 0.36621094 C8.26576172 0.48802734 8.26576172 0.48802734 10.05200195 0.61230469 C11.82027344 0.71091797 11.82027344 0.71091797 13.62426758 0.81152344 C16.53927201 0.97674636 19.45179889 1.16105763 22.36450195 1.36230469 C22.69450195 2.02230469 23.02450195 2.68230469 23.36450195 3.36230469 C22.73471436 3.35706787 22.10492676 3.35183105 21.45605469 3.34643555 C18.5713808 3.32550331 15.68672298 3.31259319 12.80200195 3.29980469 C11.81135742 3.29142578 10.82071289 3.28304687 9.80004883 3.27441406 C4.53901496 3.25693554 -0.4531447 3.43922071 -5.63549805 4.36230469 C-3.99753301 1.50384696 -3.34734804 0.46016345 0 0 Z " fill="#BFB4E1" transform="translate(139.635498046875,34.6376953125)"/>
<path d="M0 0 C1.6396875 0.2475 1.6396875 0.2475 3.3125 0.5 C6.87525873 1.06718184 6.87525873 1.06718184 10 1 C10.66 1.66 11.32 2.32 12 3 C11.32453125 3.02578125 10.6490625 3.0515625 9.953125 3.078125 C4.29613659 3.29799455 4.29613659 3.29799455 -0.4375 6.0625 C-0.953125 6.701875 -1.46875 7.34125 -2 8 C-2.99 8 -3.98 8 -5 8 C-5 7.34 -5 6.68 -5 6 C-4.34 6 -3.68 6 -3 6 C-3 5.01 -3 4.02 -3 3 C-2.01 3 -1.02 3 0 3 C0 2.01 0 1.02 0 0 Z " fill="#DDDAEF" transform="translate(136,32)"/>
<path d="M0 0 C-1.60790685 3.98193402 -4.3803804 6.71258185 -7.375 9.6875 C-7.85710937 10.18572266 -8.33921875 10.68394531 -8.8359375 11.19726562 C-11.39323992 13.75804264 -13.31046316 15.62405193 -17 16 C-16.34 15.01 -15.68 14.02 -15 13 C-14.34 13 -13.68 13 -13 13 C-13 12.34 -13 11.68 -13 11 C-12.34 11 -11.68 11 -11 11 C-11 10.34 -11 9.68 -11 9 C-9.37897032 7.28891311 -7.70496537 5.62746694 -6 4 C-4.9171875 2.8553125 -4.9171875 2.8553125 -3.8125 1.6875 C-2 0 -2 0 0 0 Z " fill="#6227D7" transform="translate(296,144)"/>
<path d="M0 0 C0.33 0.66 0.66 1.32 1 2 C-5.2370931 5.46505172 -10.04746138 5.04350941 -17 4 C-16.67 3.34 -16.34 2.68 -16 2 C-13.29400158 1.52402634 -10.66404596 1.15906371 -7.9375 0.875 C-6.79958008 0.74544922 -6.79958008 0.74544922 -5.63867188 0.61328125 C-3.76003014 0.40060483 -1.88011364 0.19924541 0 0 Z " fill="#6428D8" transform="translate(217,141)"/>
<path d="M0 0 C2.09749995 2.35968744 2.96905704 3.54616994 3.1875 6.75 C3.125625 7.4925 3.06375 8.235 3 9 C2.01 9.495 2.01 9.495 1 10 C-2.875 7.375 -2.875 7.375 -4 4 C-3.34 4 -2.68 4 -2 4 C-2 3.34 -2 2.68 -2 2 C-1.34 2 -0.68 2 0 2 C0 1.34 0 0.68 0 0 Z " fill="#C8BCE5" transform="translate(127,130)"/>
<path d="M0 0 C1.1577506 3.47325181 1.06866652 6.36067448 1 10 C-0.65 10.33 -2.3 10.66 -4 11 C-4 8.69 -4 6.38 -4 4 C-4.99 4.495 -4.99 4.495 -6 5 C-6 4.01 -6 3.02 -6 2 C-4.02 2 -2.04 2 0 2 C0 1.34 0 0.68 0 0 Z " fill="#5524B0" transform="translate(221,102)"/>
<path d="M0 0 C5.75 1.75 5.75 1.75 8 4 C7.01 4.66 6.02 5.32 5 6 C4.27617533 8.05925139 4.27617533 8.05925139 4 10 C3.01 9.67 2.02 9.34 1 9 C0.67 6.03 0.34 3.06 0 0 Z " fill="#A695DC" transform="translate(156,120)"/>
<path d="M0 0 C0.94875 0.350625 1.8975 0.70125 2.875 1.0625 C1.225 3.0425 -0.425 5.0225 -2.125 7.0625 C-3.115 6.7325 -4.105 6.4025 -5.125 6.0625 C-5.125 4.0825 -5.125 2.1025 -5.125 0.0625 C-3.125 -0.9375 -3.125 -0.9375 0 0 Z " fill="#2B1466" transform="translate(110.125,32.9375)"/>
<path d="M0 0 C-1.23932829 3.43198603 -2.50301511 6.30325632 -5 9 C-5.99 9 -6.98 9 -8 9 C-8.6875 7.1875 -8.6875 7.1875 -9 5 C-6.83400098 2.03600133 -3.71834478 0 0 0 Z " fill="#5D27C9" transform="translate(297,119)"/>
<path d="M0 0 C1.32 0.33 2.64 0.66 4 1 C2.55049545 4.7910119 0.84827434 8.3874638 -1 12 C-1.33 12 -1.66 12 -2 12 C-2 10.35 -2 8.7 -2 7 C-2.66 6.67 -3.32 6.34 -4 6 C-3.525625 5.566875 -3.05125 5.13375 -2.5625 4.6875 C-0.76313043 2.97690387 -0.76313043 2.97690387 0 0 Z " fill="#CCBBF1" transform="translate(125,88)"/>
<path d="M0 0 C0 0.66 0 1.32 0 2 C-6.61137349 4.98159981 -11.65170258 6.14408426 -19 6 C-17 4 -17 4 -14.8359375 3.8046875 C-13.61777344 3.83949219 -13.61777344 3.83949219 -12.375 3.875 C-11.14910156 3.90207031 -11.14910156 3.90207031 -9.8984375 3.9296875 C-8.95871094 3.96449219 -8.95871094 3.96449219 -8 4 C-8 3.34 -8 2.68 -8 2 C-4.91190305 0.23537317 -3.76687864 0 0 0 Z " fill="#5B39AC" transform="translate(185,119)"/>
<path d="M0 0 C0.33 0.66 0.66 1.32 1 2 C5.95 2 10.9 2 16 2 C16 2.33 16 2.66 16 3 C14.86820313 3.06058594 13.73640625 3.12117188 12.5703125 3.18359375 C11.08852855 3.26799917 9.6067584 3.35264717 8.125 3.4375 C7.00544922 3.49647461 7.00544922 3.49647461 5.86328125 3.55664062 C1.80013136 3.71573624 1.80013136 3.71573624 -2 5 C-1.34 6.65 -0.68 8.3 0 10 C-1.32 9.34 -2.64 8.68 -4 8 C-4 4 -4 4 -2 1.75 C-1.01 0.88375 -1.01 0.88375 0 0 Z " fill="#4F23A3" transform="translate(160,111)"/>
<path d="M0 0 C0.99 0.33 1.98 0.66 3 1 C3 4.96 3 8.92 3 13 C2.01 13 1.02 13 0 13 C0 12.01 0 11.02 0 10 C-0.66 9.67 -1.32 9.34 -2 9 C-1.34 9 -0.68 9 0 9 C-0.185625 7.88625 -0.37125 6.7725 -0.5625 5.625 C-1 2 -1 2 0 0 Z " fill="#481DA6" transform="translate(96,80)"/>
<path d="M0 0 C0.66 0.66 1.32 1.32 2 2 C1.34 2 0.68 2 0 2 C0.495 2.45375 0.99 2.9075 1.5 3.375 C3 5 3 5 3 7 C1.37536158 7.05395478 -0.24978541 7.09277195 -1.875 7.125 C-2.77992187 7.14820312 -3.68484375 7.17140625 -4.6171875 7.1953125 C-7 7 -7 7 -9 5 C-7.88625 4.54625 -6.7725 4.0925 -5.625 3.625 C-2.03800992 2.27534014 -2.03800992 2.27534014 0 0 Z " fill="#311173" transform="translate(107,57)"/>
<path d="M0 0 C3.77001757 0.40978452 5.80106814 0.86737876 9 3 C8.67 3.66 8.34 4.32 8 5 C5.67843403 5.40729228 3.3431213 5.74438677 1 6 C1 4.68 1 3.36 1 2 C0.34 1.67 -0.32 1.34 -1 1 C-0.67 0.67 -0.34 0.34 0 0 Z " fill="#EAE8EE" transform="translate(175,23)"/>
<path d="M0 0 C2 1 2 1 2 1 Z M-6 2 C-4.35 2 -2.7 2 -1 2 C-1.66 3.98 -2.32 5.96 -3 8 C-4.65 8.33 -6.3 8.66 -8 9 C-7.34 6.69 -6.68 4.38 -6 2 Z " fill="#451B9F" transform="translate(150,75)"/>
<path d="M0 0 C3.465 1.485 3.465 1.485 7 3 C7 6 7 6 5 9 C5 8.34 5 7.68 5 7 C3.68 7.33 2.36 7.66 1 8 C0.34 5.69 -0.32 3.38 -1 1 C-0.67 0.67 -0.34 0.34 0 0 Z " fill="#DCD1EC" transform="translate(184,54)"/>
<path d="M0 0 C2.31 0 4.62 0 7 0 C7 0.99 7 1.98 7 3 C9.31 3.66 11.62 4.32 14 5 C13.67 6.32 13.34 7.64 13 9 C11.96875 8.236875 10.9375 7.47375 9.875 6.6875 C6.72582739 4.42984469 3.52287088 2.63254992 0 1 C0 0.67 0 0.34 0 0 Z " fill="#1F114A" transform="translate(178,22)"/>
<path d="M0 0 C0.66 0 1.32 0 2 0 C2 1.65 2 3.3 2 5 C1.01 5.33 0.02 5.66 -1 6 C-1 6.66 -1 7.32 -1 8 C-1.66 8 -2.32 8 -3 8 C-3.33 8.99 -3.66 9.98 -4 11 C-4.75 9.375 -4.75 9.375 -5 7 C-3.50594347 4.4601039 -2.09462345 2.09462345 0 0 Z " fill="#6328D2" transform="translate(309,140)"/>
<path d="M0 0 C4 1.33333333 8 2.66666667 12 4 C12 4.66 12 5.32 12 6 C10.35 6 8.7 6 7 6 C6.67 6.99 6.34 7.98 6 9 C5.01 8.67 4.02 8.34 3 8 C3.66 8 4.32 8 5 8 C4.67 6.68 4.34 5.36 4 4 C3.34 4 2.68 4 2 4 C2 3.34 2 2.68 2 2 C1.34 2 0.68 2 0 2 C0 1.34 0 0.68 0 0 Z " fill="#5F31C0" transform="translate(117,136)"/>
<path d="M0 0 C2.72869407 0.03287583 5.2966618 0.56397771 8 1 C6.35 2.98 4.7 4.96 3 7 C1.35 5.35 -0.3 3.7 -2 2 C-1.34 1.34 -0.68 0.68 0 0 Z " fill="#481E9F" transform="translate(195,104)"/>
<path d="M0 0 C1.32 0.33 2.64 0.66 4 1 C3.62952882 3.74148672 3.31412056 5.58593199 1.625 7.8125 C0 9 0 9 -3 9 C-2.30058404 5.85262818 -1.23921302 2.97411124 0 0 Z " fill="#411C8F" transform="translate(181,57)"/>
<path d="M0 0 C0.66 0.66 1.32 1.32 2 2 C-0.40545638 3.20272819 -1.94996953 3.10071472 -4.625 3.0625 C-5.85089844 3.04896484 -5.85089844 3.04896484 -7.1015625 3.03515625 C-8.04128906 3.01775391 -8.04128906 3.01775391 -9 3 C-9.33 2.01 -9.66 1.02 -10 0 C-3.42391304 -1.3451087 -3.42391304 -1.3451087 0 0 Z " fill="#A79DCE" transform="translate(174,138)"/>
<path d="M0 0 C0.99 0.33 1.98 0.66 3 1 C3 2.98 3 4.96 3 7 C2.67 6.34 2.34 5.68 2 5 C1.34 5 0.68 5 0 5 C-0.33 6.65 -0.66 8.3 -1 10 C-0.01 10 0.98 10 2 10 C2 10.66 2 11.32 2 12 C0.68 12 -0.64 12 -2 12 C-2.28571429 3.42857143 -2.28571429 3.42857143 0 0 Z " fill="#9D94BE" transform="translate(154,118)"/>
<path d="M0 0 C0.33 0 0.66 0 1 0 C0.67 3.3 0.34 6.6 0 10 C-1.32 10 -2.64 10 -4 10 C-3.67 7.03 -3.34 4.06 -3 1 C-2.01 1.33 -1.02 1.66 0 2 C0 1.34 0 0.68 0 0 Z " fill="#301276" transform="translate(206,58)"/>
<path d="M0 0 C2.00720923 0.28674418 4.0085944 0.61866701 6 1 C5.67 3.64 5.34 6.28 5 9 C4.34 9 3.68 9 3 9 C3 7.02 3 5.04 3 3 C1.68 3.33 0.36 3.66 -1 4 C-1 1 -1 1 0 0 Z " fill="#EDECF9" transform="translate(146,120)"/>
<path d="M0 0 C0.99 0.33 1.98 0.66 3 1 C-0.63 4.3 -4.26 7.6 -8 11 C-8.33 9.68 -8.66 8.36 -9 7 C-8.01 7 -7.02 7 -6 7 C-6 6.01 -6 5.02 -6 4 C-4.68 3.67 -3.36 3.34 -2 3 C-2 2.34 -2 1.68 -2 1 C-1.34 0.67 -0.68 0.34 0 0 Z " fill="#D2BCFA" transform="translate(165,104)"/>
<path d="M0 0 C-0.66 1.65 -1.32 3.3 -2 5 C-4.64 4.67 -7.28 4.34 -10 4 C-9.67 3.01 -9.34 2.02 -9 1 C-2.25 0 -2.25 0 0 0 Z M-14 4 C-10 5 -10 5 -10 5 Z " fill="#4A1EA7" transform="translate(82,92)"/>
<path d="M0 0 C0.99 0.33 1.98 0.66 3 1 C2.67 1.99 2.34 2.98 2 4 C1.13375 4.185625 1.13375 4.185625 0.25 4.375 C-2.29255327 4.88250556 -2.29255327 4.88250556 -4.5 7.5 C-6.86560612 9.86560612 -7.77609362 10.64178818 -11 11 C-7.33333333 7.33333333 -3.66666667 3.66666667 0 0 Z " fill="#B29DE3" transform="translate(180,68)"/>
<path d="M0 0 C1.65 0 3.3 0 5 0 C5 0.66 5 1.32 5 2 C5.99 2 6.98 2 8 2 C8 2.66 8 3.32 8 4 C3.545 4.495 3.545 4.495 -1 5 C-0.67 3.35 -0.34 1.7 0 0 Z " fill="#622ACC" transform="translate(128,122)"/>
<path d="M0 0 C-1 2 -1 2 -2.875 2.6875 C-5 3 -5 3 -8 2 C-10.14255793 2.38932856 -10.14255793 2.38932856 -12 3 C-12 2.01 -12 1.02 -12 0 C-7.22144261 -2.04795317 -4.77855739 -2.04795317 0 0 Z " fill="#5724BD" transform="translate(244,112)"/>
<path d="M0 0 C0.66 0.33 1.32 0.66 2 1 C2 2.65 2 4.3 2 6 C-0.31 6.66 -2.62 7.32 -5 8 C-4.45773019 4.20411134 -2.79872437 2.52788007 0 0 Z " fill="#E2D3F6" transform="translate(118,65)"/>
<path d="M0 0 C0 2.31 0 4.62 0 7 C-2.31 7 -4.62 7 -7 7 C-7 6.34 -7 5.68 -7 5 C-1.4047619 0 -1.4047619 0 0 0 Z " fill="#6F31E8" transform="translate(311,155)"/>
<path d="M0 0 C2.97 0 5.94 0 9 0 C8.67 1.32 8.34 2.64 8 4 C7.01 4 6.02 4 5 4 C5 4.99 5 5.98 5 7 C4.34 6.67 3.68 6.34 3 6 C3 4.68 3 3.36 3 2 C2.01 2 1.02 2 0 2 C0 1.34 0 0.68 0 0 Z " fill="#6329D4" transform="translate(256,136)"/>
<path d="M0 0 C7.48291572 6.15034169 7.48291572 6.15034169 10 10 C8.35 10 6.7 10 5 10 C5 9.01 5 8.02 5 7 C2.525 6.01 2.525 6.01 0 5 C0 3.35 0 1.7 0 0 Z " fill="#562CA8" transform="translate(106,125)"/>
<path d="M0 0 C0 0.66 0 1.32 0 2 C-0.66 2 -1.32 2 -2 2 C-2 2.66 -2 3.32 -2 4 C-1.34 4.33 -0.68 4.66 0 5 C-1.98 5.99 -1.98 5.99 -4 7 C-4.103125 6.360625 -4.20625 5.72125 -4.3125 5.0625 C-4.539375 4.381875 -4.76625 3.70125 -5 3 C-5.99 2.67 -6.98 2.34 -8 2 C-4.77208445 -0.1519437 -3.71599191 -0.20086443 0 0 Z " fill="#A897D4" transform="translate(184,89)"/>
<path d="M0 0 C0.66 0.33 1.32 0.66 2 1 C1.26418258 2.1549921 0.51069961 3.29874185 -0.25 4.4375 C-0.66765625 5.07558594 -1.0853125 5.71367188 -1.515625 6.37109375 C-3.28960522 8.31780362 -4.48079174 8.4638875 -7 9 C-7.33 9.66 -7.66 10.32 -8 11 C-8 8 -8 8 -6.25 6.0625 C-5.5075 5.381875 -4.765 4.70125 -4 4 C-3.2575 3.2575 -2.515 2.515 -1.75 1.75 C-1.1725 1.1725 -0.595 0.595 0 0 Z " fill="#43208F" transform="translate(197,80)"/>
<path d="M0 0 C2.76276177 0.52268466 5.3260876 1.10869587 8 2 C8.33 3.65 8.66 5.3 9 7 C8.01 7.33 7.02 7.66 6 8 C4.02 5.36 2.04 2.72 0 0 Z " fill="#2F1B62" transform="translate(192,31)"/>
<path d="M0 0 C-0.33 0.99 -0.66 1.98 -1 3 C-1.66 3 -2.32 3 -3 3 C-2.67 3.99 -2.34 4.98 -2 6 C-3.65 5.67 -5.3 5.34 -7 5 C-6.67 4.34 -6.34 3.68 -6 3 C-5.34 3 -4.68 3 -4 3 C-4 2.34 -4 1.68 -4 1 C-2 0 -2 0 0 0 Z M-8 5 C-8 8 -8 8 -9 10 C-9.66 10 -10.32 10 -11 10 C-9.125 6.125 -9.125 6.125 -8 5 Z " fill="#5F25D2" transform="translate(24,138)"/>
<path d="M0 0 C2.46278801 1.231394 3.42497687 2.78064923 5 5 C2.03 4.505 2.03 4.505 -1 4 C-1 5.65 -1 7.3 -1 9 C-2.32 8.34 -3.64 7.68 -5 7 C-3.75023244 3.34683329 -3.32901247 2.21934164 0 0 Z " fill="#DCD2F3" transform="translate(193,115)"/>
<path d="M0 0 C0.28875 0.639375 0.5775 1.27875 0.875 1.9375 C1.82823451 4.15206079 1.82823451 4.15206079 4 5 C2.02 5.66 0.04 6.32 -2 7 C-1.67 6.01 -1.34 5.02 -1 4 C-3.64 4 -6.28 4 -9 4 C-9 3.67 -9 3.34 -9 3 C-6.36 3 -3.72 3 -1 3 C-0.67 2.01 -0.34 1.02 0 0 Z " fill="#5822B8" transform="translate(177,115)"/>
<path d="M0 0 C-2.49505962 2.49505962 -3.67328888 2.35948376 -7.125 2.625 C-8.03507812 2.69976562 -8.94515625 2.77453125 -9.8828125 2.8515625 C-10.93082031 2.92503906 -10.93082031 2.92503906 -12 3 C-7.8927971 -1.29389394 -5.8727074 -0.97878457 0 0 Z " fill="#260D63" transform="translate(131,45)"/>
<path d="M0 0 C2.31 0 4.62 0 7 0 C7 1.32 7 2.64 7 4 C4.36 4.33 1.72 4.66 -1 5 C-0.67 3.35 -0.34 1.7 0 0 Z " fill="#281562" transform="translate(177,18)"/>
<path d="M0 0 C0.99 0.99 1.98 1.98 3 3 C1.68 3 0.36 3 -1 3 C-1 3.66 -1 4.32 -1 5 C-5.455 6.485 -5.455 6.485 -10 8 C-10 7.34 -10 6.68 -10 6 C-7.8125 4.4921875 -7.8125 4.4921875 -5 2.875 C-4.071875 2.33617187 -3.14375 1.79734375 -2.1875 1.2421875 C-1.465625 0.83226562 -0.74375 0.42234375 0 0 Z " fill="#5E35BD" transform="translate(192,134)"/>
<path d="M0 0 C0.33 0 0.66 0 1 0 C1.19335938 0.74765625 1.38671875 1.4953125 1.5859375 2.265625 C1.97652344 3.74289063 1.97652344 3.74289063 2.375 5.25 C2.63023437 6.22453125 2.88546875 7.1990625 3.1484375 8.203125 C3.89598509 10.65837303 4.77123817 12.75617405 6 15 C5.34 15.66 4.68 16.32 4 17 C0.61504892 11.55464391 0.32626495 6.32278971 0 0 Z " fill="#E6D3F7" transform="translate(138,112)"/>
<path d="M0 0 C0.99 0.66 1.98 1.32 3 2 C3 3.32 3 4.64 3 6 C0.69 5.67 -1.62 5.34 -4 5 C-3.6875 3.0625 -3.6875 3.0625 -3 1 C-2.01 0.67 -1.02 0.34 0 0 Z " fill="#5725CF" transform="translate(184,114)"/>
<path d="M0 0 C0.33 0.66 0.66 1.32 1 2 C1.99 2.33 2.98 2.66 4 3 C0.38671875 7.6875 0.38671875 7.6875 -1 9 C-1.99 9 -2.98 9 -4 9 C-4 8.34 -4 7.68 -4 7 C-3.34 7 -2.68 7 -2 7 C-1.34 4.69 -0.68 2.38 0 0 Z " fill="#B89EE9" transform="translate(186,84)"/>
<path d="M0 0 C3.6875 -0.3125 3.6875 -0.3125 7 0 C3.92000054 3.67230705 1.7517398 4.56802365 -3 5 C-1.9375 2.5 -1.9375 2.5 0 0 Z " fill="#672CDD" transform="translate(255,152)"/>
<path d="M0 0 C2 2 2 2 4 5 C-2.75 5.125 -2.75 5.125 -5 4 C-5 3.34 -5 2.68 -5 2 C-3.35 1.34 -1.7 0.68 0 0 Z " fill="#6C37D7" transform="translate(150,137)"/>
<path d="M0 0 C1.5 1.25 1.5 1.25 3 3 C3 4.32 3 5.64 3 7 C2.34 7 1.68 7 1 7 C1 7.66 1 8.32 1 9 C0.01 8.67 -0.98 8.34 -2 8 C-2 7.01 -2 6.02 -2 5 C-1.34 5 -0.68 5 0 5 C0 3.35 0 1.7 0 0 Z " fill="#D0C4F3" transform="translate(124,125)"/>
<path d="M0 0 C0.66 0.33 1.32 0.66 2 1 C1.67 1.99 1.34 2.98 1 4 C0.34 4 -0.32 4 -1 4 C-1.226875 4.804375 -1.45375 5.60875 -1.6875 6.4375 C-2.3371875 7.7059375 -2.3371875 7.7059375 -3 9 C-5.625 9.8125 -5.625 9.8125 -8 10 C-7.59007812 9.52949219 -7.18015625 9.05898437 -6.7578125 8.57421875 C-6.21898437 7.95160156 -5.68015625 7.32898438 -5.125 6.6875 C-4.59132812 6.07261719 -4.05765625 5.45773438 -3.5078125 4.82421875 C-1.8359553 2.86501788 -1.8359553 2.86501788 0 0 Z " fill="#E7D4F8" transform="translate(205,102)"/>
<path d="M0 0 C0.33 0.66 0.66 1.32 1 2 C3.52733235 2.65555119 3.52733235 2.65555119 6 3 C4.68 4.32 3.36 5.64 2 7 C0.68 6.34 -0.64 5.68 -2 5 C-2 4.34 -2 3.68 -2 3 C-1.34 3 -0.68 3 0 3 C0 2.01 0 1.02 0 0 Z " fill="#BFB6E1" transform="translate(112,44)"/>
<path d="M0 0 C0.99 0 1.98 0 3 0 C2.1875 1.9375 2.1875 1.9375 1 4 C0.01 4.33 -0.98 4.66 -2 5 C-3.20882096 7.00016466 -3.20882096 7.00016466 -4 9 C-4.33 7.68 -4.66 6.36 -5 5 C-4.01 4.67 -3.02 4.34 -2 4 C-2 3.34 -2 2.68 -2 2 C-1.34 2 -0.68 2 0 2 C0 1.34 0 0.68 0 0 Z " fill="#6328D6" transform="translate(5,144)"/>
<path d="M0 0 C1.32 0.33 2.64 0.66 4 1 C1.69 3.31 -0.62 5.62 -3 8 C-3.99 7.67 -4.98 7.34 -6 7 C-5.34 7 -4.68 7 -4 7 C-4 6.01 -4 5.02 -4 4 C-2.25 1.75 -2.25 1.75 0 0 Z " fill="#D2BFFA" transform="translate(199,124)"/>
<path d="M0 0 C-2.24497221 2.24497221 -2.96027349 2.37003419 -6 2.75 C-7.051875 2.89695312 -7.051875 2.89695312 -8.125 3.046875 C-10 3 -10 3 -12 1 C-10.66666667 0.66666667 -9.33333333 0.33333333 -8 0 C-7.34 -0.20625 -6.68 -0.4125 -6 -0.625 C-3.69461938 -1.05725887 -2.21265195 -0.71120955 0 0 Z " fill="#491CA6" transform="translate(184,101)"/>
<path d="M0 0 C0.99 0 1.98 0 3 0 C4.10844919 3.32534757 3.84454356 5.62182575 3 9 C2.01 8.67 1.02 8.34 0 8 C0 5.36 0 2.72 0 0 Z " fill="#432681" transform="translate(203,51)"/>
<path d="M0 0 C0.66 0.33 1.32 0.66 2 1 C2.33 1.99 2.66 2.98 3 4 C-0.01844907 5.25768711 -2.8078874 6.20197185 -6 7 C-4.02 4.69 -2.04 2.38 0 0 Z " fill="#291173" transform="translate(114,50)"/>
<path d="M0 0 C-0.66 1.65 -1.32 3.3 -2 5 C-2.99 5 -3.98 5 -5 5 C-5.33 3.35 -5.66 1.7 -6 0 C-3 -1 -3 -1 0 0 Z " fill="#271266" transform="translate(105,41)"/>
<path d="M0 0 C0.66 0.33 1.32 0.66 2 1 C0.63055898 3.94956528 -0.87830409 6.52468811 -3 9 C-3.66 9 -4.32 9 -5 9 C-4.42647107 5.12867972 -2.51295648 2.91827204 0 0 Z " fill="#6028D0" transform="translate(301,135)"/>
<path d="M0 0 C2.31 0 4.62 0 7 0 C7 0.66 7 1.32 7 2 C7.66 2.33 8.32 2.66 9 3 C6.03 3 3.06 3 0 3 C0 2.01 0 1.02 0 0 Z " fill="#5F2ACE" transform="translate(168,120)"/>
<path d="M0 0 C2.9375 0.8125 2.9375 0.8125 6 2 C6.33 2.99 6.66 3.98 7 5 C6.67 5.66 6.34 6.32 6 7 C4.125 6.875 4.125 6.875 2 6 C0.75 2.9375 0.75 2.9375 0 0 Z " fill="#F5EFED" transform="translate(104,116)"/>
<path d="M0 0 C2.0625 0.4375 2.0625 0.4375 4 1 C3.67 2.32 3.34 3.64 3 5 C1.35 5 -0.3 5 -2 5 C-1.125 1.125 -1.125 1.125 0 0 Z " fill="#CAC2D6" transform="translate(166,98)"/>
<path d="M0 0 C2.66666667 0 5.33333333 0 8 0 C8 0.66 8 1.32 8 2 C5.5 3.625 5.5 3.625 3 5 C2.01 4.34 1.02 3.68 0 3 C0 2.01 0 1.02 0 0 Z " fill="#9A8EC8" transform="translate(147,65)"/>
<path d="M0 0 C-8.13850416 4.38227147 -8.13850416 4.38227147 -12.1875 3.55078125 C-12.785625 3.36902344 -13.38375 3.18726563 -14 3 C-12.23358317 2.3012307 -10.46167336 1.61633417 -8.6875 0.9375 C-7.20830078 0.36322266 -7.20830078 0.36322266 -5.69921875 -0.22265625 C-3 -1 -3 -1 0 0 Z " fill="#D6CCF3" transform="translate(139,22)"/>
<path d="M0 0 C0.66 0.33 1.32 0.66 2 1 C0.88121617 2.17262904 -0.24523051 3.33795138 -1.375 4.5 C-2.00148438 5.1496875 -2.62796875 5.799375 -3.2734375 6.46875 C-5 8 -5 8 -7 8 C-6.875 6.25 -6.875 6.25 -6 4 C-2.9375 1.75 -2.9375 1.75 0 0 Z " fill="#6026D2" transform="translate(15,136)"/>
<path d="M0 0 C0.66 0 1.32 0 2 0 C2 1.65 2 3.3 2 5 C3.32 4.67 4.64 4.34 6 4 C6.99 5.485 6.99 5.485 8 7 C5.33333333 7 2.66666667 7 0 7 C0 4.66666667 0 2.33333333 0 0 Z " fill="#6028C1" transform="translate(137,128)"/>
<path d="M0 0 C0.66 0.33 1.32 0.66 2 1 C2.59355614 3.64860427 2.74209269 6.29197322 3 9 C2.01 9.33 1.02 9.66 0 10 C0 6 0 6 1 4 C0.34 4 -0.32 4 -1 4 C-0.67 2.68 -0.34 1.36 0 0 Z " fill="#4B24A3" transform="translate(98,106)"/>
<path d="M0 0 C0.33 1.32 0.66 2.64 1 4 C-2.75 6 -2.75 6 -5 6 C-5 6.66 -5 7.32 -5 8 C-5.66 8 -6.32 8 -7 8 C-5.50902342 4.2047869 -3.24299151 2.38957269 0 0 Z " fill="#411B91" transform="translate(187,90)"/>
<path d="M0 0 C0.66 0.33 1.32 0.66 2 1 C2 4 2 4 0.625 5.5625 C0.08875 6.036875 -0.4475 6.51125 -1 7 C-1.66 7.66 -2.32 8.32 -3 9 C-3.66 8.34 -4.32 7.68 -5 7 C-4.34 7 -3.68 7 -3 7 C-3 5.35 -3 3.7 -3 2 C-2.01 2 -1.02 2 0 2 C0 1.34 0 0.68 0 0 Z " fill="#4E2CA1" transform="translate(156,82)"/>
<path d="M0 0 C1.98 0.495 1.98 0.495 4 1 C3.60196439 3.88575819 3.20990931 4.82189513 0.9375 6.75 C0.298125 7.1625 -0.34125 7.575 -1 8 C-1.125 2.25 -1.125 2.25 0 0 Z " fill="#C4B7EE" transform="translate(130,81)"/>
<path d="M0 0 C2.6855594 2.6855594 3.06049974 5.37621328 4 9 C3.01 9.495 3.01 9.495 2 10 C1.34 9.67 0.68 9.34 0 9 C0 6.03 0 3.06 0 0 Z " fill="#FCFAF2" transform="translate(140,112)"/>
<path d="M0 0 C1.5625 1.75 1.5625 1.75 3 4 C2.6875 6.25 2.6875 6.25 2 8 C0.68 8.33 -0.64 8.66 -2 9 C-2 8.34 -2 7.68 -2 7 C-1.34 6.67 -0.68 6.34 0 6 C-0.66 4.68 -1.32 3.36 -2 2 C-1.34 2 -0.68 2 0 2 C0 1.34 0 0.68 0 0 Z " fill="#401F8D" transform="translate(157,63)"/>
<path d="M0 0 C1.32 0 2.64 0 4 0 C4 0.66 4 1.32 4 2 C4.99 2 5.98 2 7 2 C7 2.66 7 3.32 7 4 C5.02 4 3.04 4 1 4 C0.67 2.68 0.34 1.36 0 0 Z " fill="#6730E3" transform="translate(112,140)"/>
<path d="M0 0 C1.98 0 3.96 0 6 0 C6 0.66 6 1.32 6 2 C3.625 3.6875 3.625 3.6875 1 5 C0.34 4.67 -0.32 4.34 -1 4 C-0.67 2.68 -0.34 1.36 0 0 Z " fill="#5129A6" transform="translate(187,114)"/>
<path d="M0 0 C0.66 1.32 1.32 2.64 2 4 C1.34 4.66 0.68 5.32 0 6 C-1.32 6 -2.64 6 -4 6 C-3.0022242 3.00667261 -2.2477975 2.05233685 0 0 Z " fill="#E8E3E6" transform="translate(204,107)"/>
<path d="M0 0 C1.98 0.495 1.98 0.495 4 1 C4 2.32 4 3.64 4 5 C2.35 5.33 0.7 5.66 -1 6 C-0.649375 5.38125 -0.29875 4.7625 0.0625 4.125 C0.371875 3.42375 0.68125 2.7225 1 2 C0.67 1.34 0.34 0.68 0 0 Z " fill="#D3D4E2" transform="translate(156,90)"/>
<path d="M0 0 C2.475 0.495 2.475 0.495 5 1 C4.67 2.98 4.34 4.96 4 7 C2.68 6.34 1.36 5.68 0 5 C0.33 4.34 0.66 3.68 1 3 C0.67 2.01 0.34 1.02 0 0 Z " fill="#482695" transform="translate(99,80)"/>
<path d="M0 0 C1.98 0.495 1.98 0.495 4 1 C3.67 1.99 3.34 2.98 3 4 C2.34 4 1.68 4 1 4 C0.67 5.65 0.34 7.3 0 9 C-1.10844919 5.67465243 -0.84454356 3.37817425 0 0 Z " fill="#D2CCF2" transform="translate(198,64)"/>
<path d="M0 0 C1.65 0 3.3 0 5 0 C5 0.99 5 1.98 5 3 C4.01 3.66 3.02 4.32 2 5 C1.01 4.34 0.02 3.68 -1 3 C-0.67 2.01 -0.34 1.02 0 0 Z " fill="#B3A8D3" transform="translate(106,51)"/>
<path d="M0 0 C0.33 0.99 0.66 1.98 1 3 C-1.64 3 -4.28 3 -7 3 C-7 2.34 -7 1.68 -7 1 C-4.53721199 -0.231394 -2.7204945 -0.07159196 0 0 Z " fill="#231160" transform="translate(143,38)"/>
<path d="M0 0 C0.99 0.66 1.98 1.32 3 2 C-0.85756507 4.15305957 -3.55129785 5.39253254 -8 5 C-8 4.34 -8 3.68 -8 3 C-5.36 2.67 -2.72 2.34 0 2 C0 1.34 0 0.68 0 0 Z " fill="#6228D4" transform="translate(88,142)"/>
<path d="M0 0 C0.99 0 1.98 0 3 0 C3.33 2.31 3.66 4.62 4 7 C3.34 7 2.68 7 2 7 C1.67 7.66 1.34 8.32 1 9 C0.67 6.03 0.34 3.06 0 0 Z " fill="#642CE0" transform="translate(131,128)"/>
<path d="M0 0 C1.32 1.65 2.64 3.3 4 5 C3.34 5.66 2.68 6.32 2 7 C1.34 6.01 0.68 5.02 0 4 C-1.32 4.33 -2.64 4.66 -4 5 C-3.34 4.67 -2.68 4.34 -2 4 C-2 3.01 -2 2.02 -2 1 C-1.34 0.67 -0.68 0.34 0 0 Z " fill="#6135BB" transform="translate(103,119)"/>
<path d="M0 0 C0.66 0 1.32 0 2 0 C2 2.97 2 5.94 2 9 C1.01 8.67 0.02 8.34 -1 8 C-1.8125 6.1875 -1.8125 6.1875 -2 4 C-1.0625 1.75 -1.0625 1.75 0 0 Z " fill="#F1E9FE" transform="translate(206,108)"/>
<path d="M0 0 C2 3 2 3 2 7 C0.68 7.33 -0.64 7.66 -2 8 C-2.33 7.01 -2.66 6.02 -3 5 C-2.01 4.67 -1.02 4.34 0 4 C0 2.68 0 1.36 0 0 Z " fill="#4F25A7" transform="translate(96,99)"/>
<path d="M0 0 C0.99 0.33 1.98 0.66 3 1 C3.33 1.99 3.66 2.98 4 4 C1 6 1 6 -1.1875 5.625 C-1.785625 5.41875 -2.38375 5.2125 -3 5 C-2.34 5 -1.68 5 -1 5 C-0.67 3.35 -0.34 1.7 0 0 Z " fill="#3A2085" transform="translate(124,55)"/>
<path d="M0 0 C3.16115776 1.36983503 3.9927092 1.9890638 6 5 C4.02 5 2.04 5 0 5 C0 3.33333333 0 1.66666667 0 0 Z " fill="#25105D" transform="translate(172,43)"/>
<path d="M0 0 C1.32 0.33 2.64 0.66 4 1 C4 1.66 4 2.32 4 3 C-1.94 3.495 -1.94 3.495 -8 4 C-5.08235 2.0549 -3.37462715 1.54723683 0 1 C0 0.67 0 0.34 0 0 Z " fill="#6530D9" transform="translate(101,132)"/>
<path d="M0 0 C1.2065625 0.0309375 1.2065625 0.0309375 2.4375 0.0625 C2.7675 1.7125 3.0975 3.3625 3.4375 5.0625 C0.52232708 3.98848892 -1.34060176 3.28439824 -3.5625 1.0625 C-2.5625 0.0625 -2.5625 0.0625 0 0 Z " fill="#EFDFFC" transform="translate(211.5625,96.9375)"/>
<path d="M0 0 C0.33 0.66 0.66 1.32 1 2 C3.02463255 2.65213292 3.02463255 2.65213292 5 3 C4.67 3.99 4.34 4.98 4 6 C2.35 5.67 0.7 5.34 -1 5 C-0.67 3.35 -0.34 1.7 0 0 Z " fill="#B9ADDB" transform="translate(103,52)"/>
<path d="M0 0 C1.60031344 3.20062687 0.03173691 5.72271806 -1 9 C-1.99 9 -2.98 9 -4 9 C-3.46930939 5.17902761 -2.50298434 2.93828597 0 0 Z " fill="#B6A2E4" transform="translate(102,46)"/>
<path d="M0 0 C1.32 0.66 2.64 1.32 4 2 C4 2.66 4 3.32 4 4 C-2.625 3.25 -2.625 3.25 -6 1 C-4.7934375 1.0309375 -4.7934375 1.0309375 -3.5625 1.0625 C-1.06645115 1.29633621 -1.06645115 1.29633621 0 0 Z " fill="#9982D3" transform="translate(159,138)"/>
<path d="M0 0 C1.32 0.33 2.64 0.66 4 1 C4 3.64 4 6.28 4 9 C3.01 9.495 3.01 9.495 2 10 C2.04125 9.0925 2.0825 8.185 2.125 7.25 C2.00468444 4.1217954 1.6085292 2.61385994 0 0 Z " fill="#6638D2" transform="translate(128,128)"/>
<path d="M0 0 C1.65 0 3.3 0 5 0 C5 0.66 5 1.32 5 2 C5.66 2.33 6.32 2.66 7 3 C6.67 3.66 6.34 4.32 6 5 C5.34 5 4.68 5 4 5 C3.67 4.34 3.34 3.68 3 3 C2.01 2.67 1.02 2.34 0 2 C0 1.34 0 0.68 0 0 Z " fill="#5922C8" transform="translate(130,110)"/>
<path d="M0 0 C0.66 0 1.32 0 2 0 C2.33 1.32 2.66 2.64 3 4 C-0.75 7 -0.75 7 -3 7 C-3 6.34 -3 5.68 -3 5 C-2 4 -1 3 0 2 C0 1.34 0 0.68 0 0 Z " fill="#6227D7" transform="translate(37,149)"/>
<path d="M0 0 C2.0625 0.4375 2.0625 0.4375 4 1 C4 1.99 4 2.98 4 4 C2.68 4.33 1.36 4.66 0 5 C-0.5625 3.0625 -0.5625 3.0625 -1 1 C-0.67 0.67 -0.34 0.34 0 0 Z " fill="#D7D2E1" transform="translate(117,129)"/>
<path d="M0 0 C0.33 0.66 0.66 1.32 1 2 C0.22265625 3.7265625 0.22265625 3.7265625 -0.9375 5.625 C-1.618125 6.73875 -2.29875 7.8525 -3 9 C-3.66 8.34 -4.32 7.68 -5 7 C-3.35 4.69 -1.7 2.38 0 0 Z " fill="#652ED1" transform="translate(301,125)"/>
<path d="M0 0 C2 1 2 1 4 3 C4.625 5.125 4.625 5.125 5 7 C3.0625 6.3125 3.0625 6.3125 1 5 C0.25 2.375 0.25 2.375 0 0 Z " fill="#EEE4FD" transform="translate(143,127)"/>
<path d="M0 0 C0.66 0.66 1.32 1.32 2 2 C1.625 5.125 1.625 5.125 1 8 C-1 6 -1 6 -1.1875 3.4375 C-1 1 -1 1 0 0 Z " fill="#DECBF9" transform="translate(121,115)"/>
<path d="M0 0 C0.66 0.33 1.32 0.66 2 1 C1.67 2.98 1.34 4.96 1 7 C0.7525 6.360625 0.505 5.72125 0.25 5.0625 C-0.81562433 2.81258459 -0.81562433 2.81258459 -3.125 2.25 C-4.053125 2.12625 -4.053125 2.12625 -5 2 C-2.625 0.9375 -2.625 0.9375 0 0 Z " fill="#6430C3" transform="translate(137,117)"/>
<path d="M0 0 C0.99 0.33 1.98 0.66 3 1 C2.67 2.65 2.34 4.3 2 6 C1.01 6 0.02 6 -1 6 C-0.67 4.02 -0.34 2.04 0 0 Z " fill="#562D9D" transform="translate(137,106)"/>
<path d="M0 0 C0.66 0.33 1.32 0.66 2 1 C2.625 3.5625 2.625 3.5625 3 6 C1.0625 5.6875 1.0625 5.6875 -1 5 C-1.33 4.01 -1.66 3.02 -2 2 C-1.34 1.34 -0.68 0.68 0 0 Z " fill="#E7E0F0" transform="translate(110,74)"/>
<path d="M0 0 C2.0625 0.4375 2.0625 0.4375 4 1 C3.625 3.4375 3.625 3.4375 3 6 C2.01 6.495 2.01 6.495 1 7 C0.34 5.02 -0.32 3.04 -1 1 C-0.67 0.67 -0.34 0.34 0 0 Z " fill="#402284" transform="translate(181,57)"/>
<path d="M0 0 C0.66 0 1.32 0 2 0 C3.75 2.25 3.75 2.25 5 5 C4.34 6.32 3.68 7.64 3 9 C2.01 6.03 1.02 3.06 0 0 Z " fill="#220E50" transform="translate(199,38)"/>
<path d="M0 0 C1.65 0.33 3.3 0.66 5 1 C3.68 2.32 2.36 3.64 1 5 C0.34 4.34 -0.32 3.68 -1 3 C-0.67 2.01 -0.34 1.02 0 0 Z " fill="#39246E" transform="translate(108,33)"/>
<path d="M0 0 C1.67542976 0.28604898 3.34385343 0.61781233 5 1 C5 1.99 5 2.98 5 4 C3.68 4 2.36 4 1 4 C1 3.34 1 2.68 1 2 C0.34 1.67 -0.32 1.34 -1 1 C-0.67 0.67 -0.34 0.34 0 0 Z " fill="#F7F4F9" transform="translate(175,23)"/>
</svg>
