<?xml version="1.0" encoding="UTF-8"?>
<svg version="1.1" xmlns="http://www.w3.org/2000/svg" width="160" height="160">
<path d="M0 0 C52.8 0 105.6 0 160 0 C160 52.8 160 105.6 160 160 C107.2 160 54.4 160 0 160 C0 107.2 0 54.4 0 0 Z " fill="#FEFEFE" transform="translate(0,0)"/>
<path d="M0 0 C3.02508145 1.73602105 5.41790069 3.83580137 7 7 C7.04259733 11.41308343 6.80364944 14.96303299 4.0625 18.5 C0.21074713 21.30127481 -3.32511705 21.67167859 -8 21 C-10.8100346 19.20636089 -12.50940468 17.98119065 -14 15 C-14.55512815 10.36786507 -14.6364242 7.01827873 -12.125 3 C-8.48407397 -0.42675391 -4.8582835 -0.82924319 0 0 Z " fill="#FA4E4B" transform="translate(19,71)"/>
<path d="M0 0 C0.10812003 2.75105422 0.18734945 5.49785087 0.25 8.25 C0.30027344 9.41595703 0.30027344 9.41595703 0.3515625 10.60546875 C0.41605304 14.37816545 0.4453904 16.36203503 -1.76171875 19.5234375 C-5.40888027 21.92941839 -7.68931317 21.4105416 -12 21 C-12.99 20.34 -13.98 19.68 -15 19 C-15 18.01 -15 17.02 -15 16 C-12.03 16.33 -9.06 16.66 -6 17 C-5.67 16.34 -5.34 15.68 -5 15 C-6.8871875 15.12375 -6.8871875 15.12375 -8.8125 15.25 C-12.70339488 15.22245384 -12.70339488 15.22245384 -15 13.5 C-16.43663932 9.9084017 -16.78581753 6.8046017 -16 3 C-11.96806769 -2.70031809 -6.11351761 -0.9850151 0 0 Z " fill="#0D0D0D" transform="translate(109,77)"/>
<path d="M0 0 C3.3 0 6.6 0 10 0 C10.83806616 2.93622464 11.67062444 5.87382067 12.5 8.8125 C12.73847656 9.64587891 12.97695312 10.47925781 13.22265625 11.33789062 C13.44824219 12.14033203 13.67382812 12.94277344 13.90625 13.76953125 C14.11572266 14.50792236 14.32519531 15.24631348 14.54101562 16.00708008 C15 18 15 18 15 21 C13.68 21 12.36 21 11 21 C10.67 19.02 10.34 17.04 10 15 C5.545 15.495 5.545 15.495 1 16 C0.01 18.475 0.01 18.475 -1 21 C-2.32 21 -3.64 21 -5 21 C-4.35451147 18.24991865 -3.70862234 15.49993244 -3.0625 12.75 C-2.88009766 11.97269531 -2.69769531 11.19539063 -2.50976562 10.39453125 C-2.33251953 9.64042969 -2.15527344 8.88632813 -1.97265625 8.109375 C-1.72914429 7.07248535 -1.72914429 7.07248535 -1.48071289 6.01464844 C-1.00149975 4.00628538 -0.50077395 2.00309581 0 0 Z " fill="#101010" transform="translate(64,71)"/>
<path d="M0 0 C0 4.95 0 9.9 0 15 C-10.36519608 16.35734711 -10.36519608 16.35734711 -13.296875 14.70703125 C-15.81073876 12.18740175 -15.99367558 10.05797388 -16.375 6.5625 C-16 3 -16 3 -14.1875 0.5 C-9.262917 -1.81745083 -5.33839841 -0.77181664 0 0 Z " fill="#101010" transform="translate(153,77)"/>
<path d="M0 0 C2.64 0 5.28 0 8 0 C8.391875 1.2375 8.78375 2.475 9.1875 3.75 C10.69767493 7.74420098 12.26944502 9.74431559 16 12 C19.17921787 13.25556887 19.17921787 13.25556887 22 14 C22 16.31 22 18.62 22 21 C15.92247635 20.97186332 11.60089851 19.92626865 6.8671875 16.01953125 C3.38065019 12.24852751 0.80207377 7.80301669 -1 3 C-0.67 2.01 -0.34 1.02 0 0 Z " fill="#F8C2AA" transform="translate(24,71)"/>
<path d="M0 0 C2 1.5 2 1.5 3 3 C1.38405168 5.04119788 -0.2856382 7.04072937 -2 9 C-2.66 9 -3.32 9 -4 9 C-4 9.66 -4 10.32 -4 11 C-4.66 11 -5.32 11 -6 11 C-6.2475 11.598125 -6.495 12.19625 -6.75 12.8125 C-8.16370012 15.28647521 -9.65055383 16.43370255 -12 18 C-14.6790573 13.98141405 -14.69610694 10.72358279 -14 6 C-10.34865753 0.15785205 -6.73472579 -0.82634672 0 0 Z " fill="#FD635C" transform="translate(19,71)"/>
<path d="M0 0 C1.32 0 2.64 0 4 0 C4 6.93 4 13.86 4 21 C2.68 21 1.36 21 0 21 C0 14.07 0 7.14 0 0 Z " fill="#1C1C1C" transform="translate(130,71)"/>
<path d="M0 0 C1.32 0 2.64 0 4 0 C4 6.93 4 13.86 4 21 C2.68 21 1.36 21 0 21 C0 14.07 0 7.14 0 0 Z " fill="#1F1F1F" transform="translate(122,71)"/>
<path d="M0 0 C0.99 0 1.98 0 3 0 C3 1.32 3 2.64 3 4 C1.68 4.33 0.36 4.66 -1 5 C-1.33 8.63 -1.66 12.26 -2 16 C-3.32 16 -4.64 16 -6 16 C-6 11.05 -6 6.1 -6 1 C-4.35 1 -2.7 1 -1 1 C-0.67 0.67 -0.34 0.34 0 0 Z " fill="#0C0C0C" transform="translate(88,76)"/>
<path d="M0 0 C2.4375 0.1875 2.4375 0.1875 3.4375 1.1875 C3.47842937 3.52047433 3.47991723 5.85455225 3.4375 8.1875 C0.5625 8.8125 0.5625 8.8125 -2.5625 9.1875 C-4.5625 7.1875 -4.5625 7.1875 -4.8125 4.6875 C-4.45862826 1.14878262 -3.54553886 0.25942967 0 0 Z " fill="#F4F4F4" transform="translate(145.5625,79.8125)"/>
<path d="M0 0 C2.4375 0.1875 2.4375 0.1875 3.4375 1.1875 C3.625 4.125 3.625 4.125 3.4375 7.1875 C2.7775 7.8475 2.1175 8.5075 1.4375 9.1875 C-3.11805556 8.63194444 -3.11805556 8.63194444 -4.5625 7.1875 C-4.75 4.75 -4.75 4.75 -4.5625 2.1875 C-2.5625 0.1875 -2.5625 0.1875 0 0 Z " fill="#F6F6F6" transform="translate(101.5625,79.8125)"/>
<path d="M0 0 C0.99 0 1.98 0 3 0 C3 4.95 3 9.9 3 15 C2.01 15 1.02 15 0 15 C0 10.05 0 5.1 0 0 Z " fill="#000000" transform="translate(114,77)"/>
<path d="M0 0 C0.66 0 1.32 0 2 0 C2.66 3.63 3.32 7.26 4 11 C2.02 11 0.04 11 -2 11 C-1.34 7.37 -0.68 3.74 0 0 Z " fill="#D8D8D8" transform="translate(68,72)"/>
<path d="M0 0 C0 1.32 0 2.64 0 4 C-1.65 4.33 -3.3 4.66 -5 5 C-5.33 3.68 -5.66 2.36 -6 1 C-3 0 -3 0 0 0 Z " fill="#1E1E1E" transform="translate(91,76)"/>
<path d="M0 0 C0 0.99 0 1.98 0 3 C-1.65 3.33 -3.3 3.66 -5 4 C-5.33 3.01 -5.66 2.02 -6 1 C-4.02 0.67 -2.04 0.34 0 0 Z " fill="#C5C5C5" transform="translate(104,91)"/>
<path d="M0 0 C1.65 0 3.3 0 5 0 C4.67 1.32 4.34 2.64 4 4 C2.68 3.67 1.36 3.34 0 3 C0 2.01 0 1.02 0 0 Z " fill="#242424" transform="translate(113,71)"/>
</svg>
