<?xml version="1.0" encoding="UTF-8"?>
<svg version="1.1" xmlns="http://www.w3.org/2000/svg" width="672" height="672">
<path d="M0 0 C1.04356155 -0.00705963 2.08712311 -0.01411926 3.16230774 -0.02139282 C46.8300792 -0.24970461 46.8300792 -0.24970461 66.71875 3.203125 C67.8948584 3.40180176 69.0709668 3.60047852 70.28271484 3.80517578 C121.09469921 12.6136421 168.85746421 32.05321427 210.71875 62.203125 C211.30188965 62.62045898 211.8850293 63.03779297 212.48583984 63.46777344 C228.21147628 74.77961201 242.59700027 87.90392982 256.28125 101.578125 C257.60286133 102.88136719 257.60286133 102.88136719 258.95117188 104.2109375 C264.97988956 110.22630747 270.42361982 116.53833145 275.71875 123.203125 C276.76709214 124.4811713 277.81757044 125.75747129 278.87109375 127.03125 C322.50676906 180.39340888 350.60871636 252.240844 350.921875 321.484375 C350.92893463 322.52793655 350.93599426 323.57149811 350.94326782 324.64668274 C351.17157961 368.3144542 351.17157961 368.3144542 347.71875 388.203125 C347.52007324 389.3792334 347.32139648 390.5553418 347.11669922 391.76708984 C338.3082329 442.57907421 318.86866073 490.34183921 288.71875 532.203125 C288.30141602 532.78626465 287.88408203 533.3694043 287.45410156 533.97021484 C276.14226299 549.69585128 263.01794518 564.08137527 249.34375 577.765625 C248.47492187 578.64669922 247.60609375 579.52777344 246.7109375 580.43554688 C240.69556753 586.46426456 234.38354355 591.90799482 227.71875 597.203125 C226.4407037 598.25146714 225.16440371 599.30194544 223.890625 600.35546875 C170.52846612 643.99114406 98.681031 672.09309136 29.4375 672.40625 C28.39393845 672.41330963 27.35037689 672.42036926 26.27519226 672.42764282 C-17.3925792 672.65595461 -17.3925792 672.65595461 -37.28125 669.203125 C-38.4573584 669.00444824 -39.6334668 668.80577148 -40.84521484 668.60107422 C-91.65719921 659.7926079 -139.41996421 640.35303573 -181.28125 610.203125 C-181.86438965 609.78579102 -182.4475293 609.36845703 -183.04833984 608.93847656 C-198.77397628 597.62663799 -213.15950027 584.50232018 -226.84375 570.828125 C-227.72482422 569.95929687 -228.60589844 569.09046875 -229.51367188 568.1953125 C-235.54238956 562.17994253 -240.98611982 555.86791855 -246.28125 549.203125 C-247.32959214 547.9250787 -248.38007044 546.64877871 -249.43359375 545.375 C-293.06926906 492.01284112 -321.17121636 420.165406 -321.484375 350.921875 C-321.49496445 349.35653267 -321.49496445 349.35653267 -321.50576782 347.75956726 C-321.73407961 304.0917958 -321.73407961 304.0917958 -318.28125 284.203125 C-318.08257324 283.0270166 -317.88389648 281.8509082 -317.67919922 280.63916016 C-308.8707329 229.82717579 -289.43116073 182.06441079 -259.28125 140.203125 C-258.86391602 139.61998535 -258.44658203 139.0368457 -258.01660156 138.43603516 C-246.70476299 122.71039872 -233.58044518 108.32487473 -219.90625 94.640625 C-219.03742188 93.75955078 -218.16859375 92.87847656 -217.2734375 91.97070312 C-211.25806753 85.94198544 -204.94604355 80.49825518 -198.28125 75.203125 C-197.0032037 74.15478286 -195.72690371 73.10430456 -194.453125 72.05078125 C-141.09096612 28.41510594 -69.243531 0.31315864 0 0 Z " fill="#FB8A01" transform="translate(321.28125,-0.203125)"/>
<path d="M0 0 C20.18652959 7.66178506 38.55057848 19.43233775 56 32 C56.58313965 32.41733398 57.1662793 32.83466797 57.76708984 33.26464844 C73.49272628 44.57648701 87.87825027 57.70080482 101.5625 71.375 C102.44357422 72.24382812 103.32464844 73.11265625 104.23242188 74.0078125 C110.26113956 80.02318247 115.70486982 86.33520645 121 93 C122.04834214 94.2780463 123.09882044 95.55434629 124.15234375 96.828125 C166.30272456 148.37391412 196.7290982 220.36108211 196.0625 287.6875 C196.05347656 288.88761719 196.04445313 290.08773438 196.03515625 291.32421875 C196.01775391 292.64873047 196.01775391 292.64873047 196 294 C194.41477579 293.35882191 192.83204317 292.71148732 191.25 292.0625 C190.1465625 291.62035156 189.043125 291.17820312 187.90625 290.72265625 C185.01814768 289.50956358 182.32292212 288.09463687 179.59375 286.55859375 C166.82904396 279.62715032 158.02587809 279.56488555 144.00048828 282.27636719 C136.27849129 283.72223658 128.4694494 284.69240957 120.690979 285.7807312 C117.84444696 286.18298545 114.99995064 286.59739459 112.15576172 287.01586914 C111.25946548 287.14665863 110.36316925 287.27744812 109.43971252 287.41220093 C107.74512176 287.6596413 106.05087425 287.90944808 104.35704041 288.16201782 C103.21121239 288.32774796 103.21121239 288.32774796 102.04223633 288.49682617 C101.37960281 288.59436691 100.7169693 288.69190765 100.03425598 288.79240417 C97.7006032 289.03055344 95.34577287 289 93 289 C93 310.45 93 331.9 93 354 C87.39 354 81.78 354 76 354 C76 333.54 76 313.08 76 292 C69.52632812 292.9384375 63.05265625 293.876875 56.3828125 294.84375 C52.29038699 295.43635358 48.19794979 296.02887406 44.10546875 296.62109375 C37.60453639 297.56184665 31.10365045 298.502913 24.60302734 299.44580078 C19.36424124 300.20564488 14.12525875 300.96412085 8.8861351 301.72163391 C6.88371546 302.01140757 4.88136804 302.30168072 2.87909317 302.592453 C0.08250608 302.99849039 -2.71432861 303.40277806 -5.51123047 303.80664062 C-6.34560638 303.92820023 -7.1799823 304.04975983 -8.03964233 304.17500305 C-13.77189568 305 -13.77189568 305 -16 305 C-12.19690718 316.17158515 -8.25224361 327.23230985 -3.66601562 338.11035156 C-1.49715804 343.35723431 -0.09490935 348.42541079 1 354 C-4.94 354 -10.88 354 -17 354 C-21.29 342.45 -25.58 330.9 -30 319 C-36.64205897 323.96304525 -36.64205897 323.96304525 -42.8125 329.3125 C-46.2271892 332.43569134 -49.70317642 335.41664736 -53.3125 338.3125 C-58.12585437 342.20255931 -62.6476145 346.32871834 -67.16113281 350.55566406 C-71.37393141 354.47878593 -75.76395352 358.11896414 -80.25390625 361.72265625 C-83.26319052 364.21826469 -86.13938654 366.83765143 -89 369.5 C-92.73327255 372.97419243 -96.52371111 376.3006871 -100.5 379.5 C-105.61245985 383.61652611 -110.42576554 387.9922884 -115.23828125 392.44921875 C-119.79961242 396.6621597 -124.49022292 400.71432894 -129.21484375 404.7421875 C-130.10163818 405.4993103 -130.10163818 405.4993103 -131.00634766 406.27172852 C-132.15683892 407.25317626 -133.30871111 408.23300918 -134.46240234 409.21069336 C-135.63323298 410.20870328 -136.79014332 411.22317988 -137.93579102 412.25 C-140 414 -140 414 -142.65600586 415.828125 C-153.08970406 423.70974044 -154.8280801 434.21937709 -157.9375 446.375 C-158.54322404 448.62213924 -159.15353429 450.86804651 -159.76806641 453.11279297 C-160.76002729 456.73789574 -161.74898661 460.36356678 -162.72473145 463.99307251 C-166.73959433 478.90213049 -171.12948143 493.70021268 -175.50979614 508.50518799 C-176.64589433 512.34639265 -177.775965 516.18933629 -178.90346241 520.03307343 C-179.75195629 522.92547095 -180.60207413 525.81738948 -181.45254707 528.70920563 C-181.85119053 530.06547351 -182.24932383 531.42189146 -182.64692497 532.77846527 C-183.19231778 534.63816497 -183.74037382 536.49708302 -184.28857422 538.35595703 C-184.59640839 539.40268585 -184.90424255 540.44941467 -185.22140503 541.52786255 C-186 544 -186 544 -187 546 C-188.98162848 546.79917653 -191.00417335 547.49734811 -193.03833008 548.15136719 C-193.66959305 548.35660004 -194.30085602 548.56183289 -194.95124817 548.77328491 C-197.05504733 549.45516365 -199.16217715 550.12607095 -201.26953125 550.796875 C-202.74496085 551.27228461 -204.22019291 551.74830771 -205.69523621 552.22491455 C-208.80521645 553.22810495 -211.91672708 554.2263408 -215.02954102 555.22070312 C-218.95937388 556.47607892 -222.88657406 557.73943415 -226.81279182 559.00606537 C-242.82555998 564.17113527 -258.84908175 569.28025761 -275 574 C-282.02265049 563.73395672 -281.20953011 556.27862652 -279.48242188 544.43066406 C-278.91488011 540.39468385 -278.42888629 536.35234109 -277.953125 532.3046875 C-276.99756947 524.19941835 -276.00769412 516.09895642 -275 508 C-282.18479976 511.05376669 -289.08994164 514.56058014 -296 518.1875 C-297.10577393 518.76556396 -298.21154785 519.34362793 -299.35083008 519.93920898 C-302.56886743 521.62301946 -305.78472304 523.31092588 -309 525 C-309.81130371 525.42506836 -310.62260742 525.85013672 -311.45849609 526.28808594 C-321.20282643 531.3950674 -330.87250561 536.63372276 -340.51635742 541.92797852 C-342.25235343 542.87946673 -343.99073437 543.82662197 -345.73193359 544.76855469 C-347.62947892 545.7988258 -349.51372616 546.85353949 -351.39453125 547.9140625 C-354.36960777 549.15404941 -355.07961408 549.18734216 -358 548 C-364.2852457 541.67338129 -366.06382926 535.36257308 -366.3203125 526.69750977 C-366.37937775 525.6189676 -366.43844299 524.54042543 -366.4992981 523.42920017 C-366.62429636 521.12831326 -366.73658721 518.82670554 -366.83703613 516.52461624 C-367.05253609 511.8637386 -367.3710427 507.21223318 -367.68789673 502.55732632 C-368.02095951 497.62454715 -368.32565801 492.6901342 -368.63189697 487.75562859 C-368.88253294 483.71850686 -369.13594726 479.68156766 -369.39013672 475.64466858 C-370.0202171 465.62982895 -370.64567915 455.61470158 -371.27075195 445.59954834 C-371.75890005 437.77941791 -372.24828578 429.95936835 -372.74090004 422.13951784 C-373.03158926 417.52269475 -373.31863912 412.90565418 -373.60498047 408.28855896 C-374.39075715 395.75181524 -375.238156 383.23141558 -376.42276001 370.72495174 C-376.89370308 365.50929814 -376.99513239 360.59468012 -376.5625 355.375 C-376.39095654 352.48394787 -376.39095654 352.48394787 -377 350 C-379.01664368 347.97885489 -381.0171962 346.83618639 -383.54296875 345.515625 C-390.95224688 340.94519588 -395.06901719 331.14012985 -397.0546875 322.98828125 C-398.22620473 317.56980772 -398.34417312 312.27764818 -398.3125 306.75 C-398.30758545 305.73728027 -398.3026709 304.72456055 -398.29760742 303.68115234 C-398.07965962 289.72578691 -395.18792531 277.18792531 -385 267 C-373.18455019 258.39160085 -361.92272406 257.4771541 -347.64526367 257.94140625 C-343.30255684 258.06675197 -339.22455451 258.06576291 -335 257 C-332.27236943 254.32520655 -331.2299832 251.55945807 -330 248 C-329.19353785 246.48538347 -328.36318304 244.98302376 -327.5 243.5 C-326.28251342 241.31003189 -325.06599638 239.11960436 -323.85546875 236.92578125 C-321.48440365 232.63566011 -319.0688818 228.37408175 -316.625 224.125 C-312.66499997 217.22317463 -308.80066416 210.26886759 -304.9375 203.3125 C-304.29756104 202.16442871 -303.65762207 201.01635742 -302.99829102 199.83349609 C-299.95277781 194.36449294 -296.92743318 188.88719651 -293.97709656 183.36613464 C-292.66393441 180.91177849 -291.33892606 178.46391165 -290.01296997 176.01644897 C-289.08876463 174.29881283 -288.18168846 172.57199447 -287.27514648 170.8449707 C-280.21935166 157.85110133 -270.59551358 152.83426521 -257.875 146.3125 C-256.33590911 145.51269934 -254.79750302 144.71157958 -253.25976562 143.90917969 C-250.96154009 142.71001449 -248.66302352 141.51147926 -246.36236572 140.31698608 C-240.36641795 137.20313974 -234.41965111 134.00670435 -228.5 130.75 C-226.77360135 129.80308663 -225.04703858 128.85647241 -223.3203125 127.91015625 C-222.46211914 127.43980957 -221.60392578 126.96946289 -220.71972656 126.48486328 C-212.31031349 121.89365589 -203.8629986 117.3718347 -195.42236328 112.83837891 C-192.51896255 111.2787693 -189.61626043 109.71786841 -186.71377563 108.15655518 C-174.28854787 101.47458451 -161.83644068 94.8507789 -149.31323242 88.35375977 C-142.70753689 84.91671116 -136.1568967 81.38757337 -129.625 77.8125 C-128.71524414 77.3182251 -127.80548828 76.8239502 -126.86816406 76.31469727 C-122.63432876 74.01108297 -118.42707679 71.67828177 -114.265625 69.24609375 C-113.52103027 68.82287842 -112.77643555 68.39966309 -112.00927734 67.96362305 C-110.65383864 67.19287427 -109.30879093 66.40331907 -107.97900391 65.58911133 C-97.37452398 59.65277186 -81.92691244 63.52152957 -70.30153847 64.48156738 C-66.99256165 64.75480751 -63.6831521 65.02214754 -60.37358093 65.28808594 C-54.54234745 65.75759548 -48.71154036 66.23217905 -42.88085938 66.70849609 C-33.53998359 67.47156435 -24.1987954 68.2306216 -14.85701561 68.98254395 C-11.60805562 69.24536682 -8.35948567 69.5126738 -5.11091614 69.78027344 C-3.10822101 69.94225343 -1.10551081 70.1040471 0.8972168 70.265625 C1.79043137 70.34043091 2.68364594 70.41523682 3.60392761 70.49230957 C9.08832714 70.92927289 14.49794683 71.06527871 20 71 C19.77449463 70.27337158 19.54898926 69.54674316 19.31665039 68.7980957 C18.99688232 67.76773193 18.67711426 66.73736816 18.34765625 65.67578125 C17.98752441 64.51554443 17.62739258 63.35530762 17.25634766 62.15991211 C16.45207153 59.56845291 15.64843244 56.97679724 14.84521484 54.38500977 C12.94425962 48.25286459 11.04076657 42.12160583 9.11808777 35.99623108 C8.50922297 34.05600493 7.90174947 32.11534839 7.29467773 30.17456055 C6.53520516 27.7480845 5.77314736 25.32241554 5.00805664 22.89770508 C0.19062875 7.47817308 0.19062875 7.47817308 -1 1 C-0.67 0.67 -0.34 0.34 0 0 Z " fill="#FB8B01" transform="translate(476,30)"/>
<path d="M0 0 C6.58257273 2.02615493 13.23791332 3.75438914 19.90185547 5.48974609 C21.29374138 5.85268926 22.68562256 6.21565054 24.07749939 6.57862854 C26.27677424 7.15212214 28.47610063 7.72541169 30.67564678 8.29786396 C35.28550594 9.49905082 39.89072695 10.71648977 44.49307728 11.94612026 C59.76145768 16.02214864 74.96384305 19.92130418 90.49951172 22.84521484 C124.12137566 29.34625788 124.12137566 29.34625788 129.52392578 35.51611328 C133.51359443 42.06840014 134.27246856 48.67636152 134.48876953 56.23144531 C134.70766179 60.69497123 135.6796553 64.78080977 136.74487305 69.10693359 C139.59209128 80.79018156 141.19979048 92.79170178 142.65966797 104.71630859 C142.79244141 105.79138672 142.92521484 106.86646484 143.06201172 107.97412109 C143.83212642 115.21108941 143.75519134 122.44591894 143.65966797 129.71630859 C142.07444376 129.07513051 140.49171114 128.42779592 138.90966797 127.77880859 C137.80623047 127.33666016 136.70279297 126.89451172 135.56591797 126.43896484 C132.67781565 125.22587218 129.98259009 123.81094546 127.25341797 122.27490234 C114.48871193 115.34345892 105.68554606 115.28119415 91.66015625 117.99267578 C83.93815926 119.43854517 76.12911737 120.40871816 68.35064697 121.49703979 C65.50411493 121.89929405 62.65961861 122.31370319 59.81542969 122.73217773 C58.91913345 122.86296722 58.02283722 122.99375671 57.09938049 123.12850952 C55.40478973 123.3759499 53.71054222 123.62575667 52.01670837 123.87832642 C51.25282303 123.98881317 50.48893768 124.09929993 49.7019043 124.21313477 C49.03927078 124.31067551 48.37663727 124.40821625 47.69392395 124.50871277 C45.36027117 124.74686204 43.00544084 124.71630859 40.65966797 124.71630859 C40.65966797 146.16630859 40.65966797 167.61630859 40.65966797 189.71630859 C35.04966797 189.71630859 29.43966797 189.71630859 23.65966797 189.71630859 C23.65966797 169.25630859 23.65966797 148.79630859 23.65966797 127.71630859 C13.94916016 129.12396484 13.94916016 129.12396484 4.04248047 130.56005859 C-0.04994504 131.15266218 -4.14238224 131.74518265 -8.23486328 132.33740234 C-14.73579564 133.27815525 -21.23668158 134.21922159 -27.73730469 135.16210938 C-32.97609079 135.92195347 -38.21507328 136.68042944 -43.45419693 137.4379425 C-45.45661657 137.72771617 -47.45896399 138.01798932 -49.46123886 138.3087616 C-52.25782595 138.71479899 -55.05466064 139.11908665 -57.8515625 139.52294922 C-58.68593842 139.64450882 -59.52031433 139.76606842 -60.37997437 139.89131165 C-66.11222771 140.71630859 -66.11222771 140.71630859 -68.34033203 140.71630859 C-64.53723921 151.88789374 -60.59257564 162.94861845 -56.00634766 173.82666016 C-53.83749007 179.07354291 -52.43524138 184.14171938 -51.34033203 189.71630859 C-57.28033203 189.71630859 -63.22033203 189.71630859 -69.34033203 189.71630859 C-73.63033203 178.16630859 -77.92033203 166.61630859 -82.34033203 154.71630859 C-88.982391 159.67935384 -88.982391 159.67935384 -95.15283203 165.02880859 C-98.56752123 168.15199993 -102.04350845 171.13295596 -105.65283203 174.02880859 C-110.4661864 177.91886791 -114.98794653 182.04502694 -119.50146484 186.27197266 C-123.71426344 190.19509453 -128.10428555 193.83527274 -132.59423828 197.43896484 C-135.60352255 199.93457328 -138.47971858 202.55396002 -141.34033203 205.21630859 C-145.07360458 208.69050103 -148.86404314 212.0169957 -152.84033203 215.21630859 C-157.95279188 219.3328347 -162.76609757 223.70859699 -167.57861328 228.16552734 C-172.13994445 232.3784683 -176.83055495 236.43063753 -181.55517578 240.45849609 C-182.14637207 240.96324463 -182.73756836 241.46799316 -183.34667969 241.98803711 C-184.49717095 242.96948485 -185.64904314 243.94931777 -186.80273438 244.92700195 C-187.97356502 245.92501187 -189.13047536 246.93948847 -190.27612305 247.96630859 C-192.34033203 249.71630859 -192.34033203 249.71630859 -194.99633789 251.54443359 C-205.43003609 259.42604903 -207.16841214 269.93568568 -210.27783203 282.09130859 C-210.88355607 284.33844784 -211.49386632 286.5843551 -212.10839844 288.82910156 C-213.10035932 292.45420433 -214.08931864 296.07987537 -215.06506348 299.7093811 C-219.07992636 314.61843909 -223.46981346 329.41652127 -227.85012817 344.22149658 C-228.98622636 348.06270124 -230.11629704 351.90564488 -231.24379444 355.74938202 C-232.09228832 358.64177954 -232.94240616 361.53369808 -233.7928791 364.42551422 C-234.19152256 365.78178211 -234.58965586 367.13820005 -234.987257 368.49477386 C-235.53264981 370.35447356 -236.08070585 372.21339161 -236.62890625 374.07226562 C-236.93674042 375.11899445 -237.24457458 376.16572327 -237.56173706 377.24417114 C-238.34033203 379.71630859 -238.34033203 379.71630859 -239.34033203 381.71630859 C-241.32196051 382.51548512 -243.34450538 383.2136567 -245.37866211 383.86767578 C-246.00992508 384.07290863 -246.64118805 384.27814148 -247.2915802 384.48959351 C-249.39537936 385.17147224 -251.50250918 385.84237955 -253.60986328 386.51318359 C-255.08529289 386.9885932 -256.56052494 387.46461631 -258.03556824 387.94122314 C-261.14554848 388.94441355 -264.25705911 389.9426494 -267.36987305 390.93701172 C-271.29970591 392.19238751 -275.22690609 393.45574274 -279.15312386 394.72237396 C-295.16589201 399.88744386 -311.18941378 404.9965662 -327.34033203 409.71630859 C-332.35928326 402.86841751 -333.87446482 397.53993975 -332.78564453 389.19677734 C-332.68624573 388.31276245 -332.58684692 387.42874756 -332.48443604 386.51794434 C-332.25118922 384.45038795 -332.01021491 382.38369514 -331.7633667 380.31771851 C-331.28836305 376.27388244 -330.84944566 372.22703079 -330.41699219 368.1784668 C-329.42600344 358.92545338 -328.40939708 349.67536699 -327.38896561 340.42556 C-326.98616289 336.77126955 -326.58481331 333.11682001 -326.18339252 329.46237755 C-324.31274777 312.43696015 -322.43187363 295.41286926 -320.48486328 278.39599609 C-320.3468631 277.18816467 -320.20886292 275.98033325 -320.06668091 274.73590088 C-319.44779918 269.32634329 -318.82455052 263.91735535 -318.19287109 258.50927734 C-316.71469138 245.74192543 -315.55273219 232.96683512 -314.53625488 220.15475464 C-313.70074982 209.75610031 -312.22938764 203.14516929 -304.34033203 195.71630859 C-303.68033203 195.71630859 -303.02033203 195.71630859 -302.34033203 195.71630859 C-302.10314453 195.01119141 -301.86595703 194.30607422 -301.62158203 193.57958984 C-300.1153103 190.21343991 -298.18448686 187.74647687 -295.84033203 184.90380859 C-295.04626953 183.92798828 -294.25220703 182.95216797 -293.43408203 181.94677734 C-292.74314453 181.21072266 -292.05220703 180.47466797 -291.34033203 179.71630859 C-290.68033203 179.71630859 -290.02033203 179.71630859 -289.34033203 179.71630859 C-288.68033203 178.06630859 -288.02033203 176.41630859 -287.34033203 174.71630859 C-286.68033203 174.71630859 -286.02033203 174.71630859 -285.34033203 174.71630859 C-285.09283203 173.95318359 -284.84533203 173.19005859 -284.59033203 172.40380859 C-283.23037645 169.4799041 -282.02447377 168.41626503 -279.34033203 166.71630859 C-279.95234284 163.31772946 -280.79857864 160.18965207 -281.99511719 156.95214844 C-282.33282135 156.03283539 -282.67052551 155.11352234 -283.01846313 154.16635132 C-283.3850705 153.17994659 -283.75167786 152.19354187 -284.12939453 151.17724609 C-284.51090668 150.14177643 -284.89241882 149.10630676 -285.28549194 148.03945923 C-286.50864577 144.72212014 -287.73689352 141.40669388 -288.96533203 138.09130859 C-289.76905713 135.91435064 -290.57244588 133.73726847 -291.37548828 131.56005859 C-292.94548479 127.30510562 -294.51744143 123.05088603 -296.09130859 118.79736328 C-299.18323514 110.44029338 -302.26138479 102.078168 -305.34033203 93.71630859 C-299.40033203 93.71630859 -293.46033203 93.71630859 -287.34033203 93.71630859 C-284.66641206 99.49197573 -282.26935114 105.34836405 -279.96533203 111.27880859 C-279.56399048 112.31110596 -279.56399048 112.31110596 -279.15454102 113.36425781 C-276.97668077 119.00219273 -274.85690616 124.66176029 -272.73876953 130.32232666 C-271.14674302 134.5743436 -269.54398175 138.82208419 -267.9303894 143.06596375 C-266.87103993 145.85305743 -265.81573124 148.64167325 -264.76074219 151.43041992 C-264.22140473 152.8532577 -263.68033291 154.27543903 -263.13769531 155.69702148 C-262.33866304 157.79158359 -261.54592009 159.88843148 -260.75439453 161.98583984 C-260.28984863 163.20891846 -259.82530273 164.43199707 -259.34667969 165.69213867 C-258.34033203 168.71630859 -258.34033203 168.71630859 -258.34033203 171.71630859 C-255.70033203 171.71630859 -253.06033203 171.71630859 -250.34033203 171.71630859 C-250.16147461 171.16740967 -249.98261719 170.61851074 -249.79833984 170.05297852 C-248.02302375 164.65870469 -246.12136242 159.33165826 -244.09033203 154.02880859 C-243.59956177 152.7440564 -243.59956177 152.7440564 -243.09887695 151.43334961 C-239.34272046 141.65043132 -235.49665688 131.90252269 -231.65283203 122.15380859 C-231.32931763 121.332565 -231.00580322 120.51132141 -230.67248535 119.66519165 C-228.84238292 115.02209176 -227.00103175 110.38371881 -225.14761353 105.74987793 C-224.40576161 103.88112792 -223.68115848 102.00555471 -222.95825195 100.12939453 C-220.66152446 94.30614595 -218.31901618 89.65729386 -214.02783203 85.09130859 C-213.05397629 83.99992982 -212.08132902 82.90747157 -211.10986328 81.81396484 C-210.63758301 81.2907666 -210.16530273 80.76756836 -209.67871094 80.22851562 C-207.76522483 78.0665067 -205.99192563 75.80384529 -204.21533203 73.52880859 C-196.16176321 63.40810199 -190.01442895 56.63415493 -177.55126953 52.80224609 C-175.67893538 52.21295319 -173.80662212 51.62359395 -171.93432617 51.03417969 C-170.92757843 50.71987 -169.92083069 50.4055603 -168.88357544 50.08172607 C-146.113906 42.96375067 -123.47180221 35.4801234 -100.84944916 27.90996933 C-93.60356093 25.48542806 -86.35677465 23.06357096 -79.10986328 20.64208984 C-78.33605316 20.38348993 -77.56224304 20.12489002 -76.76498413 19.85845375 C-63.05742983 15.27851719 -49.33429558 10.74848816 -35.59033203 6.27880859 C-34.72014435 5.99535583 -33.84995667 5.71190308 -32.95339966 5.41986084 C-30.56732611 4.64319567 -28.18059407 3.86860438 -25.79345703 3.09521484 C-24.79429512 2.7705146 -24.79429512 2.7705146 -23.77494812 2.43925476 C-8.16429134 -2.59722044 -8.16429134 -2.59722044 0 0 Z " fill="#FC8C01" transform="translate(528.34033203125,194.28369140625)"/>
<path d="M0 0 C0.03314301 0.57914154 0.06628601 1.15828308 0.10043335 1.75497437 C0.44910929 7.82333249 0.80770559 13.89104848 1.171875 19.95849609 C1.30621844 22.21811403 1.43809493 24.47788013 1.56738281 26.73779297 C1.75445836 30.00010277 1.95061921 33.26176355 2.1484375 36.5234375 C2.20373627 37.52176605 2.25903503 38.5200946 2.31600952 39.54867554 C2.8203406 51.88709201 2.8203406 51.88709201 8.125 62.625 C8.66382813 63.27726563 9.20265625 63.92953125 9.7578125 64.6015625 C10.16773438 65.06304688 10.57765625 65.52453125 11 66 C16.25931753 65.42625627 20.48624313 62.84506948 25.0625 60.375 C25.91303955 59.92205566 26.7635791 59.46911133 27.63989258 59.00244141 C32.21345357 56.55214883 36.72798385 54.02859639 41.1875 51.375 C46.10546942 48.45537903 51.15122072 45.86821832 56.27905273 43.34472656 C65.50023398 38.79562499 74.58481636 33.98029666 83.68847656 29.20166016 C84.4512793 28.8051123 85.21408203 28.40856445 86 28 C86.69834961 27.61763184 87.39669922 27.23526367 88.11621094 26.84130859 C90 26 90 26 93 26 C92.56429969 34.00433168 91.95299974 41.95158999 90.9921875 49.91015625 C90.90197327 50.65977631 90.81175903 51.40939636 90.71881104 52.18173218 C90.34496758 55.26119053 89.96592974 58.33993063 89.57861328 61.41772461 C89.29236704 63.70602756 89.01661901 65.99541064 88.7421875 68.28515625 C88.65266815 68.972715 88.5631488 69.66027374 88.47091675 70.3686676 C87.47161321 78.83606123 89.71971894 83.89252223 94 91 C94.81637939 90.73548538 95.63275879 90.47097076 96.47387695 90.19844055 C104.23875163 87.68271151 112.00388694 85.16778885 119.76930237 82.65372944 C123.75975282 81.36178777 127.75010843 80.06955489 131.74023438 78.77661133 C135.60445103 77.52447955 139.46893365 76.27317164 143.33358765 75.02239037 C144.79415015 74.54953408 146.25462306 74.07640095 147.71499634 73.60296059 C151.78842809 72.28250121 155.86340528 70.96704643 159.94122314 69.66019058 C161.36749701 69.20282553 162.79337425 68.74422246 164.21893311 68.28463364 C166.42448632 67.57480003 168.63188692 66.87101774 170.83984375 66.16870117 C171.51447159 65.95064221 172.18909943 65.73258326 172.88417053 65.50791645 C175.71590313 64.61325625 178.00892952 64 181 64 C179.39162299 71.0621896 177.42228355 77.95692759 175.1953125 84.84375 C174.43179079 87.246767 173.67039121 89.65044952 172.90917969 92.05419922 C172.38538257 93.68788525 171.85179724 95.31846448 171.30859375 96.94580078 C168.00101717 106.89849047 165.43623852 114.87527248 170 125 C170.33 125.33 170.66 125.66 171 126 C173.73935667 125.72287933 176.43699626 125.377075 179.15991211 124.98022461 C180.01515976 124.8601152 180.87040741 124.7400058 181.75157166 124.61625671 C183.61532957 124.35395591 185.47873945 124.08917325 187.34184074 123.82224846 C190.28629756 123.40106297 193.23174556 122.98764437 196.17762756 122.57655334 C204.55552241 121.40623956 212.93164927 120.22363109 221.30639648 119.03100586 C226.42203181 118.30305758 231.53908033 117.58586292 236.65716743 116.87536812 C238.61266373 116.60163219 240.5675715 116.32365859 242.52186394 116.04145622 C245.25016842 115.6476833 247.98004482 115.2675006 250.71069336 114.89038086 C251.52479675 114.7694104 252.33890015 114.64843994 253.17767334 114.52380371 C255.10893143 114.26430897 257.0551262 114.12066993 259 114 C259.66 114.66 260.32 115.32 261 116 C260.28585937 117.08925781 259.57171875 118.17851563 258.8359375 119.30078125 C255.65461463 124.39291276 253.1513989 129.74852409 250.625 135.1875 C246.69327765 143.62813069 242.48051654 151.84040682 238 160 C163.67333584 161.27081977 92.70471377 141.72158347 32 98 C31.41686035 97.58266602 30.8337207 97.16533203 30.23291016 96.73535156 C14.50727372 85.42351299 0.12174973 72.29919518 -13.5625 58.625 C-14.44357422 57.75617187 -15.32464844 56.88734375 -16.23242188 55.9921875 C-24.62331876 47.61986824 -32.01236583 38.56346795 -39 29 C-30.40142123 22.22620001 -21.7792807 15.48365737 -13.13134766 8.77294922 C-12.40608887 8.20979004 -11.68083008 7.64663086 -10.93359375 7.06640625 C-10.25151855 6.53805176 -9.56944336 6.00969727 -8.86669922 5.46533203 C-7.25544098 4.2005175 -5.67353212 2.89847822 -4.09765625 1.58984375 C-2 0 -2 0 0 0 Z " fill="#F3DF01" transform="translate(108,512)"/>
<path d="M0 0 C1.68879014 0.01507559 3.3775933 0.0287589 5.06640625 0.04101562 C9.16986162 0.0712177 13.27147707 0.12997398 17.375 0.1875 C17.375 5.7975 17.375 11.4075 17.375 17.1875 C13.724375 17.22617187 13.724375 17.22617187 10 17.265625 C7.62016668 17.30413363 5.24054361 17.34926507 2.86083984 17.39501953 C1.21803981 17.42309331 -0.42489189 17.44437495 -2.06787109 17.45849609 C-4.44175973 17.48011621 -6.81408792 17.5268576 -9.1875 17.578125 C-9.91179199 17.57935364 -10.63608398 17.58058228 -11.38232422 17.58184814 C-18.27631121 17.77601423 -23.45718594 20.11603324 -28.4375 24.875 C-33.18157255 32.05888128 -34.11153913 39.15422252 -34 47.625 C-34.01160156 48.50220703 -34.02320312 49.37941406 -34.03515625 50.28320312 C-34.00169746 57.85046635 -32.81000026 67.33346745 -27.625 73.1875 C-19.71993298 78.66714428 -11.99103768 78.92533819 -2.6484375 78.89453125 C-1.22781275 78.90767356 0.19279342 78.92298548 1.6133728 78.94035339 C5.3188885 78.97992158 9.0239123 78.99037535 12.72961426 78.99438477 C16.52431903 79.00377002 20.31874113 79.04121662 24.11328125 79.07617188 C31.53390732 79.14046023 38.95408445 79.17133588 46.375 79.1875 C46.375 84.7975 46.375 90.4075 46.375 96.1875 C38.48117924 96.23291296 30.58746222 96.26950856 22.69354534 96.29112434 C19.02701095 96.30150542 15.36057155 96.31555913 11.6940918 96.33837891 C8.14736324 96.36031203 4.60072531 96.37211115 1.0539341 96.37725449 C-0.93936022 96.38267936 -2.93261873 96.39825852 -4.92585754 96.41409302 C-16.37322662 96.41548707 -25.92935007 95.59882226 -35.625 89.1875 C-36.9553125 88.32125 -36.9553125 88.32125 -38.3125 87.4375 C-47.22145484 78.76932773 -51.51863745 66.9874647 -51.92578125 54.734375 C-51.94509994 52.80217596 -51.94857177 50.86976389 -51.9375 48.9375 C-51.93258545 47.92478027 -51.9276709 46.91206055 -51.92260742 45.86865234 C-51.70465962 31.91328691 -48.81292531 19.37542531 -38.625 9.1875 C-26.30653109 0.21261551 -14.66792906 -0.22869197 0 0 Z " fill="#FEFCF9" transform="translate(129.625,287.8125)"/>
<path d="M0 0 C5.94 0 11.88 0 18 0 C20.67391997 5.77566714 23.07098089 11.63205545 25.375 17.5625 C25.64256104 18.25069824 25.91012207 18.93889648 26.18579102 19.64794922 C28.36365126 25.28588414 30.48342587 30.9454517 32.6015625 36.60601807 C34.19358901 40.85803501 35.79635028 45.1057756 37.40994263 49.34965515 C38.4692921 52.13674884 39.52460079 54.92536465 40.57958984 57.71411133 C41.1189273 59.1369491 41.65999912 60.55913044 42.20263672 61.98071289 C43.00166899 64.075275 43.79441194 66.17212289 44.5859375 68.26953125 C45.0504834 69.49260986 45.5150293 70.71568848 45.99365234 71.97583008 C47 75 47 75 47 78 C49.64 78 52.28 78 55 78 C55.17885742 77.45110107 55.35771484 76.90220215 55.54199219 76.33666992 C57.31731043 70.94238956 59.21908029 65.61539603 61.25 60.3125 C61.57645508 59.45744873 61.90291016 58.60239746 62.23925781 57.72143555 C69.64963181 38.41416801 77.29938915 19.19318916 85 0 C90.94 0 96.88 0 103 0 C102.0706344 4.64682798 100.66236575 8.74620226 98.9296875 13.12109375 C98.45987709 14.321931 98.45987709 14.321931 97.98057556 15.54702759 C96.94962851 18.17887359 95.91261222 20.80827529 94.875 23.4375 C94.15560538 25.26675223 93.43645149 27.09609916 92.7175293 28.92553711 C91.60446963 31.75692344 90.49075772 34.58804484 89.37510681 37.41841125 C87.17014464 43.01357518 84.98067985 48.6143987 82.80841064 54.22233582 C81.46814613 57.68063955 80.12144976 61.13641827 78.77374268 64.59182739 C78.13835565 66.22495643 77.50561687 67.85911854 76.87567139 69.49435425 C68.80413507 90.4289407 68.80413507 90.4289407 62.5625 94.5 C55.9979166 97.31339289 47.60784889 97.28719928 40.9453125 94.91015625 C33.7922156 90.27107882 30.75084074 83.95122869 27.96875 76.1171875 C27.43838638 74.6824836 27.43838638 74.6824836 26.89730835 73.21879578 C25.7510438 70.10907501 24.6255451 66.99227263 23.5 63.875 C22.71136774 61.72460277 21.92115157 59.57478579 21.12939453 57.42553711 C19.5250037 53.0677805 17.92705541 48.70774111 16.33300781 44.34619141 C12.92801235 35.05430969 9.40058928 25.80912522 5.875 16.5625 C4.72441499 13.54377973 3.57612284 10.52420458 2.4296875 7.50390625 C2.18060638 6.85209885 1.93152527 6.20029144 1.67489624 5.5287323 C0 1.11338916 0 1.11338916 0 0 Z " fill="#FEFDFB" transform="translate(223,288)"/>
<path d="M0 0 C4.496748 4.59573302 6.63742063 9.27850694 8.875 15.25 C9.21523193 16.13042969 9.55546387 17.01085937 9.90600586 17.91796875 C10.60676735 19.7332747 11.30297836 21.55034381 11.99462891 23.36914062 C12.91981638 25.79017517 13.86591175 28.20129464 14.82421875 30.609375 C18.20413928 39.12658618 21.32354193 47.70607505 24.29394531 56.37426758 C26.72445586 63.39233269 29.45089011 70.27134025 32.33569336 77.11474609 C34.50411527 82.35999029 35.90542102 87.42709279 37 93 C31.06 93 25.12 93 19 93 C18.23333008 90.92138672 17.46666016 88.84277344 16.67675781 86.70117188 C14.13446851 79.81052793 11.58711632 72.92176363 9.03731155 66.0338974 C7.49250837 61.86040039 5.94938218 57.6862997 4.41015625 53.51074219 C2.92286167 49.4762561 1.43107372 45.44345738 -0.06375885 41.41175842 C-0.63144359 39.87828535 -1.19754496 38.34422511 -1.76198578 36.80955505 C-4.50433654 29.35628963 -7.21143641 22.00164916 -11 15 C-12.65 15 -14.3 15 -16 15 C-18.68808808 20.25879239 -21.14958091 25.53092762 -23.375 31 C-23.64054687 31.64066406 -23.90609375 32.28132813 -24.1796875 32.94140625 C-26.41561952 38.39666631 -28.47716174 43.91531696 -30.53797913 49.43836975 C-33.42393727 57.16023077 -36.39404244 64.84896776 -39.37915039 72.53295898 C-40.33151158 74.98647857 -41.27999578 77.44147757 -42.22851562 79.89648438 C-42.8357022 81.46102884 -43.44311501 83.02548553 -44.05078125 84.58984375 C-44.33303055 85.32194565 -44.61527985 86.05404755 -44.90608215 86.80833435 C-46.88571046 91.88571046 -46.88571046 91.88571046 -48 93 C-49.34267413 93.08631874 -50.68974322 93.10706473 -52.03515625 93.09765625 C-52.84404297 93.09443359 -53.65292969 93.09121094 -54.48632812 93.08789062 C-55.33646484 93.07951172 -56.18660156 93.07113281 -57.0625 93.0625 C-57.91650391 93.05798828 -58.77050781 93.05347656 -59.65039062 93.04882812 C-61.76695663 93.03700373 -63.88348685 93.01906769 -66 93 C-61.05461956 79.29471359 -55.79932062 65.72259396 -50.43511963 52.17626953 C-48.64329017 47.64514819 -46.87171491 43.10641042 -45.1078186 38.56434631 C-43.76317715 35.10411153 -42.4127679 31.64614125 -41.06176758 28.18838501 C-40.40011935 26.49108271 -39.7409042 24.79282975 -39.08422852 23.09359741 C-38.15783125 20.69777601 -37.22245189 18.30563747 -36.28515625 15.9140625 C-36.01260513 15.20269638 -35.74005402 14.49133026 -35.45924377 13.75840759 C-32.72067303 6.82179514 -29.67798464 1.75636636 -23 -2 C-15.90622052 -4.25033761 -6.34079152 -4.25394874 0 0 Z " fill="#FEFDFB" transform="translate(440,291)"/>
<path d="M0 0 C23.43 0 46.86 0 71 0 C71 5.28 71 10.56 71 16 C62.09 16 53.18 16 44 16 C44 42.4 44 68.8 44 96 C38.39 96 32.78 96 27 96 C27 69.93 27 43.86 27 17 C18.09 17 9.18 17 0 17 C0 11.39 0 5.78 0 0 Z " fill="#FEFBF8" transform="translate(525,288)"/>
<path d="M0 0 C9.41911832 7.81586414 17.38293744 16.43608439 25 26 C25.95947755 27.17046913 26.92048749 28.33968334 27.8828125 29.5078125 C47.31133677 53.21480915 82 98.37925914 82 130 C74.29885427 129.30961951 66.97545698 127.3557448 59.5 125.4375 C58.18761161 125.1043777 56.87511237 124.77169179 55.5625 124.43945312 C52.37388605 123.63057679 49.18646052 122.81731057 46 122 C46.0311792 120.82904785 46.0623584 119.6580957 46.09448242 118.45166016 C46.0834225 107.75633016 44.43866715 97.04679567 43.15319538 86.43970299 C42.67917674 82.52579469 42.22654116 78.61210254 41.82592773 74.68994141 C39.70537421 50.33913279 39.70537421 50.33913279 25.50076294 31.29644775 C23.39432734 29.47678415 21.72845818 27.39263627 20.01953125 25.203125 C19.48021973 24.53998291 18.9409082 23.87684082 18.38525391 23.19360352 C17.86624512 22.55221436 17.34723633 21.9108252 16.8125 21.25 C11.96813986 15.30043934 6.9783217 9.56720372 1.6953125 4.00390625 C0 2 0 2 0 0 Z " fill="#F58201" transform="translate(572,97)"/>
<path d="M0 0 C1.11260047 3.3378014 0.97289978 3.75233768 -0.27246094 6.84350586 C-0.57775726 7.61472275 -0.88305359 8.38593964 -1.19760132 9.18052673 C-1.53973663 10.01685135 -1.88187195 10.85317596 -2.234375 11.71484375 C-2.75833359 13.02800316 -2.75833359 13.02800316 -3.2928772 14.36769104 C-4.43637355 17.22794504 -5.59293465 20.08271125 -6.75 22.9375 C-7.53554881 24.89287553 -8.32021433 26.84860614 -9.10400391 28.8046875 C-10.28244594 31.7451644 -11.4616317 34.68531831 -12.64456177 37.62399292 C-14.96451577 43.39097574 -17.24658232 49.170311 -19.4765625 54.97265625 C-19.73058838 55.63128159 -19.98461426 56.28990692 -20.24633789 56.9684906 C-21.40100856 59.96295274 -22.54917805 62.95960049 -23.68652344 65.96069336 C-24.08645508 66.99460205 -24.48638672 68.02851074 -24.8984375 69.09375 C-25.23536621 69.97740234 -25.57229492 70.86105469 -25.91943359 71.77148438 C-27.03581372 74.07386073 -27.9526919 75.46722869 -30 77 C-33.1875 76.6875 -33.1875 76.6875 -36 76 C-37.21105622 72.96719551 -38.38945361 69.92268623 -39.5625 66.875 C-39.90474609 66.0190625 -40.24699219 65.163125 -40.59960938 64.28125 C-43.76169396 55.97678544 -43.76169396 55.97678544 -42 51 C-40.43359375 48.796875 -40.43359375 48.796875 -38.4375 46.75 C-35.59886262 43.72579799 -32.88393865 40.69283191 -30.3125 37.4375 C-26.81043285 33.00841508 -23.25688287 28.62478476 -19.6875 24.25 C-14.86469744 18.33334417 -10.1092951 12.36896311 -5.42651367 6.34082031 C-3.69548233 4.11892901 -1.99399321 1.99399321 0 0 Z " fill="#FD7B03" transform="translate(306,290)"/>
<path d="M0 0 C0 1.98 0 3.96 0 6 C-0.495 4.02 -0.495 4.02 -1 2 C-12.50865736 7.9957419 -24.0128795 13.99909766 -35.48901367 20.05688477 C-40.27180296 22.57675207 -45.06574719 25.07446784 -49.8671875 27.55859375 C-50.46587646 27.86843201 -51.06456543 28.17827026 -51.68139648 28.49749756 C-54.64494975 30.03081166 -57.60943713 31.56226004 -60.57519531 33.09130859 C-61.66670898 33.65543457 -62.75822266 34.21956055 -63.8828125 34.80078125 C-64.92598633 35.33912598 -65.96916016 35.8774707 -67.04394531 36.43212891 C-70.49188616 38.26089304 -73.85467232 40.21424957 -77.19091797 42.23901367 C-79 43 -79 43 -82 42 C-79.38232411 40.25488274 -76.82038683 38.82493851 -74.02734375 37.390625 C-73.04443359 36.88273438 -72.06152344 36.37484375 -71.04882812 35.8515625 C-69.0025834 34.79825385 -66.9557251 33.74613616 -64.90820312 32.6953125 C-59.22896404 29.75790229 -53.70819656 26.66846596 -48.24975586 23.33984375 C-45.17328057 21.50764664 -42.03385532 19.94098627 -38.8125 18.375 C-30.71037982 14.3962444 -22.71331429 10.22515483 -14.71801758 6.03662109 C-13.77466553 5.54242676 -12.83131348 5.04823242 -11.859375 4.5390625 C-10.59818848 3.87704834 -10.59818848 3.87704834 -9.31152344 3.20166016 C-8.16731934 2.60683838 -8.16731934 2.60683838 -7 2 C-6.30165039 1.61763184 -5.60330078 1.23526367 -4.88378906 0.84130859 C-3 0 -3 0 0 0 Z " fill="#F6CC01" transform="translate(201,538)"/>
<path d="M0 0 C0 2.64 0 5.28 0 8 C-0.66 6.68 -1.32 5.36 -2 4 C-3.79223558 5.37425838 -5.58373084 6.7494822 -7.375 8.125 C-7.94283203 8.56078369 -8.51066406 8.99656738 -9.09570312 9.44555664 C-12.64231272 12.17208359 -16.17470487 14.91574553 -19.6953125 17.67578125 C-20.49146973 18.29888184 -21.28762695 18.92198242 -22.10791016 19.56396484 C-23.67972 20.79503943 -25.24976451 22.02837192 -26.81787109 23.26416016 C-30.43108426 26.09144167 -33.97367953 28.77114403 -38 31 C-38 30.01 -38 29.02 -38 28 C-35.7890625 26.01171875 -35.7890625 26.01171875 -32.625 23.6875 C-31.43938758 22.8043466 -30.25453609 21.92017106 -29.0703125 21.03515625 C-28.42223633 20.55449707 -27.77416016 20.07383789 -27.10644531 19.57861328 C-23.196016 16.64805742 -19.35253805 13.63098626 -15.5 10.625 C-14.73510254 10.03033936 -13.97020508 9.43567871 -13.18212891 8.82299805 C-12.45171387 8.25492432 -11.72129883 7.68685059 -10.96875 7.1015625 C-9.93621094 6.29960449 -9.93621094 6.29960449 -8.8828125 5.48144531 C-7.26561648 4.20899388 -5.67667055 2.9007828 -4.09375 1.5859375 C-2 0 -2 0 0 0 Z " fill="#F5CB01" transform="translate(108,512)"/>
<path d="M0 0 C9.41086534 7.80901592 17.40914534 16.42071878 25 26 C25.76699219 26.87140625 26.53398438 27.7428125 27.32421875 28.640625 C27.87722656 29.41921875 28.43023438 30.1978125 29 31 C28.67 31.99 28.34 32.98 28 34 C22.44896951 28.01671713 17.12353751 21.99403157 12.09375 15.5625 C8.8766436 11.6251459 5.39393903 7.94779078 1.90625 4.25 C0 2 0 2 0 0 Z " fill="#F05901" transform="translate(572,97)"/>
<path d="M0 0 C-3.17287577 2.11525051 -3.53292647 2.19919992 -7.0625 2 C-17.01759936 1.79564312 -27.18952618 3.16420067 -36.9375 5.125 C-42.30781406 6.19239162 -47.54319164 6.18998559 -53 6 C-53 5.67 -53 5.34 -53 5 C-45.93653268 3.94986614 -38.87054934 2.91818115 -31.80249023 1.89941406 C-29.39724461 1.55049344 -26.99261213 1.1973191 -24.58862305 0.83984375 C-21.13742133 0.32739474 -17.68431949 -0.169826 -14.23046875 -0.6640625 C-13.15226364 -0.82750153 -12.07405853 -0.99094055 -10.96318054 -1.15933228 C-9.96236954 -1.2996286 -8.96155853 -1.43992493 -7.93041992 -1.58447266 C-6.60804573 -1.77766586 -6.60804573 -1.77766586 -5.25895691 -1.97476196 C-3 -2 -3 -2 0 0 Z " fill="#F7CD01" transform="translate(369,628)"/>
<path d="M0 0 C0.99 2.31 1.98 4.62 3 7 C-7.55808656 3.92482916 -7.55808656 3.92482916 -12 2 C-12 1.67 -12 1.34 -12 1 C-7.9472484 0.01751476 -4.16138263 -0.08159574 0 0 Z " fill="#F1CE01" transform="translate(223,647)"/>
<path d="M0 0 C4.99923125 1.32332592 8.39786925 4.60768155 11 9 C10.67 9.99 10.34 10.98 10 12 C8.33032474 10.19019128 6.66417692 8.3773524 5 6.5625 C4.28457031 5.7880957 4.28457031 5.7880957 3.5546875 4.99804688 C0 1.11328125 0 1.11328125 0 0 Z " fill="#F86A01" transform="translate(590,119)"/>
<path d="M0 0 C-0.33 1.65 -0.66 3.3 -1 5 C-1.66 4.34 -2.32 3.68 -3 3 C-6.08347826 2.83318891 -6.08347826 2.83318891 -9 3 C-5.73209435 0.82139623 -3.91954654 0 0 0 Z " fill="#F7CB01" transform="translate(289,576)"/>
</svg>
