<?xml version="1.0" encoding="utf-8"?>
<!-- Generator: Adobe Illustrator 19.2.1, SVG Export Plug-In . SVG Version: 6.00 Build 0)  -->
<svg version="1.1" id="layer" xmlns="http://www.w3.org/2000/svg" xmlns:xlink="http://www.w3.org/1999/xlink" x="0px" y="0px"
	 viewBox="0 0 652 652" style="enable-background:new 0 0 652 652;" xml:space="preserve">
<style type="text/css">
	.st0{fill-rule:evenodd;clip-rule:evenodd;fill:#6706CE;}
	.st1{fill-rule:evenodd;clip-rule:evenodd;fill:#FFFFFF;}
</style>
<path class="st0" d="M155.2,321c0,36.9-29.9,66.8-66.8,66.8c-36.9,0-66.8-29.9-66.8-66.8s29.9-66.8,66.8-66.8
	C125.3,254.2,155.2,284.1,155.2,321 M200.1,309.9h-17v48h17v-19.4c0-8.2,2.3-14.5,11.8-14.5c2.6,0,4.9,0.3,7.2,1.6v-16.4h-3.3
	c-6.6,0-12.2,2.6-15.5,8.5h-0.2V309.9z M280.6,333.9c0-16.4-13.5-25.6-28.9-25.6c-15.4,0-28.9,9.3-28.9,25.6
	c0,16.4,13.6,25.5,28.9,25.5C267.1,359.5,280.6,350.2,280.6,333.9 M240.7,333.9c0-5.9,4-10.8,10.9-10.8c6.9,0,10.9,5,10.9,10.8
	c0,6.1-4,10.8-10.9,10.8C244.7,344.7,240.7,340,240.7,333.9 M285.8,357.9h17v-5.3h0.2c3.1,4.8,8.9,6.9,14.5,6.9
	c14.3,0,24.2-11.8,24.2-25.6c0-13.7-9.8-25.5-24-25.5c-5.5,0-11.2,2.1-14.9,6.3v-34.3h-17V357.9z M302.2,333.9
	c0-5.9,4-10.8,10.9-10.8c6.9,0,10.9,5,10.9,10.8c0,6.1-4,10.8-10.9,10.8C306.2,344.7,302.2,340,302.2,333.9 M404.2,333.9
	c0-16.4-13.5-25.6-28.9-25.6s-28.9,9.3-28.9,25.6c0,16.4,13.6,25.5,28.9,25.5C390.8,359.5,404.2,350.2,404.2,333.9 M364.4,333.9
	c0-5.9,4-10.8,10.9-10.8c6.9,0,10.9,5,10.9,10.8c0,6.1-4,10.8-10.9,10.8C368.4,344.7,364.4,340,364.4,333.9 M430.8,323.9h11.9v-14
	h-11.9v-7.8c0-5.4,1.5-8,5.9-8c2.2,0,4,0.7,6,1.6V281c-2.3-1.2-4.7-1.7-7.3-1.7c-6.5,0-12.5,2.7-16.7,7.7
	c-4.7,5.3-4.9,10.2-4.9,16.8v6.1h-6v14h6v33.9h17V323.9z M465.8,280.3h-17v77.6h17V280.3z M529,333.9c0-16.4-13.5-25.6-28.9-25.6
	s-28.9,9.3-28.9,25.6c0,16.4,13.6,25.5,28.9,25.5C515.5,359.5,529,350.2,529,333.9 M489.1,333.9c0-5.9,4-10.8,10.9-10.8
	c6.9,0,10.9,5,10.9,10.8c0,6.1-4,10.8-10.9,10.8C493.1,344.7,489.1,340,489.1,333.9 M544.6,309.9h-18.9l25.1,48h11l11.9-26.3
	l11.9,26.3h11l25.1-48h-18.8l-12.1,26l-12.1-26h-10.1l-12.1,26L544.6,309.9z"/>
<path class="st1" d="M83.8,313.8c-9.8,7.6-22.2,15.3-23.5,27.6c-0.5,4.9,2,12.8,4.9,18c0.2,0.4,0.3,0.8,0.3,1.3
	c-0.1,1.3-1.1,2.3-2.4,2.3c-0.9,0-1.7-0.5-2.5-1c-3.6-2.2-6.9-5-9.5-8.2c-0.8-1-1.5-2-2.1-3c-0.6-1-1.1-2.1-1.6-3.2
	c-0.5-1.1-0.8-2.2-1.1-3.3c-0.3-1.1-0.5-2.2-0.7-3.4c-0.1-1.1-0.2-2.3-0.2-3.4c0-1.2,0.1-2.3,0.3-3.5c0.2-1.2,0.4-2.3,0.7-3.5
	c3.7-13.9,18.8-25.4,30.6-26.9C87.3,302.4,90,309,83.8,313.8 M133,335.2c-0.6-1.5-2.3-2.4-3.9-2.3c-1.1,0.1-2,0.7-2.8,1.5
	c-1.2,1.1-2.1,2.6-3,4c-1.1,1.6-2.2,3.1-3.4,4.6c-2.4,2.9-5.2,5.5-8.4,7.5c-5.5,3.3-10.5,4.9-16.5,1.9c-4.4-3.5-2.9-7.7,0.7-11.1
	c6.3-5.8,13.8-9.9,19.7-16.1c5.6-5.9,10.5-13.2,11.6-21.3c0.3-2.3,0.3-4.6,0-6.9c-1.7-10.8-11.5-17.6-21.3-20.5
	c-12.5-3.7-26.3-2.6-38.1,2.9c-4.9,2.3-9.4,5.3-13.3,8.9c-1.7,1.6-3.4,3.3-4.9,5.2c-2.5,3-5.3,6.4-5.8,10.4
	c-0.3,2.4,1.9,4.1,4.2,3.8c1.6-0.2,2.9-1.1,4.1-2.2c1.3-1.2,2.5-2.5,3.8-3.7c3.9-3.7,8-7.2,12.9-9.5c6.3-2.9,13.3-4.4,20.2-3.6
	c7,0.7,15.5,3.9,18.1,11.1c2.7,7.6-3.1,15-8.3,19.8c-8.5,7.9-24.7,15.9-22.9,29.9c1,7.5,6.3,13.8,13.2,16.7
	c11.9,4.9,24.9-1.1,33.1-10.3c2.8-2.9,6.8-8,10.4-15.5C133.1,338.8,133.6,336.8,133,335.2"/>
</svg>
